<svg width="12" height="12" viewBox="0 0 12 12" fill="none" xmlns="http://www.w3.org/2000/svg">
<path fill-rule="evenodd" clip-rule="evenodd" d="M7.37461 2.24245L7 0H5L4.6264 2.24209C4.18821 2.4023 3.78589 2.63696 3.43474 2.93077L1.30385 2.13397L0.303848 3.86603L2.05906 5.31134C2.02024 5.53507 2 5.76517 2 6C2 6.23483 2.02024 6.46493 2.05906 6.68866L0.303848 8.13398L1.30385 9.86602L3.43474 9.06923C3.78589 9.36304 4.18821 9.5977 4.6264 9.75791L5 12H7L7.37461 9.75755C7.81265 9.59726 8.21483 9.36255 8.56585 9.06875L10.6962 9.86602L11.6962 8.13398L9.94112 6.68766C9.97983 6.46424 10 6.23448 10 6C10 5.76552 9.97983 5.53576 9.94112 5.31234L11.6962 3.86603L10.6962 2.13397L8.56585 2.93125C8.21483 2.63745 7.81265 2.40274 7.37461 2.24245ZM4 6C4 4.89543 4.89543 4 6 4C7.10457 4 8 4.89543 8 6C8 7.10457 7.10457 8 6 8C4.89543 8 4 7.10457 4 6Z" fill="#4C545F"/>
</svg>
