<svg width="44" height="44" viewBox="0 0 44 44" fill="none" xmlns="http://www.w3.org/2000/svg">
<circle cx="22" cy="22" r="22" fill="#831843"/>
<path d="M18 18V20.6667H26V18H18Z" fill="white"/>
<path d="M18 26V23.3333H23.3333V26H18Z" fill="white"/>
<path fill-rule="evenodd" clip-rule="evenodd" d="M19.3333 10H24.6666V11.3333H28.6666C30.1394 11.3333 31.3333 12.5272 31.3333 14V31.3333C31.3333 32.8061 30.1394 34 28.6666 34H15.3333C13.8605 34 12.6666 32.8061 12.6666 31.3333V14C12.6666 12.5272 13.8605 11.3333 15.3333 11.3333H19.3333V10ZM19.3333 14H15.3333L15.3333 31.3333H28.6666V14H24.6666V15.3333H19.3333V14Z" fill="white"/>
</svg>
