<svg width="44" height="44" viewBox="0 0 44 44" fill="none" xmlns="http://www.w3.org/2000/svg">
<circle cx="22" cy="22" r="22" fill="#7C2D12"/>
<path fill-rule="evenodd" clip-rule="evenodd" d="M35 22C32.1111 16.2222 27.7778 13.3333 22 13.3333C16.2222 13.3333 11.8889 16.2222 9 22C11.8889 27.7778 16.2222 30.6667 22 30.6667C27.7778 30.6667 32.1111 27.7778 35 22ZM27.6065 17.7092L27.593 17.6586C29.086 18.5527 30.3782 19.8739 31.4955 21.6487L31.7096 22L31.4955 22.3513C29.1676 26.0492 26.0802 27.7778 22 27.7778L21.5814 27.7716C17.7078 27.6562 14.7522 25.9217 12.5045 22.3513L12.289 22L12.5045 21.6487C13.6213 19.8747 14.9129 18.5539 16.4057 17.6612C16.2859 18.1245 16.2222 18.6104 16.2222 19.1111C16.2222 22.3021 18.809 24.8889 22 24.8889C25.191 24.8889 27.7778 22.3021 27.7778 19.1111C27.7778 18.6276 27.7184 18.158 27.6065 17.7092Z" fill="white"/>
</svg>
