<svg width="24" height="24" viewBox="0 0 24 24" fill="none" xmlns="http://www.w3.org/2000/svg">
<circle cx="12" cy="12" r="12" fill="#47392E"/>
<path fill-rule="evenodd" clip-rule="evenodd" d="M18.8571 12C17.3333 8.95238 15.0476 7.42857 12 7.42857C8.95238 7.42857 6.66666 8.95238 5.14285 12C6.66666 15.0476 8.95238 16.5714 12 16.5714C15.0476 16.5714 17.3333 15.0476 18.8571 12ZM14.9573 9.73671L14.9502 9.71002C15.7377 10.1817 16.4193 10.8785 17.0086 11.8147L17.1215 12L17.0086 12.1853C15.7807 14.1359 14.1522 15.0476 12 15.0476L11.7792 15.0444C9.73599 14.9835 8.17696 14.0686 6.99136 12.1853L6.87771 12L6.99136 11.8147C7.58046 10.8789 8.26176 10.1822 9.04913 9.71141C8.98598 9.9558 8.95238 10.2121 8.95238 10.4762C8.95238 12.1593 10.3168 13.5238 12 13.5238C13.6831 13.5238 15.0476 12.1593 15.0476 10.4762C15.0476 10.2212 15.0163 9.97346 14.9573 9.73671Z" fill="white"/>
</svg>
