<svg width="32" height="32" viewBox="0 0 32 32" fill="none" xmlns="http://www.w3.org/2000/svg">
<rect width="32" height="32" rx="16" fill="#D2F5E7"/>
<path d="M5.35547 21.2077V20.1481L6.44951 19.9416V12.4623L5.35547 12.2558V11.1893H6.44951H10.055C10.8027 11.1893 11.4426 11.3201 11.9747 11.5815C12.5114 11.843 12.922 12.2077 13.2064 12.6756C13.4908 13.1389 13.633 13.6825 13.633 14.3063C13.633 14.9302 13.4908 15.476 13.2064 15.9439C12.922 16.4072 12.5114 16.7673 11.9747 17.0242C11.4426 17.2811 10.8027 17.4095 10.055 17.4095H8.18345V19.9416L9.27749 20.1481V21.2077H5.35547ZM8.18345 16.0678H10.055C10.6697 16.0678 11.1307 15.9026 11.438 15.5724C11.7454 15.2421 11.8991 14.8247 11.8991 14.3201C11.8991 13.8063 11.7454 13.3797 11.438 13.0403C11.1307 12.7008 10.6697 12.5311 10.055 12.5311H8.18345V16.0678Z" fill="#2F5A59"/>
<path d="M14.3968 21.2077V20.1481L15.4908 19.9416V12.4623L14.3968 12.2558V11.1893H18.3119V12.2558L17.2248 12.4623V19.9416L18.3119 20.1481V21.2077H14.3968ZM15.3119 10.3705L16.6399 8.49896H18.5321L18.5459 8.54025L16.6674 10.3705H15.367H15.3119Z" fill="#2F5A59"/>
<path d="M23.6101 21.3522C22.9449 21.3522 22.344 21.2283 21.8073 20.9806C21.2706 20.7283 20.8096 20.3751 20.4243 19.921C20.0436 19.4669 19.75 18.9302 19.5436 18.3109C19.3371 17.6916 19.2339 17.0127 19.2339 16.2742V16.1228C19.2339 15.3889 19.3371 14.7123 19.5436 14.093C19.75 13.4737 20.0436 12.937 20.4243 12.4829C20.8096 12.0242 21.2706 11.671 21.8073 11.4233C22.344 11.171 22.9427 11.0448 23.6032 11.0448C24.2867 11.0448 24.8991 11.171 25.4404 11.4233C25.9816 11.671 26.4427 12.0242 26.8234 12.4829C27.2041 12.937 27.4954 13.4737 27.6972 14.093C27.8991 14.7123 28 15.3889 28 16.1228V16.2742C28 17.0127 27.8991 17.6916 27.6972 18.3109C27.4954 18.9302 27.2041 19.4669 26.8234 19.921C26.4427 20.3751 25.9816 20.7283 25.4404 20.9806C24.8991 21.2283 24.289 21.3522 23.6101 21.3522ZM23.6101 19.976C24.2156 19.976 24.7133 19.8224 25.1032 19.515C25.4977 19.2031 25.789 18.7696 25.9771 18.2146C26.1697 17.6595 26.2661 17.0127 26.2661 16.2742V16.1091C26.2661 15.3797 26.1697 14.7398 25.9771 14.1893C25.7844 13.6389 25.4908 13.2077 25.0963 12.8958C24.7064 12.5838 24.2087 12.4279 23.6032 12.4279C23.0252 12.4279 22.5413 12.5838 22.1514 12.8958C21.7615 13.2077 21.4679 13.6389 21.2706 14.1893C21.0734 14.7398 20.9748 15.3797 20.9748 16.1091V16.2742C20.9748 17.0082 21.0734 17.6549 21.2706 18.2146C21.4679 18.7696 21.7615 19.2031 22.1514 19.515C22.5459 19.8224 23.0321 19.976 23.6101 19.976Z" fill="#2F5A59"/>
</svg>
