<svg width="42" height="42" viewBox="0 0 42 42" fill="none" xmlns="http://www.w3.org/2000/svg">
<rect width="42" height="42" rx="21" fill="#D2F5E7"/>
<path d="M7.02905 27.8351V26.4444L8.46498 26.1734V16.3568L7.02905 16.0858V14.686H8.46498H13.1972C14.1786 14.686 15.0185 14.8576 15.7169 15.2008C16.4213 15.544 16.9601 16.0226 17.3334 16.6367C17.7067 17.2448 17.8933 17.9582 17.8933 18.7771C17.8933 19.5959 17.7067 20.3123 17.3334 20.9264C16.9601 21.5345 16.4213 22.0071 15.7169 22.3443C15.0185 22.6814 14.1786 22.85 13.1972 22.85H10.7408V26.1734L12.1767 26.4444V27.8351H7.02905ZM10.7408 21.089H13.1972C14.004 21.089 14.6091 20.8722 15.0124 20.4388C15.4158 20.0053 15.6175 19.4574 15.6175 18.7951C15.6175 18.1208 15.4158 17.5609 15.0124 17.1154C14.6091 16.6698 14.004 16.4471 13.1972 16.4471H10.7408V21.089Z" fill="#2F5A59"/>
<path d="M18.8958 27.8351V26.4444L20.3317 26.1734V16.3568L18.8958 16.0858V14.686H24.0344V16.0858L22.6075 16.3568V26.1734L24.0344 26.4444V27.8351H18.8958ZM20.0969 13.6113L21.8399 11.1549H24.3234L24.3414 11.2091L21.876 13.6113H20.1691H20.0969Z" fill="#2F5A59"/>
<path d="M30.9882 28.0248C30.1152 28.0248 29.3265 27.8622 28.6221 27.5371C27.9177 27.206 27.3126 26.7424 26.8069 26.1463C26.3072 25.5503 25.9219 24.8459 25.6509 24.0331C25.38 23.2203 25.2445 22.3292 25.2445 21.3599V21.1612C25.2445 20.1979 25.38 19.3099 25.6509 18.4971C25.9219 17.6843 26.3072 16.9799 26.8069 16.3838C27.3126 15.7818 27.9177 15.3182 28.6221 14.9931C29.3265 14.6619 30.1122 14.4964 30.9792 14.4964C31.8763 14.4964 32.68 14.6619 33.3905 14.9931C34.1009 15.3182 34.706 15.7818 35.2057 16.3838C35.7054 16.9799 36.0877 17.6843 36.3526 18.4971C36.6175 19.3099 36.75 20.1979 36.75 21.1612V21.3599C36.75 22.3292 36.6175 23.2203 36.3526 24.0331C36.0877 24.8459 35.7054 25.5503 35.2057 26.1463C34.706 26.7424 34.1009 27.206 33.3905 27.5371C32.68 27.8622 31.8793 28.0248 30.9882 28.0248ZM30.9882 26.2186C31.783 26.2186 32.4362 26.0169 32.948 25.6135C33.4657 25.2041 33.848 24.6351 34.0949 23.9066C34.3478 23.1781 34.4742 22.3292 34.4742 21.3599V21.1432C34.4742 20.1859 34.3478 19.346 34.0949 18.6235C33.842 17.901 33.4567 17.3351 32.9389 16.9257C32.4272 16.5163 31.7739 16.3116 30.9792 16.3116C30.2206 16.3116 29.5854 16.5163 29.0737 16.9257C28.5619 17.3351 28.1766 17.901 27.9177 18.6235C27.6588 19.346 27.5294 20.1859 27.5294 21.1432V21.3599C27.5294 22.3232 27.6588 23.1721 27.9177 23.9066C28.1766 24.6351 28.5619 25.2041 29.0737 25.6135C29.5914 26.0169 30.2296 26.2186 30.9882 26.2186Z" fill="#2F5A59"/>
</svg>
