<svg width="191" height="150" viewBox="0 0 191 150" fill="none" xmlns="http://www.w3.org/2000/svg">
<path d="M4.07848 132.257C11.2131 132.576 18.3477 132.736 25.4823 132.721C25.7579 132.721 25.7579 132.286 25.4823 132.286C18.3477 132.3 11.2131 132.141 4.07848 131.822C3.80296 131.807 3.80296 132.242 4.07848 132.257Z" fill="#E8E8E8"/>
<path d="M25.9174 121.468C27.034 125.659 28.0781 129.879 29.0352 134.113C29.0932 134.389 29.5137 134.273 29.4557 133.997C28.4841 129.763 27.4545 125.543 26.3379 121.352C26.2654 121.091 25.8449 121.207 25.9174 121.468Z" fill="#E8E8E8"/>
<path d="M45.3491 121.787C44.943 125.775 44.537 129.777 44.1455 133.765C44.1165 134.041 44.5515 134.041 44.5805 133.765C44.9865 129.777 45.3926 125.775 45.7841 121.787C45.7986 121.512 45.3636 121.512 45.3491 121.787Z" fill="#E8E8E8"/>
<path d="M29.1512 134.505C31.6889 134.954 34.2556 135.157 36.8368 135.085C39.3021 135.012 41.9993 134.824 44.3485 134.041C44.6095 133.954 44.4935 133.533 44.2325 133.62C41.8978 134.389 39.2731 134.577 36.8368 134.65C34.2991 134.722 31.7614 134.519 29.2672 134.084C28.9917 134.026 28.8756 134.447 29.1512 134.505Z" fill="#E8E8E8"/>
<path d="M26.0914 121.613C29.0932 122.454 32.3559 122.469 35.4592 122.483C38.7945 122.512 42.1298 122.324 45.4361 121.947C45.7116 121.918 45.7116 121.483 45.4361 121.512C42.2168 121.889 38.983 122.063 35.7492 122.048C32.6025 122.034 29.2672 122.034 26.2074 121.193C25.9319 121.12 25.8159 121.541 26.0914 121.613Z" fill="#E8E8E8"/>
<path d="M24.8443 120.119C24.8733 120.395 24.9023 120.685 24.9313 120.96C24.9458 121.134 24.9458 121.352 25.0183 121.512C25.1923 121.889 25.7724 121.758 26.1059 121.758C26.3814 121.758 26.3814 121.323 26.1059 121.323C25.9464 121.323 25.7869 121.323 25.6129 121.323C25.3953 121.323 25.3953 121.28 25.3808 121.062C25.3518 120.743 25.3228 120.438 25.2938 120.119C25.2503 119.844 24.8153 119.829 24.8443 120.119Z" fill="#E8E8E8"/>
<path d="M25.1343 120.351C28.7596 120.772 32.3994 120.975 36.0538 121.004C37.8519 121.018 39.6501 120.989 41.4627 120.931C42.3618 120.902 43.2609 120.859 44.16 120.815C44.5805 120.801 45.1606 120.656 45.5811 120.743C46.0886 120.83 46.0596 121.265 46.1176 121.715C46.1611 121.628 46.2192 121.541 46.2627 121.454C46.0741 121.454 45.8856 121.454 45.6971 121.454C45.4216 121.396 45.3056 121.816 45.5811 121.874C45.8711 121.932 46.0886 121.932 46.3642 121.874C46.4947 121.845 46.5382 121.715 46.5092 121.613C46.4367 121.105 46.4947 120.467 45.8856 120.337C45.5231 120.25 45.0736 120.351 44.6965 120.366C44.218 120.395 43.7539 120.409 43.2754 120.438C41.2452 120.525 39.2005 120.583 37.1559 120.583C33.1245 120.583 29.1077 120.395 25.1053 119.916C24.8588 119.887 24.8588 120.322 25.1343 120.351Z" fill="#E8E8E8"/>
<path d="M28.2811 130.894C29.4412 132.416 30.8043 133.736 32.3414 134.867C32.5735 135.027 32.791 134.65 32.559 134.49C31.0798 133.403 29.7602 132.126 28.6436 130.662C28.4841 130.444 28.1071 130.662 28.2811 130.894Z" fill="#E8E8E8"/>
<path d="M27.3095 126.471C29.5717 129.734 32.3559 132.59 35.5752 134.925C35.8072 135.085 36.0248 134.708 35.7927 134.548C32.646 132.257 29.9052 129.444 27.6865 126.253C27.527 126.021 27.15 126.239 27.3095 126.471Z" fill="#E8E8E8"/>
<path d="M26.4249 122.585C30.3403 127.225 34.6907 131.561 39.8821 134.78C40.1141 134.925 40.3462 134.548 40.0996 134.403C34.9372 131.213 30.6158 126.906 26.7295 122.28C26.5554 122.063 26.2509 122.382 26.4249 122.585Z" fill="#E8E8E8"/>
<path d="M30.5868 122.338C34.3136 126.674 38.4465 130.792 43.0579 134.186C43.2899 134.345 43.5074 133.968 43.2754 133.809C38.693 130.444 34.5891 126.326 30.8913 122.034C30.7028 121.816 30.3983 122.121 30.5868 122.338Z" fill="#E8E8E8"/>
<path d="M35.3432 122.643C37.8664 125.731 40.7667 128.487 43.986 130.85C44.218 131.01 44.4355 130.633 44.2035 130.473C41.0132 128.139 38.142 125.398 35.6477 122.338C35.4737 122.121 35.1692 122.425 35.3432 122.643Z" fill="#E8E8E8"/>
<path d="M39.2295 122.483C40.8537 124.31 42.7098 125.876 44.769 127.196C45.001 127.341 45.2186 126.964 44.9865 126.819C42.9564 125.528 41.1292 123.962 39.5341 122.179C39.3456 121.961 39.041 122.266 39.2295 122.483Z" fill="#E8E8E8"/>
<path d="M19.1598 98.585C20.1024 100.572 20.7404 102.66 21.103 104.835C21.1175 104.937 21.219 104.995 21.306 104.995C21.393 104.995 21.857 104.98 21.886 105.125C21.9005 105.183 21.6105 105.517 21.5815 105.589C21.4945 105.821 21.4945 106.097 21.5815 106.329C21.6975 106.604 21.915 106.793 22.1761 106.894C22.2631 106.938 22.3646 106.952 22.4661 106.967C22.5531 106.981 22.6401 106.981 22.7271 106.967C22.8431 106.952 22.8286 106.967 22.6981 107.025C22.5531 107.242 22.3501 107.271 22.2921 107.59C22.2486 107.895 22.3936 108.185 22.5096 108.446C22.9881 109.461 23.2636 110.534 23.6552 111.593C25.0038 115.189 27.585 118.162 30.4998 120.612C30.7173 120.786 31.0218 120.482 30.8043 120.308C27.8025 117.785 25.1343 114.696 23.8727 110.911C23.7132 110.418 23.5682 109.925 23.3942 109.446C23.2491 109.026 22.9736 108.591 22.8431 108.17C22.6981 107.938 22.7126 107.677 22.9011 107.416C22.9591 107.373 23.0171 107.329 23.0751 107.286C23.1186 107.213 23.2056 107.17 23.2491 107.083C23.3072 106.923 23.2636 106.778 23.1476 106.662C22.9591 106.474 22.6691 106.575 22.4226 106.503C21.48 106.227 22.2486 105.589 22.3211 105.125C22.4226 104.516 21.6685 104.589 21.2625 104.56C21.335 104.618 21.4075 104.661 21.4655 104.719C21.103 102.515 20.4359 100.383 19.4788 98.3675C19.4208 98.1065 19.0438 98.324 19.1598 98.585Z" fill="#E8E8E8"/>
<path d="M19.3193 98.4835C24.0322 99.7451 28.1651 102.95 31.1668 106.749C34.3571 110.781 36.3438 115.624 37.4169 120.627C37.4749 120.902 37.8954 120.786 37.8374 120.511C36.7498 115.435 34.7197 110.534 31.4859 106.445C28.4406 102.602 24.2352 99.3536 19.4498 98.0775C19.1598 97.9905 19.0438 98.411 19.3193 98.4835Z" fill="#E8E8E8"/>
<path d="M21.0305 100.282C26.802 105.894 31.2539 112.782 33.9946 120.366C34.0961 120.627 34.5166 120.511 34.4151 120.25C31.6454 112.608 27.1645 105.647 21.335 99.9772C21.1465 99.7741 20.8274 100.079 21.0305 100.282Z" fill="#E8E8E8"/>
<path d="M23.5972 109.403C24.8153 109.533 26.0044 109.809 27.1355 110.259C28.2376 110.694 29.4412 111.245 30.1372 112.245C30.2968 112.477 30.6738 112.26 30.5143 112.028C29.8182 111.027 28.7306 110.462 27.6285 109.998C26.3379 109.446 24.9893 109.113 23.5827 108.968C23.3217 108.939 23.3217 109.374 23.5972 109.403Z" fill="#E8E8E8"/>
<path d="M25.7579 101.456C25.7434 103.124 26.0189 104.763 26.5554 106.343C26.6425 106.604 27.063 106.488 26.976 106.227C26.4539 104.69 26.1929 103.095 26.1929 101.456C26.1929 101.181 25.7579 101.181 25.7579 101.456Z" fill="#E8E8E8"/>
<path d="M33.7191 109.345C34.4296 106.691 36.7933 105.111 38.809 103.486C40.9552 101.761 43.0289 99.9192 45.0011 98.005C44.885 97.9325 44.7545 97.86 44.6385 97.7875C43.986 99.5421 43.8555 101.384 43.8845 103.24C43.9135 105.096 44.334 107.228 43.7394 109.026C43.8119 108.968 43.8845 108.924 43.9425 108.866C43.4784 108.895 43.0144 108.939 42.5503 108.968C42.4053 108.982 42.2603 109.156 42.3618 109.301C42.6954 109.751 43.0869 109.896 43.0724 110.563C43.0724 111.027 42.9564 111.564 42.7969 111.999C42.6373 112.448 42.2168 112.753 42.0718 113.173C41.9558 113.55 42.2458 113.869 42.2458 114.246C42.2603 114.87 41.8108 115.392 41.4917 115.885C41.1872 116.349 40.9117 116.828 40.6652 117.321C40.1721 118.292 39.7806 119.293 39.4906 120.337C39.4181 120.612 39.8386 120.728 39.9111 120.453C40.2736 119.162 40.7957 117.915 41.4772 116.755C41.9413 115.972 42.8114 115.058 42.7099 114.072C42.6663 113.681 42.4633 113.565 42.6373 113.115C42.6518 113.101 42.9129 112.753 42.9274 112.724C43.2029 112.274 43.3334 111.767 43.4204 111.259C43.4784 110.882 43.5944 110.418 43.5364 110.041C43.4494 109.504 43.0434 109.461 42.7389 109.055C42.6808 109.171 42.6083 109.272 42.5503 109.388C43.0144 109.359 43.4784 109.316 43.9425 109.287C44.044 109.272 44.1165 109.229 44.1455 109.127C44.6965 107.445 44.363 105.488 44.305 103.747C44.247 101.761 44.3195 99.7596 45.0301 97.8745C45.1171 97.657 44.8125 97.5264 44.6675 97.657C42.5648 99.7016 40.3606 101.659 38.0549 103.486C36.0828 105.053 33.9511 106.648 33.2695 109.2C33.226 109.504 33.6466 109.621 33.7191 109.345Z" fill="#E8E8E8"/>
<path d="M43.3914 99.8901C41.9703 102.37 40.5202 104.821 39.157 107.329C37.8809 109.649 36.7498 112.057 36.2133 114.652C36.1553 114.928 36.5758 115.044 36.6338 114.768C37.1849 112.115 38.3595 109.678 39.6646 107.315C40.9987 104.893 42.4053 102.515 43.7684 100.108C43.899 99.8756 43.5219 99.6436 43.3914 99.8901Z" fill="#E8E8E8"/>
<path d="M39.1135 103.922C39.3021 104.748 39.3891 105.575 39.3601 106.416C39.3456 106.691 39.7806 106.691 39.7951 106.416C39.8241 105.531 39.7371 104.676 39.5341 103.805C39.4616 103.53 39.0555 103.646 39.1135 103.922Z" fill="#E8E8E8"/>
<path d="M41.4772 101.152C41.6368 101.775 41.6658 102.384 41.5932 103.008C41.5642 103.283 41.9993 103.283 42.0283 103.008C42.1153 102.341 42.0718 101.688 41.8978 101.036C41.8253 100.775 41.4047 100.891 41.4772 101.152Z" fill="#E8E8E8"/>
<path d="M41.5787 104.038C42.4343 103.53 43.3189 103.08 44.2325 102.703C44.4935 102.602 44.3775 102.181 44.1165 102.283C43.1594 102.674 42.2458 103.138 41.3467 103.66C41.1147 103.805 41.3322 104.183 41.5787 104.038Z" fill="#E8E8E8"/>
<path d="M37.8374 111.317C38.3885 110.853 38.9395 110.404 39.5051 109.969C40.0996 109.504 40.7522 108.881 41.4772 108.591C41.7383 108.489 41.6223 108.069 41.3612 108.17C40.7087 108.417 40.1721 108.895 39.6211 109.33C38.9105 109.881 38.2145 110.433 37.5329 111.013C37.3154 111.187 37.6199 111.491 37.8374 111.317Z" fill="#E8E8E8"/>
<path d="M21.045 103.182C22.06 103.283 23.0751 103.385 24.0902 103.472C24.3658 103.501 24.3658 103.066 24.0902 103.037C23.0751 102.935 22.06 102.834 21.045 102.747C20.7694 102.718 20.7694 103.153 21.045 103.182Z" fill="#E8E8E8"/>
<path d="M47.6548 132.112C65.8249 132.112 83.9804 132.112 102.151 132.112C107.269 132.112 112.388 132.112 117.507 132.112C117.783 132.112 117.783 131.677 117.507 131.677C99.3373 131.677 81.1817 131.677 63.0116 131.677C57.8927 131.677 52.7737 131.677 47.6548 131.677C47.3647 131.677 47.3647 132.112 47.6548 132.112Z" fill="#E8E8E8"/>
<path d="M109.111 96.5839C109.111 98.701 109.111 100.818 109.111 102.935C109.111 103.211 109.546 103.211 109.546 102.935C109.546 100.818 109.546 98.701 109.546 96.5839C109.546 96.3083 109.111 96.3083 109.111 96.5839Z" fill="#E8E8E8"/>
<path d="M99.1053 103.907C106.138 103.907 113.171 103.907 120.205 103.907C120.48 103.907 120.48 103.472 120.205 103.472C113.171 103.472 106.138 103.472 99.1053 103.472C98.8297 103.472 98.8152 103.907 99.1053 103.907Z" fill="#E8E8E8"/>
<path d="M103.833 104.023C103.833 105.85 103.833 107.677 103.833 109.519C103.833 109.795 104.268 109.795 104.268 109.519C104.268 107.692 104.268 105.865 104.268 104.023C104.268 103.733 103.833 103.733 103.833 104.023Z" fill="#E8E8E8"/>
<path d="M114.709 103.907C114.709 105.517 114.709 107.141 114.709 108.75C114.709 109.026 115.144 109.026 115.144 108.75C115.144 107.141 115.144 105.517 115.144 103.907C115.144 103.631 114.709 103.631 114.709 103.907Z" fill="#E8E8E8"/>
<path d="M107.821 109.94C113.2 109.94 118.58 109.94 123.96 109.94C124.236 109.94 124.236 109.504 123.96 109.504C118.58 109.504 113.2 109.504 107.821 109.504C107.545 109.504 107.545 109.94 107.821 109.94Z" fill="#E8E8E8"/>
<path d="M95.654 136.317C107.531 136.317 119.407 136.317 131.284 136.317C131.559 136.317 131.559 135.882 131.284 135.882C119.407 135.882 107.531 135.882 95.654 135.882C95.3784 135.882 95.3784 136.317 95.654 136.317Z" fill="#E8E8E8"/>
<path d="M144.77 132.562C156.429 132.562 168.102 132.562 179.761 132.562C183.039 132.562 186.316 132.562 189.593 132.562C189.869 132.562 189.869 132.126 189.593 132.126C177.934 132.126 166.261 132.126 154.602 132.126C151.324 132.126 148.047 132.126 144.77 132.126C144.494 132.126 144.494 132.562 144.77 132.562Z" fill="#E8E8E8"/>
<path d="M0.206643 139.986C12.1557 139.986 24.1192 139.986 36.0683 139.986C36.3438 139.986 36.3438 139.551 36.0683 139.551C24.1192 139.551 12.1557 139.551 0.206643 139.551C-0.068881 139.551 -0.068881 139.986 0.206643 139.986Z" fill="#E8E8E8"/>
<path d="M24.3077 144.337C34.0671 144.337 43.8264 144.337 53.5858 144.337C53.8613 144.337 53.8613 143.901 53.5858 143.901C43.8264 143.901 34.0671 143.901 24.3077 143.901C24.0177 143.901 24.0177 144.337 24.3077 144.337Z" fill="#E8E8E8"/>
<path d="M172.67 20.3507C172.67 16.3049 172.67 12.2735 172.67 8.22765C172.67 7.95213 172.235 7.95213 172.235 8.22765C172.235 12.2735 172.235 16.3049 172.235 20.3507C172.235 20.6262 172.67 20.6262 172.67 20.3507Z" fill="#E8E8E8"/>
<path d="M172.598 8.14065C177.833 8.14065 183.068 8.14065 188.303 8.14065C188.578 8.14065 188.578 7.70561 188.303 7.70561C183.068 7.70561 177.833 7.70561 172.598 7.70561C172.322 7.70561 172.322 8.14065 172.598 8.14065Z" fill="#E8E8E8"/>
<path d="M188.085 7.95213C188.056 12.056 188.027 16.1598 187.984 20.2637C187.984 20.5392 188.419 20.5392 188.419 20.2637C188.448 16.1598 188.477 12.056 188.52 7.95213C188.52 7.6766 188.085 7.6766 188.085 7.95213Z" fill="#E8E8E8"/>
<path d="M172.67 20.5682C177.833 20.5682 182.995 20.5682 188.158 20.5682C188.433 20.5682 188.433 20.1332 188.158 20.1332C182.995 20.1332 177.833 20.1332 172.67 20.1332C172.395 20.1332 172.395 20.5682 172.67 20.5682Z" fill="#E8E8E8"/>
<path d="M173.091 9.06873C173.091 12.4765 173.091 15.8698 173.091 19.2776C173.091 19.5531 173.526 19.5531 173.526 19.2776C173.526 15.8698 173.526 12.4765 173.526 9.06873C173.526 8.7932 173.091 8.7932 173.091 9.06873Z" fill="#E8E8E8"/>
<path d="M173.41 9.28624C177.992 9.28624 182.56 9.28624 187.142 9.28624C187.418 9.28624 187.418 8.8512 187.142 8.8512C182.56 8.8512 177.992 8.8512 173.41 8.8512C173.12 8.8512 173.12 9.28624 173.41 9.28624Z" fill="#E8E8E8"/>
<path d="M186.91 9.17024C186.896 12.5055 186.881 15.8408 186.867 19.1906C186.867 19.4661 187.302 19.4661 187.302 19.1906C187.316 15.8553 187.331 12.52 187.345 9.17024C187.345 8.89471 186.91 8.89471 186.91 9.17024Z" fill="#E8E8E8"/>
<path d="M173.497 19.5531C178.007 19.5531 182.517 19.5531 187.026 19.5531C187.302 19.5531 187.302 19.1181 187.026 19.1181C182.517 19.1181 178.007 19.1181 173.497 19.1181C173.221 19.1181 173.221 19.5531 173.497 19.5531Z" fill="#E8E8E8"/>
<path d="M173.41 16.5514C175.077 15.9713 176.832 16.4934 178.456 16.9719C180.109 17.4505 181.733 18.0305 183.314 18.6976C183.575 18.7991 183.691 18.3785 183.43 18.277C181.675 17.5375 179.877 16.9139 178.05 16.4064C176.499 15.9858 174.86 15.5798 173.294 16.1308C173.033 16.2178 173.149 16.6384 173.41 16.5514Z" fill="#E8E8E8"/>
<path d="M178.92 17.0444C181.661 16.8849 184.228 15.7828 186.939 15.4783C187.215 15.4493 187.215 15.0142 186.939 15.0432C184.228 15.3478 181.661 16.4354 178.92 16.6094C178.63 16.6384 178.63 17.0734 178.92 17.0444Z" fill="#E8E8E8"/>
<path d="M184.112 11.737C183.503 11.3889 184.054 10.2433 184.706 10.5189C185.054 10.6639 185.127 11.0844 184.938 11.3889C184.735 11.7225 184.315 11.7805 183.967 11.679C183.691 11.6064 183.575 12.027 183.851 12.0995C184.431 12.259 185.083 12.085 185.373 11.5194C185.634 11.0119 185.431 10.3448 184.88 10.1128C183.749 9.63428 182.821 11.5194 183.894 12.114C184.126 12.2445 184.358 11.8675 184.112 11.737Z" fill="#E8E8E8"/>
<path d="M179.674 7.85062C179.689 7.6041 179.703 7.35757 179.776 7.12555C179.834 6.93704 179.979 6.4875 180.196 6.40049C180.588 6.25548 180.733 7.6331 180.762 7.89412C180.791 8.16965 181.226 8.16965 181.197 7.89412C181.153 7.38658 181.037 5.79144 180.225 5.90745C179.877 5.95095 179.631 6.34249 179.5 6.63251C179.326 7.00954 179.268 7.43008 179.254 7.83612C179.239 8.12614 179.674 8.12614 179.674 7.85062Z" fill="#E8E8E8"/>
<path d="M182.111 75.499C182.111 77.2392 182.111 78.9938 182.111 80.734C182.111 81.0095 182.546 81.0095 182.546 80.734C182.546 78.9938 182.546 77.2392 182.546 75.499C182.546 75.2235 182.111 75.2235 182.111 75.499Z" fill="#E8E8E8"/>
<path d="M176.847 81.372C180.791 81.372 184.75 81.372 188.694 81.372C188.97 81.372 188.97 80.937 188.694 80.937C184.75 80.937 180.791 80.937 176.847 80.937C176.571 80.937 176.571 81.372 176.847 81.372Z" fill="#E8E8E8"/>
<path d="M178.514 81.5025C178.514 82.3291 178.514 83.1412 178.514 83.9678C178.514 84.2433 178.949 84.2433 178.949 83.9678C178.949 83.1412 178.949 82.3291 178.949 81.5025C178.949 81.227 178.514 81.227 178.514 81.5025Z" fill="#E8E8E8"/>
<path d="M184.851 81.633C184.851 82.6046 184.851 83.5907 184.851 84.5623C184.851 84.8378 185.286 84.8378 185.286 84.5623C185.286 83.5907 185.286 82.6046 185.286 81.633C185.286 81.343 184.851 81.343 184.851 81.633Z" fill="#E8E8E8"/>
<path d="M181.777 85.1279C184.518 85.1279 187.258 85.1279 189.999 85.1279C190.275 85.1279 190.275 84.6928 189.999 84.6928C187.258 84.6928 184.518 84.6928 181.777 84.6928C181.501 84.6928 181.501 85.1279 181.777 85.1279Z" fill="#E8E8E8"/>
<path d="M121.959 82.7352C85.6046 85.3599 49.2499 87.9701 12.9097 90.5948C11.9237 64.2315 10.9376 37.8682 9.96599 11.5049C46.4802 11.0119 82.9944 10.5189 119.509 10.0258C120.321 34.2574 121.133 58.489 121.959 82.7352Z" fill="white" stroke="#161616"/>
<path d="M40.8537 24.3385C47.9013 24.3385 54.9634 24.3385 62.011 24.3385C62.2865 24.3385 62.2865 23.9035 62.011 23.9035C54.9634 23.9035 47.9013 23.9035 40.8537 23.9035C40.5782 23.9035 40.5782 24.3385 40.8537 24.3385Z" fill="#161616"/>
<path d="M48.7714 26.1222C56.0365 26.1222 63.3016 26.1222 70.5668 26.1222C70.8423 26.1222 70.8423 25.6872 70.5668 25.6872C63.3016 25.6872 56.0365 25.6872 48.7714 25.6872C48.4813 25.6872 48.4813 26.1222 48.7714 26.1222Z" fill="#161616"/>
<path d="M14.3744 68.6689C14.6354 74.7305 14.8964 80.8065 15.1574 86.868C15.1719 87.1435 15.607 87.1435 15.5925 86.868C15.3315 80.8065 15.0704 74.7305 14.8094 68.6689C14.7949 68.3934 14.3599 68.3934 14.3744 68.6689Z" fill="#161616"/>
<path d="M46.3207 65.1306C46.9442 65.1306 47.5678 65.1306 48.2058 65.1306C48.4813 65.1306 48.4813 64.6956 48.2058 64.6956C47.5823 64.6956 46.9587 64.6956 46.3207 64.6956C46.0451 64.6956 46.0451 65.1306 46.3207 65.1306Z" fill="#161616"/>
<path d="M49.8445 65.1306C51.4541 65.1306 53.0492 65.1306 54.6589 65.1306C54.9344 65.1306 54.9344 64.6956 54.6589 64.6956C53.0492 64.6956 51.4541 64.6956 49.8445 64.6956C49.5689 64.6956 49.5689 65.1306 49.8445 65.1306Z" fill="#161616"/>
<path d="M58.2987 64.8986C60.2129 64.8986 62.127 64.8986 64.0557 64.8986C64.3312 64.8986 64.3312 64.4636 64.0557 64.4636C62.1415 64.4636 60.2274 64.4636 58.2987 64.4636C58.0232 64.4636 58.0232 64.8986 58.2987 64.8986Z" fill="#161616"/>
<path d="M48.9164 68.1759C51.2656 68.1759 53.6148 68.1759 55.964 68.1759C56.2395 68.1759 56.2395 67.7408 55.964 67.7408C53.6148 67.7408 51.2656 67.7408 48.9164 67.7408C48.6264 67.7408 48.6264 68.1759 48.9164 68.1759Z" fill="#161616"/>
<path d="M52.3097 66.5372C55.0504 66.5372 57.7912 66.5372 60.5319 66.5372C60.8074 66.5372 60.8074 66.1022 60.5319 66.1022C57.7912 66.1022 55.0504 66.1022 52.3097 66.1022C52.0342 66.1022 52.0342 66.5372 52.3097 66.5372Z" fill="#161616"/>
<path d="M66.869 82.0391C71.4804 82.0391 76.1063 82.0391 80.7177 82.0391C80.9932 82.0391 80.9932 81.604 80.7177 81.604C76.1063 81.604 71.4804 81.604 66.869 81.604C66.5934 81.604 66.5934 82.0391 66.869 82.0391Z" fill="#161616"/>
<path d="M78.2524 83.2137C80.6742 83.2137 83.1104 83.2137 85.5321 83.2137C85.8076 83.2137 85.8076 82.7787 85.5321 82.7787C83.1104 82.7787 80.6742 82.7787 78.2524 82.7787C77.9769 82.7787 77.9769 83.2137 78.2524 83.2137Z" fill="#161616"/>
<path d="M84.5895 81.4445C86.9822 81.4445 89.3604 81.4445 91.7531 81.4445C92.0286 81.4445 92.0286 81.0095 91.7531 81.0095C89.3604 81.0095 86.9822 81.0095 84.5895 81.0095C84.314 81.0095 84.314 81.4445 84.5895 81.4445Z" fill="#161616"/>
<path d="M96.7996 42.1316C101.222 42.1316 105.645 42.1316 110.068 42.1316C110.344 42.1316 110.344 41.6966 110.068 41.6966C105.645 41.6966 101.222 41.6966 96.7996 41.6966C96.524 41.6966 96.524 42.1316 96.7996 42.1316Z" fill="#161616"/>
<path d="M92.6957 42.8277C94.1023 42.8277 95.5089 42.8277 96.9156 42.8277C97.1911 42.8277 97.1911 42.3926 96.9156 42.3926C95.5089 42.3926 94.1023 42.3926 92.6957 42.3926C92.4057 42.3926 92.4057 42.8277 92.6957 42.8277Z" fill="#161616"/>
<path d="M93.5078 44.0023C98.2352 44.0023 102.977 44.0023 107.705 44.0023C107.98 44.0023 107.98 43.5672 107.705 43.5672C102.977 43.5672 98.2352 43.5672 93.5078 43.5672C93.2323 43.5672 93.2323 44.0023 93.5078 44.0023Z" fill="#161616"/>
<path d="M111.011 42.9437C111.91 42.9437 112.809 42.9437 113.708 42.9437C113.984 42.9437 113.984 42.5086 113.708 42.5086C112.809 42.5086 111.91 42.5086 111.011 42.5086C110.721 42.5086 110.721 42.9437 111.011 42.9437Z" fill="#161616"/>
<path d="M107.487 60.6642C108.821 60.6642 110.141 60.6642 111.475 60.6642C111.75 60.6642 111.75 60.2292 111.475 60.2292C110.141 60.2292 108.821 60.2292 107.487 60.2292C107.197 60.2292 107.197 60.6642 107.487 60.6642Z" fill="#161616"/>
<path d="M104.906 61.8388C106.356 61.8388 107.806 61.8388 109.242 61.8388C109.517 61.8388 109.517 61.4038 109.242 61.4038C107.792 61.4038 106.341 61.4038 104.906 61.4038C104.616 61.4038 104.616 61.8388 104.906 61.8388Z" fill="#161616"/>
<path d="M107.008 63.0134C109.865 63.0134 112.722 63.0134 115.579 63.0134C115.854 63.0134 115.854 62.5784 115.579 62.5784C112.722 62.5784 109.865 62.5784 107.008 62.5784C106.733 62.5784 106.733 63.0134 107.008 63.0134Z" fill="#161616"/>
<path d="M112.417 61.6068C113.273 61.6068 114.143 61.6068 114.999 61.6068C115.274 61.6068 115.274 61.1718 114.999 61.1718C114.143 61.1718 113.273 61.1718 112.417 61.1718C112.127 61.1718 112.127 61.6068 112.417 61.6068Z" fill="#161616"/>
<path d="M52.6867 43.5237C54.7169 43.5237 56.7326 43.5237 58.7627 43.5237C59.0383 43.5237 59.0383 43.0887 58.7627 43.0887C56.7326 43.0887 54.7169 43.0887 52.6867 43.0887C52.4112 43.0887 52.4112 43.5237 52.6867 43.5237Z" fill="#161616"/>
<path d="M57.1096 44.7708C60.0969 44.7708 63.0986 44.7708 66.0859 44.7708C66.3614 44.7708 66.3614 44.3358 66.0859 44.3358C63.0986 44.3358 60.0969 44.3358 57.1096 44.3358C56.8341 44.3358 56.8196 44.7708 57.1096 44.7708Z" fill="#161616"/>
<path d="M64.9838 43.1032C66.6804 43.1032 68.3916 43.1032 70.0882 43.1032C70.3638 43.1032 70.3638 42.6682 70.0882 42.6682C68.3916 42.6682 66.6804 42.6682 64.9838 42.6682C64.7083 42.6682 64.7083 43.1032 64.9838 43.1032Z" fill="#161616"/>
<path d="M13.0838 19.9592C13.4028 30.9656 13.7218 41.9866 14.0408 52.9931C14.1279 56.1253 14.2149 59.2431 14.3164 62.3754C14.3309 62.6509 14.7659 62.6509 14.7514 62.3754C14.4324 51.3689 14.1134 40.348 13.7943 29.3415C13.7073 26.2092 13.6203 23.0914 13.5188 19.9592C13.5188 19.6837 13.0838 19.6837 13.0838 19.9592Z" fill="#161616"/>
<path d="M118.493 55.9368C118.711 63.2164 118.928 70.4816 119.146 77.7612C119.161 78.0367 119.596 78.0367 119.581 77.7612C119.364 70.4816 119.146 63.2164 118.928 55.9368C118.928 55.6613 118.493 55.6613 118.493 55.9368Z" fill="#161616"/>
<path d="M88.4613 52.6015C88.5483 53.4861 88.6353 54.3852 88.7079 55.2698C89.5489 55.0522 90.3755 54.8202 91.2166 54.6027C91.1006 53.7181 90.9991 52.819 90.883 51.9345C90.071 52.152 89.2734 52.384 88.4613 52.6015Z" fill="#EC615B"/>
<path d="M87.9538 59.3736C88.8239 59.2576 89.6794 59.1561 90.5495 59.0401C90.6655 60.0987 90.767 61.1573 90.8831 62.2159C90.1 62.2449 89.3169 62.2739 88.5483 62.3029C88.3453 61.3168 88.1568 60.3452 87.9538 59.3736Z" fill="#EC615B"/>
<path d="M91.1296 65.7977C91.4051 66.7113 91.6806 67.6393 91.9707 68.5529C92.7537 68.1904 93.5368 67.8279 94.3054 67.4653C94.0588 66.6532 93.7978 65.8557 93.5513 65.0436C92.7537 65.3046 91.9416 65.5512 91.1296 65.7977Z" fill="#EC615B"/>
<path d="M33.8061 74.4404C33.9946 77.2537 34.1831 80.0669 34.3716 82.8657C39.3021 82.5466 44.2325 82.2421 49.1629 81.9231C49.2499 79.3999 49.3514 76.8621 49.4384 74.3389C44.2325 74.3824 39.012 74.4114 33.8061 74.4404Z" fill="#583243"/>
<ellipse cx="95.1029" cy="16.3484" rx="1.02959" ry="0.855575" fill="#583243"/>
<ellipse cx="25.1343" cy="23.0479" rx="0.855575" ry="0.565549" fill="#EC615B"/>
<ellipse cx="38.751" cy="39.2314" rx="0.667058" ry="0.783068" fill="#EC615B"/>
<path opacity="0.21" d="M32.6315 20.4812C32.8925 20.4377 33.4 22.8594 34.6471 27.2533C36.2858 33.0393 37.9099 37.7087 39.0845 40.899C37.3009 42.0011 33.313 44.1038 27.8751 44.1763C24.0322 44.2198 21.0015 43.2337 19.2033 42.4796C22.7271 42.8712 25.5694 42.7697 27.556 42.5811C30.7028 42.2911 30.1518 41.9576 32.53 41.8416C33.516 41.7981 34.8067 41.7981 36.1263 41.0005C36.6048 40.7105 36.9528 40.3915 37.1849 40.1594C36.2568 38.2453 35.0677 35.432 34.1106 31.9082C32.588 26.1802 32.2544 20.5537 32.6315 20.4812Z" fill="#6D6C6C"/>
<path opacity="0.25" d="M46.2192 36.2151C46.4512 38.0568 46.8717 40.1159 47.5678 42.3201C49.5544 48.5847 52.9042 53.0511 55.4275 55.8063C53.9193 56.9229 52.0487 58.083 49.801 59.0546C42.9854 61.9983 36.6193 61.5633 33.2115 61.0413C33.081 60.2727 32.9505 59.5041 32.82 58.7356C34.2701 58.7791 35.8073 58.7501 37.4169 58.6631C43.1594 58.3005 48.0898 57.0099 52.0197 55.5743C50.7726 53.4571 49.8735 51.6299 49.2499 50.2523C47.7418 46.9605 46.6252 44.4808 46.2337 41.131C45.9871 39.0863 46.0886 37.3607 46.2192 36.2151Z" fill="#6D6C6C"/>
<path opacity="0.14" d="M92.3187 45.8149C92.4637 49.1212 92.8117 51.862 93.1162 53.8341C93.8268 58.3585 94.3489 61.4908 96.205 65.0146C97.3651 67.2043 98.6702 68.8139 99.6128 69.858C97.9742 71.2646 95.77 72.8598 92.9422 74.1359C85.8366 77.3697 79.166 76.7171 76.0483 76.1951C75.8887 75.4845 75.7292 74.7739 75.5697 74.0489C75.9613 74.0779 76.5703 74.1069 77.3099 74.1214C79.7751 74.1794 84.9085 74.2664 90.796 72.2942C92.4492 71.7432 94.7694 70.8151 97.3796 69.278C96.35 67.9004 95.3349 66.2617 94.4504 64.362C90.9556 56.8649 91.6516 49.5853 92.3187 45.8149Z" fill="#6D6C6C"/>
<path opacity="0.18" d="M103.427 13.2886C103.717 14.6372 104.137 16.6964 104.558 19.2631C105.341 24.2225 105.283 26.0207 106.196 28.95C106.675 30.4726 107.531 32.6333 109.14 35.0985C107.792 36.2006 106.109 37.3462 104.036 38.3033C97.2491 41.4501 90.7525 40.5655 87.7653 39.9419C87.7943 39.3619 87.8233 38.7818 87.8523 38.2163C88.2293 38.3178 88.7949 38.4483 89.4909 38.5643C90.4045 38.7093 93.7833 39.2024 100.135 37.6072C101.89 37.1722 104.253 36.4761 106.965 35.3595C106.443 34.4314 105.674 32.9813 104.978 31.1252C102.948 25.7452 102.963 21.0758 102.992 18.6686C103.006 17.349 103.093 15.5073 103.427 13.2886Z" fill="#6D6C6C"/>
<path d="M16.7381 19.6546C15.3025 27.2533 16.7526 34.939 18.2027 42.4216C18.2607 42.6972 18.6813 42.5811 18.6233 42.3056C17.1876 34.91 15.752 27.2968 17.1586 19.7707C17.2021 19.5096 16.7816 19.3791 16.7381 19.6546Z" fill="#161616"/>
<path d="M17.1441 19.5966C19.2178 20.9888 21.7265 21.2353 24.1772 21.0613C26.976 20.8583 29.7457 20.2637 32.5155 19.7997C32.791 19.7562 32.675 19.3356 32.3995 19.3791C29.7457 19.8142 27.092 20.3797 24.4093 20.5972C21.9585 20.8002 19.4498 20.6117 17.3616 19.2051C17.1296 19.0601 16.9121 19.4371 17.1441 19.5966Z" fill="#161616"/>
<path d="M32.2254 20.1042C32.6315 27.0358 33.6756 34.1124 37.1849 40.2029C37.3299 40.4495 37.7069 40.2319 37.5619 39.9854C34.0961 33.9529 33.0665 26.9488 32.6605 20.1042C32.646 19.8287 32.2109 19.8287 32.2254 20.1042Z" fill="#161616"/>
<path d="M18.5652 42.5376C21.857 43.4947 25.3953 42.9147 28.7451 42.6392C31.7179 42.3926 34.9082 42.2766 37.4604 40.5365C37.6924 40.377 37.4749 39.9999 37.2429 40.1594C34.6762 41.9141 31.4569 41.9721 28.4696 42.2186C25.2503 42.4796 21.857 43.0162 18.6813 42.1026C18.4057 42.0446 18.2897 42.4651 18.5652 42.5376Z" fill="#161616"/>
<path d="M24.1337 23.1349C23.8437 23.0044 24.1627 22.7289 24.3367 22.6854C24.5543 22.6274 24.9748 22.5984 25.0763 22.8449C25.1488 23.0334 25.0328 23.28 24.8588 23.3525C24.5833 23.483 24.2787 23.3235 24.0902 23.1349C23.8872 22.9319 23.5827 23.2365 23.7857 23.4395C24.1482 23.802 24.7428 23.9905 25.1923 23.657C25.5549 23.396 25.6854 22.8159 25.3808 22.4679C25.0328 22.0764 24.2932 22.1199 23.9017 22.4099C23.5537 22.6709 23.4812 23.2945 23.9307 23.4975C24.1772 23.628 24.3947 23.251 24.1337 23.1349Z" fill="#161616"/>
<path d="M29.9487 42.5957C28.9046 47.8886 30.0212 53.2396 31.1523 58.431C31.2103 58.7066 31.6309 58.5905 31.5729 58.315C30.4563 53.2106 29.3542 47.9321 30.3693 42.7117C30.4273 42.4361 30.0067 42.3201 29.9487 42.5957Z" fill="#161616"/>
<path d="M35.9378 37.0417C39.2876 36.4036 42.6808 36.1716 46.0741 36.3021C46.0016 36.2296 45.9291 36.1571 45.8566 36.0846C45.1751 43.0742 48.1623 49.7303 51.7876 55.5163C51.9327 55.7483 52.3097 55.5308 52.1647 55.2988C48.5829 49.5708 45.6101 43.0017 46.2917 36.0846C46.3062 35.9686 46.1757 35.8671 46.0741 35.8671C42.6373 35.7365 39.2005 35.9831 35.8218 36.6211C35.5462 36.6791 35.6622 37.0997 35.9378 37.0417Z" fill="#161616"/>
<path d="M31.3844 58.7356C38.432 59.5621 45.5811 58.5035 52.1067 55.7193C52.3677 55.6033 52.1357 55.2407 51.8892 55.3423C45.4506 58.0975 38.345 59.1126 31.3844 58.3005C31.1088 58.2715 31.1088 58.7065 31.3844 58.7356Z" fill="#161616"/>
<path d="M38.664 38.8253C38.664 38.8108 38.7075 38.7383 38.7075 38.7093C38.722 38.6513 38.7655 38.5933 38.809 38.5498C38.896 38.4773 38.9975 38.4193 39.1135 38.4048C39.3311 38.3758 39.5341 38.4918 39.5921 38.7093C39.6356 38.8833 39.5631 39.1153 39.3601 39.1443C39.1715 39.1734 38.9975 39.0428 38.9685 38.8543C38.925 38.5788 38.5045 38.6948 38.548 38.9703C38.6205 39.4779 39.273 39.7244 39.6936 39.4779C40.1576 39.2024 40.1286 38.4918 39.7371 38.1583C39.3021 37.7957 38.577 37.9842 38.3305 38.4773C38.2145 38.7238 38.2145 39.0573 38.49 39.2024C38.7075 39.3184 39.0265 39.2169 39.0845 38.9413C39.128 38.6658 38.7075 38.5498 38.664 38.8253Z" fill="#161616"/>
<path d="M18.1737 27.5433C22.031 28.0799 25.8594 27.2823 29.5572 26.2237C29.8327 26.1512 29.7167 25.7307 29.4412 25.8032C25.8159 26.8328 22.06 27.6449 18.2897 27.1228C18.0142 27.0793 17.8982 27.4998 18.1737 27.5433Z" fill="#161616"/>
<path d="M18.8988 30.3856C20.8999 30.6031 22.9011 30.4001 24.8298 29.791C25.0908 29.704 24.9893 29.2835 24.7138 29.3705C22.8286 29.965 20.8709 30.1536 18.8988 29.9505C18.6233 29.9215 18.6233 30.3566 18.8988 30.3856Z" fill="#161616"/>
<path d="M18.8988 33.8949C22.7271 34.3444 26.5844 34.0689 30.2968 33.0973C30.5723 33.0248 30.4563 32.6043 30.1808 32.6768C26.4974 33.6484 22.6836 33.9094 18.8988 33.4598C18.6233 33.4163 18.6233 33.8514 18.8988 33.8949Z" fill="#161616"/>
<path d="M33.226 56.1543C37.0689 56.3283 40.9117 55.8643 44.595 54.7622C44.856 54.6897 44.7545 54.2692 44.479 54.3417C40.8247 55.4293 37.0399 55.8933 33.226 55.7193C32.936 55.7048 32.936 56.1398 33.226 56.1543Z" fill="#161616"/>
<path d="M33.9656 52.8336C35.6767 52.7755 37.3879 52.645 39.099 52.4565C39.3746 52.4275 39.3746 51.9925 39.099 52.0215C37.3879 52.21 35.6912 52.3405 33.9656 52.3985C33.6901 52.413 33.6901 52.8481 33.9656 52.8336Z" fill="#161616"/>
<path d="M35.3577 46.859C36.4888 47.004 37.6634 46.714 38.78 46.5545C40.0126 46.366 41.2307 46.192 42.4633 46.0034C42.7389 45.9599 42.6228 45.5394 42.3473 45.5829C41.2162 45.7569 40.0706 45.9309 38.9395 46.0905C37.7649 46.2645 36.5468 46.5835 35.3577 46.424C35.0822 46.3805 35.0822 46.8155 35.3577 46.859Z" fill="#161616"/>
<path d="M86.6052 14.3472C85.0246 22.1054 84.865 30.0811 86.1267 37.8972C86.1702 38.1728 86.5907 38.0568 86.5472 37.7812C85.3001 30.0521 85.4741 22.1344 87.0257 14.4632C87.0837 14.1877 86.6632 14.0717 86.6052 14.3472Z" fill="#161616"/>
<path d="M87.0982 14.4487C92.3622 13.2451 97.8002 12.9986 103.166 13.7236C103.441 13.7671 103.557 13.3466 103.282 13.3031C97.8437 12.5635 92.3332 12.8101 86.9822 14.0282C86.7212 14.1007 86.8372 14.5212 87.0982 14.4487Z" fill="#161616"/>
<path d="M103.035 13.3321C102.876 20.8003 102.977 28.6889 106.762 35.374C106.907 35.6205 107.269 35.403 107.139 35.1565C103.398 28.5439 103.311 20.7277 103.47 13.3321C103.485 13.0566 103.05 13.0566 103.035 13.3321Z" fill="#161616"/>
<path d="M86.4602 38.1293C88.0843 38.6223 89.8245 38.6513 91.5066 38.6658C93.3193 38.6803 95.1319 38.5643 96.9446 38.3178C100.41 37.8537 103.789 36.9112 107.023 35.548C107.284 35.4465 107.052 35.0695 106.805 35.171C103.572 36.5341 100.164 37.4622 96.6836 37.9117C95.0594 38.1148 93.4208 38.2308 91.7821 38.2163C90.0565 38.2163 88.2438 38.2018 86.5907 37.6942C86.3007 37.6362 86.1991 38.0568 86.4602 38.1293Z" fill="#161616"/>
<path d="M95.3349 14.9127C94.8419 15.0868 94.6244 15.6523 94.7984 16.1308C95.0014 16.6674 95.625 16.7979 96.089 16.4789C96.5385 16.1598 96.6836 15.5218 96.2485 15.1158C95.8715 14.7677 95.2189 14.7532 94.8709 15.1303C94.6824 15.3333 94.9869 15.6378 95.1754 15.4348C95.6105 14.9707 96.466 15.6233 95.8715 16.0873C95.6395 16.2614 95.3059 16.2614 95.2044 15.9568C95.1319 15.7248 95.2044 15.4058 95.4509 15.3188C95.712 15.2318 95.596 14.8112 95.3349 14.9127Z" fill="#161616"/>
<path d="M86.8227 21.0903C90.7815 21.1918 94.7259 21.1193 98.6702 20.8583C98.9458 20.8438 98.9458 20.4087 98.6702 20.4232C94.7259 20.6842 90.767 20.7712 86.8227 20.6552C86.5327 20.6552 86.5327 21.0903 86.8227 21.0903Z" fill="#161616"/>
<path d="M87.2142 23.2945C88.6934 23.3525 90.1725 23.4105 91.6371 23.4685C91.9126 23.483 91.9126 23.0479 91.6371 23.0334C90.158 22.9754 88.6789 22.9174 87.2142 22.8594C86.9242 22.8449 86.9242 23.28 87.2142 23.2945Z" fill="#161616"/>
<path d="M86.8082 26.3687C90.535 26.5718 94.3054 26.7458 97.9742 25.9337C98.2497 25.8757 98.1337 25.4552 97.8582 25.5132C94.2184 26.3107 90.4915 26.1367 86.8082 25.9337C86.5327 25.9192 86.5327 26.3542 86.8082 26.3687Z" fill="#161616"/>
<path d="M32.7475 73.5124C32.414 76.4126 32.2979 79.3274 32.3995 82.2421C32.414 82.5176 32.849 82.5176 32.8345 82.2421C32.733 79.3274 32.849 76.4126 33.1825 73.5124C33.2115 73.2368 32.7765 73.2368 32.7475 73.5124Z" fill="#161616"/>
<path d="M32.8925 73.6864C38.0549 73.6864 43.2319 73.6139 48.3943 73.4543C48.6699 73.4398 48.6699 73.0048 48.3943 73.0193C43.2319 73.1788 38.0549 73.2513 32.8925 73.2513C32.617 73.2513 32.617 73.6864 32.8925 73.6864Z" fill="#161616"/>
<path d="M48.3508 73.2513C48.3943 75.7745 48.4378 78.2833 48.4813 80.8065C48.4813 81.082 48.9164 81.082 48.9164 80.8065C48.8729 78.2833 48.8294 75.7745 48.7859 73.2513C48.7859 72.9758 48.3363 72.9758 48.3508 73.2513Z" fill="#161616"/>
<path d="M32.3559 81.9231C32.385 82.8657 34.0236 82.4451 34.5601 82.4161C36.0973 82.3146 37.6344 82.2131 39.157 82.0971C42.2748 81.8796 45.3926 81.6765 48.5104 81.459C48.7859 81.4445 48.7859 81.0095 48.5104 81.024C45.8566 81.198 43.2174 81.3865 40.5637 81.5605C39.3021 81.6475 38.0404 81.7346 36.7788 81.8216C36.4018 81.8506 32.791 82.1986 32.7765 81.9231C32.791 81.6475 32.3559 81.6475 32.3559 81.9231Z" fill="#161616"/>
<path d="M34.0671 75.644C37.5474 75.4845 41.0277 75.615 44.479 76.0501C44.7545 76.0791 44.7545 75.644 44.479 75.615C41.0277 75.18 37.5474 75.0495 34.0671 75.209C33.7771 75.2235 33.7771 75.6585 34.0671 75.644Z" fill="#161616"/>
<path d="M34.1976 77.8482C36.1408 77.7032 38.0984 77.5437 40.0416 77.3987C40.3171 77.3842 40.3171 76.9491 40.0416 76.9636C38.0984 77.1087 36.1408 77.2682 34.1976 77.4132C33.9221 77.4277 33.9221 77.8627 34.1976 77.8482Z" fill="#161616"/>
<path d="M34.8502 80.0669C37.6489 79.7044 40.6942 78.9648 43.5074 79.4724C43.7829 79.5159 43.899 79.1098 43.6234 79.0518C40.7522 78.5298 37.7069 79.2548 34.8502 79.6319C34.5891 79.6754 34.5746 80.1104 34.8502 80.0669Z" fill="#161616"/>
<path d="M72.568 48.8312C70.2623 57.0389 70.5523 65.8267 73.38 73.8749C73.467 74.1359 73.8876 74.0199 73.8006 73.7589C71.0018 65.7832 70.7118 57.0824 72.9885 48.9472C73.061 48.6717 72.6405 48.5557 72.568 48.8312Z" fill="#161616"/>
<path d="M72.858 48.9762C79.311 48.9472 85.7351 48.1061 91.9851 46.4675C92.2607 46.395 92.1447 45.9745 91.8691 46.047C85.6626 47.6711 79.282 48.5122 72.858 48.5412C72.568 48.5412 72.568 48.9762 72.858 48.9762Z" fill="#161616"/>
<path d="M91.8691 46.2065C91.6081 50.2378 91.7821 54.2982 92.5072 58.286C92.8697 60.3017 93.3048 62.3174 94.1023 64.2025C94.8999 66.0732 96.002 67.7698 97.2926 69.3215C97.4666 69.539 97.7857 69.2345 97.5971 69.017C96.2775 67.4363 95.1609 65.6817 94.3779 63.7675C93.6383 61.9403 93.2323 59.9827 92.8987 58.054C92.2027 54.1532 92.0432 50.1653 92.2897 46.2065C92.3187 45.9309 91.8836 45.9309 91.8691 46.2065Z" fill="#161616"/>
<path d="M73.438 74.1069C81.6457 74.687 90.216 73.7589 97.4086 69.5245C97.6551 69.3795 97.4376 69.0025 97.1911 69.1475C90.042 73.3528 81.5587 74.2374 73.438 73.6719C73.1625 73.6429 73.1625 74.0779 73.438 74.1069Z" fill="#161616"/>
<path d="M82.1678 50.2813C81.9213 49.8608 82.4143 49.3387 82.8349 49.6723C83.2844 50.0348 82.8059 50.6149 82.3273 50.4263C82.0663 50.3248 81.9503 50.7454 82.2113 50.8469C82.6028 51.0064 83.0814 50.8324 83.3134 50.4843C83.5744 50.0928 83.4584 49.5998 83.0959 49.3242C82.3128 48.7007 81.3267 49.6723 81.7908 50.4988C81.9358 50.7454 82.3128 50.5278 82.1678 50.2813Z" fill="#161616"/>
<path d="M73.003 55.2842C77.3389 55.2117 81.6747 54.9072 85.9961 54.3852C86.2716 54.3562 86.2716 53.9211 85.9961 53.9501C81.6892 54.4867 77.3534 54.7767 73.003 54.8492C72.7275 54.8637 72.7275 55.2988 73.003 55.2842Z" fill="#161616"/>
<path d="M87.5478 52.3695C87.6783 53.0366 87.8088 53.7181 87.9393 54.3852C87.9973 54.6607 88.4178 54.5447 88.3598 54.2692C88.2293 53.6021 88.0988 52.9205 87.9683 52.2535C87.9248 51.978 87.5043 52.094 87.5478 52.3695Z" fill="#161616"/>
<path d="M87.8378 52.3115C88.6354 52.1955 89.4329 52.0795 90.245 51.949C90.5205 51.9055 90.4045 51.4849 90.129 51.5284C89.3314 51.6444 88.5339 51.7605 87.7218 51.891C87.4463 51.9345 87.5623 52.355 87.8378 52.3115Z" fill="#161616"/>
<path d="M90.1145 51.8185C90.2305 52.442 90.332 53.0656 90.448 53.6746C90.4915 53.9501 90.912 53.8341 90.8685 53.5586C90.7525 52.9351 90.651 52.3115 90.535 51.7024C90.4915 51.4414 90.071 51.5574 90.1145 51.8185Z" fill="#161616"/>
<path d="M88.3018 54.7187C89.1574 54.5447 89.9695 54.3127 90.7815 53.9936C91.0426 53.8921 90.9266 53.4716 90.6655 53.5731C89.8535 53.8776 89.0269 54.1242 88.1858 54.2982C87.9103 54.3562 88.0263 54.7767 88.3018 54.7187Z" fill="#161616"/>
<path d="M88.3743 52.8045C88.5339 53.1671 88.7514 53.4571 89.0704 53.7036C89.1864 53.7906 89.4039 53.7906 89.4329 53.6021C89.5489 52.819 89.8245 52.123 90.2885 51.4704C90.448 51.2384 90.071 51.0209 89.9115 51.2529C89.4329 51.92 89.1284 52.674 89.0124 53.4861C89.1284 53.4571 89.2589 53.4281 89.3749 53.3846C89.0994 53.1671 88.8964 52.9061 88.7514 52.5725C88.6354 52.326 88.2583 52.5435 88.3743 52.8045Z" fill="#161616"/>
<path d="M88.5338 59.0256C88.3018 60.0697 88.4033 61.0848 88.8239 62.0563C88.9399 62.3174 89.3024 62.0854 89.2009 61.8388C88.8239 60.9833 88.7514 60.0552 88.9544 59.1416C89.0124 58.8661 88.5918 58.7501 88.5338 59.0256Z" fill="#161616"/>
<path d="M88.8239 59.1706C89.694 59.0256 90.564 58.8951 91.4341 58.7501C91.3471 58.6631 91.2601 58.576 91.1731 58.489C91.0281 59.4171 91.1296 60.3017 91.4921 61.1718C91.5936 61.4328 92.0142 61.3168 91.9126 61.0558C91.5791 60.2727 91.4631 59.4461 91.5936 58.605C91.6226 58.431 91.5066 58.315 91.3326 58.344C90.4625 58.4745 89.5924 58.6195 88.7224 58.7646C88.4323 58.7936 88.5484 59.2141 88.8239 59.1706Z" fill="#161616"/>
<path d="M89.0124 62.0709C89.9695 62.0418 90.8831 61.8533 91.7821 61.5343C92.0432 61.4328 91.9272 61.0123 91.6661 61.1138C90.8106 61.4328 89.926 61.6068 89.0124 61.6358C88.7369 61.6358 88.7369 62.0709 89.0124 62.0709Z" fill="#161616"/>
<path d="M89.1429 60.0552C89.2734 60.4322 89.4909 60.6932 89.839 60.8962C89.9985 60.9833 90.1435 60.8672 90.1725 60.7077C90.2595 59.9392 90.4625 59.1996 90.7815 58.489C90.8976 58.2425 90.5205 58.0105 90.4045 58.2715C90.0565 59.0546 89.839 59.8667 89.7375 60.7077C89.8535 60.6497 89.955 60.5772 90.071 60.5192C89.8245 60.3742 89.6795 60.2002 89.5779 59.9247C89.4764 59.6781 89.0559 59.7941 89.1429 60.0552Z" fill="#161616"/>
<path d="M89.4329 65.7542C89.5344 66.7258 89.7955 67.6393 90.2305 68.5094C90.3465 68.7559 90.7235 68.5384 90.6075 68.2919C90.216 67.4943 89.9695 66.6387 89.8825 65.7542C89.839 65.4786 89.4039 65.4786 89.4329 65.7542Z" fill="#161616"/>
<path d="M89.6359 65.7107C90.7525 65.8122 91.7966 65.6092 92.7972 65.1161C92.6957 65.0726 92.5797 65.0291 92.4782 64.9856C92.6667 65.8702 93.0582 66.6387 93.6673 67.3203C93.8558 67.5233 94.1603 67.2188 93.9718 67.0158C93.4208 66.3922 93.0727 65.6962 92.8987 64.8841C92.8697 64.7391 92.6957 64.6956 92.5797 64.7536C91.6516 65.2031 90.6655 65.3771 89.6359 65.2901C89.3604 65.2611 89.3604 65.6962 89.6359 65.7107Z" fill="#161616"/>
<path d="M90.622 68.6689C91.7531 68.2484 92.8697 67.7988 93.9573 67.3058C94.2183 67.1898 93.9863 66.8128 93.7398 66.9288C92.6812 67.4073 91.5936 67.8424 90.506 68.2484C90.245 68.3499 90.361 68.7704 90.622 68.6689Z" fill="#161616"/>
<path d="M90.39 66.4792C90.738 66.7838 91.5356 67.8278 91.9416 67.0593C92.1302 66.7112 92.0867 66.2327 92.2027 65.8412C92.3767 65.2901 92.6667 64.7826 93.0437 64.3475C93.2178 64.13 92.9132 63.8255 92.7392 64.043C92.3332 64.5216 92.0142 65.0436 91.8256 65.6527C91.7386 65.9282 91.6661 66.2182 91.6226 66.5082C91.5646 66.8708 91.4631 66.7838 91.1876 66.6097C91.0136 66.4937 90.8541 66.3197 90.6945 66.1747C90.4915 65.9862 90.187 66.2907 90.39 66.4792Z" fill="#161616"/>
<path d="M73.3945 62.3754C77.4549 62.3319 81.5007 61.9983 85.5031 61.3603C85.7786 61.3168 85.6626 60.8962 85.3871 60.9398C81.4137 61.5633 77.4114 61.8968 73.3945 61.9258C73.119 61.9403 73.119 62.3754 73.3945 62.3754Z" fill="#161616"/>
<path d="M72.9305 56.4879C75.5552 56.5604 78.1654 56.4734 80.7757 56.2558C81.0512 56.2268 81.0512 55.7918 80.7757 55.8208C78.1654 56.0383 75.5407 56.1108 72.9305 56.0528C72.655 56.0383 72.655 56.4734 72.9305 56.4879Z" fill="#161616"/>
<path d="M73.5541 63.2309C76.3093 63.3615 79.0645 63.2599 81.7908 62.9119C82.0663 62.8829 82.0663 62.4479 81.7908 62.4769C79.05 62.8104 76.2948 62.9264 73.5541 62.7959C73.2785 62.7814 73.2785 63.2164 73.5541 63.2309Z" fill="#161616"/>
<path d="M82.7188 62.7089C83.5019 62.7234 84.2705 62.6219 85.0245 62.3754C85.2856 62.2884 85.1695 61.8678 84.9085 61.9548C84.198 62.1869 83.4729 62.2884 82.7188 62.2739C82.4433 62.2739 82.4433 62.7089 82.7188 62.7089Z" fill="#161616"/>
<path d="M75.0332 68.6834C78.3395 68.4804 81.6313 68.1759 84.9085 67.7263C85.1841 67.6828 85.1841 67.2478 84.9085 67.2913C81.6313 67.7263 78.3395 68.0454 75.0332 68.2484C74.7432 68.2629 74.7432 68.6979 75.0332 68.6834Z" fill="#161616"/>
<path d="M75.4102 69.6985C76.4978 69.6985 77.5854 69.6985 78.673 69.6985C78.9485 69.6985 78.9485 69.2635 78.673 69.2635C77.5854 69.2635 76.4978 69.2635 75.4102 69.2635C75.1347 69.2635 75.1347 69.6985 75.4102 69.6985Z" fill="#161616"/>
<path d="M76.3528 70.6701C78.0494 70.5686 79.7461 70.4091 81.4427 70.2061C82.8058 70.032 84.2705 69.9595 85.4451 69.162C85.6771 69.0025 85.4596 68.6254 85.2276 68.7849C83.9949 69.626 82.3418 69.6695 80.9062 69.829C79.398 70.003 77.8754 70.1335 76.3673 70.2351C76.0773 70.2496 76.0628 70.6846 76.3528 70.6701Z" fill="#161616"/>
<path d="M92.9132 58.9531C95.5525 58.8226 98.1772 58.4745 100.773 57.9235C100.686 57.88 100.599 57.822 100.512 57.7785C101.73 61.4038 103.528 64.7826 105.834 67.8424C105.993 68.0599 106.385 67.8424 106.211 67.6248C103.934 64.6086 102.151 61.2588 100.932 57.677C100.889 57.561 100.787 57.503 100.671 57.532C98.1192 58.083 95.538 58.4165 92.9277 58.547C92.6232 58.5325 92.6232 58.9676 92.9132 58.9531Z" fill="#161616"/>
<path d="M93.3628 71.1921C93.7543 71.7432 94.0733 72.3232 94.3488 72.9468C94.3778 73.0338 94.5084 73.0773 94.5954 73.0483C96.7271 72.3377 98.8297 71.5547 100.889 70.6701C101.933 70.2206 102.963 69.7565 103.992 69.2635C104.485 69.0315 104.978 68.7849 105.457 68.5384C105.747 68.3934 106.08 68.3064 106.182 67.9874C106.211 67.9004 106.167 67.7843 106.08 67.7408C105.95 67.6683 105.877 67.6683 105.747 67.7408C105.66 67.7843 105.616 67.9004 105.645 67.9874C105.645 68.0019 105.66 68.0164 105.66 68.0309C105.732 68.3064 106.153 68.1904 106.08 67.9149C106.08 67.9004 106.066 67.8859 106.066 67.8714C106.037 67.9584 105.993 68.0309 105.964 68.1179C105.935 68.1179 105.892 68.1179 105.863 68.1179C105.834 68.0309 105.79 67.9584 105.761 67.8714C105.674 68.1324 104.761 68.4079 104.514 68.5384C104.108 68.7414 103.702 68.9299 103.282 69.133C102.31 69.597 101.324 70.032 100.323 70.4526C98.4092 71.2646 96.4515 71.9897 94.4794 72.6423C94.5664 72.6713 94.6389 72.7148 94.7259 72.7438C94.4649 72.1202 94.1313 71.5402 93.7398 70.9891C93.5803 70.7426 93.2032 70.9601 93.3628 71.1921Z" fill="#161616"/>
<path d="M95.886 60.0842C95.857 59.8957 96.205 59.7216 96.3355 59.8521C96.5096 60.0262 96.2195 60.3452 96.0165 60.2727C95.7555 60.1712 95.6395 60.5917 95.9005 60.6932C96.5241 60.9252 97.1331 60.0262 96.6546 59.5476C96.437 59.3301 96.1035 59.3446 95.8425 59.4751C95.567 59.6201 95.422 59.8957 95.48 60.2002C95.509 60.4757 95.9295 60.3452 95.886 60.0842Z" fill="#161616"/>
<path d="M31.6309 48.4832C33.2405 48.5122 34.8647 48.4397 36.4598 48.2221C38.1275 47.9901 39.7806 47.5116 41.4772 47.5841C41.7528 47.5986 41.7528 47.1635 41.4772 47.149C39.9256 47.091 38.4175 47.4826 36.8948 47.7146C35.1547 47.9901 33.3855 48.0916 31.6164 48.0481C31.3554 48.0481 31.3554 48.4832 31.6309 48.4832Z" fill="#161616"/>
<path d="M31.8629 43.6832C34.3281 43.8718 36.7933 43.6542 39.186 43.0307C39.4616 42.9582 39.3456 42.5376 39.07 42.6101C36.7063 43.2192 34.2991 43.4367 31.8629 43.2482C31.5874 43.2337 31.5874 43.6687 31.8629 43.6832Z" fill="#161616"/>
<path d="M87.6638 31.4732C87.4173 33.0683 87.2142 34.794 88.2148 36.1861C88.3743 36.4181 88.7514 36.2006 88.5919 35.9686C87.6638 34.678 87.8668 33.0683 88.0843 31.5892C88.1278 31.3137 87.7073 31.1977 87.6638 31.4732Z" fill="#161616"/>
<path d="M87.7943 31.4587C91.2456 31.5892 94.6969 31.2557 98.0612 30.4581C97.9742 30.4146 97.8872 30.3566 97.8002 30.3131C98.1047 31.8067 98.6847 33.1988 99.4968 34.4749C99.6418 34.707 100.019 34.4894 99.8738 34.2574C99.0763 33.0103 98.5252 31.6472 98.2207 30.1971C98.1917 30.0811 98.0612 30.0231 97.9597 30.0521C94.6389 30.8351 91.2311 31.1687 87.8088 31.0381C87.5188 31.0091 87.5188 31.4442 87.7943 31.4587Z" fill="#161616"/>
<path d="M88.5774 36.1716C92.3187 36.0556 96.0165 35.5045 99.6128 34.5184C99.8883 34.4459 99.7723 34.0254 99.4968 34.0979C95.9295 35.084 92.2752 35.635 88.5774 35.7365C88.2873 35.751 88.2873 36.1861 88.5774 36.1716Z" fill="#161616"/>
<path d="M139.709 137.463C139.709 139.102 139.709 140.726 139.709 142.364C128.108 146.961 125.744 148.6 125.918 149.194C125.962 149.339 126.266 149.774 132.357 149.064C138.389 148.353 143.276 147.324 146.669 146.483C146.075 143.133 145.466 139.783 144.871 136.433C143.146 136.781 141.42 137.129 139.709 137.463Z" fill="#161616"/>
<path d="M144.915 68.1034C144.581 68.7269 144.465 69.2345 144.436 69.3505C142.363 78.1672 139.651 83.3732 137.882 93.5966C134.503 113.289 137.418 135.665 137.693 137.767C138.621 138.173 140.405 138.783 142.682 138.696C144.683 138.609 146.234 138.014 147.119 137.593C146.785 131.169 147.119 123.237 149.338 114.493C152.049 103.776 155.486 100.224 158.575 87.6946C160.866 78.4138 163.52 67.6103 158.937 64.4055C155.428 61.9113 147.206 63.7385 144.915 68.1034Z" fill="#583243"/>
<path opacity="0.2" d="M152.934 72.7293C150.614 83.3152 148.453 94.5972 146.626 106.532C144.9 117.756 143.61 128.501 142.653 138.71C144.117 138.406 145.567 138.101 147.032 137.796C146.843 133.287 147.046 129.444 147.336 126.5C147.684 122.846 148.569 114.333 152.122 105.836C152.586 104.748 153.18 103.428 154.152 100.949C155.791 96.8449 156.98 93.3356 157.516 91.6824C160.04 83.7937 161.301 74.6434 161.693 71.6272C158.763 71.9752 155.849 72.3522 152.934 72.7293Z" fill="#6D6C6C"/>
<path opacity="0.19" d="M157.719 91.1604C152.035 98.5705 149.381 105.285 148.047 109.795C146.829 113.898 146.292 117.524 145.596 122.222C144.61 128.893 144.233 134.519 144.074 138.522C145.031 138.289 145.973 138.043 146.93 137.811C146.771 132.199 147.162 127.399 147.641 123.658C148.221 119.22 148.888 114.072 151.208 107.88C152.049 105.633 152.455 104.995 154.37 100.137C155.849 96.3373 156.98 93.2196 157.719 91.1604Z" fill="#6D6C6C"/>
<path d="M171.032 135.795C171.844 137.811 172.67 139.827 173.482 141.857C166.667 146.193 163.447 148.716 163.81 149.455C164.259 150.369 170.147 148.556 181.472 144.046C180.269 140.131 179.065 136.23 177.862 132.315C175.585 133.475 173.308 134.635 171.032 135.795Z" fill="#161616"/>
<path d="M165.434 68.2774C168.987 71.5257 168.871 76.0791 169.32 83.6197C169.32 83.6197 170.422 102.167 174.12 117.074C175.048 120.801 176.731 126.587 179.848 133.519C179.326 134.186 177.905 135.81 175.411 136.665C172.859 137.535 170.684 137.071 169.871 136.854C165.434 129.284 162.287 122.831 160.257 118.365C150.846 97.744 150.092 86.8825 150.092 81.2125C150.092 75.383 150.193 68.3934 154.529 66.0587C157.792 64.304 162.577 65.6672 165.434 68.2774Z" fill="#583243"/>
<path opacity="0.15" d="M155.37 70.4961C156.98 76.6881 158.72 82.9817 160.576 89.3622C165.42 105.923 170.684 121.57 176.209 136.245C176.745 135.969 177.398 135.592 178.065 135.085C178.746 134.563 179.283 134.041 179.689 133.577C178.935 131.822 177.891 129.284 176.789 126.166C175.121 121.396 172.409 112.622 171.003 100.934C169.654 89.7103 168.972 84.0983 169.03 80.56C169.074 77.6452 169.335 71.7142 165.565 68.5239C164.782 67.8713 164.013 67.4798 163.476 67.2478C160.765 68.3354 158.067 69.423 155.37 70.4961Z" fill="#6D6C6C"/>
<path opacity="0.22" d="M169.204 84.3303C168.537 91.0734 168.32 100.108 169.944 110.549C171.583 121.047 174.555 129.618 177.238 135.853C178.065 135.172 178.891 134.49 179.718 133.794C178.732 131.459 177.441 128.211 176.15 124.238C173.671 116.596 172.598 110.636 171.67 105.285C170.727 99.8031 169.741 92.712 169.204 84.3303Z" fill="#6D6C6C"/>
<path d="M101.309 15.3043C100.729 15.5943 99.9318 16.1018 99.3083 16.9719C98.9748 17.4215 98.5687 18.016 98.5107 18.8571C98.4962 19.1906 98.4527 19.9157 98.9168 20.3942C99.0473 20.5392 99.3953 20.8147 101.106 20.7567C102.629 20.6987 103.398 20.6697 103.789 20.2637C104.543 19.4806 104.268 18.0015 103.789 17.1169C103.035 15.7103 101.556 15.3623 101.309 15.3043Z" fill="white" stroke="#161616"/>
<path d="M110.068 18.9441C112.113 21.2788 115.39 22.6709 121.408 25.1506C128.992 28.2829 132.792 29.849 137.287 30.4001C142.145 30.9946 144.741 30.3711 145.64 31.9517C146.814 33.9964 144.059 37.8247 141.217 41.0295C139.1 40.5655 136.91 39.9854 134.648 39.2314C122.249 35.1275 113.288 27.9059 107.4 21.9023C106.66 22.0619 105.399 22.2214 103.963 21.7863C102.731 21.4238 100.99 20.4957 101.092 19.7562C101.222 18.8571 104.369 18.6976 104.558 18.6831C103.601 18.2915 102.223 17.6245 100.729 16.5369C100.294 16.2179 97.8002 14.3762 98.1047 13.7961C98.3657 13.2886 100.628 13.9847 102.76 14.6372C104.703 15.2318 106.051 15.6523 107.531 16.6674C108.952 17.6245 109.778 18.6106 110.068 18.9441Z" fill="white" stroke="#161616"/>
<path d="M100.033 15.4638C100.381 15.8553 100.454 16.3774 100.758 16.7834C101.019 17.1459 101.396 17.407 101.788 17.6245C102.963 18.277 104.21 18.8136 105.413 19.4081C105.616 19.5096 105.877 19.2341 105.674 19.0601C105.051 18.5236 104.384 18.045 103.688 17.61C103.456 17.465 103.224 17.842 103.47 17.987C104.137 18.4075 104.775 18.8571 105.37 19.3646C105.457 19.2486 105.544 19.1326 105.631 19.0166C104.485 18.4656 103.34 17.929 102.209 17.3345C101.672 17.0589 101.193 16.7399 100.918 16.1889C100.729 15.8118 100.628 15.4493 100.338 15.1303C100.149 14.9562 99.8448 15.2608 100.033 15.4638Z" fill="white"/>
<path d="M101.164 16.9864C101.832 17.2764 102.47 17.6535 103.05 18.103C103.267 18.277 103.572 17.9725 103.354 17.7985C102.745 17.3199 102.093 16.9284 101.382 16.6094C101.121 16.4934 100.903 16.8704 101.164 16.9864Z" fill="white"/>
<path d="M99.4533 15.2028C100.004 16.0873 100.729 16.8124 101.585 17.3925C101.817 17.552 102.035 17.1749 101.803 17.0154C101.005 16.4789 100.338 15.7973 99.8303 14.9707C99.6853 14.7532 99.3083 14.9707 99.4533 15.2028Z" fill="white"/>
<path d="M100.106 16.3919C100.396 16.7834 100.715 17.1459 101.077 17.465C101.338 17.697 102.484 18.5236 101.89 18.9441C101.773 19.0166 101.89 19.2051 102.006 19.1326C102.412 18.8571 102.252 18.364 102.006 18.0305C101.817 17.784 101.556 17.5955 101.309 17.378C100.932 17.0444 100.599 16.6819 100.294 16.2904C100.207 16.1598 100.019 16.2759 100.106 16.3919Z" fill="#161616"/>
<path d="M99.8013 17.9C100.236 18.4946 101.063 19.3356 101.875 19.0891C102.006 19.0456 101.948 18.8426 101.817 18.8861C101.121 19.1036 100.352 18.306 99.9898 17.7985C99.9028 17.6825 99.7143 17.784 99.8013 17.9Z" fill="#161616"/>
<path d="M99.1633 18.9151C99.6418 19.5676 100.338 19.9447 101.15 19.9882C101.295 20.0027 101.295 19.7852 101.15 19.7707C100.425 19.7272 99.7868 19.3791 99.3518 18.7991C99.2648 18.6831 99.0763 18.7991 99.1633 18.9151Z" fill="#161616"/>
<path d="M98.6992 20.2202C99.3808 20.9308 100.512 20.9453 101.193 20.2202C101.295 20.1187 101.135 19.9592 101.034 20.0607C100.439 20.6987 99.4533 20.6842 98.8588 20.0607C98.7572 19.9592 98.5977 20.1187 98.6992 20.2202Z" fill="#161616"/>
<path d="M98.8443 15.1738C100.454 16.2324 101.614 18.016 103.63 18.364C103.76 18.393 103.833 18.1755 103.688 18.161C101.701 17.8275 100.541 16.0438 98.9603 14.9998C98.8298 14.8982 98.7282 15.0868 98.8443 15.1738Z" fill="#161616"/>
<path opacity="0.2" d="M98.6702 19.9157C98.1482 19.2051 98.5832 17.6825 99.8448 16.2469C101.266 17.0734 102.673 17.9145 104.094 18.7411C103.833 18.7411 101.541 18.7701 101.382 19.4806C101.353 19.5966 101.382 19.7707 101.599 20.0172C102.325 20.3652 103.543 20.8293 105.109 20.8728C105.921 20.8873 106.631 20.7858 107.182 20.6552C110.141 23.6425 115.347 28.1524 123.003 31.4297C129.732 34.3009 135.764 35.1275 139.752 35.3595C139.622 37.0707 139.491 38.7673 139.361 40.4785C132.792 38.7383 123.888 35.432 115.042 28.7905C112.026 26.5283 109.445 24.1935 107.24 21.9459C105.21 22.2794 103.949 21.9314 103.151 21.5253C102.47 21.1773 102.035 20.7422 101.135 20.6697C100.541 20.6262 100.033 20.7713 99.3808 20.4522C99.3083 20.4232 98.8878 20.2057 98.6702 19.9157Z" fill="#6D6C6C"/>
<path opacity="0.14" d="M117.348 30.1536C119.378 31.2412 121.727 32.3433 124.41 33.2858C130.254 35.3595 135.547 36.0121 139.593 36.1571C139.535 37.6362 139.491 39.1298 139.433 40.609C135.228 39.6229 129.949 37.8972 124.352 34.765C121.669 33.2713 119.349 31.6907 117.348 30.1536Z" fill="#6D6C6C"/>
<path d="M140.274 34.2864C139.448 36.1571 139.404 37.7087 139.332 40.493C139.274 42.5957 139.419 44.8578 140.55 50.8034C141.928 57.996 142.58 59.1561 142.798 62.9699C142.972 65.9572 142.74 68.4079 142.522 70.032C144.349 71.0326 147.409 72.3958 151.411 72.7003C158.488 73.2368 163.723 70.1191 165.521 68.9299C165.739 64.3766 165.956 59.8087 166.188 55.2553C165.391 51.3689 164.448 48.3237 163.766 46.3225C161.62 40.0144 159.619 37.0272 160.895 33.8659C161.606 32.1112 163.012 31.0381 163.984 30.4436C163.302 29.9215 156.153 24.6286 148.352 27.3693C147.539 27.6448 142.406 29.4575 140.274 34.2864Z" fill="white" stroke="#161616"/>
<path opacity="0.19" d="M148.323 27.3548C150.498 30.8351 151.716 33.9094 152.412 36.0556C152.412 36.0556 155.82 46.4095 153.325 60.3017C152.789 63.2599 151.832 67.4653 149.947 72.2797C150.672 72.4392 151.542 72.5698 152.528 72.6133C152.528 72.6133 154.051 72.6858 155.762 72.4683C157.85 72.1927 161.432 71.0761 165.652 68.9299C165.724 64.072 165.797 59.2286 165.869 54.3707C164.796 50.2668 163.708 46.975 162.896 44.6693C160.939 39.1733 159.561 36.5921 160.692 33.8659C161.432 32.0822 162.94 30.9801 164.114 30.3421C162.577 29.327 159.735 27.7464 155.849 27.1373C152.644 26.6443 150.005 26.9923 148.323 27.3548Z" fill="#6D6C6C"/>
<path opacity="0.11" d="M150.309 27.0213C152.644 29.8925 155.37 34.0834 157.052 39.6084C161.823 55.3858 153.978 69.22 152.165 72.2507C153.688 72.2362 155.472 72.1057 157.415 71.7287C160.881 71.0616 163.65 69.8725 165.637 68.8139C165.71 64.2895 165.782 59.7651 165.855 55.2553C164.622 51.0644 163.462 47.091 161.881 41.6966C160.808 37.9988 159.967 34.968 161.548 32.5463C162.316 31.3717 163.389 30.7191 164.201 30.3421C159.576 29.2255 154.935 28.1234 150.309 27.0213Z" fill="#6D6C6C"/>
<path d="M149.236 56.6474C149.193 53.5441 149.164 50.4553 149.12 47.3521C156.559 46.975 163.998 46.598 171.452 46.221C171.713 49.0922 171.974 51.9635 172.25 54.8347C164.578 55.4438 156.907 56.0383 149.236 56.6474Z" fill="white" stroke="#161616"/>
<path d="M146.974 55.6323C146.974 54.5012 146.974 53.3701 146.974 52.239C156.53 51.5284 166.087 50.8034 175.643 50.0928C175.715 51.4849 175.788 52.8915 175.875 54.2837C166.246 54.7187 156.603 55.1827 146.974 55.6323Z" fill="white" stroke="#161616"/>
<path d="M147.772 50.5278C147.888 52.1955 148.004 53.8486 148.105 55.5163C156.951 54.8057 165.782 54.0806 174.628 53.3701C174.7 51.862 174.773 50.3538 174.86 48.8312C165.826 49.3967 156.791 49.9623 147.772 50.5278Z" fill="white" stroke="#161616"/>
<path d="M145.611 54.2692C145.872 60.8817 146.133 67.4943 146.408 74.1069C156.269 73.0048 166.13 71.9172 175.991 70.8151C176.296 64.3185 176.6 57.822 176.905 51.3254C166.464 52.3115 156.037 53.2831 145.611 54.2692Z" fill="white" stroke="#161616"/>
<path d="M147.293 56.8504C151.774 56.2558 156.255 55.8353 160.765 55.5743C160.968 55.5598 160.968 55.2408 160.765 55.2408C156.255 55.5018 151.759 55.9223 147.293 56.5169C147.09 56.5459 147.09 56.8794 147.293 56.8504Z" fill="#161616"/>
<path d="M152.296 57.735C155.733 57.2999 159.17 56.8504 162.621 56.4154C162.824 56.3864 162.824 56.0673 162.621 56.0818C159.184 56.5169 155.747 56.9664 152.296 57.4014C152.093 57.4449 152.093 57.764 152.296 57.735Z" fill="#161616"/>
<path d="M168.813 67.0158C168.755 67.9294 168.755 68.8574 168.842 69.771C168.856 69.974 169.19 69.974 169.175 69.771C169.088 68.8574 169.074 67.9294 169.146 67.0158C169.161 66.8128 168.827 66.8128 168.813 67.0158Z" fill="#161616"/>
<path d="M168.958 67.0448C170.756 67.0883 172.54 66.9868 174.323 66.7548C174.265 66.6968 174.207 66.6388 174.164 66.5952C174.135 67.4363 174.164 68.2629 174.222 69.0895C174.236 69.2925 174.57 69.2925 174.555 69.0895C174.483 68.2629 174.468 67.4218 174.497 66.5952C174.497 66.5082 174.425 66.4212 174.338 66.4357C172.554 66.6678 170.771 66.7548 168.972 66.7258C168.74 66.7113 168.74 67.0303 168.958 67.0448Z" fill="#161616"/>
<path d="M169.088 70.032C170.872 70.061 172.627 69.8725 174.367 69.481C174.57 69.4375 174.483 69.1185 174.28 69.162C172.569 69.539 170.843 69.7275 169.088 69.6985C168.885 69.6985 168.885 70.0175 169.088 70.032Z" fill="#161616"/>
<path d="M169.77 68.0599C170.872 68.1324 171.96 68.0744 173.062 67.9004C173.265 67.8714 173.178 67.5523 172.975 67.5813C171.916 67.7553 170.843 67.7988 169.77 67.7263C169.567 67.7118 169.567 68.0454 169.77 68.0599Z" fill="#161616"/>
<path d="M170.466 68.9735C171.612 68.9444 172.714 68.7269 173.801 68.3354C173.99 68.2629 173.917 67.9439 173.714 68.0164C172.67 68.4079 171.583 68.6109 170.466 68.6544C170.263 68.6399 170.248 68.9735 170.466 68.9735Z" fill="#161616"/>
<path opacity="0.2" d="M150.295 73.3528C150.556 67.2333 150.817 61.1138 151.063 54.9797C159.532 54.2982 168.015 53.6311 176.484 52.9496C176.296 58.7501 176.092 64.5506 175.904 70.3511C167.363 71.3517 158.836 72.3522 150.295 73.3528Z" fill="#6D6C6C"/>
<path opacity="0.2" d="M173.294 48.9907C173.337 50.6729 173.25 52.674 172.815 54.8927C171.742 60.3452 169.161 64.275 167.406 66.4937C168.595 68.0744 169.784 69.655 170.988 71.2356C167.348 71.6562 163.708 72.0767 160.069 72.4973C160.649 65.8557 161.229 59.2141 161.809 52.587C161.62 51.7169 161.417 50.8469 161.229 49.9768C165.246 49.6288 169.277 49.3097 173.294 48.9907Z" fill="#6D6C6C"/>
<path d="M163.201 30.0521C166.232 29.646 169.842 36.6066 171.278 41.6096C172.931 47.3666 172.206 52.3405 171.612 54.9652C170.451 60.1132 168.044 63.7385 166.536 65.6962C166.768 66.4647 167.305 68.5529 166.42 70.8441C165.115 74.1939 161.577 75.8035 161.301 75.499C161.214 75.3975 161.388 74.977 162.766 73.3963C162.476 73.7009 160.388 75.7745 158.038 75.2815C157.632 75.1945 157.125 75.093 156.835 74.6869C156.153 73.7009 157.284 71.4677 159.692 68.9879C157.067 69.6405 156.371 69.4665 156.24 69.1765C155.907 68.4804 158.589 66.5082 159.561 65.7832C160.997 64.7246 162.287 63.9995 163.172 63.55C165.652 58.402 165.521 54.3852 165.304 52.5C164.984 49.7158 163.94 46.685 163.737 46.105C163.157 44.4373 162.882 44.0603 161.722 41.0585C159.851 36.2441 159.851 35.4175 159.924 34.7795C160.185 32.8653 161.475 30.2841 163.201 30.0521Z" fill="white" stroke="#161616"/>
<path d="M156.893 74.2809C158.502 73.3673 159.909 72.1927 161.084 70.7716C161.258 70.5541 160.953 70.2496 160.779 70.4671C159.634 71.8592 158.256 73.0193 156.675 73.9184C156.429 74.0344 156.646 74.4114 156.893 74.2809Z" fill="#161616"/>
<path d="M158.314 75.2525C159.909 74.4259 161.272 73.2803 162.374 71.8592C162.548 71.6417 162.171 71.4242 161.997 71.6417C160.953 73.0048 159.619 74.0924 158.096 74.8755C157.85 75.006 158.067 75.383 158.314 75.2525Z" fill="#161616"/>
<path opacity="0.17" d="M161.983 30.7481C159.097 33.2568 170.872 44.2633 168.856 56.7634C167.479 65.3336 161.765 70.9311 161.765 70.9311C160.17 72.5263 157.168 74.4839 157.531 75.1655C157.792 75.6585 159.605 75.209 160.257 75.006C161.49 74.6289 162.345 73.9909 162.824 73.5703C162.099 74.3824 161.272 75.383 161.446 75.586C161.693 75.847 163.752 74.7739 165.043 73.2658C167.276 70.6556 166.957 67.0303 166.739 65.5512C167.261 64.8696 167.943 63.9125 168.639 62.6944C169.277 61.6068 171.119 58.2135 171.916 53.6021C173.323 45.4379 170.437 38.9993 169.277 36.4761C168.233 34.2284 166.464 30.5016 163.781 30.3421C163.433 30.2986 162.548 30.2551 161.983 30.7481Z" fill="#6D6C6C"/>
<path opacity="0.22" d="M171.757 53.3701C170.974 55.6468 170.045 58.0395 168.943 60.5482C168.16 62.3319 167.363 63.9995 166.551 65.5801C166.145 66.8853 165.376 68.8429 163.853 70.8586C162.258 72.9758 160.504 74.2664 159.329 75.006C159.663 75.0205 160.069 74.9915 160.518 74.8755C161.649 74.6144 162.403 73.9909 162.78 73.6139C162.345 74.1649 161.896 74.7014 161.461 75.2525C161.809 75.1945 162.36 75.093 162.969 74.8175C166.159 73.3818 166.826 69.481 166.87 69.22C166.986 68.5094 167.058 67.2913 166.623 65.7832C167.667 64.5506 168.987 62.7089 170.045 60.2292C171.22 57.5029 171.612 55.0522 171.757 53.3701Z" fill="#6D6C6C"/>
<path d="M136.939 20.5102C134.604 23.1785 136.214 26.9053 136.432 27.4128C137.244 29.298 139.346 31.9807 142.015 31.7632C143.958 31.5892 145.19 29.9505 145.495 29.5155C147.641 26.4267 146.93 20.5247 143.305 19.0021C141.304 18.161 138.549 18.6541 136.939 20.5102Z" fill="#583243"/>
<path d="M142.827 22.8884C142.928 24.034 144.132 24.2806 144.944 26.1657C145.524 27.5288 145.524 28.863 145.422 29.82C146.365 29.907 148.105 29.9506 150.077 29.1965C151.629 28.6019 152.716 27.7464 153.369 27.1518C153.064 26.4702 152.615 25.4697 152.078 24.2806C149.758 19.2196 149.381 18.7846 148.816 18.5671C146.553 17.7115 142.638 20.7567 142.827 22.8884Z" fill="white" stroke="#161616"/>
<path d="M134.474 7.90863C133.981 8.60469 133.676 9.46026 133.633 13.1291C133.604 16.2614 133.778 19.1181 134.068 21.6558C134.72 21.2788 135.373 20.9018 136.025 20.5247C136.316 21.2353 136.809 22.2069 137.65 23.1495C139.317 25.0201 141.347 25.6582 142.247 25.8902C143.189 25.6582 145.538 24.9331 147.322 22.7144C148.497 21.2353 148.874 19.7707 148.961 19.4371C149.497 17.2474 148.975 15.4348 148.7 14.6807C149.048 14.5212 149.584 14.2167 149.99 13.6656C150.846 12.5055 151.078 10.4318 150.019 9.73578C149.236 9.21374 147.844 9.51827 146.8 10.5914C146.568 10.0548 146.205 9.31525 145.625 8.54668C145.48 8.35816 144.393 6.93704 143.059 6.19748C140.492 4.71835 136.243 5.41441 134.474 7.90863Z" fill="white" stroke="#161616"/>
<path d="M133.415 12.462C132.835 12.3605 131.762 12.056 131.255 11.1714C130.385 9.67778 131.661 7.40108 131.98 6.83553C132.241 6.35699 132.937 5.21139 135.895 3.13771C138.143 1.55707 139.274 0.774004 140.492 0.396971C144.813 -0.893642 148.772 1.33955 149.512 1.76009C151.063 2.64467 152.049 3.60175 152.832 4.35582C154.036 5.51592 155.385 6.85003 156.893 8.38717C160.765 13.4046 162.128 17.987 162.679 20.7277C163.302 23.831 163.94 26.9923 162.084 28.8485C160.228 30.7046 156.835 30.3276 154.761 29.443C151.875 28.2104 150.643 25.6002 149.686 23.5845C148.062 20.1332 147.96 16.8269 148.12 14.6807C149.57 14.2602 150.309 12.8971 149.976 11.8675C149.715 11.0554 148.743 10.2433 147.743 10.5334C146.974 10.7509 146.423 11.5484 146.466 12.4765C145.77 12.462 143.914 12.3025 142.145 10.9684C140.854 9.99681 140.202 8.83671 139.897 8.19865C139.1 8.30016 137.505 8.59019 135.895 9.75029C134.546 10.6784 133.792 11.795 133.415 12.462Z" fill="#583243"/>
<path opacity="0.24" d="M143.015 15.2318C144.755 17.3344 145.306 19.5531 145.306 19.5531C145.872 22.0474 145.06 24.1645 144.697 25.0201C145.611 24.3241 146.539 23.628 147.452 22.9319C148.091 25.0491 148.714 27.1518 149.352 29.269C149.831 29.2255 150.817 29.0515 151.803 28.3554C152.557 27.8189 153.006 27.1953 153.253 26.8038C152.078 25.7162 149.831 23.309 148.801 19.5241C148.308 17.697 148.236 16.0728 148.294 14.8547C149.613 14.3182 150.295 13.0276 150.019 11.9545C149.816 11.1714 149.019 10.2288 147.989 10.3738C147.133 10.5044 146.423 11.3454 146.437 12.375C145.785 12.375 144.248 12.3025 142.638 11.3309C140.97 10.3303 140.173 8.93822 139.868 8.34367C139.941 11.1279 140.796 12.7375 141.565 13.6946C142.073 14.3472 142.305 14.3762 143.015 15.2318Z" fill="#6D6C6C"/>
<path d="M136.272 14.6227C136.113 15.2028 136.127 15.7973 136.345 16.3629C136.417 16.5659 136.693 16.5804 136.765 16.3629C136.939 15.8408 136.939 15.2898 136.78 14.7677C136.693 14.5067 136.272 14.6082 136.359 14.8837C136.504 15.3478 136.49 15.7973 136.345 16.2614C136.49 16.2614 136.62 16.2614 136.765 16.2614C136.577 15.7683 136.548 15.2608 136.693 14.7532C136.765 14.4632 136.359 14.3472 136.272 14.6227Z" fill="#161616"/>
<path d="M135.75 13.7236C136.127 13.4916 136.591 13.5351 136.91 13.8396C137.113 14.0282 137.418 13.7236 137.215 13.5351C136.765 13.1001 136.069 13.0131 135.532 13.3466C135.3 13.4916 135.518 13.8686 135.75 13.7236Z" fill="#161616"/>
<path d="M137.316 17.407C137.592 17.407 137.592 16.9719 137.316 16.9719C137.026 16.9719 137.026 17.407 137.316 17.407Z" fill="#161616"/>
<path d="M138.273 16.1453C138.273 16.1598 138.273 16.1743 138.273 16.1888C138.273 16.3049 138.375 16.4064 138.491 16.4064C138.607 16.4064 138.708 16.3049 138.708 16.1888C138.708 16.1743 138.708 16.1598 138.708 16.1453C138.708 16.0293 138.607 15.9278 138.491 15.9278C138.375 15.9278 138.273 16.0148 138.273 16.1453Z" fill="#161616"/>
<path d="M138.317 17.2329C138.592 17.2329 138.592 16.7979 138.317 16.7979C138.041 16.7979 138.041 17.2329 138.317 17.2329Z" fill="#161616"/>
<path d="M132.342 15.2898C132.168 15.8698 132.183 16.4644 132.386 17.0299C132.458 17.2329 132.734 17.2329 132.806 17.0299C132.98 16.5079 132.995 15.9568 132.85 15.4348C132.777 15.1593 132.357 15.2753 132.429 15.5508C132.56 16.0148 132.545 16.4644 132.386 16.9139C132.531 16.9139 132.661 16.9139 132.806 16.9139C132.632 16.4209 132.603 15.9133 132.763 15.4058C132.835 15.1303 132.415 15.0143 132.342 15.2898Z" fill="#161616"/>
<path d="M132.096 14.2022C132.4 14.0427 132.821 14.1152 133.024 14.4052C133.183 14.6227 133.56 14.4052 133.401 14.1877C133.038 13.7091 132.415 13.5496 131.878 13.8251C131.632 13.9557 131.849 14.3327 132.096 14.2022Z" fill="#161616"/>
<path d="M136.983 22.0909C138.099 21.8878 139.071 21.2933 139.796 20.4087C139.926 20.2492 139.694 20.0172 139.564 20.1767C138.882 21.0178 137.969 21.5688 136.896 21.7718C136.693 21.8153 136.78 22.1344 136.983 22.0909Z" fill="#161616"/>
<path d="M139.245 20.2057C139.506 20.2927 139.723 20.4232 139.912 20.6117C140.057 20.7568 140.289 20.5247 140.144 20.3797C139.912 20.1477 139.636 19.9882 139.332 19.8867C139.129 19.8287 139.042 20.1477 139.245 20.2057Z" fill="#161616"/>
<path opacity="0.45" d="M148.279 1.23804C150.121 3.79027 152.484 7.40108 154.732 12.0125C157.11 16.8849 158.85 20.5537 157.502 22.0039C155.718 23.9325 149.555 20.8728 148.569 20.3652C148.772 21.6848 149.28 23.7875 150.773 25.8902C151.527 26.9488 152.847 28.8195 155.283 29.6895C156.748 30.2116 158.053 30.1826 158.56 30.1391C159.242 30.0956 160.025 30.0376 160.881 29.5735C160.881 29.5735 161.997 28.979 162.751 27.7609C163.897 25.9047 163.288 23.396 162.476 20.2492C161.504 16.4789 160.199 13.9702 158.923 11.4904C158.604 10.8814 158.227 10.1708 157.618 9.34425C157.009 8.50318 156.559 8.05364 154.674 6.24098C151.875 3.52924 151.44 3.13771 150.599 2.57216C149.671 1.93411 148.845 1.51357 148.279 1.23804Z" fill="#583243"/>
<path opacity="0.43" d="M144.784 25.9047C144.9 26.2382 145.161 27.1808 144.784 28.2249C144.219 29.7765 142.653 30.2986 142.406 30.3711C140.622 30.9511 138.375 30.0376 136.867 28.0509C137.07 28.5729 137.519 29.501 138.447 30.3131C138.911 30.7191 140.173 31.8067 141.957 31.6762C142.261 31.6472 144.219 31.5022 145.118 29.8055C145.77 28.6019 145.625 27.0938 144.784 25.9047Z" fill="#583243"/>
</svg>
