<svg width="199" height="162" viewBox="0 0 199 162" fill="none" xmlns="http://www.w3.org/2000/svg">
<path d="M17.8483 151.237C18.6098 156.791 19.8728 162.27 21.6372 167.581C21.7486 167.916 22.2872 167.767 22.1758 167.433C20.4114 162.102 19.1484 156.642 18.3869 151.089C18.3312 150.736 17.7926 150.884 17.8483 151.237V151.237Z" fill="#E8E8E8"/>
<path d="M18.0713 151.46C24.6831 153.893 31.945 154.153 38.7241 152.203C39.077 152.11 38.9284 151.572 38.5755 151.665C31.8893 153.596 24.7574 153.317 18.2198 150.922C17.8855 150.792 17.7369 151.33 18.0713 151.46V151.46Z" fill="#E8E8E8"/>
<path d="M38.3712 152.036C37.944 157.441 37.2011 162.79 36.1053 168.101C36.0311 168.454 36.5697 168.603 36.644 168.25C37.7583 162.901 38.5198 157.496 38.9284 152.036C38.9655 151.683 38.4084 151.683 38.3712 152.036V152.036Z" fill="#E8E8E8"/>
<path d="M23.9588 152.426C21.9158 150.699 20.5786 148.359 20.1143 145.721C20.0586 145.833 19.9843 145.944 19.9285 146.056C20.4114 145.944 20.7829 146 21.2101 146.241C21.4515 146.39 21.7115 146.093 21.6001 145.851C21.2844 145.257 20.9872 144.681 20.6715 144.087C20.5229 143.79 20.3557 143.511 20.2071 143.214C19.9657 142.694 19.7242 141.338 20.7272 141.542C20.95 141.58 21.1172 141.412 21.0615 141.208C20.4114 137.958 19.78 134.652 19.5757 131.346C19.4828 129.823 19.5014 128.263 19.8543 126.759C20.0214 126.034 20.2629 125.328 20.5786 124.66C20.8015 124.196 20.95 123.62 21.693 123.991C21.953 124.121 22.213 124.456 22.4173 124.678C24.3674 126.721 25.3703 129.47 26.0947 132.145C26.949 135.209 27.6548 138.329 28.2677 141.45C29.0106 145.238 29.4563 149.083 29.3263 152.965C29.3077 153.317 29.8649 153.317 29.8835 152.965C30.0135 149.176 29.5678 145.387 28.862 141.654C28.1934 138.088 27.3948 134.503 26.3361 131.03C25.5004 128.282 24.2746 125.384 21.9715 123.527C19.8171 121.8 19.0371 127.966 18.9813 129.154C18.8142 133.203 19.7057 137.401 20.5043 141.357C20.6157 141.245 20.7272 141.134 20.8386 141.022C20.0214 140.855 19.3899 141.468 19.3528 142.285C19.3342 142.88 19.65 143.437 19.91 143.938C20.3 144.681 20.6715 145.406 21.0615 146.148C21.1915 146.018 21.3215 145.888 21.4515 145.758C20.8943 145.443 20.3557 145.368 19.7428 145.517C19.5942 145.554 19.5199 145.721 19.5571 145.851C20.04 148.563 21.4329 151.014 23.5316 152.797C23.8474 153.039 24.2374 152.649 23.9588 152.426V152.426Z" fill="#E8E8E8"/>
<path d="M29.0106 141.728C28.9548 139.704 29.902 137.884 30.905 136.175C31.8893 134.485 33.0223 132.888 34.2666 131.365C34.118 131.327 33.9509 131.29 33.8023 131.235C33.8952 131.495 33.988 131.773 34.0995 132.033C34.1738 132.256 34.4709 132.312 34.6009 132.107C36.0496 129.972 37.6097 127.929 39.2998 125.978C39.1327 125.904 38.9841 125.848 38.8169 125.774C38.8912 128.449 38.6869 131.105 38.1483 133.723C37.7211 135.766 37.294 138.998 35.121 139.927C34.8424 140.057 35.0281 140.409 35.2696 140.447C37.3683 140.707 35.1024 144.793 34.7124 145.851C33.8395 148.21 33.078 150.624 32.3351 153.02C32.2236 153.355 32.7622 153.503 32.8737 153.169C33.7652 150.346 34.6381 147.486 35.7524 144.737C36.0682 143.975 36.5511 143.214 36.7182 142.397C36.9411 141.264 36.5511 140.038 35.2881 139.889C35.3438 140.057 35.381 140.242 35.4367 140.409C37.5911 139.481 38.1112 136.583 38.5755 134.559C39.2255 131.68 39.5041 128.727 39.4113 125.774C39.4113 125.551 39.0955 125.384 38.9284 125.57C37.2197 127.557 35.6224 129.637 34.1366 131.81C34.3038 131.829 34.4709 131.847 34.6381 131.885C34.5452 131.625 34.4524 131.346 34.3409 131.086C34.2852 130.9 34.0252 130.789 33.8766 130.956C32.5394 132.59 31.3136 134.318 30.2735 136.156C29.2891 137.865 28.4162 139.685 28.472 141.71C28.4534 142.1 29.0106 142.1 29.0106 141.728V141.728Z" fill="#E8E8E8"/>
<path d="M18.257 151.386C18.8885 151.182 19.6128 151.46 20.2443 151.553C20.95 151.646 21.6558 151.702 22.3616 151.72C22.7145 151.72 22.7145 151.163 22.3616 151.163C21.4701 151.144 20.5972 151.07 19.7243 150.903C19.1671 150.81 18.6656 150.662 18.1084 150.847C17.7741 150.959 17.9041 151.497 18.257 151.386V151.386Z" fill="#E8E8E8"/>
<path d="M33.1708 152.129C34.991 152.166 36.8111 152.24 38.6126 152.352C38.9655 152.37 38.9655 151.813 38.6126 151.795C36.7925 151.683 34.991 151.609 33.1708 151.572C32.818 151.553 32.818 152.11 33.1708 152.129V152.129Z" fill="#E8E8E8"/>
<path d="M20.4857 151.832C21.2472 152.017 22.0087 152.203 22.7516 152.37C23.1045 152.463 23.253 151.925 22.9002 151.832C22.1387 151.646 21.3772 151.46 20.6343 151.293C20.2814 151.219 20.1328 151.757 20.4857 151.832V151.832Z" fill="#E8E8E8"/>
<path d="M33.1522 151.776C32.725 151.869 32.595 152.445 33.0222 152.649C33.4308 152.835 34.2666 152.612 34.6937 152.593C35.3438 152.556 35.9938 152.5 36.6439 152.463C36.9968 152.445 36.9968 151.887 36.6439 151.906C36.0496 151.943 35.4367 151.98 34.8423 152.036C34.5637 152.055 34.2851 152.073 34.0066 152.092C33.8765 152.11 33.728 152.11 33.598 152.129C33.3565 152.055 33.2636 152.129 33.3194 152.333C33.6537 152.24 33.5051 151.702 33.1522 151.776V151.776Z" fill="#E8E8E8"/>
<path d="M18.8327 156.716C21.5258 161.025 24.8689 164.87 28.7877 168.12C29.0663 168.343 29.4563 167.953 29.1777 167.73C25.296 164.517 21.9715 160.728 19.2971 156.438C19.1299 156.122 18.647 156.401 18.8327 156.716V156.716Z" fill="#E8E8E8"/>
<path d="M19.8728 151.887C21.6558 155.045 23.5131 158.202 25.9832 160.877C28.5834 163.681 31.7222 166.058 34.7681 168.324C35.0653 168.547 35.3253 168.046 35.0467 167.841C32.0194 165.594 28.9363 163.254 26.3733 160.487C23.9402 157.849 22.1201 154.71 20.3557 151.609C20.17 151.293 19.6871 151.572 19.8728 151.887V151.887Z" fill="#E8E8E8"/>
<path d="M25.3332 153.15C28.2305 157.738 32.1679 161.582 36.8482 164.35C37.164 164.535 37.4426 164.052 37.1268 163.867C32.5394 161.137 28.6577 157.366 25.8161 152.853C25.6118 152.575 25.1289 152.853 25.3332 153.15V153.15Z" fill="#E8E8E8"/>
<path d="M31.6479 153.485C33.208 155.769 35.0838 157.812 37.2568 159.521C37.5354 159.744 37.9254 159.354 37.6468 159.131C35.511 157.441 33.6537 155.453 32.1308 153.206C31.9265 152.909 31.4436 153.187 31.6479 153.485V153.485Z" fill="#E8E8E8"/>
<path d="M35.6967 153.02C36.4025 154.023 37.2011 154.915 38.0926 155.732C38.3526 155.973 38.7612 155.583 38.4826 155.342C37.6097 154.562 36.8482 153.689 36.161 152.742C35.9753 152.463 35.4738 152.742 35.6967 153.02V153.02Z" fill="#E8E8E8"/>
<path d="M141.784 153.615C142.397 158.518 143.325 163.384 144.625 168.157C144.718 168.51 145.257 168.361 145.164 168.008C143.883 163.291 142.954 158.481 142.341 153.615C142.285 153.262 141.728 153.262 141.784 153.615V153.615Z" fill="#E8E8E8"/>
<path d="M142.1 153.745C147.114 155.119 152.389 155.138 157.404 153.8C157.756 153.708 157.608 153.169 157.255 153.262C152.333 154.58 147.17 154.562 142.248 153.206C141.895 153.113 141.765 153.633 142.1 153.745V153.745Z" fill="#E8E8E8"/>
<path d="M157.125 153.615C156.809 158.555 155.862 163.402 154.283 168.083C154.172 168.417 154.71 168.566 154.822 168.231C156.401 163.495 157.366 158.592 157.682 153.615C157.701 153.262 157.143 153.262 157.125 153.615V153.615Z" fill="#E8E8E8"/>
<path d="M146.724 154.116C145.758 152.835 144.997 151.423 144.533 149.882C144.31 149.139 144.143 148.396 144.031 147.616C143.938 146.91 143.53 145.443 144.588 145.48C144.755 145.48 144.923 145.294 144.848 145.127C144.607 144.384 144.458 143.678 144.421 142.898C144.347 142.991 144.291 143.084 144.217 143.158C144.755 142.973 144.978 142.545 145.071 142.007C145.257 140.93 145.164 139.741 145.183 138.645C145.257 136.119 145.313 133.593 145.387 131.049C145.238 131.123 145.108 131.216 144.96 131.29C146.594 132.405 147.356 134.671 147.987 136.472C148.637 138.366 149.083 140.335 149.362 142.304C149.937 146.353 149.882 150.457 149.677 154.543C149.659 154.896 150.216 154.896 150.234 154.543C150.439 150.197 150.494 145.814 149.789 141.524C149.436 139.388 148.916 137.271 148.117 135.265C147.467 133.63 146.743 131.847 145.238 130.826C145.053 130.696 144.83 130.863 144.811 131.067C144.755 132.999 144.718 134.931 144.663 136.844C144.644 137.809 144.607 138.775 144.588 139.741C144.57 140.354 144.83 142.36 144.05 142.638C143.938 142.675 143.845 142.787 143.845 142.898C143.883 143.715 144.031 144.495 144.291 145.276C144.384 145.164 144.477 145.034 144.551 144.923C143.994 144.904 143.418 145.034 143.325 145.628C143.195 146.576 143.418 147.727 143.604 148.674C144.031 150.754 144.941 152.705 146.204 154.413C146.446 154.692 146.928 154.413 146.724 154.116V154.116Z" fill="#E8E8E8"/>
<path d="M149.956 141.468C150.439 139.797 150.996 138.144 151.572 136.509C151.442 136.565 151.293 136.621 151.163 136.676C151.349 136.788 151.535 136.918 151.739 137.029C151.869 137.104 152.036 137.048 152.129 136.936C153.466 134.708 154.803 132.498 156.141 130.269C155.973 130.213 155.788 130.176 155.621 130.12C156.419 138.329 155.119 146.65 151.85 154.246C151.702 154.58 152.185 154.859 152.333 154.525C155.639 146.854 156.976 138.441 156.178 130.12C156.159 129.86 155.806 129.73 155.658 129.972C154.32 132.2 152.983 134.41 151.646 136.639C151.776 136.602 151.906 136.565 152.036 136.546C151.85 136.435 151.665 136.305 151.46 136.193C151.293 136.101 151.107 136.193 151.052 136.361C150.457 137.995 149.919 139.648 149.436 141.32C149.324 141.654 149.863 141.802 149.956 141.468V141.468Z" fill="#E8E8E8"/>
<path d="M142.36 153.763C143.418 153.8 144.458 153.856 145.517 153.893C145.87 153.912 145.87 153.355 145.517 153.336C144.458 153.299 143.418 153.243 142.36 153.206C142.007 153.187 142.007 153.745 142.36 153.763V153.763Z" fill="#E8E8E8"/>
<path d="M144.941 153.875C145.294 154.023 145.666 154.153 146.037 154.209C146.39 154.265 146.539 153.726 146.186 153.67C145.851 153.615 145.517 153.522 145.22 153.392C144.886 153.262 144.607 153.726 144.941 153.875V153.875Z" fill="#E8E8E8"/>
<path d="M152.612 154.079C154.153 153.856 155.676 153.708 157.236 153.615C157.589 153.596 157.589 153.039 157.236 153.057C155.639 153.15 154.042 153.299 152.463 153.54C152.11 153.596 152.259 154.135 152.612 154.079V154.079Z" fill="#E8E8E8"/>
<path d="M152.426 154.339C153.243 154.209 154.079 154.135 154.915 154.06C155.268 154.042 155.268 153.485 154.915 153.503C154.023 153.559 153.15 153.67 152.277 153.8C151.925 153.856 152.073 154.376 152.426 154.339V154.339Z" fill="#E8E8E8"/>
<path d="M142.564 156.456C143.79 156.419 144.793 157.143 145.981 157.311C147.3 157.496 148.117 156.401 149.361 156.419C150.606 156.438 151.683 157.255 152.946 157.255C153.503 157.255 154.06 157.143 154.562 156.921C155.305 156.623 155.992 156.029 156.828 156.363C157.162 156.493 157.311 155.955 156.976 155.825C155.825 155.379 154.896 156.326 153.819 156.586C152.296 156.958 151.089 156.048 149.64 155.881C148.284 155.732 147.337 156.939 146.018 156.753C144.83 156.568 143.808 155.862 142.564 155.918C142.192 155.918 142.192 156.475 142.564 156.456V156.456Z" fill="#E8E8E8"/>
<path d="M142.805 159.391C147.3 161.174 152.333 161.229 156.865 159.539C157.199 159.409 157.051 158.871 156.716 159.001C152.259 160.654 147.374 160.598 142.954 158.852C142.62 158.722 142.471 159.261 142.805 159.391V159.391Z" fill="#E8E8E8"/>
<path d="M25.5746 42.2714C25.5746 42.3086 25.5746 42.3457 25.5746 42.4014C25.5746 42.55 25.7046 42.68 25.8532 42.68C26.0018 42.68 26.1318 42.55 26.1318 42.4014C26.1318 42.3643 26.1318 42.3271 26.1318 42.2714C26.1318 42.1228 26.0018 41.9928 25.8532 41.9928C25.7046 42.0114 25.5746 42.1228 25.5746 42.2714V42.2714Z" fill="#E8E8E8"/>
<path d="M137.252 72.062C139.722 72.7678 142.397 72.8421 144.923 73.1206C147.783 73.4364 150.643 73.7335 153.503 74.0493C159.168 74.6622 164.814 75.2565 170.479 75.8694C170.832 75.9065 170.832 75.3494 170.479 75.3122C164.944 74.7179 159.409 74.1236 153.875 73.5292C151.145 73.2321 148.396 72.9349 145.666 72.6563C142.935 72.3592 140.038 72.3034 137.401 71.542C137.066 71.4305 136.918 71.9691 137.252 72.062V72.062Z" fill="black"/>
<path d="M176.979 63.5C175.159 67.6417 173.023 71.6348 170.59 75.4608C170.404 75.758 170.887 76.0366 171.073 75.7394C173.506 71.9134 175.642 67.9203 177.462 63.7786C177.611 63.4629 177.128 63.1843 176.979 63.5V63.5Z" fill="black"/>
<path d="M137.586 71.8763C141.375 69.1461 145.053 66.2488 148.563 63.1843C148.842 62.9428 148.433 62.5528 148.173 62.7942C144.681 65.8216 141.06 68.7003 137.308 71.3934C137.029 71.5977 137.308 72.0991 137.586 71.8763V71.8763Z" fill="black"/>
<path d="M148.489 63.11C153.206 62.5528 157.979 62.9243 162.715 63.1657C167.526 63.4071 172.354 63.6486 177.165 63.89C177.518 63.9086 177.518 63.3514 177.165 63.3329C172.354 63.0914 167.526 62.85 162.715 62.6085C157.979 62.3671 153.206 61.9956 148.489 62.5528C148.136 62.5899 148.136 63.1471 148.489 63.11V63.11Z" fill="black"/>
<path d="M154.543 66.6388C154.246 67.1402 153.93 67.6231 153.633 68.1246C153.522 68.2917 153.67 68.5518 153.875 68.5518C154.543 68.5332 155.212 68.5332 155.881 68.6261C156.252 68.6632 156.883 68.9232 157.273 68.7932C157.868 68.5889 158.276 67.4931 158.518 67.0102C158.685 66.6945 158.202 66.4159 158.035 66.7316C157.868 67.0474 157.701 67.456 157.478 67.7346C157.088 68.1989 156.716 68.1989 156.159 68.106C155.398 67.9946 154.636 67.976 153.875 67.9946C153.949 68.1432 154.042 68.2732 154.116 68.4218C154.413 67.9203 154.729 67.4374 155.026 66.9359C155.212 66.6202 154.729 66.3416 154.543 66.6388V66.6388Z" fill="#E8E8E8"/>
<path d="M154.915 66.9174C155.992 66.6388 157.032 66.6388 158.072 67.0845C158.406 67.2331 158.685 66.7502 158.351 66.6016C157.162 66.0816 155.992 66.0445 154.748 66.3788C154.413 66.4716 154.562 67.0102 154.915 66.9174V66.9174Z" fill="#E8E8E8"/>
<path d="M146.334 67.3445C147.319 67.3074 148.266 67.4003 149.213 67.6417C149.566 67.7346 149.714 67.196 149.362 67.1031C148.359 66.8616 147.356 66.7502 146.334 66.7874C145.981 66.8059 145.981 67.3631 146.334 67.3445V67.3445Z" fill="#E8E8E8"/>
<path d="M146.446 67.1031C147.04 66.453 147.671 65.8401 148.321 65.2458C148.581 65.0044 148.191 64.6144 147.931 64.8558C147.281 65.4501 146.668 66.0816 146.056 66.7131C145.814 66.9731 146.204 67.3817 146.446 67.1031V67.1031Z" fill="#E8E8E8"/>
<path d="M147.95 65.2644C148.767 65.673 149.826 65.5616 150.736 65.5801C151.089 65.5987 151.089 65.0415 150.736 65.023C149.974 65.0044 148.934 65.1344 148.229 64.7815C147.913 64.6329 147.634 65.0972 147.95 65.2644V65.2644Z" fill="#E8E8E8"/>
<path d="M150.327 65.2273C149.882 65.8402 149.436 66.4716 149.027 67.1217C148.842 67.4188 149.324 67.6974 149.51 67.4003C149.919 66.7502 150.346 66.1188 150.81 65.5059C151.015 65.2087 150.532 64.9301 150.327 65.2273V65.2273Z" fill="#E8E8E8"/>
<path d="M173.023 38.9469C173.023 44.5744 173.023 50.2205 173.023 55.8481C173.023 56.2009 173.58 56.2009 173.58 55.8481C173.58 50.2205 173.58 44.5744 173.58 38.9469C173.58 38.5755 173.023 38.5755 173.023 38.9469V38.9469Z" fill="#E8E8E8"/>
<path d="M173.432 56.1266C181.548 56.1266 189.683 56.1266 197.799 56.1266C198.152 56.1266 198.152 55.5695 197.799 55.5695C189.683 55.5695 181.548 55.5695 173.432 55.5695C173.06 55.5695 173.06 56.1266 173.432 56.1266V56.1266Z" fill="#E8E8E8"/>
<path d="M198.096 55.8109C198.041 50.202 197.966 44.593 197.911 39.0026C197.911 38.6498 197.353 38.6498 197.353 39.0026C197.409 44.6116 197.483 50.2205 197.539 55.8109C197.539 56.1638 198.096 56.1638 198.096 55.8109V55.8109Z" fill="#E8E8E8"/>
<path d="M173.376 39.0769C181.344 39.0769 189.311 39.0769 197.26 39.0769C197.613 39.0769 197.613 38.5197 197.26 38.5197C189.293 38.5197 181.325 38.5197 173.376 38.5197C173.023 38.5197 173.023 39.0769 173.376 39.0769V39.0769Z" fill="#E8E8E8"/>
<path d="M185.337 38.5383C185.262 38.0369 185.281 37.5168 185.43 37.0154C185.541 36.5882 185.931 35.5853 186.563 35.901C186.934 36.0867 187.045 36.7553 187.101 37.1268C187.175 37.6283 187.175 38.1297 187.12 38.6312C187.083 38.9841 187.64 38.9841 187.677 38.6312C187.77 37.7025 187.77 35.1581 186.247 35.2881C184.835 35.4181 184.65 37.6654 184.798 38.6869C184.854 39.0398 185.392 38.8912 185.337 38.5383V38.5383Z" fill="#E8E8E8"/>
<path d="M144.031 7.8748C144.031 14.7095 144.031 21.5257 144.031 28.3605C144.031 28.7133 144.588 28.7133 144.588 28.3605C144.588 21.5257 144.588 14.7095 144.588 7.8748C144.588 7.52192 144.031 7.52192 144.031 7.8748V7.8748Z" fill="#E8E8E8"/>
<path d="M144.477 28.6391C154.32 28.6391 164.145 28.6391 173.989 28.6391C174.342 28.6391 174.342 28.0819 173.989 28.0819C164.145 28.0819 154.32 28.0819 144.477 28.0819C144.124 28.0819 144.124 28.6391 144.477 28.6391V28.6391Z" fill="#E8E8E8"/>
<path d="M174.305 28.3048C174.23 21.5072 174.156 14.7281 174.082 7.93054C174.082 7.57766 173.525 7.57766 173.525 7.93054C173.599 14.7281 173.673 21.5072 173.747 28.3048C173.747 28.6577 174.305 28.6577 174.305 28.3048V28.3048Z" fill="#E8E8E8"/>
<path d="M144.421 7.98626C154.06 7.98626 163.718 7.98626 173.357 7.98626C173.71 7.98626 173.71 7.42908 173.357 7.42908C163.718 7.42908 154.06 7.42908 144.421 7.42908C144.068 7.42908 144.068 7.98626 144.421 7.98626V7.98626Z" fill="#E8E8E8"/>
<path d="M158.852 7.4105C158.759 6.77903 158.796 6.14756 158.964 5.53466C159.112 4.99605 159.595 3.73311 160.431 4.14171C161.36 4.60603 161.23 6.66759 161.137 7.48479C161.1 7.83767 161.657 7.83767 161.694 7.48479C161.805 6.40758 161.824 3.32451 160.022 3.51024C158.351 3.67739 158.146 6.35186 158.332 7.55908C158.369 7.91196 158.908 7.76338 158.852 7.4105V7.4105Z" fill="#E8E8E8"/>
<path d="M145.61 9.43492C145.61 15.0253 145.61 20.6157 145.61 26.1875C145.61 26.5404 146.167 26.5404 146.167 26.1875C146.167 20.5971 146.167 15.0067 146.167 9.43492C146.167 9.06346 145.61 9.06346 145.61 9.43492V9.43492Z" fill="#E8E8E8"/>
<path d="M145.888 26.8375C154.58 26.8375 163.272 26.8375 171.964 26.8375C172.317 26.8375 172.317 26.2803 171.964 26.2803C163.272 26.2803 154.58 26.2803 145.888 26.2803C145.536 26.2803 145.517 26.8375 145.888 26.8375V26.8375Z" fill="#E8E8E8"/>
<path d="M172.615 26.3361C172.615 20.8571 172.615 15.3596 172.615 9.88067C172.615 9.52779 172.057 9.52779 172.057 9.88067C172.057 15.3596 172.057 20.8571 172.057 26.3361C172.057 26.6889 172.615 26.6889 172.615 26.3361V26.3361Z" fill="#E8E8E8"/>
<path d="M146.111 9.63923C154.803 9.63923 163.495 9.63923 172.187 9.63923C172.54 9.63923 172.54 9.08205 172.187 9.08205C163.495 9.08205 154.803 9.08205 146.111 9.08205C145.758 9.08205 145.758 9.63923 146.111 9.63923V9.63923Z" fill="#E8E8E8"/>
<path d="M149.009 104.898C157.979 104.898 166.95 104.898 175.92 104.898C176.273 104.898 176.273 104.341 175.92 104.341C166.95 104.341 157.979 104.341 149.009 104.341C148.637 104.341 148.637 104.898 149.009 104.898V104.898Z" fill="#E8E8E8"/>
<path d="M161.787 105.4C161.787 107.109 161.787 108.817 161.787 110.526C161.787 110.879 162.344 110.879 162.344 110.526C162.344 108.817 162.344 107.109 162.344 105.4C162.344 105.029 161.787 105.029 161.787 105.4V105.4Z" fill="#E8E8E8"/>
<path d="M157.719 111.566C162.158 111.566 166.597 111.566 171.054 111.566C171.407 111.566 171.407 111.009 171.054 111.009C166.616 111.009 162.177 111.009 157.719 111.009C157.366 111.009 157.348 111.566 157.719 111.566V111.566Z" fill="#E8E8E8"/>
<path d="M20.04 92.3248C20.04 98.4724 20.04 104.638 20.04 110.786C20.04 111.139 20.5972 111.139 20.5972 110.786C20.5972 104.638 20.5972 98.4724 20.5972 92.3248C20.5972 91.9719 20.04 91.9719 20.04 92.3248V92.3248Z" fill="#E8E8E8"/>
<path d="M20.3186 92.6034C29.382 92.6034 38.4269 92.6034 47.4904 92.6034C47.8433 92.6034 47.8433 92.0462 47.4904 92.0462C38.4269 92.0462 29.382 92.0462 20.3186 92.0462C19.9471 92.0462 19.9471 92.6034 20.3186 92.6034V92.6034Z" fill="#E8E8E8"/>
<path d="M20.3372 111.195C29.4378 111.176 38.5384 111.176 47.639 111.157C47.9919 111.157 47.9919 110.6 47.639 110.6C38.5384 110.619 29.4378 110.619 20.3372 110.637C19.9843 110.637 19.9843 111.195 20.3372 111.195V111.195Z" fill="#E8E8E8"/>
<path d="M47.379 92.3991C47.379 98.4166 47.379 104.434 47.379 110.47C47.379 110.823 47.9361 110.823 47.9361 110.47C47.9361 104.453 47.9361 98.4352 47.9361 92.3991C47.9361 92.0462 47.379 92.0462 47.379 92.3991V92.3991Z" fill="#E8E8E8"/>
<path d="M22.3801 94.9064C21.9901 94.6835 22.0829 94.0521 22.5658 94.0335C23.2159 94.0149 22.8259 95.1293 22.3987 94.8507C22.1015 94.6464 21.8229 95.1293 22.1201 95.3336C23.1602 96.0393 24.1074 93.9406 22.8816 93.532C22.3987 93.3649 21.8415 93.6435 21.6372 94.1078C21.4329 94.5907 21.6558 95.1293 22.0829 95.3893C22.4173 95.575 22.6958 95.0921 22.3801 94.9064V94.9064Z" fill="#E8E8E8"/>
<path d="M23.5873 96.968C28.9362 96.968 34.2852 96.968 39.6341 96.968C39.987 96.968 39.987 96.4108 39.6341 96.4108C34.2852 96.4108 28.9362 96.4108 23.5873 96.4108C23.2159 96.4108 23.2159 96.968 23.5873 96.968V96.968Z" fill="#E8E8E8"/>
<path d="M23.8288 98.9367C26.9118 98.9367 29.9949 98.9367 33.078 98.9367C33.4308 98.9367 33.4308 98.3795 33.078 98.3795C29.9949 98.3795 26.9118 98.3795 23.8288 98.3795C23.4573 98.3795 23.4573 98.9367 23.8288 98.9367V98.9367Z" fill="#E8E8E8"/>
<path d="M24.3489 110.693C24.3489 108.724 24.3489 106.737 24.3489 104.768C24.3489 104.416 23.7917 104.416 23.7917 104.768C23.7917 106.737 23.7917 108.724 23.7917 110.693C23.7917 111.046 24.3489 111.046 24.3489 110.693V110.693Z" fill="#E8E8E8"/>
<path d="M24.1259 104.861C28.6019 104.861 33.0965 104.861 37.5725 104.861C37.9254 104.861 37.9254 104.304 37.5725 104.304C33.0965 104.304 28.6019 104.304 24.1259 104.304C23.773 104.304 23.773 104.861 24.1259 104.861V104.861Z" fill="#E8E8E8"/>
<path d="M37.294 104.713C37.294 106.663 37.294 108.613 37.294 110.582C37.294 110.935 37.8512 110.935 37.8512 110.582C37.8512 108.632 37.8512 106.681 37.8512 104.713C37.8512 104.341 37.294 104.341 37.294 104.713V104.713Z" fill="#E8E8E8"/>
<path d="M26.8747 110.619C26.8747 109.319 26.8747 108.019 26.8747 106.737C26.8747 106.384 26.3175 106.384 26.3175 106.737C26.3175 108.037 26.3175 109.337 26.3175 110.619C26.3175 110.99 26.8747 110.99 26.8747 110.619V110.619Z" fill="#E8E8E8"/>
<path d="M29.1034 110.619C29.1034 109.319 29.1034 108.019 29.1034 106.737C29.1034 106.384 28.5462 106.384 28.5462 106.737C28.5462 108.037 28.5462 109.337 28.5462 110.619C28.5462 110.99 29.1034 110.99 29.1034 110.619V110.619Z" fill="#E8E8E8"/>
<path d="M31.2579 110.563C31.2579 109.375 31.2579 108.186 31.2579 106.979C31.2579 106.626 30.7007 106.626 30.7007 106.979C30.7007 108.167 30.7007 109.356 30.7007 110.563C30.7007 110.916 31.2579 110.916 31.2579 110.563V110.563Z" fill="#E8E8E8"/>
<path d="M33.4866 110.749C33.4866 109.523 33.4866 108.279 33.4866 107.053C33.4866 106.7 32.9294 106.7 32.9294 107.053C32.9294 108.279 32.9294 109.523 32.9294 110.749C32.9294 111.102 33.4866 111.102 33.4866 110.749V110.749Z" fill="#E8E8E8"/>
<path d="M35.8825 110.433C35.8825 109.282 35.8825 108.13 35.8825 106.979C35.8825 106.626 35.3253 106.626 35.3253 106.979C35.3253 108.13 35.3253 109.282 35.3253 110.433C35.3253 110.805 35.8825 110.805 35.8825 110.433V110.433Z" fill="#E8E8E8"/>
<path d="M45.8002 94.1821C45.5773 94.0892 45.5402 93.6992 45.8002 93.6063C45.9116 93.5692 46.0974 93.5877 46.1345 93.7177C46.1717 93.792 46.0974 93.9778 45.9859 93.9592C45.8373 93.9406 45.6888 93.9963 45.6516 94.1449C45.6145 94.2749 45.6888 94.4606 45.8373 94.4792C46.2831 94.5535 46.6731 94.2192 46.6917 93.7735C46.7103 93.3463 46.3017 93.012 45.8931 93.012C45.4845 93.012 45.1502 93.272 45.0573 93.6806C44.983 94.052 45.1316 94.4792 45.4845 94.6464C45.8373 94.8135 46.1159 94.3306 45.8002 94.1821V94.1821Z" fill="#E8E8E8"/>
<path d="M92.1762 141.412C91.5819 141.45 91.1547 141.747 90.3189 142.341C89.3532 143.028 88.1831 144.031 87.0687 145.48C87.4959 147.356 88.1459 149.51 89.1674 151.757C91.9719 157.961 96.1322 161.972 98.9367 164.201C99.3267 163.737 99.8653 162.994 100.107 161.991C100.441 160.598 100.07 159.446 99.8653 158.852C99.1781 156.642 98.7138 154.358 98.1195 152.11C96.8751 147.449 97.5066 146.928 96.2622 144.774C95.8722 144.124 94.2006 141.264 92.1762 141.412Z" fill="#323232"/>
<path d="M105.548 88.8331C106.217 90.1704 107.016 91.9719 107.759 94.1821C109.579 99.6239 109.802 104.1 109.857 105.586C109.913 107.443 109.95 112.885 107.759 119.422C105.27 126.833 101.295 131.606 98.6766 134.652C96.095 137.679 93.6062 139.908 91.8047 141.394C91.8047 141.84 91.879 142.675 92.3804 143.493C93.5877 145.387 96.0578 145.35 96.225 145.35C97.7294 144.291 99.5866 142.861 101.574 141.041C104.991 137.921 107.201 135.116 108.093 133.946C109.597 131.977 112.309 128.337 114.482 122.895C116.841 117.008 117.491 111.678 117.621 108C117.769 104.007 117.324 101.184 116.692 97.1908C115.671 90.6347 114.37 87.9788 113.442 86.3815C112.588 84.9329 111.733 83.8371 111.12 83.1313C109.263 85.0257 107.406 86.9201 105.548 88.8331Z" fill="white"/>
<path d="M105.381 89.5946C109.114 96.7079 110.47 105.029 109.152 112.959C107.944 120.202 104.546 126.926 100.014 132.646C97.5065 135.803 94.6649 138.664 91.5818 141.245C91.3032 141.468 91.7118 141.877 91.9718 141.635C97.6551 136.844 102.614 131.086 105.957 124.437C109.449 117.472 110.897 109.69 109.876 101.945C109.3 97.5437 107.944 93.2534 105.883 89.316C105.697 89.0003 105.214 89.2789 105.381 89.5946V89.5946Z" fill="#323232"/>
<path d="M112.086 84.4685C116.284 92.3062 117.974 101.388 117.138 110.229C116.284 119.329 112.643 127.78 106.886 134.838C103.691 138.756 99.9953 142.211 96.0207 145.331C95.7421 145.554 96.1321 145.944 96.4107 145.721C103.617 140.057 110.062 133.11 113.888 124.697C117.584 116.581 118.679 107.369 117.342 98.5838C116.562 93.5506 114.965 88.666 112.569 84.19C112.402 83.8742 111.919 84.1528 112.086 84.4685V84.4685Z" fill="#323232"/>
<path d="M91.4333 141.394C91.749 143.901 93.8106 146.613 96.6151 145.536C96.9494 145.406 96.8008 144.867 96.4665 144.997C94.0149 145.944 92.2691 143.567 91.9905 141.394C91.9533 141.041 91.3961 141.041 91.4333 141.394V141.394Z" fill="#323232"/>
<path d="M91.2661 141.338C89.4831 142.267 88.0159 143.585 86.8644 145.22C86.6601 145.517 87.143 145.796 87.3473 145.498C88.443 143.938 89.8731 142.694 91.5447 141.821C91.8604 141.654 91.5818 141.171 91.2661 141.338V141.338Z" fill="#323232"/>
<path d="M86.9201 145.721C88.6288 153.002 92.7333 159.632 98.6394 164.257C98.918 164.48 99.3081 164.09 99.0295 163.867C93.1976 159.298 89.1488 152.779 87.4587 145.573C87.3658 145.22 86.8272 145.368 86.9201 145.721V145.721Z" fill="#323232"/>
<path d="M96.1322 145.61C96.9494 148.693 97.7851 151.757 98.6023 154.84C99.3638 157.645 100.943 161.452 98.7509 163.997C98.5095 164.275 98.9181 164.665 99.141 164.387C101.184 162.009 100.255 158.815 99.531 156.103C98.5838 152.556 97.618 149.009 96.6708 145.461C96.5779 145.108 96.0393 145.257 96.1322 145.61V145.61Z" fill="#323232"/>
<path d="M107.684 93.4763C109.133 91.0433 111.807 89.5946 114.631 89.706C114.983 89.7246 114.983 89.1674 114.631 89.1489C111.603 89.0374 108.743 90.5975 107.201 93.1977C107.016 93.4949 107.499 93.7735 107.684 93.4763V93.4763Z" fill="#323232"/>
<path d="M109.765 101.5C110.953 100.051 112.55 99.1595 114.389 98.8624C114.742 98.8067 114.593 98.268 114.241 98.3238C112.309 98.6209 110.6 99.6053 109.375 101.11C109.152 101.388 109.542 101.778 109.765 101.5V101.5Z" fill="#323232"/>
<path d="M110.656 95.8907C112.142 94.6464 113.98 94.0335 115.893 94.1078C116.246 94.1263 116.246 93.5692 115.893 93.5506C113.813 93.4763 111.845 94.1635 110.247 95.5007C109.987 95.7236 110.377 96.1136 110.656 95.8907V95.8907Z" fill="#323232"/>
<path d="M109.969 112.049C110.749 111.065 112.142 111.083 113.293 111.12C114.686 111.176 116.414 111.659 116.618 113.293C116.655 113.646 117.212 113.646 117.175 113.293C116.971 111.696 115.596 110.842 114.11 110.637C112.662 110.433 110.582 110.396 109.579 111.678C109.356 111.938 109.746 112.346 109.969 112.049V112.049Z" fill="#323232"/>
<path d="M95.055 138.441C95.185 140.595 96.2436 143.4 98.7138 143.678C99.0667 143.715 99.0667 143.158 98.7138 143.121C96.5965 142.88 95.7236 140.261 95.6121 138.441C95.5936 138.088 95.0364 138.088 95.055 138.441V138.441Z" fill="#323232"/>
<path d="M98.7695 134.633C99.1038 136.268 100.014 137.642 101.37 138.626C101.667 138.831 101.945 138.348 101.648 138.144C100.422 137.252 99.6239 135.971 99.3081 134.485C99.2338 134.132 98.6952 134.28 98.7695 134.633V134.633Z" fill="#323232"/>
<path d="M101.927 134.448C102.8 135.562 103.784 136.695 105.233 136.974C105.586 137.048 105.734 136.509 105.381 136.435C104.026 136.175 103.134 135.079 102.317 134.039C102.094 133.76 101.704 134.169 101.927 134.448V134.448Z" fill="#323232"/>
<path d="M106.143 123.768C108.539 123.675 110.805 124.511 112.588 126.127C112.848 126.369 113.256 125.978 112.978 125.737C111.102 124.028 108.687 123.118 106.143 123.23C105.79 123.23 105.79 123.787 106.143 123.768V123.768Z" fill="#323232"/>
<path d="M109.709 118.661C111.102 118.531 112.42 118.902 113.535 119.775C113.813 119.998 114.203 119.608 113.925 119.385C112.718 118.419 111.25 117.974 109.709 118.104C109.356 118.122 109.356 118.679 109.709 118.661V118.661Z" fill="#323232"/>
<path opacity="0.13" d="M110.805 85.9358C111.585 88.3317 112.532 91.7119 113.219 95.8536C113.906 100.032 114.816 105.437 113.888 111.938C112.978 118.364 110.712 122.895 109.059 126.146C104.713 134.689 98.8252 140.799 93.7735 144.923C93.012 143.715 92.2505 142.508 91.489 141.301C92.9563 140.372 95.0178 138.905 97.1165 136.751C99.1224 134.689 100.311 132.888 102.075 130.176C104.304 126.759 105.474 124.957 106.626 122.394C109.505 116.005 109.802 110.322 109.839 108.854C110.006 104.174 109.152 100.571 108.223 96.6522C107.554 93.8292 106.811 91.5076 106.217 89.8175C107.777 88.536 109.3 87.2359 110.805 85.9358Z" fill="#666666"/>
<path opacity="0.13" d="M109.337 89.706C109.727 90.7275 110.247 92.1948 110.675 93.9963C111.38 96.9308 111.677 99.8653 111.622 103.376C111.51 110.006 111.399 116.116 108.947 122.543C104.768 133.445 96.0021 139.574 91.7861 142.118C93.7548 140.019 96.4664 136.992 99.4195 133.129C103.023 128.467 104.806 126.127 106.254 123.211C111.232 113.182 109.913 103.283 109.467 100.552C108.817 96.5408 107.629 93.3463 106.644 91.1733C107.554 90.6904 108.446 90.1889 109.337 89.706Z" fill="#666666"/>
<path d="M80.1968 93.3649C79.4167 94.2563 79.4539 95.2778 79.1567 99.1781C78.7296 104.824 78.5624 103.654 78.3395 107.443C77.6338 119.627 78.6924 130.362 78.6924 130.362C79.0081 133.668 80.1411 143.845 83.2241 154.45C84.8214 159.929 87.533 167.488 87.6444 167.823C88.4431 170.051 89.1303 171.909 89.6131 173.172C89.7246 173.246 92.5662 174.843 94.6092 173.525C94.9249 173.32 95.7979 172.745 96.0022 171.667C96.1693 170.776 95.7979 170.051 95.6493 169.81C95.0364 167.953 94.1449 165.185 93.1977 161.787C91.619 156.103 89.316 147.579 88.4245 136.546C88.0902 132.33 88.0902 129.322 88.0716 124.214C88.0716 119.329 88.0716 113.869 88.7774 106.886C89.1117 103.543 89.6874 99.011 90.7461 93.6249C88.1273 92.6405 82.3698 90.9133 80.1968 93.3649Z" fill="white"/>
<path d="M78.971 97.8223C76.3522 117.807 78.0052 138.292 83.7442 157.589C85.36 162.994 87.2916 168.306 89.5203 173.487C89.6689 173.822 90.1332 173.525 90.0032 173.209C82.0541 154.766 78.0795 134.689 78.3209 114.612C78.3952 109.003 78.8038 103.376 79.5282 97.8223C79.5653 97.4694 79.0081 97.488 78.971 97.8223V97.8223Z" fill="#323232"/>
<path d="M89.1117 99.7539C87.143 118.197 87.1616 137.066 91.1733 155.249C92.3062 160.357 93.7549 165.371 95.5193 170.274C95.6493 170.609 96.1879 170.46 96.0579 170.126C89.7246 152.667 87.8302 133.928 88.5174 115.448C88.7031 110.21 89.1117 104.973 89.6689 99.7539C89.706 99.3824 89.1489 99.3824 89.1117 99.7539V99.7539Z" fill="#323232"/>
<path d="M78.3024 107.796C81.4226 109.412 85.0257 109.765 88.4059 108.78C88.7403 108.687 88.6102 108.149 88.2574 108.242C85.0257 109.189 81.5712 108.873 78.581 107.313C78.2653 107.146 77.9867 107.629 78.3024 107.796V107.796Z" fill="#323232"/>
<path d="M78.0795 113.498C80.0296 114.371 82.0912 114.705 84.2271 114.445C84.5799 114.408 84.5799 113.851 84.2271 113.888C82.2212 114.148 80.2154 113.851 78.3581 113.015C78.0424 112.866 77.7638 113.349 78.0795 113.498V113.498Z" fill="#323232"/>
<path d="M78.1909 126.257C79.6025 127.223 81.2926 127.464 82.9827 127.279C84.6914 127.093 86.7901 126.703 88.2573 125.793C88.5545 125.607 88.2759 125.124 87.9787 125.31C86.6044 126.164 84.5799 126.536 82.9827 126.721C81.404 126.907 79.8068 126.684 78.4695 125.774C78.1724 125.57 77.8938 126.053 78.1909 126.257V126.257Z" fill="#323232"/>
<path d="M79.2125 134.355C82.2584 135.581 85.7129 135.302 88.536 133.612C88.8517 133.426 88.5731 132.943 88.2574 133.129C85.5458 134.745 82.277 134.986 79.3611 133.816C79.0268 133.686 78.8968 134.225 79.2125 134.355V134.355Z" fill="#323232"/>
<path d="M82.0541 149.677C84.9329 150.699 87.7373 149.399 90.1704 147.913C90.4675 147.727 90.1889 147.244 89.8918 147.43C87.5702 148.841 84.9329 150.104 82.2027 149.139C81.8684 149.027 81.7198 149.566 82.0541 149.677V149.677Z" fill="#323232"/>
<path d="M91.5447 157.162C90.6161 158.184 89.4646 158.871 88.1459 159.205C87.793 159.298 87.9416 159.836 88.2945 159.744C89.7246 159.391 90.969 158.648 91.9533 157.571C92.1762 157.292 91.7862 156.902 91.5447 157.162V157.162Z" fill="#323232"/>
<path opacity="0.11" d="M86.1401 96.0022C85.4157 98.5281 84.5243 102.205 84.0042 106.719C83.2613 113.145 83.6513 117.955 84.1342 123.471C85.8429 142.471 86.7344 152.11 88.8331 158.332C90.839 164.275 93.1791 168.881 94.8692 171.872C94.7949 171.964 93.1977 173.877 91.1176 173.487C90.3746 173.339 89.836 172.967 89.5017 172.689C88.0345 169.364 86.1029 164.61 84.2642 158.741C82.7413 153.875 78.1353 138.236 77.9681 116.915C77.931 111.659 78.1353 104.657 79.1753 96.4108C81.4969 96.2622 83.8185 96.1322 86.1401 96.0022Z" fill="#666666"/>
<path opacity="0.11" d="M79.1754 100.831C79.4354 110.897 80.1783 119.367 80.9212 125.774C82.1841 136.881 83.1128 144.533 86.1587 154.19C88.6103 161.991 91.5448 168.176 93.7921 172.429C92.4548 172.652 91.1176 172.875 89.7618 173.097C88.4803 170.367 87.2731 167.507 86.1401 164.517C77.281 141.059 77.0024 118.512 79.1754 100.831Z" fill="#666666"/>
<path d="M116.506 41.7514C116.135 41.9928 115.671 42.6243 115.912 44.8344C116.265 47.9546 117.584 50.2762 117.676 50.4248C122.598 59.0425 121.447 58.0582 122.97 59.9897C124.79 62.2742 127.353 65.5058 131.885 67.4931C133.835 68.3475 136.472 69.5175 139.388 68.7375C141.877 68.0874 143.808 66.6759 143.808 66.6759C144.533 66.1373 145.294 65.4501 146.687 64.7629C147.486 64.3543 148.191 64.1129 148.674 63.9457C149.009 64.1315 149.51 64.3543 150.142 64.3915C151.107 64.4472 151.404 64.0386 152.426 63.9457C152.575 63.9272 153.782 63.8529 154.933 64.4658C156.122 65.0972 156.345 65.9887 156.846 65.8587C157.385 65.7287 157.571 64.5958 157.589 64.02C157.608 63.1657 157.273 62.5342 157.069 62.1813C156.586 61.2898 155.88 60.7698 155.453 60.4912C155.379 60.194 155.175 59.5811 154.636 59.024C153.986 58.3368 153.243 58.1325 152.946 58.0582C152.89 57.761 152.76 57.3339 152.426 56.9624C151.534 55.9595 149.974 56.2381 149.547 56.2938C148.061 56.5538 147.17 57.5753 146.891 57.9096C146.706 57.7982 146.204 57.5382 145.573 57.6124C144.755 57.7239 144.291 58.3368 144.105 58.5782C143.362 59.544 143.548 60.6955 143.585 60.937C142.36 61.067 141.45 61.4013 140.855 61.6799C139.722 62.2185 139.351 62.7385 138.274 63.1471C137.735 63.3514 136.806 63.6857 135.692 63.5186C134.726 63.37 134.039 62.9242 133.63 62.6271C130.38 60.3055 128.411 57.3339 128.411 57.3339C122.821 48.9204 123.378 50.0905 122.821 49.0133C121.001 45.5402 119.738 41.9928 117.676 41.5842C117.509 41.5656 116.952 41.4542 116.506 41.7514Z" fill="white"/>
<path d="M118.679 41.6399C121.112 47.0074 124.177 52.0964 127.799 56.7581C130.882 60.7327 134.986 65.7659 140.669 64.6886C141.022 64.6144 140.874 64.0757 140.521 64.15C134.708 65.2458 130.454 59.414 127.446 55.3652C124.195 51.0191 121.428 46.3203 119.181 41.3614C119.014 41.027 118.531 41.3056 118.679 41.6399V41.6399Z" fill="#323232"/>
<path d="M134.745 63.5C135.543 63.6857 136.361 63.8714 137.178 63.7414C137.976 63.6114 138.664 63.1842 139.351 62.7942C141.208 61.7542 143.233 61.197 145.368 61.1598C145.721 61.1598 145.721 60.6026 145.368 60.6026C143.697 60.6398 142.044 60.9555 140.484 61.6056C139.722 61.9213 139.035 62.3671 138.311 62.7385C137.159 63.3328 136.119 63.2585 134.893 62.9614C134.541 62.8871 134.392 63.4071 134.745 63.5V63.5Z" fill="#323232"/>
<path d="M116.562 48.6233C119.051 53.9165 121.614 59.3397 125.811 63.5186C129.489 67.1588 134.949 70.2233 140.242 68.6818C141.672 68.2732 143.01 67.5674 144.254 66.7688C145.647 65.8587 147.003 64.4658 148.767 64.4472C149.12 64.4472 149.12 63.89 148.767 63.89C146.371 63.9272 144.495 66.1187 142.471 67.1774C139.648 68.6446 136.676 68.9046 133.649 67.9017C128.393 66.1559 124.456 61.847 121.614 57.2596C119.868 54.4179 118.438 51.3906 117.026 48.3632C116.896 48.0104 116.414 48.3075 116.562 48.6233V48.6233Z" fill="#323232"/>
<path d="M145.276 60.9927C146.947 61.067 149.38 61.9213 148.897 64.0757C148.823 64.4286 149.362 64.5772 149.436 64.2243C150.012 61.6799 147.337 60.5284 145.276 60.4355C144.923 60.4169 144.923 60.9741 145.276 60.9927V60.9927Z" fill="#323232"/>
<path d="M143.957 60.7141C144.087 60.0455 144.143 59.3397 144.365 58.7082C144.681 57.7982 145.981 58.021 146.743 58.151C147.096 58.2068 147.244 57.6682 146.891 57.6124C146.111 57.4824 144.885 57.2596 144.235 57.8725C143.585 58.4854 143.585 59.7669 143.418 60.5841C143.344 60.9184 143.883 61.067 143.957 60.7141V60.7141Z" fill="#323232"/>
<path d="M145.796 59.1911C146.798 58.5782 147.727 57.891 148.656 57.1853C149.343 56.6652 150.049 56.2938 150.94 56.4981C151.776 56.7024 152.389 57.2781 152.835 57.9653C153.039 58.2625 153.522 57.9839 153.317 57.6867C152.556 56.5538 151.349 55.6623 149.9 55.9223C149.157 56.0523 148.6 56.5167 148.024 56.9624C147.207 57.5939 146.371 58.1696 145.498 58.7082C145.22 58.894 145.498 59.3768 145.796 59.1911V59.1911Z" fill="#323232"/>
<path d="M149.807 59.544C150.624 59.3769 151.293 59.0611 152.036 58.7454C152.445 58.5782 152.909 58.4296 153.317 58.5782C153.577 58.6711 153.782 58.8568 154.005 59.024C154.413 59.3397 154.803 59.6926 155.156 60.064C155.416 60.3241 155.806 59.9155 155.546 59.674C154.896 59.024 153.912 57.9468 152.909 57.9096C152.482 57.891 152.11 58.0953 151.739 58.2811C151.052 58.6339 150.402 58.8754 149.64 59.024C149.306 59.0797 149.454 59.6183 149.807 59.544V59.544Z" fill="#323232"/>
<path d="M151.107 61.2341C151.999 61.1598 152.872 61.0112 153.763 60.8069C154.432 60.6584 155.1 60.4912 155.713 60.8998C156.233 61.2341 156.549 61.7913 156.865 62.3113C157.051 62.6085 157.533 62.3299 157.348 62.0327C156.828 61.197 156.196 60.2683 155.138 60.0826C154.618 59.9897 154.098 60.1569 153.596 60.2683C152.76 60.4541 151.943 60.6026 151.089 60.6769C150.754 60.6955 150.754 61.2527 151.107 61.2341V61.2341Z" fill="#323232"/>
<path d="M149.361 64.6143C150.494 65.0415 151.479 64.5401 152.575 64.28C154.265 63.89 155.453 64.9487 156.568 66.0444C156.828 66.3045 157.218 65.8959 156.958 65.6544C156.066 64.7815 155.1 63.8714 153.819 63.6671C152.333 63.4257 150.959 64.6329 149.491 64.0757C149.176 63.9457 149.027 64.4843 149.361 64.6143V64.6143Z" fill="#323232"/>
<path d="M153.54 62.4413C154.469 62.4228 155.49 62.5342 156.326 62.98C157.422 63.5743 157.608 64.9115 156.642 65.7101C156.363 65.933 156.753 66.323 157.032 66.1002C157.905 65.3758 158.146 64.0943 157.441 63.1657C156.605 62.0513 154.84 61.8284 153.54 61.8656C153.187 61.8842 153.187 62.4413 153.54 62.4413V62.4413Z" fill="#323232"/>
<path d="M156.772 62.2185C156.939 62.5713 157.032 62.9428 157.051 63.3143C157.069 63.6671 157.626 63.6671 157.608 63.3143C157.571 62.8314 157.459 62.367 157.255 61.9213C157.106 61.6241 156.623 61.9027 156.772 62.2185V62.2185Z" fill="#323232"/>
<path d="M119.088 52.895C119.534 51.1306 121.057 49.8119 122.877 49.6633C123.23 49.6262 123.23 49.069 122.877 49.1062C120.797 49.2733 119.051 50.722 118.549 52.7464C118.475 53.0993 119.014 53.2479 119.088 52.895V52.895Z" fill="#323232"/>
<path d="M121.242 56.4795C121.242 55.4394 121.632 54.5108 122.357 53.805C122.617 53.545 122.227 53.155 121.967 53.415C121.131 54.2322 120.685 55.328 120.685 56.4981C120.685 56.8324 121.242 56.8324 121.242 56.4795V56.4795Z" fill="#323232"/>
<path d="M122.821 58.8568C123.007 56.8695 124.344 55.1608 126.238 54.5108C126.573 54.3994 126.424 53.8608 126.09 53.9722C123.954 54.7151 122.468 56.6095 122.264 58.8568C122.227 59.2097 122.784 59.2097 122.821 58.8568V58.8568Z" fill="#323232"/>
<path d="M125.607 62.6085C125.756 60.6026 127.241 58.9497 129.21 58.5596C129.563 58.4854 129.414 57.9467 129.062 58.021C126.851 58.4482 125.198 60.3612 125.05 62.5899C125.031 62.9614 125.588 62.9614 125.607 62.6085V62.6085Z" fill="#323232"/>
<path d="M129.674 66.2302C129.86 64.5401 130.863 63.0914 132.33 62.2742C132.646 62.107 132.367 61.6241 132.052 61.7913C130.38 62.7199 129.322 64.3358 129.117 66.2302C129.08 66.5831 129.637 66.5831 129.674 66.2302V66.2302Z" fill="#323232"/>
<path d="M134.318 63.37C135.358 64.8372 135.488 66.6945 134.596 68.2732C134.429 68.5889 134.893 68.8675 135.079 68.5518C136.045 66.8059 135.952 64.7072 134.801 63.0728C134.596 62.7942 134.113 63.0728 134.318 63.37V63.37Z" fill="#323232"/>
<path d="M140.744 61.717C140.799 61.9956 140.929 62.0699 141.19 62.1628C141.71 62.3671 142.192 62.4042 142.675 62.7199C143.697 63.4071 144.291 64.5586 144.273 65.7659C144.273 66.1187 144.83 66.1187 144.83 65.7659C144.848 64.7629 144.514 63.8157 143.864 63.0357C143.548 62.6642 143.177 62.3485 142.768 62.107C142.582 61.9956 141.301 61.6427 141.282 61.5499C141.208 61.2155 140.669 61.3641 140.744 61.717V61.717Z" fill="#323232"/>
<path opacity="0.11" d="M117.788 44.3887C118.754 44.3144 119.348 48.2332 121.131 52.4307C122.635 55.9409 125.904 63.5928 132.535 65.7101C135.896 66.7873 140.762 66.6202 144.607 64.6329C146.316 63.7414 147.207 62.8128 149.436 62.3485C151.943 61.8284 155.732 61.9956 156.809 64.0943C157.125 64.7072 157.143 65.3387 157.069 65.8401C156.029 64.5586 155.082 64.1872 154.395 64.0943C153.41 63.9643 152.872 64.3915 151.442 64.5029C150.327 64.5772 149.38 64.41 148.767 64.2429C147.764 64.5958 146.26 65.2272 144.607 66.2487C143.028 67.2331 142.657 67.7531 141.524 68.2546C139.574 69.1089 137.735 68.8675 136.156 68.6632C132.33 68.1431 129.656 66.3416 128.374 65.4501C127.26 64.6701 125.551 63.3328 123.285 60.4912C121.317 58.021 118.568 53.9908 116.451 48.1589C116.692 46.376 117.101 44.4444 117.788 44.3887Z" fill="#666666"/>
<path d="M74.2722 48.9576C74.495 50.0905 74.7736 51.6506 75.0522 53.5079C75.2194 54.6965 75.8694 59.3583 75.9251 65.9887C75.9808 73.0463 75.3679 79.101 74.6622 83.7071C74.0864 87.5516 73.3807 90.7461 72.8235 93.1048C74.2907 94.4978 76.668 96.4293 79.9925 97.9523C83.1685 99.401 86.0472 99.9582 88.0345 100.181C95.1478 89.0188 100.534 80.7726 103.821 75.7951C111.25 64.4843 116.432 56.851 118.531 45.113C118.921 42.9772 119.107 41.1942 119.199 39.987C116.711 39.3555 113.07 38.6683 108.65 38.8169C107.889 38.8355 106.013 38.9283 102.261 39.5969C98.3052 40.2841 93.2163 41.4542 87.3473 43.4601C83.7628 44.6673 79.2868 46.4317 74.2722 48.9576Z" fill="#323232"/>
<path d="M88.9817 50.6477C89.1675 52.2449 89.3718 54.3808 89.5203 56.9252C89.7061 60.0455 89.7061 62.5156 89.7061 64.2986C89.6689 71.7648 89.2417 79.101 89.1675 80.494C88.8517 85.7872 88.4245 92.4919 87.8116 100.311C91.359 98.8809 94.2006 97.5066 96.1694 96.4851C103.301 92.8262 108.409 89.1117 111.993 86.4744C114.798 84.4128 117.045 82.6113 118.549 81.3855C118.958 77.4481 119.237 74.0493 119.459 71.3748C119.738 67.9574 119.998 64.7072 120.184 60.3798C120.295 57.8167 120.351 56.5166 120.37 54.7337C120.407 48.7347 119.905 44.7044 119.738 43.4601C119.552 42.0114 119.348 40.8227 119.199 40.0055C114.222 40.9527 108.446 42.42 102.187 44.7416C97.1723 46.5803 92.7706 48.6233 88.9817 50.6477Z" fill="white"/>
<path d="M74.4022 49.0504C85.1 43.6458 96.5222 40.4884 108.39 39.0026C108.743 38.9655 108.743 38.4083 108.39 38.4454C102.373 39.2069 96.4108 40.2841 90.579 42.0114C84.9143 43.7015 79.3982 45.8931 74.1236 48.5675C73.7893 48.7347 74.0679 49.2176 74.4022 49.0504V49.0504Z" fill="#323232"/>
<path d="M74.2908 49.2919C76.7981 49.1619 79.2868 49.5519 81.7756 49.8862C84.1529 50.2205 86.5302 50.5362 88.9261 50.8705C89.2789 50.9263 89.4275 50.3877 89.0746 50.3319C86.5673 49.9791 84.0786 49.6447 81.5713 49.2919C79.1568 48.9576 76.7424 48.6047 74.2908 48.7347C73.9379 48.7533 73.9379 49.3104 74.2908 49.2919V49.2919Z" fill="#323232"/>
<path d="M108.093 39.114C111.863 38.8726 115.615 39.2626 119.274 40.2284C119.627 40.3213 119.775 39.7827 119.422 39.6898C115.726 38.7054 111.919 38.3154 108.093 38.5569C107.74 38.594 107.74 39.1512 108.093 39.114V39.114Z" fill="#323232"/>
<path d="M89.4275 50.6662C98.881 45.9859 108.91 42.5314 119.237 40.377C119.59 40.3027 119.441 39.7641 119.088 39.8384C108.706 42.0114 98.6395 45.4845 89.1303 50.1834C88.8332 50.3505 89.1117 50.8334 89.4275 50.6662V50.6662Z" fill="#323232"/>
<path d="M88.4802 50.6105C90.0961 63.3143 89.2974 76.148 88.4802 88.8703C88.2388 92.6219 87.9974 96.3736 87.4587 100.088C87.403 100.441 87.9416 100.59 87.9974 100.237C88.926 93.8849 89.1674 87.4216 89.5203 81.014C89.8732 74.5693 90.1146 68.1246 89.9103 61.6799C89.7803 57.9839 89.5203 54.2694 89.0374 50.6105C88.9817 50.2577 88.4245 50.2577 88.4802 50.6105V50.6105Z" fill="#323232"/>
<path d="M74.2164 48.8647C76.5194 63.37 76.0551 78.2467 72.8235 92.5848C72.7492 92.9377 73.2878 93.0862 73.3621 92.7334C76.6123 78.3024 77.0766 63.3328 74.755 48.7161C74.6993 48.3632 74.1607 48.5118 74.2164 48.8647V48.8647Z" fill="#323232"/>
<path d="M72.7492 93.012C76.7609 97.0237 81.9798 99.661 87.5888 100.478C87.9417 100.534 88.0902 99.9953 87.7374 99.9396C82.2213 99.1224 77.0952 96.5593 73.1392 92.6034C72.8792 92.3805 72.4892 92.7705 72.7492 93.012V93.012Z" fill="#323232"/>
<path d="M118.847 40.3398C121.242 53.9165 119.682 67.7345 118.122 81.3297C118.085 81.6826 118.642 81.6826 118.679 81.3297C120.24 67.6974 121.8 53.8422 119.385 40.1913C119.329 39.8384 118.791 39.987 118.847 40.3398V40.3398Z" fill="#323232"/>
<path d="M118.141 81.2926C108.892 89.056 98.5467 95.445 87.4774 100.255C87.1431 100.404 87.4402 100.887 87.756 100.738C98.8624 95.9093 109.245 89.4831 118.531 81.7012C118.809 81.4597 118.419 81.0697 118.141 81.2926V81.2926Z" fill="#323232"/>
<path d="M90.9318 52.5978C90.6161 52.3378 90.4675 51.8549 90.709 51.502C90.9318 51.1491 91.489 51.0191 91.8419 51.2606C92.1762 51.4834 92.2876 52.0035 92.0833 52.3564C91.8048 52.8021 91.1733 52.8392 90.8018 52.5049C90.5975 52.3192 90.3004 52.6164 90.5047 52.8021C91.0247 53.2664 91.8419 53.285 92.3062 52.7464C92.752 52.2449 92.6777 51.4092 92.1576 50.982C91.6562 50.5734 90.8761 50.6662 90.449 51.1306C90.0032 51.6506 90.1146 52.4678 90.6347 52.895C90.8576 53.0621 91.1547 52.765 90.9318 52.5978V52.5978Z" fill="#323232"/>
<path d="M91.3962 55.6066C91.4891 57.7239 91.5819 59.8411 91.6748 61.9584C91.6934 62.2184 92.102 62.237 92.102 61.9584C92.0091 59.8411 91.9163 57.7239 91.8234 55.6066C91.8048 55.3466 91.3776 55.3466 91.3962 55.6066V55.6066Z" fill="#323232"/>
<path d="M91.619 55.6995C97.5808 53.1179 103.747 51.0006 110.025 49.3476C110.285 49.2733 110.173 48.8833 109.913 48.939C103.598 50.6105 97.4137 52.7464 91.4147 55.328C91.1547 55.458 91.3776 55.8109 91.619 55.6995V55.6995Z" fill="#323232"/>
<path d="M92.0276 62.0142C96.8751 59.4326 101.964 57.3524 107.22 55.8109C107.48 55.7366 107.369 55.328 107.109 55.4023C101.815 56.9624 96.6894 59.0611 91.8233 61.6613C91.5819 61.7727 91.7862 62.1256 92.0276 62.0142V62.0142Z" fill="#323232"/>
<path d="M109.765 49.199C108.892 51.3163 108 53.4336 107.127 55.5509C107.016 55.7923 107.424 55.9038 107.536 55.6623C108.409 53.545 109.3 51.4277 110.173 49.3105C110.266 49.069 109.857 48.9576 109.765 49.199V49.199Z" fill="#323232"/>
<path d="M110.749 49.1061C109.932 51.1491 109.096 53.1921 108.223 55.2166C108.112 55.458 108.483 55.6809 108.576 55.4209C109.449 53.3593 110.322 51.2977 111.139 49.2176C111.269 48.9761 110.86 48.8647 110.749 49.1061V49.1061Z" fill="#323232"/>
<path d="M108.557 55.588C110.285 54.8451 111.993 54.1022 113.721 53.3593C113.962 53.2479 113.758 52.895 113.516 53.0064C111.789 53.7493 110.08 54.4922 108.353 55.2351C108.112 55.328 108.316 55.6994 108.557 55.588V55.588Z" fill="#323232"/>
<path d="M111.213 49.2547C112.253 48.8276 113.331 48.4933 114.445 48.2704C114.705 48.2147 114.593 47.8061 114.333 47.8618C113.219 48.0847 112.142 48.4004 111.102 48.8461C110.86 48.939 110.953 49.3476 111.213 49.2547V49.2547Z" fill="#323232"/>
<path d="M114.278 48.2332C113.906 49.7748 113.609 51.3349 113.368 52.9135C113.33 53.1736 113.739 53.285 113.776 53.025C114.018 51.4463 114.315 49.8862 114.686 48.3447C114.742 48.0846 114.333 47.9732 114.278 48.2332V48.2332Z" fill="#323232"/>
<path d="M115.782 80.6054C111.269 83.1684 106.756 85.7315 102.224 88.2945C101.983 88.4245 102.206 88.796 102.428 88.6474C106.942 86.0844 111.455 83.5213 115.986 80.9583C116.228 80.8283 116.005 80.4754 115.782 80.6054V80.6054Z" fill="#323232"/>
<path d="M102.688 79.1753C102.818 80.6611 102.595 82.2027 102.484 83.707C102.373 85.3043 102.261 86.9015 102.131 88.4988C102.113 88.7588 102.521 88.7588 102.558 88.4988C102.67 86.9015 102.781 85.3043 102.911 83.707C103.023 82.2212 103.246 80.6797 103.116 79.1753C103.078 78.9153 102.651 78.9153 102.688 79.1753V79.1753Z" fill="#323232"/>
<path d="M102.948 79.1753C107.35 76.7051 111.975 74.6436 116.766 73.0463C117.026 72.9535 116.915 72.5634 116.655 72.6377C111.826 74.2536 107.164 76.3151 102.725 78.8039C102.503 78.9339 102.725 79.3053 102.948 79.1753V79.1753Z" fill="#323232"/>
<path d="M116.674 72.9906C116.451 75.5722 116.079 78.1352 115.522 80.6611C115.466 80.9211 115.875 81.0326 115.931 80.7726C116.488 78.2095 116.878 75.6094 117.101 72.9906C117.119 72.7306 116.711 72.7306 116.674 72.9906V72.9906Z" fill="#323232"/>
<path d="M74.8479 49.1247C78.061 49.3476 81.2183 49.8676 84.3386 50.6291C84.6914 50.722 84.84 50.1834 84.4871 50.0905C81.3112 49.3104 78.0981 48.7904 74.8479 48.5675C74.495 48.5304 74.495 49.0876 74.8479 49.1247V49.1247Z" fill="white"/>
<path opacity="0.1" d="M106.421 43.5158C105.511 45.1687 104.1 47.8246 102.558 51.1306C98.3981 60.064 88.0531 82.277 94.9436 89.0003C96.2065 90.2261 99.011 91.879 105.976 90.4304C99.9768 93.7363 93.9778 97.0608 87.9788 100.367C88.8703 92.0648 89.2975 84.9514 89.5204 79.3796C89.6689 75.6651 89.8547 70.8176 89.7432 64.3543C89.6504 58.9868 89.3718 54.3808 89.0746 50.7777C91.1362 49.6633 93.3835 48.549 95.8165 47.4718C99.5682 45.8188 103.134 44.5187 106.421 43.5158Z" fill="#666666"/>
<path d="M33.3194 4.56886C32.9851 5.03317 33.4123 5.85037 33.6166 6.25897C33.988 6.96473 34.9352 8.4134 37.4425 9.49062C36.5139 9.69492 36.1425 10.0664 35.9753 10.3821C35.641 10.995 36.0496 11.4222 36.0496 12.8894C36.0496 13.9666 35.8081 14.1338 35.901 15.0253C35.9753 15.7868 36.2167 16.3997 36.421 16.7897C36.4582 17.1426 36.5139 17.644 36.6439 18.2569C36.7368 18.7027 36.7925 18.9255 36.8668 19.0741C37.2568 19.7799 38.3526 20.1513 39.2998 19.9656C40.4885 19.7056 41.0085 18.6284 41.0642 18.4984C41.5657 19.2413 42.0486 19.4641 42.3829 19.5199C42.9958 19.6313 43.4044 19.2784 44.593 18.9998C45.1874 18.8512 45.6702 18.7955 45.986 18.777C45.9488 19.4641 45.8931 20.4856 45.8374 21.73C45.6702 25.8346 45.5774 27.989 45.7631 30.5706C45.8188 31.3878 46.0231 33.8208 46.7289 36.9039C47.1561 38.7983 47.8247 41.6585 49.3848 44.9273C50.3506 46.9517 51.8549 50.1276 55.0494 53.1736C56.4981 54.5479 59.9712 57.7796 65.5802 58.9868C69.759 59.8783 73.2507 59.2654 75.2194 58.7639C76.7423 57.9467 78.2653 57.1481 79.7883 56.3309C80.0111 56.0152 80.3826 55.3466 80.3826 54.4922C80.3826 53.2107 79.584 52.0035 78.321 51.3349C77.3552 51.5763 76.018 51.8549 74.4208 52.0035C72.8606 52.1335 69.7776 52.3749 66.1745 51.2606C64.6329 50.7963 60.547 49.4776 57.4082 45.6702C55.9224 43.8686 55.2723 42.2528 54.1765 39.4855C52.8764 36.2353 52.3564 33.6722 51.8178 31.0164C50.6849 25.296 50.1091 22.4172 50.6477 19.6127C50.9263 18.1641 51.4463 16.4368 51.0935 14.0223C50.7406 11.6636 49.8305 10.4564 49.5519 10.1221C48.7905 9.17488 47.8618 8.6177 47.3418 8.28339C46.3946 7.68907 46.5803 8.02337 44.9831 7.1876C44.7045 7.03902 44.3887 6.87187 43.9616 6.89044C43.4601 6.92759 43.0701 7.20618 42.8658 7.41048C41.6957 7.07617 40.7113 6.76043 39.987 6.51899C38.334 5.98038 37.4983 5.72036 37.1082 5.49749C36.1239 4.94031 35.771 4.45742 34.8238 4.32741C34.5266 4.23455 33.6537 4.10454 33.3194 4.56886Z" fill="white"/>
<path d="M50.8149 14.9881C50.202 19.0556 50.2763 23.1601 50.8335 27.2275C51.3906 31.3321 52.3193 35.4924 53.7494 39.3741C54.9566 42.6614 56.7024 45.7445 59.4326 48.0104C61.8099 49.9791 64.6701 51.2792 67.6789 51.9106C71.1148 52.635 74.7179 52.4678 78.0796 51.4649C78.4139 51.3535 78.2839 50.8148 77.931 50.9263C72.0992 52.6721 65.413 51.7992 60.4727 48.1404C57.6496 46.0417 55.7552 43.0886 54.5109 39.8384C53.155 36.3653 52.3007 32.6508 51.6692 28.9919C50.8892 24.4045 50.6663 19.7242 51.3535 15.1182C51.4092 14.7838 50.8706 14.6353 50.8149 14.9881V14.9881Z" fill="#323232"/>
<path d="M45.6517 18.8141C44.9645 27.9704 45.2617 37.5725 49.5334 45.9116C53.1179 52.9135 59.4326 58.5411 67.4374 59.5068C71.7834 60.0269 76.278 59.1168 79.8811 56.5724C80.1783 56.3681 79.8997 55.8852 79.6025 56.0895C73.1207 60.6769 64.1129 59.6926 57.8911 55.1423C51.3164 50.3134 47.769 42.4386 46.5432 34.5637C45.726 29.3634 45.8188 24.0516 46.2089 18.8141C46.246 18.4612 45.6888 18.4612 45.6517 18.8141V18.8141Z" fill="#323232"/>
<path d="M77.9124 51.4463C79.8625 52.2264 80.494 54.4737 79.3425 56.2009C79.1382 56.4981 79.6211 56.7767 79.8254 56.4795C81.1997 54.4365 80.3268 51.8178 78.061 50.9077C77.7267 50.7777 77.5781 51.3163 77.9124 51.4463V51.4463Z" fill="#323232"/>
<path d="M47.2861 12.4622C47.9361 11.255 46.116 11.385 45.5217 11.1993C44.7416 10.9393 43.8687 10.2521 43.3115 9.65777C42.4758 8.76628 42.4015 6.92758 44.1473 7.26189C47.6204 7.94908 51.3164 11.125 50.7778 14.9324C50.722 15.2853 51.2607 15.4339 51.3164 15.081C51.9107 10.8093 47.9733 7.54048 44.1287 6.68614C42.7172 6.3704 41.8072 7.70763 42.2343 9.00772C42.4943 9.78777 43.1815 10.3635 43.813 10.8278C44.203 11.125 44.6302 11.4222 45.0759 11.6265C45.2802 11.7008 46.8589 12.0165 46.7661 12.1837C46.6361 12.4994 47.1189 12.778 47.2861 12.4622V12.4622Z" fill="#323232"/>
<path d="M42.3457 6.90903C40.1356 6.38899 37.9811 5.62751 35.9567 4.58744C35.0281 4.10455 33.1151 3.23164 33.078 5.07033C33.0594 6.53757 34.378 8.02339 35.4738 8.84059C37.1268 10.085 39.1884 10.5493 41.1756 10.8464C41.5285 10.9022 41.6771 10.3635 41.3242 10.3078C38.4455 9.86208 34.6752 8.85916 33.7466 5.64609C33.6723 5.46036 33.6351 5.27463 33.6351 5.07033C33.988 4.47601 34.378 4.346 34.8609 4.64316C35.1952 4.79174 35.4924 4.97747 35.8267 5.14462C36.4396 5.44179 37.0525 5.73895 37.684 5.99897C39.1512 6.61186 40.6556 7.09475 42.1971 7.44764C42.55 7.5405 42.6986 7.00189 42.3457 6.90903V6.90903Z" fill="#323232"/>
<path d="M36.9597 9.26776C35.9196 9.56492 35.4924 10.8464 35.5296 11.8308C35.5853 13.0937 36.4025 14.1524 37.4611 14.7838C38.4269 15.3782 39.8941 15.8425 40.9156 15.081C41.6585 14.5238 41.8257 13.4652 41.1757 12.778C40.9342 12.518 40.5442 12.908 40.7856 13.168C41.2314 13.6323 41.0085 14.3381 40.5442 14.6538C40.1356 14.9324 39.5784 14.9139 39.1141 14.8396C38.3898 14.7096 37.684 14.3195 37.1268 13.8366C36.5882 13.3538 36.2168 12.7409 36.1239 12.0351C36.0125 11.2736 36.2353 10.0478 37.1082 9.7878C37.4611 9.7135 37.3125 9.1749 36.9597 9.26776V9.26776Z" fill="#323232"/>
<path d="M35.8639 12.9823C35.251 14.5238 35.6596 16.4182 36.9782 17.4955C37.5725 17.9783 38.3897 18.2755 39.1512 18.1455C39.9127 17.9969 40.3584 17.4583 40.8042 16.864C41.0085 16.5668 40.5256 16.2882 40.3213 16.5854C39.8384 17.2354 39.2812 17.7369 38.4269 17.5697C37.7211 17.4397 37.1268 16.9754 36.7368 16.3997C36.0867 15.4339 35.9939 14.2267 36.421 13.1494C36.5325 12.7966 35.9939 12.648 35.8639 12.9823V12.9823Z" fill="#323232"/>
<path d="M36.0496 16.7525C36.1053 18.2755 36.6996 20.0399 38.4083 20.3742C40.2284 20.7271 41.2128 18.8698 41.6771 17.4212C41.7885 17.0868 41.2499 16.9383 41.1385 17.2726C40.767 18.4241 40.0055 20.1328 38.4826 19.7985C37.0711 19.5013 36.6439 17.9969 36.6067 16.7525C36.6067 16.3997 36.0496 16.3811 36.0496 16.7525V16.7525Z" fill="#323232"/>
<path d="M40.897 18.4612C41.0828 19.2784 41.9185 19.5756 42.68 19.687C43.8872 19.8728 44.7787 19.2599 45.9488 19.1299C46.3017 19.0927 46.3017 18.5355 45.9488 18.5727C45.373 18.647 44.8716 18.8698 44.2958 19.0184C43.5715 19.2227 41.6771 19.3899 41.4356 18.3127C41.3613 17.9598 40.8227 18.1084 40.897 18.4612V18.4612Z" fill="#323232"/>
<path d="M45.9674 19.0184C47.8246 19.7427 49.9234 19.0556 51.0377 17.4212C51.242 17.124 50.7591 16.8454 50.5548 17.1426C49.5705 18.5912 47.7132 19.1113 46.116 18.4798C45.7816 18.3498 45.6516 18.8884 45.9674 19.0184V19.0184Z" fill="#323232"/>
<path d="M66.9916 52.0035C67.716 52.7093 67.5488 54.548 67.4931 55.4766C67.4188 56.6838 67.0659 57.8353 66.2116 58.7268C65.9701 58.9868 66.3602 59.3769 66.6016 59.1168C67.5488 58.1139 67.9574 56.8324 68.0317 55.4766C68.106 54.3622 68.2546 52.4678 67.3817 51.5949C67.1217 51.3535 66.7316 51.7435 66.9916 52.0035V52.0035Z" fill="#323232"/>
<path d="M72.5077 52.3564C73.6407 54.4551 73.6592 56.9438 72.5635 59.0611C72.3963 59.3769 72.8792 59.6554 73.0463 59.3397C74.235 57.0367 74.2164 54.3622 72.9906 52.0778C72.8235 51.7435 72.3406 52.0406 72.5077 52.3564V52.3564Z" fill="#323232"/>
<path d="M45.9674 30.292C47.8246 30.9235 49.7933 30.7192 51.502 29.7348C51.8178 29.5491 51.5392 29.0662 51.2234 29.252C49.6448 30.162 47.8618 30.3292 46.116 29.7534C45.7816 29.642 45.6331 30.1806 45.9674 30.292V30.292Z" fill="#323232"/>
<path d="M47.6761 41.1756C50.0348 41.6771 52.4307 40.8042 53.8979 38.8912C54.1208 38.6126 53.6379 38.334 53.415 38.6126C52.0964 40.3027 49.9234 41.1013 47.8247 40.637C47.4718 40.5627 47.3232 41.1013 47.6761 41.1756V41.1756Z" fill="#323232"/>
<path d="M57.8353 46.506C57.9096 47.5461 57.5567 48.4933 56.8324 49.2362C56.5724 49.4962 56.981 49.8862 57.2224 49.6262C58.0582 48.7904 58.4668 47.6761 58.3925 46.4874C58.3739 46.1531 57.8167 46.1531 57.8353 46.506V46.506Z" fill="#323232"/>
<path d="M46.2831 35.641C47.1003 36.0124 47.9732 36.0867 48.8276 35.8267C49.1804 35.7338 49.0319 35.1952 48.679 35.2881C47.9732 35.4924 47.2489 35.4552 46.5617 35.1581C46.246 35.0095 45.9488 35.4924 46.2831 35.641V35.641Z" fill="#323232"/>
<path d="M45.8559 22.5844C47.4532 22.9744 49.0133 22.8072 50.5177 22.1386C50.852 21.99 50.5548 21.5071 50.2391 21.6557C48.8833 22.2686 47.4532 22.3801 46.0045 22.0458C45.6517 21.9529 45.5031 22.4915 45.8559 22.5844V22.5844Z" fill="#323232"/>
<path d="M50.9077 48.2332C53.5636 48.8461 56.1081 47.4532 57.0181 44.8902C57.1296 44.5558 56.6095 44.4073 56.4795 44.7416C55.6809 47.0074 53.3964 48.2332 51.0563 47.6946C50.7034 47.6018 50.5548 48.1404 50.9077 48.2332V48.2332Z" fill="#323232"/>
<path d="M62.2557 50.1091C63.0543 52.4678 60.6213 54.8451 58.7826 55.848C58.4668 56.0152 58.7454 56.4981 59.0612 56.3309C61.1227 55.2166 63.6858 52.5607 62.7943 49.9791C62.6828 49.6262 62.1442 49.7748 62.2557 50.1091V50.1091Z" fill="#323232"/>
<path opacity="0.13" d="M37.9626 10.3078C38.6312 10.995 37.8326 12.1465 38.4083 12.8894C38.7241 13.2794 39.4298 13.5766 41.1571 13.2423C41.1571 13.5395 41.1756 13.9852 41.3428 14.4867C41.3428 14.4867 41.7143 15.6753 42.7543 16.4368C43.9615 17.3283 45.7631 17.3469 47.3789 16.5297C47.4532 17.644 47.5832 19.2227 47.7318 21.1543C48.6047 32.1864 48.939 34.1737 49.4219 36.0681C49.9791 38.2968 50.6849 41.0642 52.5236 44.1472C53.6751 46.0602 57.5382 52.3006 65.4873 54.7894C72.2292 56.9067 78.0238 55.0865 80.0483 54.3436C79.9368 55.1051 79.8068 55.8852 79.6954 56.6467C78.8039 57.1853 77.5224 57.8725 75.888 58.4296C75.6837 58.5039 72.0063 59.6926 67.9017 59.3211C60.1569 58.6154 54.7708 52.7092 53.4336 51.242C48.6047 45.9302 47.2303 40.117 46.5989 37.4796C45.6702 33.5237 45.5959 29.8834 45.5402 27.2647C45.4659 23.9402 45.6702 21.1357 45.8931 19.0927C45.5588 19.2598 44.7045 19.6127 43.5901 19.4456C42.3272 19.2598 41.5285 18.5355 41.2871 18.2941C41.2314 18.4426 40.9342 19.3527 39.9498 19.7985C39.8941 19.8356 38.8355 20.2813 37.9069 19.7985C37.0711 19.3713 36.8482 18.4427 36.4025 16.604C36.1239 15.4896 36.0682 14.691 35.9567 13.4095C35.7339 10.605 36.031 10.2707 36.2167 10.1221C36.6625 9.76921 37.5354 9.86207 37.9626 10.3078Z" fill="#666666"/>
<path opacity="0.15" d="M49.4962 44.7416C50.0533 45.3916 50.9077 46.3388 51.9849 47.3975C53.8793 49.2733 58.1882 53.5636 62.9985 55.5694C69.7032 58.3554 76.6308 56.4238 79.7696 55.3094C79.6582 55.6995 79.5282 56.0709 79.4167 56.4609C78.4881 56.9624 69.6847 61.5313 60.3426 57.0738C52.5421 53.3779 49.9419 46.0788 49.4962 44.7416Z" fill="#666666"/>
<path d="M91.5261 33.8023C91.3404 34.8423 91.2661 35.7524 91.2475 36.421C91.229 36.8296 91.1732 38.3526 91.4704 40.3584C91.6004 41.2871 91.7861 42.0671 91.9347 42.6429C92.6962 42.8472 93.792 43.0515 95.1292 42.9772C96.8936 42.8843 98.2494 42.3457 99.0666 41.9557C99.0295 41.4542 98.9923 40.6556 98.8995 39.6712C98.6952 37.4611 98.528 36.681 98.5094 35.2324C98.4909 34.6195 98.5094 33.6908 98.6209 32.5579C97.8408 32.3536 96.2993 32.0564 94.4606 32.5022C93.1048 32.7994 92.1204 33.3751 91.5261 33.8023Z" fill="white"/>
<path d="M91.2847 33.598C90.6532 36.5325 91.0618 39.4855 91.5262 42.42C91.5819 42.7729 92.1205 42.6243 92.0648 42.2714C91.619 39.4484 91.2104 36.5696 91.8233 33.7466C91.8976 33.3937 91.359 33.2451 91.2847 33.598V33.598Z" fill="#323232"/>
<path d="M91.6561 33.988C92.4919 33.2451 93.7177 32.9851 94.7763 32.7622C95.9836 32.5208 97.1722 32.4836 98.3794 32.7065C98.7323 32.7808 98.8809 32.2422 98.528 32.1679C97.2279 31.9079 95.9278 31.9636 94.6278 32.2236C93.4391 32.465 92.1762 32.7622 91.2475 33.598C91.0061 33.8394 91.3961 34.2294 91.6561 33.988V33.988Z" fill="#323232"/>
<path d="M98.3237 32.5208C98.1008 35.641 98.268 38.7612 98.788 41.8442C98.8437 42.1971 99.3823 42.0485 99.3266 41.6957C98.8066 38.6497 98.658 35.5853 98.8809 32.5208C98.8994 32.1679 98.3423 32.1679 98.3237 32.5208V32.5208Z" fill="#323232"/>
<path d="M91.6376 42.6057C92.5476 43.3301 94.0892 43.2372 95.2035 43.2001C96.5965 43.1629 97.9523 42.8658 99.1595 42.16C99.4752 41.9743 99.1967 41.4914 98.8809 41.6771C97.8408 42.29 96.7079 42.5686 95.5193 42.6429C94.5721 42.6986 92.8262 42.8286 92.0462 42.2157C91.749 41.9928 91.359 42.3829 91.6376 42.6057V42.6057Z" fill="#323232"/>
<path d="M91.5448 37.0525C92.232 36.0867 93.3835 35.771 94.4978 35.5295C95.7422 35.2509 97.0237 34.9909 98.1752 35.6967C98.4909 35.8824 98.7695 35.3995 98.4538 35.2138C97.1723 34.4337 95.7422 34.6752 94.3492 34.9909C93.0863 35.2881 91.8605 35.6781 91.0619 36.7739C90.8576 37.0525 91.3405 37.3311 91.5448 37.0525V37.0525Z" fill="#323232"/>
<path d="M91.6562 40.2284C93.5506 38.6869 96.0207 38.074 98.4352 38.5569C98.7881 38.6312 98.9366 38.0926 98.5838 38.0183C95.965 37.4982 93.3463 38.1483 91.2661 39.8384C90.9875 40.0613 91.3776 40.4513 91.6562 40.2284V40.2284Z" fill="#323232"/>
<path d="M94.7578 40.9899C95.3893 40.7113 96.0393 40.6184 96.7451 40.6184C97.228 40.6184 98.3052 40.5627 98.6395 40.9527C98.8809 41.2313 99.271 40.8227 99.0295 40.5627C98.6024 40.0613 97.6366 40.117 97.0423 40.0798C96.1508 40.0427 95.315 40.1727 94.4792 40.5256C94.1449 40.6556 94.4235 41.1199 94.7578 40.9899V40.9899Z" fill="#323232"/>
<path d="M74.0306 31.7407C75.6093 32.6322 78.0795 33.8208 81.2554 34.4709C84.6728 35.1766 87.3287 34.9538 90.3189 34.6937C91.5075 34.5823 95.4635 34.1923 100.738 32.6508C104.007 31.685 108.39 30.1063 113.275 27.4133C113.646 25.5746 113.98 23.4573 114.129 21.0985C114.296 18.5541 114.24 16.2511 114.073 14.2638C113.033 13.1123 111.77 11.8679 110.266 10.6236C108.892 9.47205 107.554 8.54342 106.329 7.78194C95.5564 15.7682 84.8028 23.7544 74.0306 31.7407Z" fill="#323232"/>
<path d="M106.273 7.76338C106.533 8.69202 106.867 10.0107 107.127 11.6451C107.294 12.6666 107.814 16.3811 107.183 21.2657C107.016 22.6401 106.7 24.4602 106.106 26.5589C105.437 26.9675 104.508 27.5061 103.376 28.1005C99.6238 30.0506 96.4665 30.9792 95.3521 31.295C94.5535 31.5178 90.7461 32.5579 85.49 32.7808C82.5927 32.8922 78.581 32.7994 73.8635 31.815C74.1978 26.1503 74.5507 20.5042 74.885 14.8396C75.9437 14.3195 77.4109 13.6323 79.2125 12.908C80.364 12.4437 85.6943 10.3264 93.3463 8.97061C96.7636 8.35771 101.128 7.8191 106.273 7.76338Z" fill="white"/>
<path d="M74.7179 14.821C74.3279 20.4671 73.9378 26.1318 73.5664 31.7779C73.5478 32.1307 74.105 32.1307 74.1236 31.7779C74.5136 26.1318 74.9036 20.4671 75.2751 14.821C75.2936 14.4495 74.7365 14.4495 74.7179 14.821V14.821Z" fill="#323232"/>
<path d="M75.2936 14.8953C84.8957 10.475 95.3893 8.1534 105.957 8.09768C106.31 8.09768 106.31 7.5405 105.957 7.5405C95.2778 7.59621 84.71 9.93637 75.015 14.4124C74.6993 14.561 74.9779 15.0439 75.2936 14.8953V14.8953Z" fill="#323232"/>
<path d="M73.7706 31.945C84.8028 34.638 96.5779 32.8179 106.236 26.8375C106.533 26.6518 106.254 26.1689 105.957 26.3546C96.4107 32.2422 84.8028 34.0623 73.9192 31.4064C73.5663 31.3135 73.4177 31.8521 73.7706 31.945V31.945Z" fill="#323232"/>
<path d="M105.864 7.85625C107.61 14.0409 107.554 20.5785 105.716 26.7447C105.604 27.0975 106.143 27.2276 106.254 26.8932C108.13 20.6528 108.186 13.9852 106.403 7.70766C106.31 7.35478 105.771 7.50337 105.864 7.85625V7.85625Z" fill="#323232"/>
<path d="M106.18 7.93053C109.096 9.80637 111.659 12.128 113.813 14.8396C114.036 15.1182 114.426 14.7281 114.203 14.4495C112.012 11.7008 109.412 9.36063 106.459 7.46621C106.161 7.24334 105.883 7.72623 106.18 7.93053V7.93053Z" fill="#323232"/>
<path d="M113.702 14.6724C114.092 18.9999 113.851 23.3273 112.978 27.599C112.903 27.9519 113.442 28.1005 113.516 27.7476C114.408 23.4387 114.649 19.0556 114.259 14.691C114.222 14.3195 113.665 14.3195 113.702 14.6724V14.6724Z" fill="#323232"/>
<path d="M73.8078 32.1122C75.3494 32.7436 76.8909 33.3565 78.4324 33.988C79.5839 34.4523 80.7726 34.638 81.9798 34.7866C84.8214 35.1767 87.7188 35.2695 90.579 35.0095C95.3893 34.6009 100.144 33.2265 104.657 31.5736C107.703 30.4592 110.656 29.122 113.498 27.5804C113.813 27.4133 113.535 26.9304 113.219 27.0975C108.687 29.5491 103.914 31.3878 98.9738 32.7994C93.7735 34.2852 88.4617 34.9352 83.057 34.3409C81.7569 34.1923 80.3083 34.0994 79.0825 33.6351C77.3552 32.9851 75.6465 32.2422 73.9378 31.555C73.6221 31.4435 73.4735 31.9822 73.8078 32.1122V32.1122Z" fill="#323232"/>
<path d="M105.846 27.2833C108.334 27.7662 110.842 27.859 113.368 27.5619C113.721 27.5247 113.721 26.9675 113.368 27.0047C110.897 27.3018 108.446 27.209 105.994 26.7447C105.641 26.6889 105.493 27.209 105.846 27.2833V27.2833Z" fill="#323232"/>
<path d="M80.4011 18.8698C79.9182 18.647 79.9925 17.9598 79.9739 17.5326C79.9553 17.3097 79.9368 17.0869 79.9553 16.8454C79.9553 16.5854 79.9925 16.3625 80.1039 16.1211C80.2339 15.8239 80.4382 15.7868 80.6797 15.9725C81.1068 16.1211 81.0511 16.2325 81.0511 16.6411C81.0511 16.8826 81.0325 17.1054 81.014 17.3469C80.9954 17.5883 80.9954 17.8483 80.9768 18.0898C80.9768 18.1641 80.7725 19.4456 80.4197 18.9256C80.2154 18.6284 79.7325 18.907 79.9368 19.2042C80.4754 20.0028 81.3297 19.3713 81.4783 18.647C81.6083 17.9969 81.6083 17.2355 81.6083 16.5668C81.6083 16.1397 81.534 15.6568 81.1626 15.3968C80.3268 14.8024 79.5096 15.7868 79.4167 16.5668C79.3239 17.3655 79.231 18.9627 80.1225 19.3713C80.4382 19.5013 80.7168 19.0184 80.4011 18.8698V18.8698Z" fill="#323232"/>
<path d="M80.1411 15.7496C79.8253 16.9011 79.8996 18.0712 80.3454 19.1856C80.4568 19.4642 80.9025 19.4456 80.884 19.1113C80.8654 18.0341 80.9211 16.9754 81.0511 15.9168C80.8654 15.9168 80.6797 15.9168 80.4939 15.9168C80.5497 16.3625 80.5868 16.7897 80.5868 17.2354C80.5868 17.4212 80.6054 17.6626 80.5682 17.8298C80.5497 17.9598 80.3825 18.4241 80.4568 17.9784C80.5125 17.6255 79.9553 17.6255 79.8996 17.9784C79.8253 18.517 80.3454 19.3342 80.9211 18.777C81.144 18.5541 81.1254 18.1269 81.144 17.8298C81.1811 17.1797 81.144 16.5483 81.0697 15.9168C81.0326 15.5639 80.5682 15.5639 80.5125 15.9168C80.3639 16.9754 80.3082 18.0341 80.3454 19.1113C80.5311 19.0927 80.7168 19.0556 80.884 19.037C80.4754 18.0155 80.4011 16.9754 80.6797 15.8982C80.7725 15.5639 80.2339 15.4153 80.1411 15.7496V15.7496Z" fill="#323232"/>
<path d="M79.9368 16.214C79.7882 16.5854 79.7696 16.9754 79.8253 17.3655C79.8439 17.514 80.0296 17.5883 80.1596 17.5512C80.3268 17.514 80.3825 17.3655 80.3454 17.2169C80.3082 16.9197 80.3639 16.6411 80.4568 16.3625C80.6054 16.0282 80.0668 15.8796 79.9368 16.214V16.214Z" fill="#323232"/>
<path d="M95.8164 16.0468C95.3335 15.8239 95.4078 15.1367 95.3893 14.7096C95.3707 14.4867 95.3521 14.2824 95.3707 14.0595C95.3707 13.9295 95.3707 13.7995 95.4078 13.6881C95.4264 13.2609 95.7793 13.1309 96.4293 13.3166C96.6151 13.5952 96.4479 14.3753 96.4293 14.6724C96.4108 14.8767 96.4108 15.081 96.3922 15.2853C96.3922 15.3596 96.1879 16.6411 95.835 16.1211C95.6307 15.8239 95.1478 16.1025 95.3521 16.3997C95.8907 17.1983 96.7451 16.5668 96.8937 15.8425C97.0237 15.211 97.0051 14.4867 97.0237 13.8552C97.0237 13.428 96.9865 12.9266 96.6336 12.6294C95.835 11.9422 94.9621 12.8709 94.8321 13.6509C94.7021 14.4495 94.6278 16.1211 95.5193 16.5483C95.8722 16.6783 96.1507 16.2139 95.8164 16.0468V16.0468Z" fill="#323232"/>
<path d="M95.575 12.9452C95.2592 14.0967 95.3335 15.2667 95.7793 16.3811C95.8907 16.6597 96.3364 16.6411 96.3179 16.3068C96.2993 15.2296 96.355 14.1709 96.485 13.1123C96.2993 13.1123 96.1136 13.1123 95.9278 13.1123C95.9836 13.5581 96.0207 13.9852 96.0207 14.431C96.0207 14.6167 96.0393 14.8581 96.0021 15.0253C95.9836 15.1553 95.8164 15.6196 95.8907 15.1739C95.9464 14.821 95.3892 14.821 95.3335 15.1739C95.2592 15.7125 95.7793 16.5297 96.355 15.9725C96.5779 15.7496 96.5593 15.3225 96.5779 15.0253C96.615 14.3752 96.5779 13.7438 96.5036 13.1123C96.4665 12.7594 96.0021 12.7594 95.9464 13.1123C95.7978 14.1709 95.7421 15.2296 95.7793 16.3068C95.965 16.2882 96.1507 16.2511 96.3179 16.2325C95.9093 15.211 95.835 14.1709 96.1136 13.0937C96.2064 12.7409 95.6678 12.5923 95.575 12.9452V12.9452Z" fill="#323232"/>
<path d="M95.3707 13.3909C95.2221 13.7624 95.2035 14.1524 95.2592 14.5424C95.2778 14.691 95.4635 14.7653 95.5935 14.7281C95.7607 14.691 95.8164 14.5424 95.7793 14.3938C95.7421 14.0967 95.7978 13.8181 95.8907 13.5395C96.0393 13.2052 95.5007 13.0752 95.3707 13.3909V13.3909Z" fill="#323232"/>
<path d="M84.8957 21.8043C86.5301 22.0272 88.7031 21.8229 90.1517 20.9685C90.4675 20.7828 90.1889 20.2999 89.8731 20.4857C88.5545 21.2471 86.5301 21.47 85.0443 21.2657C84.7099 21.2286 84.5428 21.7672 84.8957 21.8043V21.8043Z" fill="#323232"/>
<path d="M84.6357 21.8415C85.1371 22.9558 86.3629 24.5159 87.7745 24.3302C89.1674 24.1631 90.0032 22.1944 90.3003 21.0243C90.3932 20.6714 89.8546 20.5228 89.7617 20.8757C89.5574 21.7115 88.9631 23.2716 88.0716 23.643C86.7715 24.1816 85.5829 22.5472 85.1371 21.5443C84.97 21.2471 84.4871 21.5257 84.6357 21.8415V21.8415Z" fill="#323232"/>
<path d="M85.1 22.0643C86.5301 22.733 88.666 22.3801 89.8732 21.4143C89.7432 21.2843 89.6132 21.1543 89.4832 21.0243C88.7774 21.6 87.9045 21.9343 86.9759 21.9158C86.4744 21.9158 86.0658 21.6557 85.6572 21.99C85.5829 22.0643 85.5643 22.1758 85.5829 22.2686C85.6758 22.7701 86.363 23.0115 86.7901 23.0858C87.6816 23.2344 88.4988 22.8072 89.2046 22.2872C89.0931 22.1386 88.9817 21.99 88.8703 21.8415C88.2388 22.5658 86.623 22.9558 85.9358 22.0829C85.7315 21.8229 85.36 22.1572 85.49 22.4172C85.8801 23.123 86.4744 23.8287 87.3659 23.773C88.2945 23.7359 88.8703 22.9373 89.3346 22.2315C89.5203 21.9529 89.1303 21.7115 88.8888 21.8972C88.4617 22.2315 88.1645 22.2872 87.7002 22.4544C87.403 22.5658 87.1802 22.5101 87.2916 22.8815C87.3845 23.1787 87.7002 23.2716 87.9602 23.2716C88.7588 23.2344 89.576 22.0829 89.9289 21.47C90.0775 21.21 89.706 20.8943 89.4832 21.1357C88.7774 21.8972 88.3688 23.123 87.2359 23.2901C86.883 23.3459 87.0316 23.8845 87.3845 23.8287C88.666 23.6244 89.0931 22.3615 89.8732 21.5257C89.7246 21.4143 89.576 21.3029 89.4275 21.1914C89.1674 21.6186 88.7217 22.3244 88.2202 22.5287C87.8302 22.6772 87.8859 22.5844 87.5888 22.2686C87.5145 22.1758 87.4587 22.0643 87.3659 22.0086C87.0316 21.8043 86.6973 21.99 86.5858 22.3244C86.5487 22.4172 86.5858 22.5287 86.6601 22.6029C87.4587 23.4759 88.4988 22.8815 89.2603 22.3058C89.1117 22.1943 88.9631 22.0829 88.8146 21.9715C88.4431 22.5287 88.1088 23.0673 87.403 23.1601C86.6787 23.2716 86.2701 22.733 85.9544 22.1386C85.8058 22.2501 85.6572 22.3615 85.5086 22.4729C86.3815 23.5687 88.3874 23.1787 89.2232 22.2315C89.4275 22.0086 89.1489 21.6 88.8888 21.7857C88.2945 22.2315 87.5702 22.6587 86.8087 22.4915C86.5487 22.4729 86.3072 22.3429 86.1029 22.1572C86.1587 22.3244 86.2701 22.3986 86.4001 22.4172C86.6044 22.5101 86.9759 22.4729 87.1987 22.4544C88.1831 22.3986 89.0746 22.0086 89.8361 21.3957C90.1146 21.1728 89.7246 20.7828 89.446 21.0057C88.4802 21.7672 86.5115 22.1201 85.3415 21.5629C85.0443 21.4329 84.7657 21.9158 85.1 22.0643V22.0643Z" fill="#323232"/>
<path d="M87.0873 23.4016C87.5144 23.0858 87.923 22.7515 88.2759 22.3615C88.1273 22.2501 87.9788 22.1386 87.8302 22.0272C87.663 22.3429 87.4216 22.6587 87.2916 22.993C87.2358 23.1601 87.2173 23.3459 87.3659 23.4944C87.4959 23.6245 87.7002 23.6245 87.8673 23.5502C88.1831 23.4016 88.4616 23.1416 88.7402 22.9373C88.6102 22.8073 88.4802 22.6772 88.3502 22.5472C88.2388 22.8258 87.8673 23.3644 88.1831 23.6245C88.5359 23.9216 88.8517 23.4016 89.0374 23.1787C89.2603 22.9001 88.8702 22.5101 88.6474 22.7887C88.5731 22.863 88.4245 23.1416 88.3131 23.1601C88.4059 23.1787 88.4988 23.2159 88.5917 23.2344C88.5731 23.2159 88.5545 23.1973 88.5545 23.1787C88.5731 23.253 88.6102 23.3087 88.6288 23.383C88.6288 23.2159 88.7774 22.993 88.8331 22.8444C88.926 22.6215 88.7031 22.2872 88.4431 22.4544C88.3316 22.5287 87.7187 23.0673 87.6259 23.0301C87.6816 23.0673 87.7373 23.123 87.793 23.1601C87.7745 23.1416 87.7745 23.1044 87.7559 23.0858C87.7745 23.1601 87.7745 23.2344 87.793 23.3087C87.8487 22.9744 88.1459 22.603 88.3131 22.3058C88.4616 22.0272 88.0902 21.73 87.8673 21.9715C87.533 22.3244 87.1801 22.6401 86.7901 22.9187C86.5115 23.123 86.7901 23.6059 87.0873 23.4016V23.4016Z" fill="#323232"/>
<path d="M76.2408 15.7682C75.8137 20.7643 75.5165 25.7789 75.3308 30.7935C75.3122 31.1464 75.8694 31.1464 75.888 30.7935C76.0737 25.7789 76.3708 20.7643 76.798 15.7682C76.8352 15.4153 76.278 15.4153 76.2408 15.7682V15.7682Z" fill="#323232"/>
<path d="M104.806 9.88066C106.217 15.1553 105.326 20.5971 104.081 25.7975C103.988 26.1503 104.527 26.2989 104.62 25.946C105.901 20.6528 106.793 15.0996 105.344 9.73208C105.251 9.39777 104.713 9.54636 104.806 9.88066V9.88066Z" fill="#323232"/>
<path d="M106.644 26.8004C108.279 27.0975 109.932 27.3947 111.566 27.6919C111.919 27.7476 112.068 27.2275 111.715 27.1532C110.08 26.8561 108.427 26.5589 106.793 26.2618C106.44 26.206 106.291 26.7446 106.644 26.8004V26.8004Z" fill="white"/>
<path d="M108.762 15.3224C108.613 15.5639 108.446 15.9168 108.334 16.3254C108.167 16.994 108.204 17.5697 108.242 17.9226C107.127 19.0556 104.248 21.6743 99.8096 22.3058C98.0451 22.5658 96.5036 22.4358 95.3521 22.2129C95.2221 22.6958 95.1292 23.3087 95.445 23.5687C95.6493 23.7544 95.9464 23.6802 96.4479 23.6616C97.2837 23.6244 97.7294 23.7916 98.138 23.8287C99.2895 23.9587 102.335 23.4201 105.641 21.5629C106.533 21.0614 107.759 20.2814 109.096 19.1113C109.189 19.2413 109.857 20.0399 110.86 20.0399C112.253 20.0213 112.903 18.4984 112.959 18.3498C113.293 17.5326 113.312 16.3997 112.625 15.5639C111.993 14.7838 111.102 14.6538 110.86 14.6353C109.709 14.5238 108.892 15.1924 108.762 15.3224Z" fill="white" stroke="black" stroke-width="2"/>
<path d="M109.764 15.6939C108.91 17.0311 109.43 18.9813 111.232 18.9441C111.417 18.9441 111.417 18.6655 111.232 18.6655C109.634 18.7027 109.282 16.9569 110.006 15.8239C110.117 15.6753 109.876 15.5453 109.764 15.6939V15.6939Z" fill="black"/>
<path d="M111.027 17.4955C110.786 17.3097 110.656 16.994 110.73 16.6968C110.805 16.4183 111.157 16.1397 111.455 16.2882C111.77 16.4368 111.882 16.9383 111.733 17.2355C111.603 17.5326 111.157 17.6626 110.935 17.3655C110.823 17.2169 110.582 17.3655 110.693 17.514C110.953 17.8669 111.492 17.9041 111.826 17.5883C112.198 17.2169 112.16 16.5297 111.789 16.1582C111.436 15.8054 110.86 15.9539 110.6 16.344C110.303 16.7711 110.433 17.3655 110.842 17.6812C110.972 17.7926 111.157 17.6069 111.027 17.4955V17.4955Z" fill="black"/>
<path d="M99.2709 22.3987C99.5681 22.7701 99.6424 23.2716 99.4381 23.6987C99.3638 23.8659 99.6052 23.9959 99.6795 23.8473C99.921 23.3273 99.8653 22.733 99.5124 22.2686C99.4009 22.1201 99.1595 22.2501 99.2709 22.3987V22.3987Z" fill="black"/>
<path d="M96.1137 22.4358C96.2808 22.7515 96.2994 23.123 96.1322 23.4573C96.0579 23.6244 96.2994 23.7544 96.3737 23.6059C96.578 23.1787 96.5594 22.7144 96.3551 22.3058C96.2622 22.1386 96.0208 22.2686 96.1137 22.4358V22.4358Z" fill="black"/>
<path d="M96.9308 22.6401C97.1351 22.8444 97.1537 23.1973 96.9679 23.4201C96.8565 23.5502 97.0608 23.7545 97.1722 23.6244C97.4508 23.2716 97.4508 22.7701 97.1351 22.4544C97.0051 22.3058 96.8193 22.5101 96.9308 22.6401V22.6401Z" fill="black"/>
<path d="M97.8409 22.6587C98.1566 22.8815 98.138 23.3644 97.8594 23.5873C97.7294 23.6987 97.9152 23.903 98.0637 23.7916C98.4909 23.4387 98.4352 22.7329 97.9895 22.4172C97.8409 22.3243 97.7109 22.5658 97.8409 22.6587V22.6587Z" fill="black"/>
<path d="M102.298 10.1407C101.908 9.99211 102.038 9.50922 102.298 9.32349C102.558 9.13776 102.893 9.19348 103.06 9.47207C103.413 10.085 102.577 10.5864 102.15 10.085C101.983 9.88067 101.685 10.1778 101.853 10.3821C102.205 10.7907 102.874 10.8279 103.283 10.475C103.691 10.1035 103.654 9.43492 103.283 9.06347C102.893 8.65487 102.243 8.74774 101.871 9.15633C101.481 9.62065 101.611 10.345 102.187 10.5493C102.447 10.6236 102.54 10.2336 102.298 10.1407V10.1407Z" fill="black"/>
<path opacity="0.16" d="M103.041 7.83766C103.171 10.1407 103.413 12.6294 103.84 15.3039C104.118 17.0869 104.453 18.7955 104.824 20.3742C104.416 20.6342 103.988 20.8943 103.543 21.1543C101.351 22.3986 99.2338 23.1973 97.3208 23.7173C98.3052 23.7545 99.531 23.6987 100.943 23.4387C102.633 23.123 104.007 22.5844 105.01 22.1015C103.524 23.7359 101.555 25.6303 99.0295 27.4318C95.4079 30.032 91.9162 31.5364 89.2789 32.4465C91.3033 33.1522 93.3277 33.858 95.3336 34.5638C95.4821 37.3125 95.6307 40.0613 95.7793 42.8286C96.8008 42.5686 97.8223 42.3086 98.8624 42.03C98.7138 40.3027 98.5838 38.5197 98.5095 36.6625C98.4723 35.6224 98.4352 34.6009 98.4166 33.5794C100.181 33.0965 101.63 32.6322 102.725 32.2607C106.774 30.8864 109.653 29.4934 110.452 29.1034C111.789 28.4533 112.866 27.859 113.609 27.4318C113.813 26.1503 113.999 24.8131 114.129 23.383C114.445 20.0771 114.463 17.0497 114.296 14.3381C113.423 13.2609 112.29 12.0537 110.879 10.8279C109.375 9.52778 107.907 8.562 106.663 7.83766C105.437 7.83766 104.23 7.83766 103.041 7.83766Z" fill="#666666"/>
<path opacity="0.3" d="M34.3595 78.1724C34.5081 85.0257 34.6381 91.8791 34.7867 98.7324C42.2157 100.813 50.9078 102.707 60.6956 103.877C74.6251 105.53 86.9202 105.251 96.8751 104.304C97.1537 97.3023 97.4509 90.319 97.7295 83.317C89.1861 82.9827 80.4012 82.4813 71.3934 81.8127C58.5597 80.8469 46.2089 79.6211 34.3595 78.1724Z" fill="#FFAC4B"/>
<g opacity="0.3">
<path d="M36.6811 81.4412C47.1004 83.7071 57.7054 85.0072 68.3661 85.3229C68.719 85.3415 68.719 84.7843 68.3661 84.7657C57.7611 84.45 47.1932 83.1685 36.8297 80.9026C36.4768 80.8283 36.3282 81.3669 36.6811 81.4412V81.4412Z" fill="#FFAC4B"/>
</g>
<g opacity="0.3">
<path d="M37.1454 85.2486C41.9186 86.6787 46.8032 87.6259 51.7621 88.1088C52.115 88.146 52.115 87.5888 51.7621 87.5516C46.8589 87.0687 42.0114 86.1215 37.294 84.71C36.9411 84.5986 36.7925 85.1372 37.1454 85.2486V85.2486Z" fill="#FFAC4B"/>
</g>
<g opacity="0.3">
<path d="M51.5392 99.9768C64.5773 101.964 77.8196 103.933 91.0248 102.428C91.3776 102.391 91.3776 101.834 91.0248 101.871C77.8567 103.376 64.6887 101.425 51.6878 99.4382C51.3349 99.3824 51.1864 99.921 51.5392 99.9768V99.9768Z" fill="#FFAC4B"/>
</g>
<g opacity="0.3">
<path d="M71.8392 99.0481C78.5253 100.255 85.3229 100.552 92.0834 99.9025C92.4363 99.8653 92.4363 99.3081 92.0834 99.3453C85.3786 99.9767 78.6182 99.6982 71.9877 98.5095C71.6349 98.4538 71.4863 98.9738 71.8392 99.0481V99.0481Z" fill="#FFAC4B"/>
</g>
<g opacity="0.3">
<path d="M85.23 85.8429C85.5458 88.3688 85.3786 90.8947 84.7471 93.3649C84.6914 93.5506 84.84 93.6992 85.0072 93.7178C86.6044 93.8478 88.1831 93.9778 89.7803 94.1078C90.4675 94.1635 92.0091 94.6464 92.4362 93.8849C92.6591 93.4949 92.6034 92.8263 92.6405 92.3991C92.6777 91.7305 92.6963 91.0619 92.7334 90.3933C92.8077 88.8703 92.9377 87.3659 93.4206 85.8987C93.4763 85.7315 93.3277 85.5272 93.1606 85.5458C90.7461 85.7315 88.3502 85.6201 85.9729 85.2115C85.7501 85.1743 85.6015 85.3415 85.6386 85.5458C85.6758 85.7687 85.6758 85.7687 85.8058 85.9544C86.0101 86.2515 86.493 85.973 86.2887 85.6758C86.2515 85.5829 86.2144 85.4901 86.1772 85.3972C86.0658 85.5086 85.9544 85.6201 85.8429 85.7315C88.276 86.1587 90.709 86.2701 93.1791 86.0844C93.0863 85.973 92.9934 85.8429 92.9191 85.7315C92.1762 87.9417 92.2505 90.2447 92.1019 92.5291C92.0834 92.7334 92.1019 93.3463 92.0091 93.4763C91.8048 93.7549 91.3404 93.6435 91.0804 93.6249C90.4118 93.5692 89.7432 93.5135 89.056 93.4577C87.7188 93.3463 86.363 93.2349 85.0257 93.1234C85.1186 93.2349 85.2115 93.3649 85.2858 93.4763C85.9358 90.969 86.1215 88.3874 85.7872 85.8058C85.7501 85.4901 85.1929 85.4901 85.23 85.8429V85.8429Z" fill="#FFAC4B"/>
</g>
<path d="M39.077 30.2549C39.2627 29.902 39.6899 29.3449 39.7456 28.9363C39.7827 28.6391 39.5041 28.3419 39.3556 28.1005C38.7427 27.079 38.1298 26.0389 37.5354 25.0174C37.2383 24.516 36.8668 23.9959 36.6254 23.4759C36.3282 22.8444 36.6068 22.6401 36.9225 22.1015C37.424 21.2472 37.8512 20.3557 38.2041 19.4456C39.467 16.1025 39.6713 12.258 38.1669 8.95205C35.7153 3.5474 29.7906 2.3216 24.4231 2.21016C18.8699 2.08016 13.2609 4.1603 9.955 8.80347C6.12903 14.171 8.41347 21.6929 13.5952 25.2589C18.9999 28.992 26.559 28.8248 32.2051 25.7975C32.5208 25.6303 32.2422 25.1474 31.9265 25.3146C27.3576 27.7662 22.0272 28.1562 17.1426 26.4289C12.0909 24.646 8.20917 19.6499 8.58062 14.1338C9.00779 7.93055 15.0996 3.93742 20.7272 3.00879C22.4358 2.7302 24.1445 2.7302 25.8718 2.82306C28.2305 2.95307 30.6078 3.28738 32.7623 4.2903C35.8082 5.70183 37.8697 8.43201 38.4826 11.7379C39.207 15.6382 37.9812 19.6499 35.8082 22.863C35.7525 22.9373 35.7525 23.0673 35.8082 23.1416C36.4768 24.2745 37.1454 25.4074 37.814 26.5404C38.1112 27.0604 38.4269 27.5619 38.7241 28.0819C38.9098 28.3976 39.1513 28.6577 39.1141 29.0477C39.0955 29.3263 38.7612 29.7349 38.6312 29.9949C38.4269 30.2921 38.9098 30.5892 39.077 30.2549V30.2549Z" fill="#47392E"/>
<path d="M32.0194 26.0575C34.0624 27.7476 36.3097 29.0848 38.7798 30.0692C39.1141 30.1992 39.2627 29.6606 38.9284 29.5306C36.5697 28.5834 34.3781 27.2833 32.4094 25.6674C32.1308 25.426 31.7408 25.816 32.0194 26.0575V26.0575Z" fill="#47392E"/>
<ellipse cx="15.4339" cy="14.7096" rx="1.33723" ry="1.95013" fill="#47392E" stroke="#47392E"/>
<ellipse cx="23.0859" cy="14.4681" rx="1.33723" ry="1.95013" fill="#47392E" stroke="#47392E"/>
<ellipse cx="30.5335" cy="14.2453" rx="1.33723" ry="1.95013" fill="#47392E" stroke="#47392E"/>
</svg>
