<svg width="263" height="157" viewBox="0 0 263 157" fill="none" xmlns="http://www.w3.org/2000/svg">
<path d="M36.2906 59.8739C36.2906 59.9259 36.2906 59.978 36.2906 60.056C36.2906 60.2642 36.4728 60.4463 36.681 60.4463C36.8891 60.4463 37.0713 60.2642 37.0713 60.056C37.0713 60.004 37.0713 59.9519 37.0713 59.8739C37.0713 59.6657 36.8891 59.4836 36.681 59.4836C36.4728 59.5096 36.2906 59.6657 36.2906 59.8739V59.8739Z" fill="#E8E8E8"/>
<path d="M192.755 101.612C196.216 102.6 199.963 102.704 203.502 103.095C207.509 103.537 211.516 103.953 215.523 104.396C223.46 105.255 231.37 106.087 239.307 106.946C239.801 106.998 239.801 106.217 239.307 106.165C231.552 105.333 223.798 104.5 216.044 103.667C212.219 103.251 208.368 102.835 204.543 102.444C200.718 102.028 196.658 101.95 192.963 100.883C192.495 100.727 192.287 101.481 192.755 101.612V101.612Z" fill="black"/>
<path d="M248.414 89.6159C245.864 95.4186 242.872 101.013 239.463 106.373C239.203 106.79 239.879 107.18 240.139 106.764C243.548 101.403 246.541 95.8089 249.091 90.0062C249.299 89.5639 248.622 89.1736 248.414 89.6159V89.6159Z" fill="black"/>
<path d="M193.223 101.351C198.532 97.5263 203.684 93.467 208.602 89.1736C208.992 88.8353 208.42 88.2888 208.055 88.6271C203.163 92.8685 198.089 96.9018 192.833 100.675C192.443 100.961 192.833 101.664 193.223 101.351V101.351Z" fill="black"/>
<path d="M208.498 89.0695C215.107 88.2888 221.795 88.8093 228.43 89.1475C235.169 89.4858 241.935 89.8241 248.674 90.1624C249.169 90.1884 249.169 89.4077 248.674 89.3817C241.935 89.0435 235.169 88.7052 228.43 88.3669C221.795 88.0286 215.107 87.5082 208.498 88.2888C208.003 88.3409 208.003 89.1215 208.498 89.0695V89.0695Z" fill="black"/>
<path d="M216.981 94.0135C216.564 94.716 216.122 95.3926 215.706 96.0951C215.55 96.3293 215.758 96.6936 216.044 96.6936C216.981 96.6676 217.917 96.6676 218.854 96.7977C219.375 96.8498 220.259 97.214 220.806 97.0319C221.638 96.7457 222.211 95.2104 222.549 94.5339C222.783 94.0915 222.107 93.7012 221.873 94.1436C221.638 94.5859 221.404 95.1584 221.092 95.5487C220.546 96.1992 220.025 96.1992 219.245 96.0691C218.178 95.913 217.111 95.887 216.044 95.913C216.148 96.1212 216.278 96.3033 216.382 96.5115C216.799 95.8089 217.241 95.1324 217.657 94.4298C217.917 93.9874 217.241 93.5971 216.981 94.0135V94.0135Z" fill="#E8E8E8"/>
<path d="M217.501 94.4038C219.01 94.0135 220.467 94.0135 221.925 94.638C222.393 94.8461 222.783 94.1696 222.315 93.9614C220.65 93.2328 219.01 93.1808 217.267 93.6492C216.799 93.7793 217.007 94.5339 217.501 94.4038V94.4038Z" fill="#E8E8E8"/>
<path d="M205.479 95.0023C206.858 94.9502 208.186 95.0803 209.513 95.4186C210.007 95.5487 210.215 94.7941 209.721 94.664C208.316 94.3257 206.911 94.1696 205.479 94.2216C204.985 94.2477 204.985 95.0283 205.479 95.0023V95.0023Z" fill="#E8E8E8"/>
<path d="M205.636 94.664C206.468 93.7532 207.353 92.8946 208.264 92.0619C208.628 91.7236 208.082 91.1772 207.717 91.5154C206.806 92.3481 205.948 93.2328 205.089 94.1175C204.751 94.4818 205.297 95.0543 205.636 94.664V94.664Z" fill="#E8E8E8"/>
<path d="M207.743 92.0879C208.888 92.6604 210.371 92.5043 211.646 92.5303C212.141 92.5563 212.141 91.7757 211.646 91.7496C210.579 91.7236 209.122 91.9058 208.133 91.4114C207.691 91.2032 207.301 91.8537 207.743 92.0879V92.0879Z" fill="#E8E8E8"/>
<path d="M211.074 92.0359C210.449 92.8946 209.825 93.7793 209.252 94.69C208.992 95.1064 209.669 95.4967 209.929 95.0803C210.501 94.1696 211.1 93.2849 211.75 92.4262C212.037 92.0099 211.36 91.6195 211.074 92.0359V92.0359Z" fill="#E8E8E8"/>
<path d="M242.872 55.2161C242.872 63.1005 242.872 71.0109 242.872 78.8953C242.872 79.3897 243.652 79.3897 243.652 78.8953C243.652 71.0109 243.652 63.1005 243.652 55.2161C243.652 54.6957 242.872 54.6957 242.872 55.2161V55.2161Z" fill="#E8E8E8"/>
<path d="M243.444 79.2856C254.815 79.2856 266.212 79.2856 277.584 79.2856C278.078 79.2856 278.078 78.5049 277.584 78.5049C266.212 78.5049 254.815 78.5049 243.444 78.5049C242.924 78.5049 242.924 79.2856 243.444 79.2856V79.2856Z" fill="#E8E8E8"/>
<path d="M243.366 55.3983C254.529 55.3983 265.692 55.3983 276.829 55.3983C277.323 55.3983 277.323 54.6176 276.829 54.6176C265.666 54.6176 254.503 54.6176 243.366 54.6176C242.872 54.6176 242.872 55.3983 243.366 55.3983V55.3983Z" fill="#E8E8E8"/>
<path d="M260.124 54.6437C260.019 53.9411 260.045 53.2125 260.254 52.5099C260.41 51.9115 260.956 50.5063 261.841 50.9487C262.361 51.2089 262.517 52.1456 262.596 52.6661C262.7 53.3686 262.7 54.0712 262.622 54.7738C262.57 55.2682 263.35 55.2682 263.402 54.7738C263.532 53.4727 263.532 49.9078 261.399 50.09C259.421 50.2721 259.161 53.4207 259.369 54.8518C259.447 55.3462 260.202 55.1381 260.124 54.6437V54.6437Z" fill="#E8E8E8"/>
<path d="M202.253 11.6829C202.253 21.2587 202.253 30.8084 202.253 40.3841C202.253 40.8785 203.033 40.8785 203.033 40.3841C203.033 30.8084 203.033 21.2587 203.033 11.6829C203.033 11.1885 202.253 11.1885 202.253 11.6829V11.6829Z" fill="#E8E8E8"/>
<path d="M202.877 40.7745C216.668 40.7745 230.434 40.7745 244.225 40.7745C244.719 40.7745 244.719 39.9938 244.225 39.9938C230.434 39.9938 216.668 39.9938 202.877 39.9938C202.383 39.9938 202.383 40.7745 202.877 40.7745V40.7745Z" fill="#E8E8E8"/>
<path d="M244.667 40.3061C244.563 30.7824 244.459 21.2847 244.355 11.761C244.355 11.2666 243.574 11.2666 243.574 11.761C243.678 21.2847 243.782 30.7824 243.886 40.3061C243.886 40.8005 244.667 40.8005 244.667 40.3061V40.3061Z" fill="#E8E8E8"/>
<path d="M202.799 11.8391C216.304 11.8391 229.835 11.8391 243.34 11.8391C243.834 11.8391 243.834 11.0584 243.34 11.0584C229.835 11.0584 216.304 11.0584 202.799 11.0584C202.305 11.0584 202.305 11.8391 202.799 11.8391V11.8391Z" fill="#E8E8E8"/>
<path d="M223.018 11.0324C222.887 10.1477 222.94 9.263 223.174 8.4043C223.382 7.64969 224.058 5.88026 225.229 6.45273C226.53 7.10325 226.348 9.99159 226.218 11.1365C226.166 11.6309 226.947 11.6309 226.999 11.1365C227.155 9.62729 227.181 5.3078 224.657 5.56801C222.315 5.8022 222.029 9.54923 222.289 11.2406C222.341 11.735 223.096 11.5268 223.018 11.0324V11.0324Z" fill="#E8E8E8"/>
<path d="M204.465 13.8687C204.465 21.701 204.465 29.5334 204.465 37.3397C204.465 37.8341 205.245 37.8341 205.245 37.3397C205.245 29.5074 205.245 21.675 205.245 13.8687C205.245 13.3483 204.465 13.3483 204.465 13.8687V13.8687Z" fill="#E8E8E8"/>
<path d="M204.855 38.2504C217.033 38.2504 229.211 38.2504 241.388 38.2504C241.883 38.2504 241.883 37.4698 241.388 37.4698C229.211 37.4698 217.033 37.4698 204.855 37.4698C204.36 37.4698 204.334 38.2504 204.855 38.2504V38.2504Z" fill="#E8E8E8"/>
<path d="M242.299 37.5478C242.299 29.8716 242.299 22.1694 242.299 14.4932C242.299 13.9988 241.519 13.9988 241.519 14.4932C241.519 22.1694 241.519 29.8716 241.519 37.5478C241.519 38.0422 242.299 38.0422 242.299 37.5478V37.5478Z" fill="#E8E8E8"/>
<path d="M205.167 14.1549C217.345 14.1549 229.523 14.1549 241.701 14.1549C242.195 14.1549 242.195 13.3743 241.701 13.3743C229.523 13.3743 217.345 13.3743 205.167 13.3743C204.673 13.3743 204.673 14.1549 205.167 14.1549V14.1549Z" fill="#E8E8E8"/>
<path d="M209.226 147.617C221.795 147.617 234.363 147.617 246.931 147.617C247.425 147.617 247.425 146.836 246.931 146.836C234.363 146.836 221.795 146.836 209.226 146.836C208.706 146.836 208.706 147.617 209.226 147.617V147.617Z" fill="#E8E8E8"/>
<path d="M227.129 148.319C227.129 150.713 227.129 153.107 227.129 155.501C227.129 155.996 227.909 155.996 227.909 155.501C227.909 153.107 227.909 150.713 227.909 148.319C227.909 147.799 227.129 147.799 227.129 148.319V148.319Z" fill="#E8E8E8"/>
<path d="M221.43 156.958C227.649 156.958 233.868 156.958 240.113 156.958C240.608 156.958 240.608 156.178 240.113 156.178C233.894 156.178 227.675 156.178 221.43 156.178C220.936 156.178 220.91 156.958 221.43 156.958V156.958Z" fill="#E8E8E8"/>
<path d="M28.5364 130.001C28.5364 138.613 28.5364 147.252 28.5364 155.865C28.5364 156.36 29.3171 156.36 29.3171 155.865C29.3171 147.252 29.3171 138.613 29.3171 130.001C29.3171 129.506 28.5364 129.506 28.5364 130.001V130.001Z" fill="#E8E8E8"/>
<path d="M28.9268 130.391C41.625 130.391 54.2973 130.391 66.9955 130.391C67.4899 130.391 67.4899 129.61 66.9955 129.61C54.2973 129.61 41.625 129.61 28.9268 129.61C28.4063 129.61 28.4063 130.391 28.9268 130.391V130.391Z" fill="#E8E8E8"/>
<path d="M28.9528 156.438C41.7031 156.412 54.4534 156.412 67.2037 156.386C67.6981 156.386 67.6981 155.605 67.2037 155.605C54.4534 155.631 41.7031 155.631 28.9528 155.657C28.4584 155.657 28.4584 156.438 28.9528 156.438V156.438Z" fill="#E8E8E8"/>
<path d="M66.8394 130.105C66.8394 138.535 66.8394 146.966 66.8394 155.423C66.8394 155.917 67.62 155.917 67.62 155.423C67.62 146.992 67.62 138.561 67.62 130.105C67.62 129.61 66.8394 129.61 66.8394 130.105V130.105Z" fill="#E8E8E8"/>
<path d="M31.815 133.617C31.2686 133.305 31.3987 132.42 32.0753 132.394C32.986 132.368 32.4396 133.93 31.8411 133.539C31.4247 133.253 31.0344 133.93 31.4508 134.216C32.9079 135.205 34.235 132.264 32.5176 131.692C31.8411 131.458 31.0604 131.848 30.7742 132.499C30.488 133.175 30.8002 133.93 31.3987 134.294C31.8671 134.554 32.2574 133.878 31.815 133.617V133.617Z" fill="#E8E8E8"/>
<path d="M33.5064 136.506C41.0005 136.506 48.4945 136.506 55.9886 136.506C56.483 136.506 56.483 135.725 55.9886 135.725C48.4945 135.725 41.0005 135.725 33.5064 135.725C32.986 135.725 32.986 136.506 33.5064 136.506V136.506Z" fill="#E8E8E8"/>
<path d="M33.8447 139.264C38.1642 139.264 42.4836 139.264 46.8031 139.264C47.2975 139.264 47.2975 138.483 46.8031 138.483C42.4836 138.483 38.1642 138.483 33.8447 138.483C33.3242 138.483 33.3242 139.264 33.8447 139.264V139.264Z" fill="#E8E8E8"/>
<path d="M34.5733 155.735C34.5733 152.977 34.5733 150.193 34.5733 147.435C34.5733 146.94 33.7927 146.94 33.7927 147.435C33.7927 150.193 33.7927 152.977 33.7927 155.735C33.7927 156.23 34.5733 156.23 34.5733 155.735V155.735Z" fill="#E8E8E8"/>
<path d="M34.2611 147.565C40.5321 147.565 46.8292 147.565 53.1003 147.565C53.5947 147.565 53.5947 146.784 53.1003 146.784C46.8292 146.784 40.5321 146.784 34.2611 146.784C33.7667 146.784 33.7667 147.565 34.2611 147.565V147.565Z" fill="#E8E8E8"/>
<path d="M52.71 147.357C52.71 150.089 52.71 152.821 52.71 155.579C52.71 156.074 53.4906 156.074 53.4906 155.579C53.4906 152.847 53.4906 150.115 53.4906 147.357C53.4906 146.836 52.71 146.836 52.71 147.357V147.357Z" fill="#E8E8E8"/>
<path d="M38.1121 155.631C38.1121 153.81 38.1121 151.988 38.1121 150.193C38.1121 149.698 37.3315 149.698 37.3315 150.193C37.3315 152.014 37.3315 153.836 37.3315 155.631C37.3315 156.152 38.1121 156.152 38.1121 155.631V155.631Z" fill="#E8E8E8"/>
<path d="M41.2347 155.631C41.2347 153.81 41.2347 151.988 41.2347 150.193C41.2347 149.698 40.454 149.698 40.454 150.193C40.454 152.014 40.454 153.836 40.454 155.631C40.454 156.152 41.2347 156.152 41.2347 155.631V155.631Z" fill="#E8E8E8"/>
<path d="M44.2531 155.553C44.2531 153.888 44.2531 152.222 44.2531 150.531C44.2531 150.037 43.4725 150.037 43.4725 150.531C43.4725 152.196 43.4725 153.862 43.4725 155.553C43.4725 156.048 44.2531 156.048 44.2531 155.553V155.553Z" fill="#E8E8E8"/>
<path d="M47.3756 155.813C47.3756 154.096 47.3756 152.353 47.3756 150.635C47.3756 150.141 46.595 150.141 46.595 150.635C46.595 152.353 46.595 154.096 46.595 155.813C46.595 156.308 47.3756 156.308 47.3756 155.813V155.813Z" fill="#E8E8E8"/>
<path d="M50.7324 155.371C50.7324 153.758 50.7324 152.144 50.7324 150.531C50.7324 150.037 49.9517 150.037 49.9517 150.531C49.9517 152.144 49.9517 153.758 49.9517 155.371C49.9517 155.891 50.7324 155.891 50.7324 155.371V155.371Z" fill="#E8E8E8"/>
<path d="M64.6275 132.603C64.3153 132.473 64.2632 131.926 64.6275 131.796C64.7837 131.744 65.0439 131.77 65.0959 131.952C65.148 132.056 65.0439 132.316 64.8877 132.29C64.6796 132.264 64.4714 132.342 64.4194 132.551C64.3673 132.733 64.4714 132.993 64.6796 133.019C65.3041 133.123 65.8505 132.655 65.8765 132.03C65.9026 131.432 65.3301 130.963 64.7576 130.963C64.1852 130.963 63.7168 131.328 63.5867 131.9C63.4826 132.42 63.6908 133.019 64.1852 133.253C64.6796 133.487 65.0699 132.811 64.6275 132.603V132.603Z" fill="#E8E8E8"/>
<path d="M148.337 125.109C149.274 126.982 150.393 129.506 151.434 132.603C153.984 140.227 154.296 146.498 154.374 148.58C154.452 151.182 154.504 158.806 151.434 167.965C147.947 178.348 142.378 185.035 138.709 189.302C135.092 193.544 131.606 196.666 129.082 198.748C129.082 199.373 129.186 200.544 129.888 201.688C131.58 204.343 135.04 204.291 135.275 204.291C137.382 202.807 139.984 200.804 142.769 198.254C147.557 193.882 150.653 189.953 151.902 188.314C154.01 185.555 157.809 180.455 160.853 172.831C164.158 164.582 165.069 157.114 165.251 151.962C165.459 146.368 164.834 142.413 163.95 136.818C162.519 127.633 160.697 123.912 159.396 121.674C158.199 119.644 157.002 118.109 156.143 117.12C153.541 119.774 150.939 122.428 148.337 125.109Z" fill="white"/>
<path d="M148.103 126.175C153.333 136.142 155.233 147.799 153.385 158.91C151.694 169.058 146.932 178.478 140.583 186.492C137.07 190.916 133.089 194.923 128.769 198.54C128.379 198.852 128.952 199.425 129.316 199.086C137.278 192.373 144.226 184.306 148.91 174.991C153.802 165.233 155.831 154.33 154.4 143.479C153.593 137.312 151.694 131.302 148.806 125.785C148.545 125.343 147.869 125.733 148.103 126.175V126.175Z" fill="#323232"/>
<path d="M157.497 118.994C163.377 129.975 165.745 142.699 164.574 155.085C163.377 167.835 158.277 179.675 150.211 189.563C145.735 195.053 140.557 199.893 134.988 204.265C134.598 204.577 135.145 205.123 135.535 204.811C145.631 196.875 154.66 187.143 160.021 175.355C165.199 163.984 166.734 151.078 164.861 138.77C163.768 131.718 161.53 124.874 158.173 118.603C157.939 118.161 157.262 118.551 157.497 118.994V118.994Z" fill="#323232"/>
<path d="M151.33 131.614C153.359 128.205 157.106 126.175 161.061 126.332C161.556 126.358 161.556 125.577 161.061 125.551C156.82 125.395 152.813 127.581 150.653 131.224C150.393 131.64 151.069 132.03 151.33 131.614V131.614Z" fill="#323232"/>
<path d="M154.244 142.855C155.909 140.825 158.147 139.576 160.723 139.16C161.218 139.082 161.009 138.327 160.515 138.405C157.809 138.822 155.415 140.201 153.698 142.308C153.385 142.699 153.932 143.245 154.244 142.855V142.855Z" fill="#323232"/>
<path d="M155.493 134.997C157.575 133.253 160.151 132.394 162.831 132.499C163.325 132.525 163.325 131.744 162.831 131.718C159.917 131.614 157.158 132.577 154.921 134.45C154.556 134.762 155.103 135.309 155.493 134.997V134.997Z" fill="#323232"/>
<path d="M154.53 157.635C155.623 156.256 157.575 156.282 159.188 156.334C161.14 156.412 163.559 157.088 163.846 159.378C163.898 159.873 164.678 159.873 164.626 159.378C164.34 157.14 162.415 155.944 160.333 155.657C158.303 155.371 155.389 155.319 153.984 157.114C153.671 157.479 154.218 158.051 154.53 157.635V157.635Z" fill="#323232"/>
<path opacity="0.13" d="M155.701 121.049C156.794 124.406 158.121 129.142 159.084 134.945C160.047 140.799 161.322 148.371 160.021 157.479C158.746 166.482 155.571 172.831 153.255 177.385C147.166 189.355 138.918 197.915 131.84 203.692C130.773 202.001 129.706 200.309 128.639 198.618C130.695 197.317 133.583 195.261 136.524 192.243C139.334 189.355 140.999 186.83 143.471 183.031C146.594 178.244 148.233 175.719 149.846 172.129C153.88 163.177 154.296 155.215 154.348 153.159C154.582 146.602 153.385 141.554 152.084 136.063C151.147 132.108 150.107 128.856 149.274 126.488C151.46 124.692 153.593 122.871 155.701 121.049Z" fill="#666666"/>
<path opacity="0.13" d="M153.645 126.332C154.192 127.763 154.921 129.818 155.519 132.342C156.508 136.454 156.924 140.565 156.846 145.483C156.69 154.773 156.534 163.333 153.099 172.337C147.244 187.611 134.962 196.198 129.056 199.763C131.814 196.823 135.613 192.581 139.75 187.169C144.798 180.637 147.296 177.359 149.326 173.274C156.3 159.222 154.452 145.353 153.828 141.528C152.917 135.907 151.252 131.432 149.872 128.387C151.147 127.711 152.396 127.008 153.645 126.332Z" fill="#666666"/>
<path d="M112.819 131.458C111.726 132.707 111.778 134.138 111.361 139.602C110.763 147.513 110.529 145.873 110.216 151.182C109.228 168.251 110.711 183.292 110.711 183.292C111.153 187.923 112.74 202.183 117.06 217.041C119.298 224.717 123.097 235.308 123.253 235.776C124.372 238.899 125.335 241.501 126.011 243.27C126.167 243.374 130.149 245.612 133.011 243.764C133.453 243.478 134.676 242.672 134.962 241.162C135.197 239.913 134.676 238.899 134.468 238.56C133.609 235.958 132.36 232.081 131.033 227.319C128.821 219.357 125.595 207.413 124.346 191.957C123.877 186.05 123.877 181.834 123.851 174.679C123.851 167.835 123.851 160.185 124.84 150.401C125.309 145.717 126.115 139.368 127.598 131.822C123.93 130.443 115.863 128.023 112.819 131.458Z" fill="white"/>
<path d="M111.101 137.703C107.432 165.701 109.748 194.403 117.789 221.438C120.052 229.011 122.759 236.453 125.881 243.712C126.089 244.181 126.74 243.764 126.558 243.322C115.421 217.483 109.852 189.354 110.19 161.226C110.294 153.367 110.867 145.483 111.882 137.703C111.934 137.208 111.153 137.234 111.101 137.703V137.703Z" fill="#323232"/>
<path d="M125.309 140.409C122.55 166.248 122.576 192.685 128.197 218.16C129.784 225.316 131.814 232.341 134.286 239.211C134.468 239.679 135.223 239.471 135.04 239.003C126.167 214.543 123.513 188.288 124.476 162.397C124.736 155.059 125.309 147.721 126.089 140.409C126.141 139.889 125.361 139.889 125.309 140.409V140.409Z" fill="#323232"/>
<path d="M110.164 151.676C114.536 153.94 119.584 154.434 124.32 153.055C124.788 152.925 124.606 152.17 124.112 152.301C119.584 153.628 114.744 153.185 110.555 151C110.112 150.765 109.722 151.442 110.164 151.676V151.676Z" fill="#323232"/>
<path opacity="0.11" d="M121.145 135.153C120.13 138.692 118.881 143.844 118.153 150.167C117.112 159.17 117.658 165.91 118.335 173.638C120.729 200.257 121.978 213.762 124.918 222.479C127.729 230.806 131.007 237.259 133.375 241.449C133.271 241.579 131.033 244.259 128.119 243.712C127.078 243.504 126.323 242.984 125.855 242.594C123.799 237.936 121.093 231.274 118.517 223.052C116.383 216.234 109.93 194.325 109.696 164.452C109.644 157.088 109.93 147.279 111.387 135.725C114.64 135.517 117.893 135.335 121.145 135.153Z" fill="#666666"/>
<path opacity="0.11" d="M111.387 141.918C111.752 156.022 112.792 167.887 113.833 176.864C115.603 192.425 116.904 203.146 121.171 216.677C124.606 227.605 128.717 236.27 131.866 242.229C129.992 242.541 128.119 242.854 126.219 243.166C124.424 239.341 122.733 235.334 121.145 231.144C108.733 198.28 108.343 166.69 111.387 141.918Z" fill="#666666"/>
<path d="M163.69 59.1453C163.169 59.4836 162.519 60.3683 162.857 63.4648C163.351 67.8363 165.199 71.0889 165.329 71.2971C172.225 83.3709 170.611 81.9918 172.745 84.6979C175.295 87.8985 178.886 92.4262 185.235 95.2104C187.967 96.4074 191.662 98.0467 195.748 96.9538C199.234 96.0431 201.941 94.0655 201.941 94.0655C202.955 93.3109 204.022 92.3481 205.974 91.3853C207.093 90.8129 208.082 90.4746 208.758 90.2404C209.226 90.5006 209.929 90.8129 210.814 90.8649C212.167 90.943 212.583 90.3705 214.014 90.2404C214.222 90.2144 215.914 90.1103 217.527 90.969C219.192 91.8537 219.505 93.1027 220.207 92.9206C220.962 92.7384 221.222 91.1512 221.248 90.3445C221.274 89.1475 220.806 88.2628 220.52 87.7684C219.843 86.5194 218.854 85.7908 218.256 85.4005C218.152 84.9842 217.865 84.1255 217.111 83.3448C216.2 82.3821 215.159 82.0958 214.743 81.9918C214.665 81.5754 214.483 80.9769 214.014 80.4565C212.765 79.0514 210.58 79.4417 209.981 79.5198C207.899 79.884 206.65 81.3152 206.26 81.7836C206 81.6275 205.297 81.2632 204.413 81.3672C203.268 81.5234 202.617 82.3821 202.357 82.7203C201.316 84.0734 201.576 85.6867 201.628 86.025C199.911 86.2072 198.636 86.6755 197.803 87.0659C196.216 87.8205 195.695 88.5491 194.186 89.1215C193.432 89.4077 192.131 89.8761 190.569 89.6419C189.216 89.4338 188.253 88.8093 187.681 88.3929C183.127 85.1403 180.369 80.9769 180.369 80.9769C172.537 69.1894 173.317 70.8287 172.537 69.3195C169.987 64.4536 168.217 59.4836 165.329 58.9111C165.095 58.8851 164.314 58.729 163.69 59.1453Z" fill="white"/>
<path d="M166.734 58.9892C170.143 66.5092 174.436 73.639 179.51 80.1703C183.83 85.7388 189.581 92.7905 197.543 91.2813C198.037 91.1772 197.829 90.4226 197.335 90.5267C189.19 92.0619 183.231 83.8913 179.016 78.2187C174.462 72.1298 170.585 65.5465 167.437 58.5989C167.202 58.1305 166.526 58.5208 166.734 58.9892V58.9892Z" fill="#323232"/>
<path d="M189.242 89.6159C190.361 89.8761 191.506 90.1363 192.651 89.9542C193.77 89.772 194.733 89.1736 195.696 88.6271C198.298 87.1699 201.134 86.3893 204.126 86.3373C204.621 86.3373 204.621 85.5566 204.126 85.5566C201.784 85.6087 199.469 86.051 197.283 86.9618C196.216 87.4041 195.253 88.0286 194.238 88.5491C192.625 89.3817 191.168 89.2776 189.45 88.8613C188.956 88.7572 188.748 89.4858 189.242 89.6159V89.6159Z" fill="#323232"/>
<path d="M163.768 68.7731C167.255 76.1891 170.845 83.7872 176.726 89.6419C181.878 94.7421 189.529 99.0355 196.945 96.8758C198.948 96.3033 200.822 95.3145 202.565 94.1956C204.517 92.9206 206.416 90.969 208.888 90.943C209.383 90.943 209.383 90.1624 208.888 90.1624C205.531 90.2144 202.903 93.2849 200.067 94.7681C196.112 96.8237 191.948 97.188 187.707 95.7829C180.343 93.3369 174.827 87.3 170.845 80.8728C168.399 76.8916 166.396 72.6502 164.418 68.4088C164.236 67.9144 163.56 68.3307 163.768 68.7731V68.7731Z" fill="#323232"/>
<path d="M203.996 86.1031C206.338 86.2072 209.747 87.4041 209.07 90.4226C208.966 90.917 209.721 91.1251 209.825 90.6307C210.632 87.0659 206.885 85.4525 203.996 85.3224C203.502 85.2964 203.502 86.0771 203.996 86.1031V86.1031Z" fill="#323232"/>
<path d="M202.149 85.7128C202.331 84.776 202.409 83.7872 202.721 82.9025C203.164 81.6275 204.985 81.9397 206.052 82.1219C206.546 82.1999 206.754 81.4453 206.26 81.3673C205.167 81.1851 203.45 80.8729 202.539 81.7315C201.628 82.5902 201.628 84.3857 201.394 85.5306C201.29 85.999 202.045 86.2072 202.149 85.7128V85.7128Z" fill="#323232"/>
<path d="M204.725 83.579C206.13 82.7203 207.431 81.7576 208.732 80.7688C209.695 80.0402 210.684 79.5198 211.933 79.806C213.104 80.0922 213.962 80.8989 214.587 81.8616C214.873 82.278 215.55 81.8877 215.263 81.4713C214.196 79.884 212.505 78.635 210.475 78.9993C209.435 79.1815 208.654 79.832 207.847 80.4565C206.702 81.3412 205.531 82.1479 204.308 82.9025C203.918 83.1627 204.308 83.8392 204.725 83.579V83.579Z" fill="#323232"/>
<path d="M210.345 84.0734C211.49 83.8392 212.427 83.3969 213.468 82.9545C214.04 82.7203 214.691 82.5122 215.263 82.7203C215.628 82.8504 215.914 83.1107 216.226 83.3448C216.799 83.7872 217.345 84.2816 217.839 84.802C218.204 85.1663 218.75 84.5939 218.386 84.2556C217.475 83.3448 216.096 81.8356 214.691 81.7836C214.092 81.7576 213.572 82.0438 213.052 82.304C212.089 82.7984 211.178 83.1367 210.111 83.3448C209.643 83.4229 209.851 84.1775 210.345 84.0734V84.0734Z" fill="#323232"/>
<path d="M212.167 86.4413C213.416 86.3373 214.639 86.1291 215.888 85.8429C216.825 85.6347 217.761 85.4005 218.62 85.973C219.349 86.4413 219.791 87.222 220.233 87.9506C220.494 88.3669 221.17 87.9766 220.91 87.5603C220.181 86.3893 219.297 85.0883 217.813 84.828C217.085 84.6979 216.356 84.9321 215.654 85.0883C214.483 85.3485 213.338 85.5566 212.141 85.6607C211.672 85.6867 211.672 86.4674 212.167 86.4413V86.4413Z" fill="#323232"/>
<path d="M209.721 91.1772C211.308 91.7757 212.687 91.0731 214.222 90.7088C216.59 90.1624 218.256 91.6456 219.817 93.1808C220.181 93.5451 220.728 92.9726 220.363 92.6344C219.114 91.4114 217.761 90.1363 215.966 89.8501C213.884 89.5118 211.959 91.2032 209.903 90.4226C209.461 90.2404 209.252 90.995 209.721 91.1772V91.1772Z" fill="#323232"/>
<path d="M215.576 88.1327C216.877 88.1067 218.308 88.2628 219.479 88.8873C221.014 89.72 221.274 91.5935 219.921 92.7124C219.531 93.0247 220.077 93.5711 220.467 93.2589C221.69 92.244 222.029 90.4486 221.04 89.1475C219.869 87.5863 217.397 87.274 215.576 87.3261C215.081 87.3521 215.081 88.1327 215.576 88.1327V88.1327Z" fill="#323232"/>
<path d="M220.103 87.8205C220.337 88.3149 220.468 88.8353 220.494 89.3557C220.52 89.8501 221.3 89.8501 221.274 89.3557C221.222 88.6792 221.066 88.0286 220.78 87.4041C220.572 86.9878 219.895 87.3781 220.103 87.8205V87.8205Z" fill="#323232"/>
<path d="M167.307 74.7579C167.931 72.2859 170.065 70.4384 172.615 70.2303C173.109 70.1782 173.109 69.3976 172.615 69.4496C169.7 69.6838 167.255 71.7135 166.552 74.5497C166.448 75.0441 167.202 75.2523 167.307 74.7579V74.7579Z" fill="#323232"/>
<path d="M170.325 79.78C170.325 78.3228 170.871 77.0217 171.886 76.0329C172.25 75.6686 171.704 75.1222 171.34 75.4865C170.169 76.6314 169.544 78.1667 169.544 79.806C169.544 80.2744 170.325 80.2744 170.325 79.78V79.78Z" fill="#323232"/>
<path d="M172.537 83.1107C172.797 80.3264 174.671 77.9325 177.325 77.0217C177.793 76.8656 177.585 76.111 177.116 76.2671C174.124 77.308 172.042 79.9621 171.756 83.1107C171.704 83.6051 172.485 83.6051 172.537 83.1107V83.1107Z" fill="#323232"/>
<path d="M176.44 88.3669C176.648 85.5566 178.73 83.2408 181.488 82.6943C181.982 82.5902 181.774 81.8356 181.28 81.9397C178.183 82.5382 175.867 85.2184 175.659 88.3409C175.633 88.8613 176.414 88.8613 176.44 88.3669V88.3669Z" fill="#323232"/>
<path d="M182.139 93.441C182.399 91.0731 183.804 89.0435 185.86 87.8985C186.302 87.6643 185.912 86.9878 185.469 87.222C183.127 88.523 181.644 90.7869 181.358 93.441C181.306 93.9354 182.086 93.9354 182.139 93.441V93.441Z" fill="#323232"/>
<path d="M188.644 89.4338C190.101 91.4894 190.283 94.0915 189.034 96.3033C188.8 96.7457 189.45 97.136 189.711 96.6936C191.064 94.2477 190.934 91.3073 189.32 89.0174C189.034 88.6271 188.358 89.0174 188.644 89.4338V89.4338Z" fill="#323232"/>
<path d="M197.647 87.1179C197.725 87.5082 197.907 87.6123 198.272 87.7424C199 88.0286 199.677 88.0807 200.353 88.523C201.784 89.4858 202.617 91.0991 202.591 92.7905C202.591 93.2849 203.372 93.2849 203.372 92.7905C203.398 91.3853 202.929 90.0583 202.019 88.9654C201.576 88.445 201.056 88.0026 200.483 87.6643C200.223 87.5082 198.428 87.0138 198.402 86.8837C198.298 86.4153 197.543 86.6235 197.647 87.1179V87.1179Z" fill="#323232"/>
<path opacity="0.11" d="M165.485 62.8403C166.838 62.7362 167.671 68.2266 170.169 74.1074C172.277 79.0254 176.856 89.746 186.146 92.7124C190.856 94.2216 197.673 93.9874 203.059 91.2032C205.453 89.9542 206.702 88.6531 209.825 88.0026C213.338 87.274 218.646 87.5082 220.155 90.4486C220.598 91.3073 220.624 92.192 220.52 92.8946C219.062 91.0991 217.735 90.5787 216.773 90.4486C215.393 90.2664 214.639 90.8649 212.635 91.021C211.074 91.1251 209.747 90.8909 208.888 90.6568C207.483 91.1512 205.375 92.0359 203.059 93.467C200.848 94.8461 200.327 95.5747 198.74 96.2773C196.008 97.4743 193.432 97.136 191.22 96.8498C185.86 96.1212 182.113 93.5971 180.317 92.3481C178.756 91.2552 176.362 89.3817 173.187 85.4005C170.429 81.9397 166.578 76.2931 163.612 68.1225C163.95 65.6245 164.522 62.9183 165.485 62.8403Z" fill="#666666"/>
<path d="M104.518 69.2414C104.83 70.8287 105.22 73.0145 105.611 75.6166C105.845 77.2819 106.756 83.8132 106.834 93.1027C106.912 102.991 106.053 111.474 105.064 117.927C104.258 123.313 103.269 127.789 102.488 131.093C104.544 133.045 107.875 135.751 112.532 137.885C116.982 139.915 121.015 140.695 123.799 141.007C133.765 125.369 141.312 113.815 145.917 106.842C156.326 90.995 163.586 80.3004 166.526 63.8551C167.072 60.8627 167.333 58.3647 167.463 56.6733C163.976 55.7886 158.876 54.8258 152.683 55.034C151.616 55.06 148.988 55.1901 143.732 56.1268C138.189 57.0896 131.059 58.729 122.837 61.5392C117.815 63.2306 111.544 65.7026 104.518 69.2414Z" fill="#323232"/>
<path d="M125.127 71.6094C125.387 73.8472 125.673 76.8396 125.881 80.4045C126.141 84.776 126.141 88.2368 126.141 90.7348C126.089 101.195 125.491 111.474 125.387 113.425C124.944 120.841 124.346 130.235 123.487 141.19C128.457 139.186 132.438 137.26 135.197 135.829C145.189 130.703 152.344 125.499 157.367 121.804C161.296 118.916 164.444 116.392 166.552 114.674C167.124 109.158 167.515 104.396 167.827 100.649C168.217 95.861 168.582 91.3073 168.842 85.2444C168.998 81.6535 169.076 79.832 169.102 77.334C169.154 68.9292 168.452 63.2826 168.217 61.5392C167.957 59.5096 167.671 57.8442 167.463 56.6993C160.489 58.0264 152.397 60.082 143.627 63.3347C136.602 65.9108 130.435 68.7731 125.127 71.6094Z" fill="white"/>
<path d="M104.7 69.3715C119.688 61.7994 135.691 57.3759 152.318 55.2942C152.813 55.2421 152.813 54.4615 152.318 54.5135C143.888 55.5804 135.535 57.0896 127.364 59.5096C119.428 61.8775 111.7 64.948 104.31 68.695C103.841 68.9292 104.232 69.6057 104.7 69.3715V69.3715Z" fill="#323232"/>
<path d="M104.544 69.7098C108.057 69.5277 111.544 70.0741 115.03 70.5425C118.361 71.0109 121.692 71.4532 125.048 71.9216C125.543 71.9997 125.751 71.2451 125.257 71.167C121.744 70.6726 118.257 70.2042 114.744 69.7098C111.361 69.2414 107.979 68.747 104.544 68.9292C104.049 68.9552 104.049 69.7358 104.544 69.7098V69.7098Z" fill="#323232"/>
<path d="M151.902 55.4503C157.184 55.112 162.441 55.6585 167.567 57.0116C168.061 57.1417 168.269 56.3871 167.775 56.257C162.597 54.8778 157.263 54.3314 151.902 54.6697C151.408 54.7217 151.408 55.5023 151.902 55.4503V55.4503Z" fill="#323232"/>
<path d="M125.751 71.6354C138.996 65.0781 153.047 60.2382 167.515 57.2197C168.009 57.1157 167.801 56.361 167.307 56.4651C152.761 59.5096 138.657 64.3755 125.335 70.9588C124.918 71.193 125.309 71.8696 125.751 71.6354V71.6354Z" fill="#323232"/>
<path d="M124.424 71.5573C126.688 89.3557 125.569 107.336 124.424 125.161C124.086 130.417 123.747 135.673 122.993 140.877C122.915 141.372 123.669 141.58 123.747 141.085C125.048 132.186 125.387 123.131 125.881 114.154C126.376 105.124 126.714 96.0951 126.428 87.0659C126.245 81.8877 125.881 76.6835 125.205 71.5573C125.127 71.0629 124.346 71.0629 124.424 71.5573V71.5573Z" fill="#323232"/>
<path d="M104.44 69.1113C107.666 89.4338 107.016 110.277 102.488 130.365C102.384 130.859 103.139 131.067 103.243 130.573C107.797 110.355 108.447 89.3817 105.194 68.9032C105.116 68.4088 104.362 68.6169 104.44 69.1113V69.1113Z" fill="#323232"/>
<path d="M102.384 130.963C108.005 136.584 115.317 140.279 123.175 141.424C123.669 141.502 123.877 140.747 123.383 140.669C115.655 139.524 108.473 135.933 102.931 130.391C102.566 130.079 102.02 130.625 102.384 130.963V130.963Z" fill="#323232"/>
<path d="M166.968 57.1677C170.325 76.1891 168.139 95.5487 165.953 114.596C165.901 115.09 166.682 115.09 166.734 114.596C168.92 95.4967 171.106 76.085 167.723 56.9595C167.645 56.4651 166.89 56.6733 166.968 57.1677V57.1677Z" fill="#323232"/>
<path d="M165.98 114.544C153.021 125.421 138.527 134.372 123.019 141.112C122.55 141.32 122.967 141.996 123.409 141.788C138.97 135.023 153.515 126.019 166.526 115.117C166.916 114.778 166.37 114.232 165.98 114.544V114.544Z" fill="#323232"/>
<path d="M127.859 74.3416C127.416 73.9773 127.208 73.3007 127.546 72.8063C127.859 72.3119 128.639 72.1298 129.134 72.468C129.602 72.7803 129.758 73.5089 129.472 74.0033C129.082 74.6278 128.197 74.6798 127.677 74.2115C127.39 73.9512 126.974 74.3676 127.26 74.6278C127.989 75.2783 129.134 75.3043 129.784 74.5497C130.409 73.8472 130.305 72.6762 129.576 72.0777C128.874 71.5053 127.781 71.6354 127.182 72.2859C126.558 73.0145 126.714 74.1594 127.442 74.7579C127.755 74.9921 128.171 74.5758 127.859 74.3416V74.3416Z" fill="#323232"/>
<path d="M128.509 78.557C128.639 81.5234 128.769 84.4898 128.9 87.4562C128.926 87.8205 129.498 87.8465 129.498 87.4562C129.368 84.4898 129.238 81.5234 129.108 78.557C129.082 78.1927 128.483 78.1927 128.509 78.557V78.557Z" fill="#323232"/>
<path d="M128.822 78.6871C137.174 75.0702 145.813 72.1038 154.608 69.7879C154.973 69.6838 154.817 69.1374 154.452 69.2154C145.605 71.5573 136.94 74.5497 128.535 78.1667C128.171 78.3488 128.483 78.8432 128.822 78.6871V78.6871Z" fill="#323232"/>
<path d="M129.394 87.5342C136.185 83.9173 143.315 81.0029 150.679 78.8432C151.043 78.7391 150.887 78.1667 150.523 78.2707C143.107 80.4565 135.925 83.3969 129.108 87.0398C128.769 87.196 129.056 87.6904 129.394 87.5342V87.5342Z" fill="#323232"/>
<path d="M154.244 69.5797C153.021 72.5461 151.772 75.5125 150.549 78.4789C150.393 78.8172 150.965 78.9733 151.122 78.635C152.345 75.6686 153.594 72.7022 154.817 69.7358C154.947 69.3976 154.374 69.2414 154.244 69.5797V69.5797Z" fill="#323232"/>
<path d="M155.623 69.4496C154.478 72.3119 153.307 75.1742 152.084 78.0105C151.928 78.3488 152.449 78.6611 152.579 78.2968C153.802 75.4084 155.025 72.5201 156.17 69.6057C156.352 69.2675 155.779 69.1113 155.623 69.4496V69.4496Z" fill="#323232"/>
<path d="M152.553 78.5309C154.973 77.4901 157.367 76.4493 159.786 75.4084C160.125 75.2523 159.839 74.7579 159.5 74.914C157.08 75.9549 154.686 76.9957 152.266 78.0365C151.928 78.1667 152.214 78.6871 152.553 78.5309V78.5309Z" fill="#323232"/>
<path d="M156.274 69.6578C157.731 69.0593 159.24 68.5909 160.801 68.2787C161.166 68.2006 161.009 67.6281 160.645 67.7062C159.084 68.0185 157.575 68.4608 156.118 69.0853C155.779 69.2154 155.909 69.7879 156.274 69.6578V69.6578Z" fill="#323232"/>
<path d="M160.567 68.2266C160.047 70.3864 159.63 72.5721 159.292 74.7839C159.24 75.1482 159.813 75.3043 159.865 74.94C160.203 72.7283 160.619 70.5425 161.14 68.3827C161.218 68.0184 160.645 67.8623 160.567 68.2266V68.2266Z" fill="#323232"/>
<path d="M162.675 113.581C156.352 117.172 150.029 120.763 143.68 124.354C143.341 124.536 143.653 125.057 143.966 124.848C150.289 121.257 156.612 117.667 162.961 114.076C163.299 113.894 162.987 113.399 162.675 113.581V113.581Z" fill="#323232"/>
<path d="M144.33 111.578C144.512 113.659 144.2 115.819 144.044 117.927C143.888 120.165 143.732 122.402 143.549 124.64C143.523 125.004 144.096 125.004 144.148 124.64C144.304 122.402 144.46 120.165 144.642 117.927C144.798 115.845 145.111 113.685 144.928 111.578C144.876 111.213 144.278 111.213 144.33 111.578V111.578Z" fill="#323232"/>
<path d="M144.694 111.578C150.861 108.117 157.341 105.229 164.054 102.991C164.418 102.861 164.262 102.314 163.898 102.418C157.132 104.682 150.601 107.57 144.382 111.057C144.07 111.239 144.382 111.76 144.694 111.578V111.578Z" fill="#323232"/>
<path d="M163.924 102.913C163.612 106.53 163.091 110.12 162.311 113.659C162.233 114.024 162.805 114.18 162.883 113.815C163.664 110.225 164.21 106.582 164.522 102.913C164.548 102.548 163.976 102.548 163.924 102.913V102.913Z" fill="#323232"/>
<path d="M105.325 69.4756C109.826 69.7879 114.25 70.5165 118.621 71.5833C119.116 71.7134 119.324 70.9588 118.829 70.8287C114.38 69.7358 109.878 69.0073 105.325 68.695C104.83 68.643 104.83 69.4236 105.325 69.4756V69.4756Z" fill="white"/>
<path opacity="0.1" d="M149.56 61.6173C148.285 63.9332 146.308 67.6542 144.148 72.2859C138.319 84.802 123.825 115.923 133.479 125.343C135.249 127.06 139.178 129.376 148.936 127.346C140.531 131.978 132.126 136.636 123.721 141.268C124.97 129.636 125.569 119.67 125.881 111.864C126.089 106.66 126.349 99.8682 126.193 90.8129C126.063 83.2928 125.673 76.8396 125.257 71.7915C128.145 70.2302 131.293 68.669 134.702 67.1598C139.958 64.8439 144.955 63.0224 149.56 61.6173Z" fill="#666666"/>
<path d="M47.1415 7.05119C46.6731 7.70172 47.2716 8.84665 47.5578 9.41911C48.0782 10.4079 49.4053 12.4375 52.9181 13.9468C51.6171 14.233 51.0967 14.7534 50.8625 15.1958C50.3941 16.0545 50.9666 16.653 50.9666 18.7086C50.9666 20.2178 50.6283 20.452 50.7584 21.701C50.8625 22.7679 51.2007 23.6266 51.487 24.173C51.539 24.6674 51.6171 25.37 51.7992 26.2287C51.9293 26.8532 52.0074 27.1654 52.1115 27.3736C52.6579 28.3624 54.1932 28.8828 55.5202 28.6226C57.1856 28.2583 57.9142 26.7491 57.9922 26.567C58.6948 27.6078 59.3713 27.9201 59.8397 27.9981C60.6984 28.1542 61.2709 27.6598 62.9362 27.2695C63.7689 27.0614 64.4454 26.9833 64.8878 26.9573C64.8358 27.9201 64.7577 29.3512 64.6796 31.0946C64.4454 36.8453 64.3153 39.8637 64.5756 43.4806C64.6536 44.6256 64.9398 48.0343 65.9286 52.3538C66.5271 55.0079 67.4639 59.0152 69.6497 63.5949C71.0027 66.4312 73.1104 70.8808 77.5861 75.1482C79.6157 77.0738 84.4816 81.6014 92.34 83.2928C98.1947 84.5418 103.087 83.6831 105.845 82.9805C107.979 81.8356 110.112 80.7167 112.246 79.5718C112.558 79.1294 113.079 78.1927 113.079 76.9957C113.079 75.2003 111.96 73.5089 110.19 72.5721C108.837 72.9104 106.964 73.3007 104.726 73.5089C102.54 73.691 98.2207 74.0293 93.1727 72.4681C91.0129 71.8175 85.2883 69.97 80.8907 64.6357C78.8091 62.1117 77.8983 59.8479 76.3631 55.9707C74.5416 51.417 73.813 47.8261 73.0584 44.1051C71.4711 36.0907 70.6645 32.0574 71.4191 28.1282C71.8094 26.0986 72.538 23.6786 72.0436 20.2959C71.5492 16.9912 70.2742 15.2999 69.8838 14.8315C68.817 13.5044 67.5159 12.7238 66.7873 12.2554C65.4603 11.4227 65.7205 11.8911 63.4827 10.7202C63.0924 10.512 62.65 10.2778 62.0515 10.3038C61.3489 10.3559 60.8025 10.7462 60.5163 11.0324C58.8769 10.564 57.4978 10.1217 56.483 9.7834C54.1671 9.02879 52.9962 8.6645 52.4498 8.35225C51.0706 7.57162 50.5762 6.89507 49.2492 6.71292C48.8328 6.58282 47.6098 6.40067 47.1415 7.05119Z" fill="white"/>
<path d="M71.6533 21.649C70.7946 27.3476 70.8987 33.0982 71.6793 38.7969C72.46 44.5475 73.761 50.3762 75.7646 55.8146C77.456 60.4203 79.902 64.7398 83.7271 67.9144C87.0577 70.6726 91.065 72.4941 95.2804 73.3788C100.094 74.3936 105.142 74.1594 109.852 72.7543C110.321 72.5982 110.138 71.8436 109.644 71.9997C101.473 74.4457 92.1058 73.2227 85.1842 68.0965C81.229 65.1561 78.5749 61.0188 76.8315 56.4651C74.9319 51.5992 73.735 46.395 72.8503 41.2688C71.7574 34.8417 71.4451 28.2844 72.4079 21.8311C72.486 21.3628 71.7314 21.1546 71.6533 21.649V21.649Z" fill="#323232"/>
<path d="M64.4194 27.0093C63.4567 39.8377 63.873 53.2906 69.8578 64.974C74.8799 74.7839 83.727 82.6683 94.9421 84.0214C101.031 84.75 107.328 83.4749 112.376 79.9101C112.793 79.6238 112.402 78.9473 111.986 79.2335C102.905 85.6607 90.2843 84.2816 81.5673 77.9064C72.3559 71.141 67.3858 60.1081 65.6685 49.0751C64.5235 41.7893 64.6536 34.3472 65.2001 27.0093C65.2521 26.5149 64.4715 26.5149 64.4194 27.0093V27.0093Z" fill="#323232"/>
<path d="M109.618 72.7283C112.35 73.8211 113.235 76.9697 111.622 79.3896C111.335 79.806 112.012 80.1963 112.298 79.78C114.224 76.9176 113.001 73.2487 109.826 71.9737C109.358 71.7915 109.15 72.5461 109.618 72.7283V72.7283Z" fill="#323232"/>
<path d="M66.7093 18.1101C67.62 16.4188 65.07 16.6009 64.2373 16.3407C63.1444 15.9764 61.9214 15.0136 61.1408 14.181C59.9699 12.932 59.8658 10.3559 62.3118 10.8242C67.1777 11.787 72.3559 16.2366 71.6013 21.5709C71.5232 22.0653 72.2778 22.2735 72.3559 21.7791C73.1885 15.7943 67.6721 11.2146 62.2857 10.0176C60.3081 9.57524 59.0331 11.4488 59.6316 13.2702C59.9959 14.3631 60.9587 15.1698 61.8434 15.8203C62.3898 16.2366 62.9883 16.653 63.6128 16.9392C63.899 17.0433 66.1108 17.4856 65.9807 17.7198C65.7986 18.1622 66.4751 18.5525 66.7093 18.1101V18.1101Z" fill="#323232"/>
<path d="M59.7877 10.3299C56.6912 9.60127 53.6727 8.5344 50.8364 7.07723C49.5354 6.40068 46.8552 5.17769 46.8032 7.75377C46.7772 9.80943 48.6247 11.8911 50.1599 13.036C52.4758 14.7794 55.3641 15.43 58.1484 15.8463C58.6428 15.9244 58.8509 15.1698 58.3565 15.0917C54.3233 14.4672 49.041 13.0621 47.7399 8.56042C47.6359 8.30021 47.5838 8.04 47.5838 7.75377C48.0782 6.9211 48.6247 6.73895 49.3012 7.15529C49.7696 7.36346 50.1859 7.62367 50.6543 7.85786C51.513 8.27419 52.3717 8.69053 53.2564 9.05482C55.3121 9.91352 57.4198 10.5901 59.5795 11.0845C60.0739 11.2146 60.2821 10.46 59.7877 10.3299V10.3299Z" fill="#323232"/>
<path d="M52.2416 13.6345C50.7844 14.0509 50.1859 15.8463 50.238 17.2254C50.316 18.9949 51.461 20.4781 52.9442 21.3628C54.2973 22.1954 56.3529 22.846 57.7841 21.7791C58.8249 20.9985 59.0591 19.5153 58.1484 18.5525C57.8101 18.1882 57.2636 18.7346 57.6019 19.0989C58.2264 19.7495 57.9142 20.7383 57.2636 21.1806C56.6912 21.5709 55.9106 21.5449 55.26 21.4408C54.2452 21.2587 53.2564 20.7122 52.4758 20.0357C51.7212 19.3592 51.2008 18.5005 51.0706 17.5117C50.9145 16.4448 51.2268 14.7274 52.4498 14.3631C52.9442 14.259 52.736 13.5044 52.2416 13.6345V13.6345Z" fill="#323232"/>
<path d="M50.7063 18.8387C49.8477 20.9985 50.4201 23.6526 52.2676 25.1618C53.1003 25.8384 54.2452 26.2547 55.3121 26.0726C56.3789 25.8644 57.0034 25.1098 57.6279 24.2771C57.9142 23.8608 57.2376 23.4705 56.9514 23.8868C56.2748 24.7975 55.4942 25.5001 54.2972 25.2659C53.3084 25.0838 52.4758 24.4333 51.9293 23.6266C51.0186 22.2735 50.8885 20.5821 51.487 19.0729C51.6431 18.5785 50.8885 18.3704 50.7063 18.8387V18.8387Z" fill="#323232"/>
<path d="M50.9666 24.121C51.0446 26.2547 51.8773 28.7267 54.2712 29.1951C56.8213 29.6895 58.2004 27.0874 58.8509 25.0577C59.007 24.5894 58.2524 24.3812 58.0963 24.8496C57.5759 26.4629 56.509 28.8568 54.3753 28.3884C52.3977 27.9721 51.7992 25.8644 51.7472 24.121C51.7472 23.6266 50.9666 23.6006 50.9666 24.121V24.121Z" fill="#323232"/>
<path d="M57.7581 26.5149C58.0183 27.6599 59.1892 28.0762 60.2561 28.2323C61.9474 28.4925 63.1965 27.6338 64.8358 27.4517C65.3302 27.3996 65.3302 26.619 64.8358 26.6711C64.0291 26.7751 63.3266 27.0874 62.5199 27.2956C61.5051 27.5818 58.8509 27.816 58.5127 26.3068C58.4086 25.8124 57.654 26.0205 57.7581 26.5149V26.5149Z" fill="#323232"/>
<path d="M64.8618 27.2956C67.4639 28.3104 70.4043 27.3476 71.9655 25.0577C72.2518 24.6414 71.5752 24.2511 71.289 24.6674C69.9099 26.6971 67.3078 27.4257 65.07 26.5409C64.6016 26.3588 64.4194 27.1134 64.8618 27.2956V27.2956Z" fill="#323232"/>
<path d="M94.3175 73.5089C95.3324 74.4977 95.0982 77.0738 95.0201 78.3748C94.916 80.0662 94.4216 81.6795 93.2247 82.9285C92.8864 83.2928 93.4328 83.8392 93.7711 83.475C95.0982 82.0698 95.6706 80.2744 95.7747 78.3748C95.8788 76.8136 96.087 74.1594 94.864 72.9364C94.4997 72.5982 93.9533 73.1446 94.3175 73.5089V73.5089Z" fill="#323232"/>
<path d="M102.046 74.0033C103.633 76.9437 103.659 80.4305 102.124 83.3969C101.89 83.8392 102.566 84.2296 102.8 83.7872C104.466 80.5606 104.44 76.8136 102.722 73.613C102.488 73.1446 101.812 73.5609 102.046 74.0033V74.0033Z" fill="#323232"/>
<path d="M64.8618 43.0903C67.4639 43.975 70.2221 43.6888 72.6161 42.3097C73.0584 42.0495 72.6681 41.3729 72.2257 41.6331C70.014 42.9082 67.5159 43.1424 65.07 42.3357C64.6016 42.1796 64.3934 42.9342 64.8618 43.0903V43.0903Z" fill="#323232"/>
<path d="M67.2557 58.3386C70.5604 59.0412 73.9171 57.8182 75.9728 55.138C76.285 54.7477 75.6085 54.3574 75.2962 54.7477C73.4487 57.1156 70.4043 58.2346 67.4639 57.584C66.9695 57.4799 66.7613 58.2346 67.2557 58.3386V58.3386Z" fill="#323232"/>
<path d="M81.4892 65.8067C81.5933 67.2639 81.0989 68.5909 80.0841 69.6318C79.7198 69.9961 80.2922 70.5425 80.6305 70.1782C81.8015 69.0073 82.3739 67.446 82.2698 65.7807C82.2438 65.3123 81.4632 65.3123 81.4892 65.8067V65.8067Z" fill="#323232"/>
<path d="M65.3041 50.5844C66.4491 51.1048 67.6721 51.2089 68.869 50.8446C69.3634 50.7145 69.1553 49.9599 68.6609 50.09C67.6721 50.3762 66.6572 50.3242 65.6945 49.9078C65.2521 49.6997 64.8358 50.3762 65.3041 50.5844V50.5844Z" fill="#323232"/>
<path d="M64.7057 32.2916C66.9435 32.838 69.1292 32.6038 71.2369 31.6671C71.7053 31.4589 71.289 30.7824 70.8466 30.9905C68.9471 31.8492 66.9435 32.0054 64.9138 31.537C64.4194 31.4069 64.2113 32.1615 64.7057 32.2916V32.2916Z" fill="#323232"/>
<path d="M71.7834 68.2266C75.5044 69.0853 79.0693 67.1337 80.3443 63.5428C80.5004 63.0745 79.7718 62.8663 79.5897 63.3347C78.4708 66.5092 75.2702 68.2266 71.9915 67.472C71.4971 67.3419 71.289 68.0965 71.7834 68.2266V68.2266Z" fill="#323232"/>
<path d="M87.6822 70.8548C88.8011 74.1594 85.3924 77.4901 82.8163 78.8953C82.3739 79.1294 82.7643 79.806 83.2066 79.5718C86.0949 78.0105 89.6858 74.2895 88.4368 70.6726C88.2807 70.1782 87.5261 70.3864 87.6822 70.8548V70.8548Z" fill="#323232"/>
<path opacity="0.13" d="M53.6467 15.0917C54.5835 16.0545 53.4646 17.6678 54.2712 18.7086C54.7136 19.255 55.7024 19.6714 58.1223 19.203C58.1223 19.6193 58.1484 20.2438 58.3826 20.9464C58.3826 20.9464 58.903 22.6118 60.3601 23.6786C62.0515 24.9276 64.5756 24.9537 66.8394 23.8087C66.9435 25.37 67.1256 27.5818 67.3338 30.288C68.5568 45.7445 69.0251 48.5287 69.7017 51.1828C70.4823 54.3054 71.4711 58.1825 74.0472 62.502C75.6605 65.1822 81.0729 73.9252 92.2099 77.412C101.656 80.3784 109.774 77.8284 112.61 76.7875C112.454 77.8544 112.272 78.9473 112.116 80.0141C110.867 80.7688 109.072 81.7315 106.782 82.5122C106.495 82.6162 101.343 84.2816 95.5926 83.7612C84.7418 82.7724 77.1957 74.4977 75.3222 72.442C68.5568 65 66.6312 56.8554 65.7465 53.1604C64.4454 47.618 64.3414 42.5178 64.2633 38.8489C64.1592 34.1911 64.4454 30.2619 64.7577 27.3996C64.2893 27.6338 63.0924 28.1282 61.5311 27.894C59.7617 27.6338 58.6428 26.619 58.3045 26.2807C58.2264 26.4889 57.8101 27.7639 56.431 28.3884C56.3529 28.4405 54.8697 29.065 53.5687 28.3884C52.3977 27.7899 52.0855 26.4889 51.461 23.9128C51.0706 22.3516 50.9926 21.2326 50.8365 19.4372C50.5242 15.508 50.9405 15.0396 51.2007 14.8315C51.8253 14.3371 53.0482 14.4672 53.6467 15.0917Z" fill="#666666"/>
<path opacity="0.15" d="M69.8058 63.3347C70.5864 64.2454 71.7834 65.5725 73.2926 67.0557C75.9467 69.6838 81.9836 75.6947 88.7231 78.5049C98.1167 82.4081 107.823 79.7019 112.22 78.1406C112.064 78.6871 111.882 79.2075 111.726 79.7539C110.425 80.4565 98.0906 86.8577 85.0021 80.6126C74.0732 75.4345 70.4303 65.2082 69.8058 63.3347Z" fill="#666666"/>
<path d="M128.691 48.0083C128.431 49.4655 128.327 50.7405 128.301 51.6773C128.275 52.2497 128.197 54.3835 128.613 57.1937C128.795 58.4948 129.056 59.5877 129.264 60.3943C130.331 60.6805 131.866 60.9668 133.739 60.8627C136.211 60.7326 138.111 59.978 139.256 59.4315C139.204 58.729 139.152 57.6101 139.022 56.2309C138.735 53.1344 138.501 52.0416 138.475 50.0119C138.449 49.1532 138.475 47.8522 138.631 46.2649C137.538 45.9787 135.379 45.5623 132.803 46.1868C130.903 46.6032 129.524 47.4098 128.691 48.0083Z" fill="white"/>
<path d="M128.353 47.7221C127.468 51.8334 128.041 55.9707 128.691 60.0821C128.769 60.5765 129.524 60.3683 129.446 59.8739C128.821 55.9187 128.249 51.8854 129.108 47.9302C129.212 47.4358 128.457 47.2277 128.353 47.7221V47.7221Z" fill="#323232"/>
<path d="M128.873 48.2685C130.044 47.2277 131.762 46.8634 133.245 46.5511C134.936 46.2128 136.602 46.1608 138.293 46.4731C138.787 46.5771 138.996 45.8225 138.501 45.7184C136.68 45.3542 134.858 45.4322 133.037 45.7965C131.371 46.1348 129.602 46.5511 128.301 47.7221C127.963 48.0603 128.509 48.6068 128.873 48.2685V48.2685Z" fill="#323232"/>
<path d="M138.215 46.2128C137.903 50.5844 138.137 54.9559 138.866 59.2754C138.944 59.7698 139.698 59.5616 139.62 59.0672C138.892 54.7998 138.683 50.5063 138.996 46.2128C139.022 45.7184 138.241 45.7184 138.215 46.2128V46.2128Z" fill="#323232"/>
<path d="M128.847 60.3423C130.123 61.3571 132.282 61.227 133.844 61.1749C135.795 61.1229 137.695 60.7066 139.386 59.7178C139.828 59.4576 139.438 58.781 138.996 59.0412C137.538 59.8999 135.951 60.2902 134.286 60.3943C132.959 60.4724 130.513 60.6545 129.42 59.7958C129.004 59.4836 128.457 60.03 128.847 60.3423V60.3423Z" fill="#323232"/>
<path d="M128.717 52.562C129.68 51.2089 131.293 50.7665 132.855 50.4283C134.598 50.0379 136.394 49.6736 138.007 50.6624C138.449 50.9227 138.84 50.2461 138.397 49.9859C136.602 48.893 134.598 49.2313 132.647 49.6736C130.877 50.09 129.16 50.6364 128.041 52.1717C127.755 52.562 128.431 52.9523 128.717 52.562V52.562Z" fill="#323232"/>
<path d="M128.873 57.0116C131.528 54.8518 134.988 53.9931 138.371 54.6697C138.866 54.7738 139.074 54.0191 138.579 53.9151C134.91 53.1865 131.241 54.0972 128.327 56.4651C127.937 56.7774 128.483 57.3238 128.873 57.0116V57.0116Z" fill="#323232"/>
<path d="M133.219 58.0784C134.104 57.6881 135.014 57.558 136.003 57.558C136.68 57.558 138.189 57.4799 138.657 58.0264C138.996 58.4167 139.542 57.8442 139.204 57.4799C138.605 56.7774 137.252 56.8554 136.42 56.8034C135.171 56.7514 134 56.9335 132.829 57.4279C132.36 57.6101 132.751 58.2606 133.219 58.0784V58.0784Z" fill="#323232"/>
<path d="M104.18 45.12C106.391 46.369 109.852 48.0343 114.302 48.9451C119.09 49.9339 122.811 49.6216 127 49.2573C128.665 49.1012 134.208 48.5547 141.598 46.395C146.177 45.0419 152.318 42.8301 159.162 39.0571C159.682 36.481 160.151 33.5146 160.359 30.2099C160.593 26.645 160.515 23.4184 160.281 20.6342C158.824 19.0209 157.054 17.2775 154.947 15.5341C153.021 13.9208 151.147 12.6197 149.43 11.5528C134.338 22.7419 119.272 33.9309 104.18 45.12Z" fill="#323232"/>
<path d="M149.352 11.5268C149.716 12.8279 150.185 14.6754 150.549 16.9652C150.783 18.3964 151.512 23.6006 150.627 30.4441C150.393 32.3697 149.95 34.9197 149.118 37.8601C148.181 38.4326 146.88 39.1872 145.293 40.0198C140.036 42.7521 135.613 44.0531 134.052 44.4955C132.933 44.8077 127.598 46.2649 120.234 46.5771C116.175 46.7333 110.555 46.6032 103.945 45.2241C104.414 37.2876 104.908 29.3772 105.376 21.4408C106.86 20.7122 108.915 19.7495 111.439 18.7346C113.053 18.0841 120.521 15.1177 131.241 13.2182C136.029 12.3595 142.144 11.6049 149.352 11.5268Z" fill="white"/>
<path d="M105.142 21.4148C104.596 29.3252 104.049 37.2616 103.529 45.172C103.503 45.6664 104.284 45.6664 104.31 45.172C104.856 37.2616 105.403 29.3252 105.923 21.4148C105.949 20.8944 105.168 20.8944 105.142 21.4148V21.4148Z" fill="#323232"/>
<path d="M105.949 21.5189C119.402 15.3259 134.104 12.0733 148.91 11.9952C149.404 11.9952 149.404 11.2146 148.91 11.2146C133.948 11.2926 119.142 14.5713 105.559 20.8423C105.116 21.0505 105.507 21.7271 105.949 21.5189V21.5189Z" fill="#323232"/>
<path d="M103.815 45.4062C119.272 49.1792 135.769 46.6292 149.3 38.2504C149.716 37.9902 149.326 37.3137 148.91 37.5739C135.535 45.8225 119.272 48.3726 104.023 44.6516C103.529 44.5215 103.321 45.2761 103.815 45.4062V45.4062Z" fill="#323232"/>
<path d="M148.78 11.6569C151.226 20.3219 151.147 29.4813 148.571 38.1203C148.415 38.6147 149.17 38.7969 149.326 38.3285C151.954 29.5854 152.032 20.2439 149.534 11.4488C149.404 10.9544 148.649 11.1625 148.78 11.6569V11.6569Z" fill="#323232"/>
<path d="M149.222 11.761C153.307 14.3891 156.898 17.6418 159.917 21.4408C160.229 21.8311 160.775 21.2847 160.463 20.8944C157.393 17.0433 153.75 13.7646 149.612 11.1105C149.196 10.7982 148.806 11.4748 149.222 11.761V11.761Z" fill="#323232"/>
<path d="M159.76 21.2067C160.307 27.2696 159.969 33.3325 158.746 39.3173C158.642 39.8117 159.396 40.0199 159.5 39.5255C160.749 33.4886 161.087 27.3476 160.541 21.2327C160.489 20.7123 159.708 20.7123 159.76 21.2067V21.2067Z" fill="#323232"/>
<path d="M103.867 45.6404C106.027 46.5251 108.187 47.3838 110.346 48.2685C111.96 48.919 113.625 49.1792 115.317 49.3874C119.298 49.9339 123.357 50.064 127.364 49.6997C134.104 49.1272 140.765 47.2016 147.088 44.8858C151.356 43.3245 155.493 41.451 159.474 39.2913C159.917 39.0571 159.526 38.3805 159.084 38.6147C152.735 42.0495 146.047 44.6256 139.126 46.6032C131.84 48.6848 124.398 49.5956 116.826 48.7629C115.004 48.5547 112.975 48.4246 111.257 47.7741C108.837 46.8634 106.443 45.8225 104.049 44.8598C103.607 44.7036 103.399 45.4582 103.867 45.6404V45.6404Z" fill="#323232"/>
<path d="M148.754 38.8749C152.24 39.5515 155.753 39.6816 159.292 39.2652C159.786 39.2132 159.786 38.4326 159.292 38.4846C155.831 38.9009 152.396 38.7708 148.962 38.1203C148.467 38.0422 148.259 38.7708 148.754 38.8749V38.8749Z" fill="#323232"/>
<path d="M113.105 27.0874C112.428 26.7751 112.532 25.8124 112.506 25.2139C112.48 24.9016 112.454 24.5894 112.48 24.2511C112.48 23.8868 112.532 23.5746 112.688 23.2363C112.871 22.82 113.157 22.7679 113.495 23.0281C114.094 23.2363 114.015 23.3924 114.015 23.9649C114.015 24.3032 113.989 24.6154 113.963 24.9537C113.937 25.292 113.937 25.6562 113.911 25.9945C113.911 26.0986 113.625 27.8941 113.131 27.1655C112.845 26.7491 112.168 27.1394 112.454 27.5558C113.209 28.6747 114.406 27.79 114.614 26.7751C114.796 25.8644 114.796 24.7976 114.796 23.8608C114.796 23.2623 114.692 22.5858 114.172 22.2215C113.001 21.3888 111.856 22.7679 111.726 23.8608C111.596 24.9797 111.465 27.2175 112.714 27.79C113.157 27.9721 113.547 27.2956 113.105 27.0874V27.0874Z" fill="#323232"/>
<path d="M112.74 22.7159C112.298 24.3292 112.402 25.9685 113.027 27.5298C113.183 27.9201 113.807 27.894 113.781 27.4257C113.755 25.9165 113.833 24.4333 114.015 22.9501C113.755 22.9501 113.495 22.9501 113.235 22.9501C113.313 23.5746 113.365 24.173 113.365 24.7975C113.365 25.0578 113.391 25.396 113.339 25.6302C113.313 25.8124 113.079 26.4629 113.183 25.8384C113.261 25.344 112.48 25.344 112.402 25.8384C112.298 26.593 113.027 27.7379 113.833 26.9573C114.146 26.645 114.12 26.0466 114.146 25.6302C114.198 24.7195 114.146 23.8348 114.041 22.9501C113.989 22.4557 113.339 22.4557 113.261 22.9501C113.053 24.4333 112.975 25.9165 113.027 27.4257C113.287 27.3997 113.547 27.3476 113.781 27.3216C113.209 25.8904 113.105 24.4333 113.495 22.924C113.625 22.4557 112.871 22.2475 112.74 22.7159V22.7159Z" fill="#323232"/>
<path d="M112.454 23.3664C112.246 23.8868 112.22 24.4332 112.298 24.9797C112.324 25.1879 112.584 25.2919 112.766 25.2399C113.001 25.1879 113.079 24.9797 113.027 24.7715C112.975 24.3552 113.053 23.9649 113.183 23.5746C113.391 23.1062 112.636 22.898 112.454 23.3664V23.3664Z" fill="#323232"/>
<path d="M134.702 23.1322C134.026 22.8199 134.13 21.8572 134.104 21.2587C134.078 20.9464 134.052 20.6602 134.078 20.348C134.078 20.1658 134.078 19.9837 134.13 19.8275C134.156 19.229 134.65 19.0469 135.561 19.3071C135.821 19.6974 135.587 20.7903 135.561 21.2066C135.535 21.4929 135.535 21.7791 135.509 22.0653C135.509 22.1694 135.223 23.9649 134.728 23.2363C134.442 22.8199 133.765 23.2103 134.052 23.6266C134.806 24.7455 136.003 23.8608 136.211 22.846C136.394 21.9613 136.368 20.9464 136.394 20.0617C136.394 19.4632 136.342 18.7607 135.847 18.3443C134.728 17.3816 133.505 18.6826 133.323 19.7755C133.141 20.8944 133.037 23.2363 134.286 23.8348C134.78 24.0169 135.171 23.3664 134.702 23.1322V23.1322Z" fill="#323232"/>
<path d="M134.364 18.7867C133.922 20.4 134.026 22.0393 134.65 23.6006C134.806 23.9909 135.431 23.9649 135.405 23.4965C135.379 21.9873 135.457 20.5041 135.639 19.0209C135.379 19.0209 135.119 19.0209 134.858 19.0209C134.936 19.6454 134.988 20.2439 134.988 20.8684C134.988 21.1286 135.014 21.4669 134.962 21.701C134.936 21.8832 134.702 22.5337 134.806 21.9092C134.884 21.4148 134.104 21.4148 134.026 21.9092C133.922 22.6638 134.65 23.8087 135.457 23.0281C135.769 22.7159 135.743 22.1174 135.769 21.701C135.821 20.7903 135.769 19.9056 135.665 19.0209C135.613 18.5265 134.962 18.5265 134.884 19.0209C134.676 20.5041 134.598 21.9873 134.65 23.4965C134.91 23.4705 135.171 23.4184 135.405 23.3924C134.832 21.9613 134.728 20.5041 135.119 18.9949C135.249 18.5005 134.494 18.2923 134.364 18.7867V18.7867Z" fill="#323232"/>
<path d="M134.078 19.4112C133.87 19.9316 133.844 20.4781 133.922 21.0245C133.948 21.2327 134.208 21.3367 134.39 21.2847C134.624 21.2327 134.702 21.0245 134.65 20.8163C134.598 20.4 134.676 20.0097 134.806 19.6194C135.014 19.151 134.26 18.9688 134.078 19.4112V19.4112Z" fill="#323232"/>
<path d="M119.402 31.1987C121.692 31.511 124.736 31.2247 126.766 30.0278C127.208 29.7676 126.818 29.091 126.375 29.3512C124.528 30.4181 121.692 30.7303 119.61 30.4441C119.142 30.3921 118.907 31.1467 119.402 31.1987V31.1987Z" fill="#323232"/>
<path d="M119.038 31.2508C119.74 32.812 121.457 34.9978 123.435 34.7376C125.387 34.5034 126.558 31.7452 126.974 30.1058C127.104 29.6114 126.349 29.4033 126.219 29.8977C125.933 31.0686 125.1 33.2544 123.851 33.7748C122.03 34.5294 120.365 32.2396 119.74 30.8344C119.506 30.4181 118.829 30.8084 119.038 31.2508V31.2508Z" fill="#323232"/>
<path d="M119.688 31.563C121.692 32.4998 124.684 32.0054 126.375 30.6523C126.193 30.4701 126.011 30.288 125.829 30.1058C124.84 30.9125 123.617 31.3809 122.316 31.3548C121.614 31.3548 121.041 30.9905 120.469 31.4589C120.365 31.563 120.339 31.7191 120.365 31.8492C120.495 32.5518 121.458 32.8901 122.056 32.9942C123.305 33.2023 124.45 32.6038 125.439 31.8753C125.283 31.6671 125.126 31.4589 124.97 31.2508C124.086 32.2656 121.822 32.812 120.859 31.589C120.573 31.2247 120.052 31.6931 120.235 32.0574C120.781 33.0462 121.614 34.035 122.863 33.9569C124.164 33.9049 124.97 32.786 125.621 31.7972C125.881 31.4069 125.335 31.0686 124.996 31.3288C124.398 31.7972 123.982 31.8753 123.331 32.1094C122.915 32.2656 122.602 32.1875 122.759 32.7079C122.889 33.1243 123.331 33.2544 123.695 33.2544C124.814 33.2023 125.959 31.589 126.454 30.7303C126.662 30.366 126.141 29.9237 125.829 30.262C124.84 31.3288 124.268 33.0462 122.68 33.2804C122.186 33.3585 122.394 34.1131 122.889 34.035C124.684 33.7488 125.283 31.9793 126.375 30.8084C126.167 30.6523 125.959 30.4961 125.751 30.34C125.387 30.9385 124.762 31.9273 124.06 32.2135C123.513 32.4217 123.591 32.2916 123.175 31.8492C123.071 31.7191 122.993 31.563 122.863 31.4849C122.394 31.1987 121.926 31.4589 121.77 31.9273C121.718 32.0574 121.77 32.2135 121.874 32.3176C122.993 33.5406 124.45 32.7079 125.517 31.9013C125.309 31.7452 125.1 31.589 124.892 31.4329C124.372 32.2135 123.903 32.9681 122.915 33.0982C121.9 33.2544 121.327 32.4998 120.885 31.6671C120.677 31.8232 120.469 31.9793 120.261 32.1355C121.484 33.6707 124.294 33.1243 125.465 31.7972C125.751 31.4849 125.361 30.9125 124.996 31.1727C124.164 31.7972 123.149 32.3957 122.082 32.1615C121.718 32.1355 121.379 31.9533 121.093 31.6931C121.171 31.9273 121.327 32.0314 121.51 32.0574C121.796 32.1875 122.316 32.1355 122.628 32.1094C124.008 32.0314 125.257 31.4849 126.323 30.6262C126.714 30.314 126.167 29.7676 125.777 30.0798C124.424 31.1467 121.666 31.6411 120.026 30.8604C119.61 30.6783 119.22 31.3548 119.688 31.563V31.563Z" fill="#323232"/>
<path d="M122.472 33.4365C123.071 32.9942 123.643 32.5258 124.138 31.9794C123.929 31.8232 123.721 31.6671 123.513 31.511C123.279 31.9533 122.941 32.3957 122.759 32.8641C122.68 33.0983 122.654 33.3585 122.863 33.5666C123.045 33.7488 123.331 33.7488 123.565 33.6447C124.008 33.4365 124.398 33.0722 124.788 32.786C124.606 32.6039 124.424 32.4217 124.242 32.2396C124.086 32.6299 123.565 33.3845 124.008 33.7488C124.502 34.1651 124.944 33.4365 125.205 33.1243C125.517 32.734 124.97 32.1875 124.658 32.5778C124.554 32.6819 124.346 33.0722 124.19 33.0983C124.32 33.1243 124.45 33.1763 124.58 33.2023C124.554 33.1763 124.528 33.1503 124.528 33.1243C124.554 33.2284 124.606 33.3064 124.632 33.4105C124.632 33.1763 124.84 32.8641 124.918 32.6559C125.048 32.3436 124.736 31.8753 124.372 32.1095C124.216 32.2135 123.357 32.9682 123.227 32.9161C123.305 32.9682 123.383 33.0462 123.461 33.0983C123.435 33.0722 123.435 33.0202 123.409 32.9942C123.435 33.0983 123.435 33.2023 123.461 33.3064C123.539 32.838 123.956 32.3176 124.19 31.9013C124.398 31.511 123.877 31.0946 123.565 31.4329C123.097 31.9273 122.602 32.3697 122.056 32.76C121.666 33.0462 122.056 33.7228 122.472 33.4365V33.4365Z" fill="#323232"/>
<path d="M107.276 22.7419C106.678 29.7415 106.261 36.7672 106.001 43.7929C105.975 44.2873 106.756 44.2873 106.782 43.7929C107.042 36.7672 107.458 29.7415 108.057 22.7419C108.109 22.2475 107.328 22.2475 107.276 22.7419V22.7419Z" fill="#323232"/>
<path d="M147.296 14.4932C149.274 21.8832 148.025 29.5073 146.281 36.7932C146.151 37.2876 146.906 37.4958 147.036 37.0014C148.832 29.5854 150.081 21.8051 148.051 14.285C147.921 13.8167 147.166 14.0248 147.296 14.4932V14.4932Z" fill="#323232"/>
<path d="M149.872 38.1984C152.162 38.6147 154.478 39.031 156.768 39.4474C157.262 39.5254 157.471 38.7969 156.976 38.6928C154.686 38.2764 152.37 37.8601 150.081 37.4438C149.586 37.3657 149.378 38.1203 149.872 38.1984V38.1984Z" fill="white"/>
<path d="M152.839 22.1174C152.631 22.4556 152.396 22.95 152.24 23.5225C152.006 24.4593 152.058 25.2659 152.11 25.7603C150.549 27.3476 146.516 31.0166 140.297 31.9013C137.825 32.2656 135.665 32.0834 134.052 31.7712C133.869 32.4477 133.739 33.3064 134.182 33.6707C134.468 33.9309 134.884 33.8268 135.587 33.8008C136.758 33.7488 137.382 33.983 137.955 34.035C139.568 34.2171 143.836 33.4625 148.467 30.8604C149.716 30.1579 151.434 29.065 153.307 27.4257C153.437 27.6078 154.374 28.7267 155.779 28.7267C157.731 28.7007 158.642 26.567 158.72 26.3588C159.188 25.2139 159.214 23.6266 158.251 22.4556C157.366 21.3628 156.117 21.1806 155.779 21.1546C154.166 20.9985 153.021 21.9352 152.839 22.1174Z" fill="white" stroke="black" stroke-width="2"/>
<path d="M154.244 22.6378C153.047 24.5113 153.776 27.2435 156.3 27.1915C156.56 27.1915 156.56 26.8012 156.3 26.8012C154.062 26.8532 153.567 24.4072 154.582 22.8199C154.738 22.6118 154.4 22.4296 154.244 22.6378V22.6378Z" fill="black"/>
<path d="M156.013 25.1618C155.675 24.9016 155.493 24.4593 155.597 24.0429C155.701 23.6526 156.196 23.2623 156.612 23.4705C157.054 23.6786 157.21 24.3812 157.002 24.7975C156.82 25.2139 156.196 25.396 155.883 24.9797C155.727 24.7715 155.389 24.9797 155.545 25.1879C155.909 25.6823 156.664 25.7343 157.132 25.2919C157.653 24.7715 157.601 23.8088 157.08 23.2883C156.586 22.7939 155.779 23.0021 155.415 23.5485C154.999 24.147 155.181 24.9797 155.753 25.4221C155.935 25.5782 156.196 25.318 156.013 25.1618V25.1618Z" fill="black"/>
<path d="M139.542 32.0314C139.958 32.5518 140.063 33.2544 139.776 33.8529C139.672 34.0871 140.01 34.2692 140.115 34.061C140.453 33.3324 140.375 32.4998 139.88 31.8492C139.724 31.6411 139.386 31.8232 139.542 32.0314V32.0314Z" fill="black"/>
<path d="M135.119 32.0834C135.353 32.5258 135.379 33.0462 135.145 33.5146C135.04 33.7488 135.379 33.9309 135.483 33.7228C135.769 33.1243 135.743 32.4737 135.457 31.9013C135.327 31.6671 134.988 31.8492 135.119 32.0834V32.0834Z" fill="black"/>
<path d="M136.263 32.3697C136.55 32.6559 136.576 33.1503 136.315 33.4626C136.159 33.6447 136.446 33.9309 136.602 33.7488C136.992 33.2544 136.992 32.5518 136.55 32.1095C136.368 31.9013 136.107 32.1875 136.263 32.3697V32.3697Z" fill="black"/>
<path d="M137.538 32.3957C137.981 32.7079 137.955 33.3845 137.565 33.6967C137.382 33.8529 137.643 34.1391 137.851 33.983C138.449 33.4886 138.371 32.4998 137.747 32.0574C137.538 31.9273 137.356 32.2656 137.538 32.3957V32.3957Z" fill="black"/>
<path d="M143.784 14.8575C143.237 14.6494 143.419 13.9728 143.784 13.7126C144.148 13.4524 144.616 13.5304 144.85 13.9208C145.345 14.7795 144.174 15.482 143.575 14.7795C143.341 14.4932 142.925 14.9096 143.159 15.1958C143.653 15.7683 144.59 15.8203 145.163 15.3259C145.735 14.8055 145.683 13.8687 145.163 13.3483C144.616 12.7758 143.705 12.9059 143.185 13.4784C142.639 14.1289 142.821 15.1438 143.627 15.43C143.992 15.5341 144.122 14.9876 143.784 14.8575V14.8575Z" fill="black"/>
<path opacity="0.16" d="M144.824 11.6309C145.007 14.8575 145.345 18.3443 145.943 22.0914C146.334 24.5894 146.802 26.9833 147.322 29.1951C146.75 29.5594 146.151 29.9237 145.527 30.288C142.456 32.0314 139.49 33.1503 136.81 33.8789C138.189 33.9309 139.906 33.8529 141.884 33.4886C144.252 33.0462 146.177 32.2916 147.583 31.6151C145.501 33.9049 142.743 36.559 139.204 39.0831C134.13 42.726 129.238 44.8337 125.543 46.1088C128.379 47.0976 131.215 48.0864 134.026 49.0752C134.234 52.9263 134.442 56.7774 134.65 60.6545C136.081 60.2902 137.512 59.9259 138.97 59.5356C138.761 57.1157 138.579 54.6176 138.475 52.0155C138.423 50.5584 138.371 49.1272 138.345 47.696C140.817 47.0195 142.847 46.369 144.382 45.8486C150.055 43.923 154.088 41.9714 155.207 41.425C157.08 40.5142 158.589 39.6816 159.63 39.0831C159.917 37.2876 160.177 35.4141 160.359 33.4105C160.801 28.7788 160.827 24.5373 160.593 20.7383C159.37 19.229 157.783 17.5377 155.805 15.8203C153.698 13.9988 151.642 12.6457 149.898 11.6309C148.181 11.6309 146.49 11.6309 144.824 11.6309Z" fill="#666666"/>
<path opacity="0.3" d="M48.5986 110.173C48.8067 119.774 48.9889 129.376 49.1971 138.978C59.6055 141.892 71.7833 144.546 85.4964 146.186C105.012 148.501 122.238 148.111 136.185 146.784C136.576 136.974 136.992 127.19 137.382 117.38C125.413 116.912 113.105 116.209 100.484 115.273C82.504 113.92 65.2 112.202 48.5986 110.173Z" fill="#FFAC4B"/>
<g opacity="0.3">
<path d="M51.8512 114.752C66.449 117.927 81.307 119.748 96.2431 120.191C96.7375 120.217 96.7375 119.436 96.2431 119.41C81.3851 118.968 66.5791 117.172 52.0594 113.998C51.565 113.894 51.3568 114.648 51.8512 114.752V114.752Z" fill="#FFAC4B"/>
</g>
<g opacity="0.3">
<path d="M52.5017 120.087C59.1892 122.09 66.0327 123.417 72.9803 124.094C73.4747 124.146 73.4747 123.365 72.9803 123.313C66.1107 122.637 59.3193 121.31 52.7099 119.332C52.2155 119.176 52.0073 119.93 52.5017 120.087V120.087Z" fill="#FFAC4B"/>
</g>
<g opacity="0.3">
<path d="M72.6681 140.721C90.9348 143.505 109.488 146.264 127.989 144.156C128.483 144.104 128.483 143.323 127.989 143.375C109.54 145.483 91.091 142.751 72.8762 139.967C72.3818 139.889 72.1737 140.643 72.6681 140.721V140.721Z" fill="#FFAC4B"/>
</g>
<g opacity="0.3">
<path d="M101.109 139.42C110.477 141.112 120 141.528 129.472 140.617C129.966 140.565 129.966 139.784 129.472 139.836C120.078 140.721 110.607 140.331 101.317 138.666C100.823 138.587 100.615 139.316 101.109 139.42V139.42Z" fill="#FFAC4B"/>
</g>
<g opacity="0.3">
<path d="M119.87 120.919C120.313 124.458 120.078 127.997 119.194 131.458C119.116 131.718 119.324 131.926 119.558 131.952C121.796 132.134 124.008 132.316 126.245 132.499C127.208 132.577 129.368 133.253 129.966 132.186C130.279 131.64 130.201 130.703 130.253 130.105C130.305 129.168 130.331 128.231 130.383 127.294C130.487 125.161 130.669 123.053 131.345 120.997C131.424 120.763 131.215 120.477 130.981 120.503C127.598 120.763 124.242 120.607 120.911 120.035C120.599 119.982 120.391 120.217 120.443 120.503C120.495 120.815 120.495 120.815 120.677 121.075C120.963 121.492 121.64 121.101 121.353 120.685C121.301 120.555 121.249 120.425 121.197 120.295C121.041 120.451 120.885 120.607 120.729 120.763C124.138 121.362 127.546 121.518 131.007 121.258C130.877 121.101 130.747 120.919 130.643 120.763C129.602 123.86 129.706 127.086 129.498 130.287C129.472 130.573 129.498 131.432 129.368 131.614C129.082 132.004 128.431 131.848 128.067 131.822C127.13 131.744 126.193 131.666 125.231 131.588C123.357 131.432 121.457 131.276 119.584 131.119C119.714 131.276 119.844 131.458 119.948 131.614C120.859 128.101 121.119 124.484 120.651 120.867C120.599 120.425 119.818 120.425 119.87 120.919V120.919Z" fill="#FFAC4B"/>
</g>
<path d="M55.208 43.0383C55.4682 42.5439 56.0667 41.7633 56.1447 41.1908C56.1968 40.7745 55.8064 40.3581 55.5983 40.0199C54.7396 38.5887 53.8809 37.1315 53.0482 35.7004C52.6319 34.9978 52.1115 34.2692 51.7732 33.5406C51.3569 32.6559 51.7472 32.3697 52.1895 31.6151C52.8921 30.4181 53.4906 29.1691 53.985 27.8941C55.7544 23.2103 56.0406 17.8239 53.9329 13.1922C50.4982 5.62006 42.1975 3.90267 34.6774 3.74655C26.8971 3.5644 19.0387 6.47876 14.407 12.984C9.04667 20.5041 12.2473 31.0426 19.5071 36.0386C27.0792 41.2689 37.6698 41.0347 45.5802 36.7932C46.0225 36.5591 45.6322 35.8825 45.1899 36.1167C38.7887 39.5515 31.3207 40.0979 24.4771 37.678C17.3994 35.1799 11.961 28.1803 12.4814 20.452C13.0799 11.761 21.6148 6.1665 29.4992 4.86545C31.8931 4.47514 34.2871 4.47514 36.707 4.60524C40.0117 4.78739 43.3424 5.25577 46.3608 6.6609C50.6283 8.6385 53.5166 12.4636 54.3753 17.0953C55.3901 22.5597 53.6727 28.1803 50.6283 32.6819C50.5502 32.786 50.5502 32.9682 50.6283 33.0722C51.565 34.6595 52.5018 36.2468 53.4385 37.8341C53.8549 38.5627 54.2972 39.2652 54.7136 39.9938C54.9738 40.4362 55.312 40.8005 55.26 41.3469C55.234 41.7372 54.7656 42.3097 54.5835 42.674C54.2972 43.0903 54.9738 43.5067 55.208 43.0383V43.0383Z" fill="#47392E"/>
<path d="M45.3199 37.1575C48.1823 39.5254 51.3308 41.399 54.7916 42.7781C55.26 42.9602 55.4681 42.2056 54.9998 42.0235C51.6951 40.6964 48.6246 38.8749 45.8664 36.6111C45.4761 36.2728 44.9296 36.8193 45.3199 37.1575V37.1575Z" fill="#47392E"/>
<ellipse cx="22.0832" cy="21.2587" rx="1.87351" ry="2.73221" fill="#47392E" stroke="#47392E"/>
<ellipse cx="32.8039" cy="20.9204" rx="1.87351" ry="2.73221" fill="#47392E" stroke="#47392E"/>
<ellipse cx="43.2383" cy="20.6082" rx="1.87351" ry="2.73221" fill="#47392E" stroke="#47392E"/>
</svg>
