<svg width="175" height="31" viewBox="0 0 175 31" fill="none" xmlns="http://www.w3.org/2000/svg">
<rect width="175" height="31" rx="15.5" fill="#D2F5E7"/>
<path d="M14.7422 23V22.1504L16.334 22.0234V9.76758L14.7422 9.64062V8.78125H19.0977V9.64062L17.5059 9.76758V22.0234L19.0977 22.1504V23H14.7422Z" fill="#2F5A59"/>
<path d="M20.582 23V22.1504L22.1738 22.0234V9.76758L20.582 9.64062V8.78125H30.7969V11.8965H29.8008L29.7031 9.74805H23.3457V15.1289H29.0781V16.1055H23.3457V22.0527H30.0059L30.1035 19.8848H31.0898V23H20.582Z" fill="#2F5A59"/>
<path d="M38.248 23.2051C37.4342 23.2051 36.6204 23.0814 35.8066 22.834C34.9993 22.5866 34.2181 22.2025 33.4629 21.6816V18.9277H34.4395L34.5859 21.1445C35.1589 21.5026 35.7546 21.7695 36.373 21.9453C36.9915 22.1211 37.6165 22.209 38.248 22.209C38.9967 22.209 39.6478 22.0951 40.2012 21.8672C40.7611 21.6328 41.194 21.3105 41.5 20.9004C41.8125 20.4837 41.9688 20.0052 41.9688 19.4648C41.9688 18.944 41.8418 18.4883 41.5879 18.0977C41.3405 17.7005 40.9336 17.3522 40.3672 17.0527C39.8073 16.7533 39.0456 16.4798 38.082 16.2324C37.0469 15.9655 36.2005 15.653 35.543 15.2949C34.8919 14.9368 34.4102 14.5072 34.0977 14.0059C33.7917 13.498 33.6387 12.8958 33.6387 12.1992C33.6387 11.4896 33.8275 10.8646 34.2051 10.3242C34.5827 9.77734 35.11 9.35091 35.7871 9.04492C36.4707 8.73242 37.265 8.57617 38.1699 8.57617C39.127 8.57617 39.9798 8.7194 40.7285 9.00586C41.4837 9.29232 42.1217 9.66016 42.6426 10.1094V12.6484H41.6758L41.5293 10.6367C41.1191 10.3047 40.6341 10.0443 40.0742 9.85547C39.5143 9.66667 38.8796 9.57227 38.1699 9.57227C37.4733 9.57227 36.8743 9.68945 36.373 9.92383C35.8717 10.1517 35.4844 10.4609 35.2109 10.8516C34.944 11.2422 34.8105 11.6849 34.8105 12.1797C34.8105 12.6549 34.918 13.0749 35.1328 13.4395C35.3477 13.7975 35.7188 14.1165 36.2461 14.3965C36.7734 14.6699 37.5124 14.9336 38.4629 15.1875C40.0059 15.5846 41.1712 16.1217 41.959 16.7988C42.7467 17.4694 43.1406 18.3516 43.1406 19.4453C43.1406 20.2005 42.9323 20.8613 42.5156 21.4277C42.1055 21.9876 41.5326 22.4238 40.7969 22.7363C40.0612 23.0488 39.2116 23.2051 38.248 23.2051Z" fill="#2F5A59"/>
<path d="M49.7031 23V22.1504L51.2949 22.0234V9.76758L49.7031 9.64062V8.78125H51.2949H55.6992C56.7018 8.78125 57.5514 8.95378 58.248 9.29883C58.9447 9.64388 59.4753 10.1289 59.8398 10.7539C60.2044 11.3724 60.3867 12.0983 60.3867 12.9316C60.3867 13.7715 60.2044 14.5039 59.8398 15.1289C59.4753 15.7474 58.9447 16.2292 58.248 16.5742C57.5514 16.9128 56.7018 17.082 55.6992 17.082H52.4668V22.0234L54.0586 22.1504V23H49.7031ZM52.4668 16.1055H55.6992C56.8711 16.1055 57.75 15.806 58.3359 15.207C58.9219 14.6016 59.2148 13.8496 59.2148 12.9512C59.2148 12.0332 58.9219 11.2747 58.3359 10.6758C57.7565 10.0703 56.8776 9.76758 55.6992 9.76758H52.4668V16.1055Z" fill="#2F5A59"/>
<path d="M62.1445 23V22.1504L63.7363 22.0234V9.76758L62.1445 9.64062V8.78125H66.5V9.64062L64.9082 9.76758V22.0234L66.5 22.1504V23H62.1445ZM63.4531 7.50195L65.2305 5.06055H66.5977L66.6172 5.10938L64.3613 7.53125H63.502L63.4531 7.50195Z" fill="#2F5A59"/>
<path d="M74.1758 23.2051C73.2773 23.2051 72.4635 23.0326 71.7344 22.6875C71.0052 22.3424 70.3802 21.8509 69.8594 21.2129C69.3385 20.5749 68.9382 19.8164 68.6582 18.9375C68.3783 18.0521 68.2383 17.069 68.2383 15.9883V15.8027C68.2383 14.722 68.375 13.7422 68.6484 12.8633C68.9284 11.9779 69.3288 11.2161 69.8496 10.5781C70.3704 9.93359 70.9954 9.4388 71.7246 9.09375C72.4538 8.7487 73.2676 8.57617 74.166 8.57617C75.084 8.57617 75.9076 8.7487 76.6367 9.09375C77.3724 9.4388 77.9974 9.93359 78.5117 10.5781C79.0326 11.2161 79.4264 11.9779 79.6934 12.8633C79.9668 13.7422 80.1035 14.722 80.1035 15.8027V15.9883C80.1035 17.069 79.9668 18.0521 79.6934 18.9375C79.4264 19.8164 79.0358 20.5749 78.5215 21.2129C78.0072 21.8509 77.3822 22.3424 76.6465 22.6875C75.9173 23.0326 75.0938 23.2051 74.1758 23.2051ZM74.1758 22.1797C75.2044 22.1797 76.0703 21.9225 76.7734 21.4082C77.4831 20.8939 78.0202 20.1712 78.3848 19.2402C78.7494 18.3092 78.9316 17.2253 78.9316 15.9883V15.7832C78.9316 14.5462 78.7461 13.4655 78.375 12.541C78.0104 11.6165 77.4733 10.8971 76.7637 10.3828C76.054 9.86198 75.1882 9.60156 74.166 9.60156C73.1829 9.60156 72.3366 9.86198 71.627 10.3828C70.9173 10.8971 70.3704 11.6198 69.9863 12.5508C69.6087 13.4753 69.4199 14.5527 69.4199 15.7832V15.9883C69.4199 17.2253 69.6087 18.3092 69.9863 19.2402C70.3704 20.1712 70.9173 20.8939 71.627 21.4082C72.3431 21.9225 73.1927 22.1797 74.1758 22.1797Z" fill="#2F5A59"/>
<path d="M86.793 23V22.1504L88.3848 22.0234V9.76758L86.793 9.64062V8.78125H88.3848H92.4863C93.9642 8.78125 95.1165 9.09375 95.9434 9.71875C96.7702 10.3372 97.1836 11.2715 97.1836 12.5215C97.1836 13.2637 96.972 13.9082 96.5488 14.4551C96.1322 14.9954 95.556 15.36 94.8203 15.5488C95.4062 15.6465 95.9206 15.8613 96.3633 16.1934C96.8125 16.5254 97.1608 16.9388 97.4082 17.4336C97.6621 17.9219 97.7891 18.4557 97.7891 19.0352C97.7891 20.3112 97.3756 21.291 96.5488 21.9746C95.7285 22.6582 94.6315 23 93.2578 23H86.793ZM89.5566 22.0234H93.2578C94.306 22.0234 95.1263 21.763 95.7188 21.2422C96.3177 20.7214 96.6172 19.9922 96.6172 19.0547C96.6172 18.4883 96.4967 17.987 96.2559 17.5508C96.015 17.1081 95.6569 16.763 95.1816 16.5156C94.7064 16.2682 94.127 16.1445 93.4434 16.1445H89.5566V22.0234ZM89.5566 15.1582H92.8281C93.8438 15.1582 94.625 14.9303 95.1719 14.4746C95.7253 14.0189 96.002 13.3548 96.002 12.4824C96.002 11.5775 95.7025 10.9004 95.1035 10.4512C94.5111 9.99544 93.6387 9.76758 92.4863 9.76758H89.5566V15.1582Z" fill="#2F5A59"/>
<path d="M99.1758 23V22.1504L100.221 22.082L105.27 8.78125H106.383L111.393 22.082L112.438 22.1504V23H108.932V22.1504L110.182 22.0625L109 18.8496H102.623L101.432 22.0625L102.682 22.1504V23H99.1758ZM103.004 17.8242H108.619L106.051 10.8418L105.855 10.2656H105.797L105.592 10.8418L103.004 17.8242Z" fill="#2F5A59"/>
<path d="M113.961 23.0098V22.1504L115.553 22.0234V9.76758L113.961 9.64062V8.79102H119.957C120.973 8.79102 121.832 8.94076 122.535 9.24023C123.238 9.53971 123.772 9.97591 124.137 10.5488C124.508 11.1217 124.693 11.8281 124.693 12.668C124.693 13.4818 124.501 14.1686 124.117 14.7285C123.74 15.2884 123.206 15.7148 122.516 16.0078C121.832 16.2943 121.028 16.4408 120.104 16.4473L116.725 16.4766V22.0234L118.316 22.1504V23.0098H113.961ZM123.521 23.0098L120.465 15.9492L121.637 15.9395L124.352 22.0625L125.514 22.1406V23.0098H123.521ZM116.725 15.5H119.84C121.109 15.5 122.04 15.2396 122.633 14.7188C123.225 14.1979 123.521 13.5111 123.521 12.6582C123.521 11.7402 123.225 11.0306 122.633 10.5293C122.04 10.0215 121.148 9.76758 119.957 9.76758H116.725V15.5Z" fill="#2F5A59"/>
<path d="M133.57 23.2051C132.672 23.2051 131.858 23.0326 131.129 22.6875C130.4 22.3424 129.775 21.8509 129.254 21.2129C128.733 20.5749 128.333 19.8164 128.053 18.9375C127.773 18.0521 127.633 17.069 127.633 15.9883V15.8027C127.633 14.722 127.77 13.7422 128.043 12.8633C128.323 11.9779 128.723 11.2161 129.244 10.5781C129.765 9.93359 130.39 9.4388 131.119 9.09375C131.848 8.7487 132.662 8.57617 133.561 8.57617C134.479 8.57617 135.302 8.7487 136.031 9.09375C136.767 9.4388 137.392 9.93359 137.906 10.5781C138.427 11.2161 138.821 11.9779 139.088 12.8633C139.361 13.7422 139.498 14.722 139.498 15.8027V15.9883C139.498 17.069 139.361 18.0521 139.088 18.9375C138.821 19.8164 138.43 20.5749 137.916 21.2129C137.402 21.8509 136.777 22.3424 136.041 22.6875C135.312 23.0326 134.488 23.2051 133.57 23.2051ZM133.57 22.1797C134.599 22.1797 135.465 21.9225 136.168 21.4082C136.878 20.8939 137.415 20.1712 137.779 19.2402C138.144 18.3092 138.326 17.2253 138.326 15.9883V15.7832C138.326 14.5462 138.141 13.4655 137.77 12.541C137.405 11.6165 136.868 10.8971 136.158 10.3828C135.449 9.86198 134.583 9.60156 133.561 9.60156C132.577 9.60156 131.731 9.86198 131.021 10.3828C130.312 10.8971 129.765 11.6198 129.381 12.5508C129.003 13.4753 128.814 14.5527 128.814 15.7832V15.9883C128.814 17.2253 129.003 18.3092 129.381 19.2402C129.765 20.1712 130.312 20.8939 131.021 21.4082C131.738 21.9225 132.587 22.1797 133.57 22.1797Z" fill="#2F5A59"/>
<path d="M145.309 23.2051C144.475 23.2051 143.74 23.0521 143.102 22.7461C142.47 22.4336 141.975 21.9681 141.617 21.3496C141.266 20.7311 141.083 19.9661 141.07 19.0547L141.09 18.9961H142.184C142.197 20.0573 142.467 20.8581 142.994 21.3984C143.528 21.9388 144.293 22.209 145.289 22.209C145.901 22.209 146.425 22.0755 146.861 21.8086C147.304 21.5352 147.643 21.151 147.877 20.6562C148.118 20.1615 148.238 19.582 148.238 18.918V9.76758L146.393 9.65039V8.78125H151.002V9.64062L149.41 9.76758V18.918C149.41 19.7839 149.244 20.5391 148.912 21.1836C148.587 21.8216 148.115 22.3197 147.496 22.6777C146.884 23.0293 146.155 23.2051 145.309 23.2051Z" fill="#2F5A59"/>
<path d="M151.832 23V22.1504L152.877 22.082L157.926 8.78125H159.039L164.049 22.082L165.094 22.1504V23H161.588V22.1504L162.838 22.0625L161.656 18.8496H155.279L154.088 22.0625L155.338 22.1504V23H151.832ZM155.66 17.8242H161.275L158.707 10.8418L158.512 10.2656H158.453L158.248 10.8418L155.66 17.8242Z" fill="#2F5A59"/>
</svg>
