<svg width="235" height="160" viewBox="0 0 235 160" fill="none" xmlns="http://www.w3.org/2000/svg">
<path d="M99.7415 127.832C99.7415 120.87 99.7415 113.889 99.7415 106.927C99.7415 106.571 99.1801 106.571 99.1801 106.927C99.1801 113.889 99.1801 120.87 99.1801 127.832C99.1801 128.207 99.7415 128.207 99.7415 127.832V127.832Z" fill="#E8E8E8"/>
<path d="M99.6105 106.889C110.26 106.889 120.89 106.889 131.54 106.889C131.895 106.889 131.895 106.328 131.54 106.328C120.89 106.328 110.26 106.328 99.6105 106.328C99.2549 106.328 99.2549 106.889 99.6105 106.889V106.889Z" fill="#E8E8E8"/>
<path d="M131.259 107.095C131.259 113.683 131.259 120.29 131.259 126.878C131.259 127.233 131.821 127.233 131.821 126.878C131.821 120.29 131.821 113.683 131.821 107.095C131.821 106.739 131.259 106.721 131.259 107.095V107.095Z" fill="#E8E8E8"/>
<path d="M101.725 109.528C101.126 109.06 101.557 108.087 102.324 108.33C102.68 108.443 102.923 108.836 102.736 109.191C102.53 109.584 101.987 109.622 101.725 109.266C101.52 108.985 101.033 109.266 101.239 109.547C101.669 110.108 102.493 110.277 103.017 109.734C103.541 109.21 103.429 108.33 102.83 107.937C102.306 107.582 101.52 107.638 101.126 108.162C100.733 108.686 100.808 109.491 101.332 109.902C101.613 110.146 102.006 109.753 101.725 109.528V109.528Z" fill="#E8E8E8"/>
<path d="M128.077 109.06C127.591 108.181 128.863 107.264 129.444 108.199C129.986 109.079 128.732 109.79 128.115 109.116C127.871 108.854 127.478 109.247 127.722 109.509C128.208 110.033 129.032 110.09 129.612 109.678C130.23 109.247 130.305 108.424 129.874 107.825C129.444 107.226 128.639 107.002 128.021 107.451C127.441 107.881 127.216 108.705 127.591 109.341C127.759 109.659 128.246 109.378 128.077 109.06V109.06Z" fill="#E8E8E8"/>
<path d="M103.204 111.156C110.26 111.156 117.297 111.156 124.353 111.156C124.708 111.156 124.708 110.595 124.353 110.595C117.297 110.595 110.26 110.595 103.204 110.595C102.848 110.595 102.848 111.156 103.204 111.156V111.156Z" fill="#E8E8E8"/>
<path d="M103.784 112.317C108.613 112.317 113.442 112.317 118.27 112.317C118.626 112.317 118.626 111.755 118.27 111.755C113.442 111.755 108.613 111.755 103.784 111.755C103.429 111.755 103.429 112.317 103.784 112.317V112.317Z" fill="#E8E8E8"/>
<path d="M119.917 112.448C121.433 112.448 122.949 112.448 124.465 112.448C124.821 112.448 124.821 111.886 124.465 111.886C122.949 111.886 121.433 111.886 119.917 111.886C119.543 111.886 119.543 112.448 119.917 112.448V112.448Z" fill="#E8E8E8"/>
<path d="M201.668 47.7096C211.644 47.7096 221.619 47.7096 231.576 47.7096C231.932 47.7096 231.932 47.1482 231.576 47.1482C221.6 47.1482 211.625 47.1482 201.668 47.1482C201.312 47.1482 201.312 47.7096 201.668 47.7096V47.7096Z" fill="#E8E8E8"/>
<path d="M217.595 47.2043C217.595 49.5251 217.595 51.8459 217.595 54.1853C217.595 54.5409 218.157 54.5409 218.157 54.1853C218.157 51.8646 218.157 49.5438 218.157 47.2043C218.157 46.8487 217.595 46.8487 217.595 47.2043V47.2043Z" fill="#E8E8E8"/>
<path d="M209.061 54.803C216.547 54.803 224.052 54.803 231.539 54.803C231.894 54.803 231.894 54.2415 231.539 54.2415C224.052 54.2415 216.547 54.2415 209.061 54.2415C208.705 54.2415 208.705 54.803 209.061 54.803V54.803Z" fill="#E8E8E8"/>
<path d="M225.681 55.1773C225.681 57.4793 225.681 59.7627 225.681 62.0647C225.681 62.4203 226.242 62.4203 226.242 62.0647C226.242 59.7627 226.242 57.4793 226.242 55.1773C226.242 54.8217 225.681 54.8217 225.681 55.1773V55.1773Z" fill="#E8E8E8"/>
<path d="M83.1967 22.1064C82.5791 21.1706 82.916 19.9166 84.0015 19.5048C85.0121 19.1305 86.1912 19.7294 86.4907 20.7775C86.7714 21.732 86.0977 22.7988 85.1432 23.0609C83.9828 23.379 82.916 22.3871 82.8598 21.2641C82.8411 20.9085 82.2796 20.9085 82.2983 21.2641C82.3545 22.6491 83.571 23.8844 85.0121 23.6598C86.3784 23.4539 87.4078 21.9753 87.0147 20.6278C86.6217 19.2803 85.1244 18.4568 83.7956 18.9621C82.3919 19.4861 81.8679 21.1331 82.6914 22.3871C82.8972 22.6865 83.3839 22.4058 83.1967 22.1064V22.1064Z" fill="#E8E8E8"/>
<path d="M80.0899 18.5129C80.7075 17.4648 81.6058 16.66 82.7662 16.267C83.1031 16.1547 82.9534 15.6119 82.6165 15.7242C81.3251 16.1547 80.277 17.0531 79.6033 18.2322C79.4161 18.5503 79.9027 18.8311 80.0899 18.5129V18.5129Z" fill="#E8E8E8"/>
<path d="M82.2422 14.4328C82.3732 14.9569 82.5229 15.4622 82.6539 15.9863C82.7475 16.3419 83.2903 16.1921 83.1967 15.8365C83.0657 15.3125 82.916 14.8072 82.7849 14.2831C82.6914 13.9462 82.1486 14.096 82.2422 14.4328V14.4328Z" fill="#E8E8E8"/>
<path d="M82.6914 14.3205C83.309 14.2644 83.9266 14.2082 84.5442 14.1895C84.6191 14.1895 84.8998 14.1334 84.956 14.1708C85.0309 14.227 85.0309 14.5077 85.0496 14.5826C85.1057 14.9007 85.1432 15.2189 85.1806 15.5371C85.218 15.8927 85.7982 15.8927 85.7421 15.5371C85.6859 15.0879 85.6298 14.6387 85.5736 14.1895C85.5362 13.9649 85.48 13.7591 85.2555 13.6468C84.9373 13.497 84.4881 13.6093 84.1512 13.6281C83.6646 13.6468 83.1967 13.7029 82.7101 13.7403C82.3358 13.7965 82.3358 14.358 82.6914 14.3205V14.3205Z" fill="#E8E8E8"/>
<path d="M79.6968 18.176C79.3038 18.0263 78.4429 17.4648 78.1247 17.9701C77.9375 18.2696 77.975 18.7936 77.9188 19.1305C77.8252 19.7107 77.7317 20.2909 77.6381 20.8898C77.6194 21.0208 77.6568 21.1331 77.7691 21.208C78.1996 21.47 78.6113 21.5823 79.1166 21.5074C79.4722 21.47 79.4722 20.9085 79.1166 20.946C78.7236 21.0021 78.4054 20.9272 78.0498 20.7214C78.0873 20.8337 78.1434 20.9272 78.1808 21.0395C78.2931 20.3283 78.4054 19.6171 78.5177 18.9059C78.5364 18.7375 78.5739 18.569 78.5926 18.4006C78.63 18.1947 78.4241 18.307 78.5926 18.3632C78.9108 18.4568 79.2289 18.6065 79.5471 18.7188C79.884 18.8498 80.0337 18.307 79.6968 18.176V18.176Z" fill="#E8E8E8"/>
<path d="M78.8921 21.4139C78.9108 22.5555 79.3787 23.6223 80.2583 24.371C80.5391 24.5956 80.9321 24.2025 80.6514 23.9779C79.884 23.3229 79.4723 22.4245 79.4535 21.4139C79.4348 21.0583 78.8733 21.0583 78.8921 21.4139V21.4139Z" fill="#E8E8E8"/>
<path d="M80.3332 24.1277C79.7904 24.5394 78.8546 25.026 79.4723 25.7747C80.0899 26.5233 81.138 27.0848 81.9802 27.5152C82.2984 27.6837 82.5791 27.1971 82.2609 27.0286C81.662 26.7292 81.1005 26.3923 80.5765 25.9805C80.3519 25.8121 79.7717 25.4752 79.9402 25.1383C80.0337 24.9137 80.5391 24.6704 80.7262 24.5207C81.007 24.3148 80.6139 23.9218 80.3332 24.1277V24.1277Z" fill="#E8E8E8"/>
<path d="M82.3358 27.4778C82.6726 27.0099 82.9721 26.542 83.2528 26.0367C83.44 25.7185 82.9534 25.4378 82.7662 25.7559C82.4855 26.2613 82.1673 26.7292 81.8492 27.1971C81.6246 27.4778 82.1299 27.7585 82.3358 27.4778V27.4778Z" fill="#E8E8E8"/>
<path d="M82.8411 25.7934C83.047 26.3361 83.6459 26.3736 84.1699 26.4484C84.9186 26.5794 85.6485 26.5982 86.3597 26.3548C86.6966 26.2426 86.5468 25.6998 86.21 25.8121C85.7608 25.9618 85.2929 25.9992 84.8063 25.9618C84.5817 25.9431 83.4774 25.887 83.3651 25.6249C83.2528 25.3255 82.7101 25.4565 82.8411 25.7934V25.7934Z" fill="#E8E8E8"/>
<path d="M85.8731 26.1677C86.0041 26.6169 86.079 27.4965 86.4533 27.8147C86.7527 28.0767 87.3142 27.8521 87.6137 27.7773C88.25 27.6275 88.8676 27.4029 89.4665 27.1409C89.8596 26.9538 90.29 26.8415 90.3462 26.3736C90.3836 26.018 89.8221 26.018 89.7847 26.3736C89.766 26.4859 88.6992 26.8602 88.643 26.8789C88.3436 26.9912 88.0441 27.0848 87.7447 27.1596C87.3891 27.2532 87.0522 27.4404 86.7714 27.0661C86.5843 26.8228 86.5281 26.28 86.4533 25.9993C86.3036 25.6624 85.7608 25.8121 85.8731 26.1677V26.1677Z" fill="#E8E8E8"/>
<path d="M90.3274 26.3736C90.159 25.7559 89.897 25.1758 89.5039 24.6704C89.2794 24.3897 88.7927 24.6704 89.0173 24.9512C89.3729 25.4191 89.635 25.9431 89.7847 26.5233C89.8783 26.8789 90.421 26.7292 90.3274 26.3736V26.3736Z" fill="#E8E8E8"/>
<path d="M89.1109 25.0073C89.5227 24.9699 89.6911 24.6517 89.8221 24.2961C90.0467 23.7159 90.2339 23.117 90.3649 22.4994C90.4397 22.1438 89.897 21.994 89.8221 22.3496C89.7472 22.7052 89.6537 23.0608 89.5414 23.4165C89.5039 23.5662 89.2794 24.4271 89.1109 24.4458C88.7553 24.4833 88.7553 25.0447 89.1109 25.0073V25.0073Z" fill="#E8E8E8"/>
<path d="M85.3865 15.8927C86.21 16.0611 86.8837 16.4916 87.4265 17.1279C87.6511 17.4087 88.0628 17.0156 87.8195 16.7349C87.2206 16.0237 86.4346 15.5371 85.5362 15.3499C85.1806 15.2938 85.0309 15.8365 85.3865 15.8927V15.8927Z" fill="#E8E8E8"/>
<path d="M87.7821 16.8846C87.988 16.6226 88.1751 16.3419 88.381 16.0798C88.4933 15.9114 88.6243 15.7617 88.7366 15.5932C88.905 15.5184 89.036 15.5745 89.1296 15.7617C89.6537 16.1173 90.1028 16.791 90.5333 17.2589C90.5146 17.1467 90.4959 17.0344 90.4959 16.9221C90.2151 17.4835 89.8595 17.9889 89.4104 18.4193C89.1483 18.6814 89.5414 19.0744 89.8034 18.8124C90.29 18.3257 90.683 17.8017 90.9825 17.1841C91.0386 17.0718 91.0199 16.9408 90.9451 16.8472C90.5333 16.4167 90.1216 15.9676 89.7285 15.5371C89.5227 15.3125 89.2981 14.9756 88.9799 14.9195C88.2687 14.8072 87.6511 16.1547 87.3329 16.5852C87.0896 16.8846 87.5762 17.1654 87.7821 16.8846V16.8846Z" fill="#E8E8E8"/>
<path d="M89.036 18.9059C89.1858 19.1118 89.2793 19.3364 89.3355 19.5797C89.4291 19.9353 89.9718 19.7856 89.8783 19.43C89.8034 19.1492 89.6911 18.8685 89.5227 18.6252C89.4291 18.4942 89.2793 18.438 89.1296 18.5316C89.0173 18.5878 88.9612 18.7749 89.036 18.9059V18.9059Z" fill="#E8E8E8"/>
<path d="M89.7847 19.692C90.3462 19.6171 90.8889 19.5048 91.4317 19.3551C91.7873 19.2615 91.6376 18.7188 91.282 18.8124C90.7392 18.9621 90.1777 19.0744 89.635 19.1492C89.2794 19.2054 89.4291 19.7482 89.7847 19.692V19.692Z" fill="#E8E8E8"/>
<path d="M91.0948 19.299C91.3568 20.1973 91.4878 21.1144 91.5253 22.0689C91.544 22.4245 92.1055 22.4245 92.0867 22.0689C92.0493 21.077 91.8996 20.1037 91.6376 19.1492C91.5253 18.7936 90.9825 18.9434 91.0948 19.299V19.299Z" fill="#E8E8E8"/>
<path d="M91.5627 22.0128C91.1135 22.1999 90.6643 22.2186 90.1964 22.0502C89.8595 21.9379 89.7098 22.4807 90.0467 22.593C90.5895 22.7801 91.1697 22.7614 91.7124 22.5555C92.0493 22.4245 91.8996 21.8818 91.5627 22.0128V22.0128Z" fill="#E8E8E8"/>
<path d="M70.1892 15.7991C67.7748 15.6494 66.5583 12.9543 67.831 10.9517C68.8229 9.36084 71.2185 8.94909 72.7158 10.0346C74.1382 11.0827 74.4938 13.3473 73.427 14.751C72.3041 16.2296 70.0956 16.3793 68.6732 15.2938C68.3924 15.0692 68.1117 15.5558 68.3924 15.7804C70.1143 17.0905 72.8468 16.7349 74.0446 14.882C75.2424 13.0292 74.5312 10.2592 72.5474 9.26726C70.5635 8.29404 67.962 9.17368 67.0823 11.2137C66.0717 13.5906 67.6438 16.2108 70.2079 16.3793C70.5448 16.3793 70.5448 15.8178 70.1892 15.7991V15.7991Z" fill="#E8E8E8"/>
<path d="M62.0665 16.0424C61.2804 14.0398 61.1868 11.9249 61.9168 9.9036C62.0478 9.56672 61.505 9.41699 61.374 9.75388C60.6067 11.8688 60.7002 14.1147 61.5237 16.1921C61.6547 16.529 62.1975 16.3793 62.0665 16.0424V16.0424Z" fill="#E8E8E8"/>
<path d="M59.1281 8.57478C59.9703 8.93038 60.7938 9.3047 61.636 9.6603C61.9729 9.81003 62.2537 9.32342 61.9168 9.17369C61.0746 8.81809 60.2511 8.44377 59.4088 8.08817C59.0907 7.95716 58.7912 8.42505 59.1281 8.57478V8.57478Z" fill="#E8E8E8"/>
<path d="M59.2591 7.90101C59.8019 7.04008 60.3446 6.06686 61.0371 5.29951C61.2243 5.09363 61.505 4.71932 61.8232 4.75675C61.9729 4.77546 62.2536 5.01877 62.3846 5.09363C62.8525 5.37437 63.3204 5.65511 63.7883 5.93585C64.1065 6.12301 64.3872 5.63639 64.0691 5.44923C63.414 5.0562 62.7777 4.60702 62.0852 4.27013C61.7483 4.10169 61.505 4.02683 61.1681 4.21399C60.7377 4.47601 60.4008 5.18721 60.12 5.58025C59.6521 6.25402 59.203 6.92779 58.7538 7.62027C58.5853 7.91973 59.0719 8.20047 59.2591 7.90101V7.90101Z" fill="#E8E8E8"/>
<path d="M61.505 16.2483C61.0184 16.5477 60.0452 16.9033 59.7083 17.3712C59.5586 17.5771 59.5586 17.7268 59.6334 17.9701C59.8206 18.4755 60.6441 19.0931 60.9997 19.4861C61.6547 20.1973 62.3098 20.9085 62.9649 21.6197C63.021 21.6946 63.152 21.732 63.2456 21.6946C64.0317 21.4326 64.6119 20.9647 65.0236 20.2535C65.2108 19.9353 64.7241 19.6546 64.537 19.9727C64.3498 20.2909 64.0878 20.6652 63.7509 20.8524C63.3205 21.077 63.2082 21.0021 62.8713 20.7027C62.3285 20.2535 61.8793 19.6171 61.3927 19.0931C61.1494 18.8311 60.9061 18.5503 60.6441 18.2883C60.5505 18.1947 60.1388 17.8204 60.1388 17.7455C60.1388 17.5958 61.636 16.8285 61.767 16.7536C62.1039 16.5477 61.8232 16.0611 61.505 16.2483V16.2483Z" fill="#E8E8E8"/>
<path d="M64.9674 20.4781C66.4834 21.6197 68.3363 22.0876 70.2079 21.7133C70.5635 21.6384 70.4138 21.0957 70.0582 21.1705C68.3363 21.5074 66.6519 21.0395 65.2669 19.9915C64.9674 19.7669 64.6867 20.2535 64.9674 20.4781V20.4781Z" fill="#E8E8E8"/>
<path d="M70.133 21.5074C70.1143 22.6117 69.74 24.3522 71.3308 24.24C72.9778 24.1089 74.681 23.4352 76.1595 22.7427C76.4777 22.593 76.197 22.1063 75.8788 22.2561C74.8307 22.7427 73.7452 23.1357 72.641 23.4165C72.0795 23.5475 71.4244 23.8469 70.9752 23.4539C70.5261 23.0609 70.7132 22.0876 70.7132 21.5074C70.6945 21.1331 70.133 21.1331 70.133 21.5074V21.5074Z" fill="#E8E8E8"/>
<path d="M76.328 22.5181C76.0659 21.5823 75.7478 20.6652 75.3922 19.7669C75.2612 19.43 74.7184 19.5797 74.8494 19.9166C75.205 20.8149 75.5232 21.732 75.7852 22.6678C75.8788 23.0047 76.4215 22.855 76.328 22.5181V22.5181Z" fill="#E8E8E8"/>
<path d="M74.9243 19.8043C75.8039 20.1412 76.7023 19.0182 77.2638 18.4755C78.0686 17.7081 78.7423 16.8472 79.1167 15.7804C79.2289 15.4435 78.6862 15.2938 78.5739 15.6307C78.2932 16.4542 77.8065 17.1279 77.2076 17.7456C76.8146 18.1386 75.6729 19.4861 75.074 19.2615C74.7371 19.1305 74.5874 19.6733 74.9243 19.8043V19.8043Z" fill="#E8E8E8"/>
<path d="M78.5926 16.1734C79.1167 16.3793 79.6407 16.5852 80.1647 16.8098C80.4642 16.922 80.9134 17.2028 81.2503 17.1279C81.9053 16.9782 82.2235 15.7991 82.4481 15.2751C82.8411 14.358 83.1593 13.4222 83.3839 12.449C83.5149 11.9249 83.8518 11.1201 83.2903 10.7832C82.9908 10.5961 82.7101 11.0827 83.0096 11.2699C83.2154 11.4009 82.6727 13.0104 82.5978 13.2537C82.3919 13.9462 82.1299 14.6387 81.8305 15.2938C81.6994 15.5745 81.5871 15.9301 81.4 16.1547C81.1005 16.529 81.1192 16.5103 80.6139 16.398C79.9776 16.2483 79.3225 15.8927 78.7236 15.6494C78.4054 15.4996 78.2557 16.0424 78.5926 16.1734V16.1734Z" fill="#E8E8E8"/>
<path d="M83.44 10.8207C82.4294 10.3715 81.4 10.1282 80.2958 10.1095C79.9402 10.1095 79.9402 10.6709 80.2958 10.6709C81.2877 10.6897 82.2422 10.8955 83.1593 11.3073C83.4775 11.4383 83.7582 10.9704 83.44 10.8207V10.8207Z" fill="#E8E8E8"/>
<path d="M80.2396 10.6335C80.6326 10.0533 80.146 9.39827 79.8278 8.89294C79.3412 8.06944 78.761 7.30209 78.1621 6.55346C77.9375 6.27272 77.5445 6.66575 77.7691 6.94649C78.1996 7.47054 78.6113 8.03201 79.0043 8.6122C79.2476 8.98652 80.0524 9.92231 79.7717 10.3528C79.5658 10.6522 80.0524 10.933 80.2396 10.6335V10.6335Z" fill="#E8E8E8"/>
<path d="M64.2375 5.97327C65.323 5.05619 66.6332 4.60701 68.0556 4.56958C68.4112 4.55086 68.4112 3.98939 68.0556 4.0081C66.4834 4.04553 65.0423 4.56958 63.8445 5.58023C63.5638 5.80483 63.9755 6.19786 64.2375 5.97327V5.97327Z" fill="#E8E8E8"/>
<path d="M67.9994 4.10168C67.7748 3.27819 67.4941 2.4734 67.3069 1.63119C67.0636 0.601816 68.486 0.788975 69.1785 0.732827C69.8336 0.67668 71.0688 0.321078 71.4806 0.957418C71.8923 1.61247 72.0046 2.69799 72.0795 3.42791C72.1169 3.78351 72.6784 3.78351 72.6409 3.42791C72.5286 2.26753 72.2105 1.18201 71.7239 0.13392C71.6864 0.0590564 71.5741 -0.0158071 71.4806 0.00290877C70.526 0.0777722 69.5903 0.152636 68.6357 0.227499C68.1491 0.264931 67.3818 0.171352 66.9513 0.489521C66.6144 0.751543 66.6331 1.18201 66.6893 1.55633C66.8203 2.45469 67.1946 3.37176 67.4379 4.25141C67.5502 4.5883 68.093 4.45728 67.9994 4.10168V4.10168Z" fill="#E8E8E8"/>
<path d="M72.2479 4.25142C72.6597 4.27013 73.0527 4.38243 73.427 4.55087C73.7452 4.7006 74.0446 4.21399 73.7077 4.06426C73.2398 3.85838 72.7532 3.72737 72.2479 3.68994C71.8923 3.67123 71.8923 4.2327 72.2479 4.25142V4.25142Z" fill="#E8E8E8"/>
<path d="M73.8201 4.27013C74.3067 3.44663 74.7371 2.5857 75.1115 1.70605C75.2612 1.36917 74.7746 1.08843 74.6248 1.42532C74.2505 2.30496 73.8201 3.16589 73.3334 3.98939C73.165 4.28884 73.6516 4.5883 73.8201 4.27013V4.27013Z" fill="#E8E8E8"/>
<path d="M74.9804 1.98679C76.459 2.60441 77.8439 3.4092 79.1541 4.36371C79.4535 4.5883 79.7155 4.08297 79.4348 3.87709C78.106 2.88515 76.6648 2.08037 75.1301 1.44403C74.7933 1.2943 74.6435 1.83706 74.9804 1.98679V1.98679Z" fill="#E8E8E8"/>
<path d="M79.1541 4.51343C78.9108 5.2995 78.4429 5.95456 77.7317 6.40374C77.4322 6.5909 77.7129 7.07751 78.0124 6.89035C78.8359 6.3663 79.4161 5.59895 79.6781 4.66316C79.8091 4.30756 79.2664 4.15783 79.1541 4.51343V4.51343Z" fill="#E8E8E8"/>
<path d="M207.601 109.734C208.106 115.162 209.005 120.533 210.296 125.83C210.39 126.185 210.932 126.036 210.839 125.68C209.566 120.439 208.668 115.105 208.163 109.734C208.125 109.36 207.564 109.36 207.601 109.734V109.734Z" fill="#E8E8E8"/>
<path d="M207.882 109.828C210.539 110.539 213.478 110.295 216.192 110.314C219.186 110.333 222.181 110.314 225.175 110.277C225.531 110.277 225.531 109.715 225.175 109.715C222.293 109.753 219.429 109.771 216.547 109.753C213.759 109.734 210.727 110.015 208.013 109.285C207.676 109.191 207.526 109.734 207.882 109.828V109.828Z" fill="#E8E8E8"/>
<path d="M225.026 109.94C224.894 115.367 224.127 120.739 222.761 125.998C222.667 126.354 223.21 126.503 223.304 126.148C224.689 120.851 225.456 115.405 225.587 109.94C225.587 109.584 225.026 109.584 225.026 109.94V109.94Z" fill="#E8E8E8"/>
<path d="M210.259 125.961C211.101 126.485 212.037 126.653 213.01 126.747C214.395 126.878 215.78 126.934 217.165 126.971C218.512 127.009 219.86 126.99 221.207 126.934C222.05 126.896 222.892 126.822 223.491 126.148C223.734 125.886 223.341 125.474 223.098 125.755C222.405 126.541 221.076 126.372 220.122 126.41C219.018 126.429 217.913 126.429 216.828 126.391C214.863 126.335 212.299 126.522 210.577 125.474C210.24 125.287 209.959 125.774 210.259 125.961V125.961Z" fill="#E8E8E8"/>
<path d="M208.2 109.715C213.833 110.614 219.542 109.697 225.194 110.37C225.55 110.408 225.55 109.846 225.194 109.809C219.598 109.154 213.927 110.071 208.35 109.173C207.994 109.116 207.844 109.659 208.2 109.715V109.715Z" fill="#E8E8E8"/>
<path d="M208.331 115.199C209.342 117.389 210.427 119.522 211.644 121.619C212.692 123.434 213.815 125.193 215.312 126.672C215.574 126.934 215.967 126.522 215.705 126.279C214.17 124.744 213.029 122.91 211.962 121.038C210.82 119.055 209.791 117.015 208.836 114.937C208.668 114.581 208.181 114.862 208.331 115.199V115.199Z" fill="#E8E8E8"/>
<path d="M209.51 109.734C212.317 115.686 215.686 121.375 219.542 126.709C219.748 126.99 220.234 126.728 220.028 126.429C216.154 121.095 212.804 115.405 209.997 109.453C209.847 109.116 209.36 109.416 209.51 109.734V109.734Z" fill="#E8E8E8"/>
<path d="M214.376 110.277C216.622 115.386 219.448 120.196 222.817 124.632C223.042 124.913 223.528 124.632 223.304 124.351C219.935 119.915 217.109 115.105 214.863 109.996C214.732 109.659 214.245 109.94 214.376 110.277V110.277Z" fill="#E8E8E8"/>
<path d="M218.344 110.183C219.841 113.515 221.694 116.659 223.884 119.579C224.09 119.859 224.576 119.579 224.37 119.298C222.181 116.378 220.328 113.234 218.831 109.902C218.681 109.584 218.194 109.865 218.344 110.183V110.183Z" fill="#E8E8E8"/>
<path d="M222.218 110.52C222.948 111.999 223.753 113.44 224.632 114.843C224.82 115.143 225.306 114.862 225.119 114.563C224.239 113.159 223.435 111.718 222.705 110.239C222.536 109.921 222.05 110.202 222.218 110.52V110.52Z" fill="#E8E8E8"/>
<path d="M212.654 109.453C210.315 107.694 208.593 105.298 207.657 102.528C207.62 102.641 207.564 102.734 207.526 102.847C207.882 102.659 208.237 102.472 208.593 102.285C208.761 102.192 208.761 101.986 208.649 101.836C206.909 99.721 207.302 96.296 207.114 93.7132C206.89 90.7 206.572 87.7055 206.179 84.7109C206.029 84.7858 205.898 84.8794 205.748 84.9542C209.416 87.3873 211.644 91.2802 213.253 95.2667C215.069 99.7585 216.659 104.606 216.547 109.509C216.547 109.865 217.109 109.865 217.109 109.509C217.221 104.381 215.537 99.2531 213.571 94.5742C211.924 90.6438 209.66 86.8632 206.029 84.4676C205.86 84.3553 205.58 84.505 205.598 84.7109C206.048 88.0798 206.384 91.4486 206.609 94.8362C206.778 97.3254 206.553 100.189 208.219 102.248C208.237 102.098 208.256 101.948 208.275 101.798C207.919 101.986 207.564 102.173 207.208 102.36C207.096 102.416 207.04 102.566 207.077 102.678C208.069 105.598 209.884 108.106 212.336 109.94C212.654 110.146 212.935 109.659 212.654 109.453V109.453Z" fill="#E8E8E8"/>
<path d="M216.004 100.825C216.529 99.6462 217.071 98.4484 217.595 97.2693C217.839 96.7265 218.082 96.1837 218.325 95.6597C218.512 95.2479 219.186 93.2828 219.991 94.1624C220.141 94.3309 220.403 94.2373 220.459 94.0314C221.245 91.6732 223.042 89.9514 224.67 88.1733C226.392 86.3018 228.001 84.3179 229.461 82.2591C229.293 82.203 229.106 82.1656 228.937 82.1094C228.9 89.5957 228.694 98.1863 222.63 103.52C222.461 103.67 222.574 103.932 222.761 103.988C224.445 104.55 223.266 106.552 222.592 107.413C221.975 108.199 221.264 108.911 220.515 109.566C220.234 109.809 220.646 110.202 220.908 109.959C222.068 108.948 223.547 107.6 224.052 106.084C224.408 105.018 224.034 103.82 222.929 103.445C222.967 103.595 223.004 103.764 223.06 103.913C229.237 98.4671 229.499 89.7268 229.536 82.0907C229.536 81.7912 229.162 81.7351 229.012 81.941C227.384 84.2243 225.606 86.3579 223.697 88.3979C222.162 90.0262 220.665 91.6919 219.954 93.8442C220.103 93.8068 220.272 93.7694 220.421 93.7132C219.523 92.74 218.55 93.8442 218.157 94.6677C217.258 96.5955 216.416 98.5419 215.537 100.488C215.368 100.863 215.855 101.162 216.004 100.825V100.825Z" fill="#E8E8E8"/>
<path d="M207.545 88.4541C211.026 95.2105 213.478 102.454 214.844 109.94C214.9 110.295 215.443 110.146 215.387 109.79C214.021 102.266 211.531 94.9672 208.032 88.1733C207.863 87.8552 207.376 88.1359 207.545 88.4541V88.4541Z" fill="#E8E8E8"/>
<path d="M217.389 109.116C219.373 102.903 222.817 97.3254 226.242 91.8042C226.429 91.5048 225.943 91.2053 225.755 91.5235C222.312 97.0821 218.849 102.697 216.847 108.967C216.753 109.304 217.277 109.453 217.389 109.116V109.116Z" fill="#E8E8E8"/>
<path d="M222.649 89.5209C221.619 93.0956 220.983 96.7452 220.702 100.47C220.683 100.825 221.245 100.825 221.264 100.47C221.544 96.8201 222.181 93.2079 223.191 89.6706C223.285 89.3337 222.761 89.184 222.649 89.5209V89.5209Z" fill="#E8E8E8"/>
<path d="M206.927 95.6597C209.622 97.0072 211.737 99.1596 213.029 101.892C213.178 102.21 213.665 101.93 213.515 101.611C212.186 98.8227 209.978 96.5581 207.208 95.1918C206.89 95.0234 206.609 95.51 206.927 95.6597V95.6597Z" fill="#E8E8E8"/>
<path d="M211.494 91.8978C211.288 93.4138 211.157 94.9485 211.082 96.4832C211.063 96.8388 211.625 96.8388 211.644 96.4832C211.719 94.9485 211.868 93.4325 212.055 91.8978C212.112 91.5235 211.55 91.5422 211.494 91.8978V91.8978Z" fill="#E8E8E8"/>
<path d="M226.86 85.0104C226.111 87.1814 225.662 89.4273 225.512 91.7106C225.493 92.0662 226.055 92.0662 226.074 91.7106C226.223 89.4647 226.672 87.275 227.402 85.1601C227.533 84.8232 226.991 84.6735 226.86 85.0104V85.0104Z" fill="#E8E8E8"/>
<path d="M26.5438 50.5545C28.6025 51.4902 30.9795 52.164 33.1318 51.1534C35.0969 50.2363 36.3883 48.2524 38.4284 47.5038C41.0486 46.568 43.5565 48.5519 45.9896 49.2256C48.4975 49.9181 51.1552 49.7122 53.5508 48.739C53.8877 48.608 53.7379 48.0652 53.4011 48.1963C50.8931 49.2256 48.1045 49.3754 45.5217 48.4957C43.4255 47.7845 41.3668 46.3808 39.0647 46.7739C37.1557 47.092 35.8081 48.608 34.3483 49.731C33.3564 50.4983 32.2708 51.0411 30.9982 51.0972C29.557 51.1534 28.1346 50.648 26.8432 50.0678C26.5064 49.9181 26.2256 50.4047 26.5438 50.5545V50.5545Z" fill="#E8E8E8"/>
<path d="M41.9282 43.667C43.725 44.6777 45.765 45.1269 47.8237 44.921C50.0322 44.6964 51.7353 43.6483 53.5882 42.5066C57.6496 40.0174 62.7028 39.6618 67.1011 41.4585C67.438 41.5896 67.5877 41.0468 67.2508 40.9158C63.4328 39.3437 59.0532 39.3624 55.2539 40.9907C53.1203 41.9077 51.361 43.5547 49.0777 44.1162C46.7569 44.6964 44.2864 44.3221 42.209 43.1617C41.8908 43.012 41.6101 43.4986 41.9282 43.667V43.667Z" fill="#E8E8E8"/>
<path d="M84.1325 60.0434C92.9102 60.0434 101.707 60.0434 110.484 60.0434C110.84 60.0434 110.84 59.4819 110.484 59.4819C101.707 59.4819 92.9102 59.4819 84.1325 59.4819C83.7769 59.4819 83.7769 60.0434 84.1325 60.0434V60.0434Z" fill="#E8E8E8"/>
<path d="M92.9664 64.7598C92.9664 63.0754 92.9664 61.3909 92.9664 59.7065C92.9664 59.3509 92.4049 59.3509 92.4049 59.7065C92.4049 61.3909 92.4049 63.0754 92.4049 64.7598C92.4049 65.1341 92.9664 65.1341 92.9664 64.7598V64.7598Z" fill="#E8E8E8"/>
<path d="M102.306 59.2573C102.306 57.1612 102.306 55.065 102.306 52.9875C102.306 52.6319 101.744 52.6319 101.744 52.9875C101.744 55.0837 101.744 57.1799 101.744 59.2573C101.744 59.6129 102.306 59.6129 102.306 59.2573V59.2573Z" fill="#E8E8E8"/>
<path d="M94.3701 51.8833C98.9555 51.8833 103.56 51.8833 108.145 51.8833C108.501 51.8833 108.501 51.3218 108.145 51.3218C103.56 51.3218 98.9555 51.3218 94.3701 51.3218C94.0145 51.3218 94.0145 51.8833 94.3701 51.8833V51.8833Z" fill="#E8E8E8"/>
<path d="M121.396 9.1924C118.233 5.74868 124.166 -0.932885 127.553 3.20332C128.938 4.88775 129.107 7.41439 128.021 9.28598C126.898 11.2511 124.053 11.9998 122.388 10.2592C122.144 9.99718 121.733 10.3902 121.995 10.6522C123.305 12.0185 125.476 12.1495 127.048 11.1388C128.826 9.99718 129.518 7.69513 129.238 5.67381C128.976 3.83966 127.759 1.93064 125.925 1.38788C123.96 0.826407 122.013 2.21138 120.965 3.80223C119.824 5.56152 119.524 7.95715 121.021 9.58543C121.246 9.84745 121.639 9.45442 121.396 9.1924V9.1924Z" fill="#60BC63"/>
<path d="M127.984 15.7804C127.778 15.2938 127.984 14.6949 128.414 14.3954C128.92 14.0398 129.556 14.2644 129.874 14.751C130.548 15.7804 129.238 16.791 128.302 16.1921C128.002 15.9863 127.722 16.4729 128.021 16.6787C128.676 17.1092 129.556 16.9969 130.136 16.4729C130.772 15.8927 130.754 14.9382 130.23 14.2831C128.976 12.7671 126.786 14.358 127.497 16.0611C127.628 16.3793 128.115 16.0986 127.984 15.7804V15.7804Z" fill="#60BC63"/>
<path d="M7.54719 124.314C7.43489 123.584 7.99637 122.929 8.68885 122.835C9.30648 122.76 9.68079 123.247 10.1113 123.565C10.5604 123.902 11.1593 124.201 11.7395 123.939C12.4133 123.602 12.2449 122.648 12.9748 122.349C14.1539 121.843 15.1084 123.041 15.7447 123.846C15.8945 124.033 16.2313 123.883 16.2313 123.64C16.1752 121.993 18.9077 123.041 19.7874 123.022C20.143 123.022 20.143 122.461 19.7874 122.461C18.758 122.48 17.7286 121.881 16.6992 122.255C16.0629 122.48 15.6324 122.966 15.6512 123.64C15.8196 123.565 15.9693 123.509 16.1378 123.434C15.4266 122.536 14.5656 121.544 13.293 121.656C12.9186 121.693 12.5443 121.824 12.2636 122.087C11.8331 122.48 11.7957 123.528 11.0096 123.415C10.4107 123.322 9.98025 122.554 9.41877 122.33C9.00702 122.161 8.55784 122.18 8.14609 122.367C7.3226 122.723 6.87342 123.546 7.02314 124.426C7.06057 124.819 7.60333 124.669 7.54719 124.314V124.314Z" fill="#60BC63"/>
<path d="M6.74239 121.843C7.02313 121.095 7.39745 120.177 8.31453 120.14C8.89472 120.121 9.49363 120.496 9.99895 120.72C10.7476 121.02 11.5337 121.188 12.1887 120.608C12.9748 119.915 13.3117 118.156 14.6031 119.204C15.2394 119.728 15.7073 120.383 16.6057 120.439C16.7741 120.439 16.8677 120.308 16.8864 120.159C16.9613 119.317 17.5789 118.661 18.4211 118.568C18.7767 118.53 18.7767 117.969 18.4211 118.006C17.242 118.156 16.4372 118.98 16.3249 120.159C16.4185 120.065 16.5121 119.972 16.6057 119.878C15.5201 119.822 15.071 118.418 13.9854 118.287C12.8625 118.137 12.5443 119.335 11.9641 120.028C10.9722 121.188 9.40005 119.541 8.18351 119.597C7.02313 119.653 6.5178 120.758 6.18092 121.712C6.06862 122.03 6.61138 122.18 6.74239 121.843V121.843Z" fill="#60BC63"/>
<path d="M75.1676 89.5583C74.3254 88.1172 75.8226 86.1707 77.4135 87.0504C79.2289 88.0423 78.1621 90.6813 76.197 90.2882C75.8414 90.2134 75.6916 90.7561 76.0472 90.831C78.499 91.3176 80.0711 88.0985 77.8627 86.6574C75.7852 85.3098 73.5019 87.799 74.681 89.8391C74.8681 90.1572 75.3547 89.8765 75.1676 89.5583V89.5583Z" fill="#2F5A59"/>
<path d="M78.8359 93.2453C78.7985 92.6839 79.0979 91.9539 79.7717 91.9914C80.0711 92.0101 80.408 92.1973 80.4267 92.5154C80.4455 92.8149 80.146 93.133 79.8465 93.0769C79.4909 93.002 79.3412 93.5448 79.6968 93.6197C80.8759 93.863 81.4561 92.216 80.4267 91.6171C79.2851 90.9433 78.1995 92.1224 78.2744 93.2453C78.2931 93.6197 78.8546 93.6197 78.8359 93.2453V93.2453Z" fill="#2F5A59"/>
<path d="M76.6462 128.412C93.9022 128.412 111.158 128.412 128.414 128.412C133.262 128.412 138.09 128.412 142.938 128.412C143.293 128.412 143.293 127.851 142.938 127.851C125.682 127.851 108.426 127.851 91.1697 127.851C86.3223 127.851 81.4936 127.851 76.6462 127.851C76.2906 127.851 76.2906 128.412 76.6462 128.412V128.412Z" fill="#323232"/>
<path d="M114.396 131.051C130.024 131.051 145.652 131.051 161.279 131.051C165.696 131.051 170.113 131.051 174.549 131.051C174.904 131.051 174.904 130.49 174.549 130.49C158.921 130.49 143.293 130.49 127.666 130.49C123.249 130.49 118.832 130.49 114.396 130.49C114.04 130.49 114.04 131.051 114.396 131.051V131.051Z" fill="#323232"/>
<path d="M160.493 127.963C179.284 127.963 198.075 127.963 216.865 127.963C222.218 127.963 227.571 127.963 232.924 127.963C233.279 127.963 233.279 127.402 232.924 127.402C214.133 127.402 195.342 127.402 176.551 127.402C171.199 127.402 165.846 127.402 160.493 127.402C160.138 127.402 160.138 127.963 160.493 127.963V127.963Z" fill="#323232"/>
<path d="M200.882 130.827C212.074 130.827 223.266 130.827 234.458 130.827C234.814 130.827 234.814 130.265 234.458 130.265C223.266 130.265 212.074 130.265 200.882 130.265C200.526 130.265 200.526 130.827 200.882 130.827V130.827Z" fill="#323232"/>
<path d="M0.266701 132.362C13.9854 132.362 27.7042 132.362 41.4229 132.362C45.3345 132.362 49.2461 132.362 53.1577 132.362C53.5133 132.362 53.5133 131.8 53.1577 131.8C39.439 131.8 25.7203 131.8 12.0015 131.8C8.08993 131.8 4.17832 131.8 0.266701 131.8C-0.0889004 131.8 -0.0889004 132.362 0.266701 132.362V132.362Z" fill="#323232"/>
<path d="M17.8222 135.656C29.8191 135.656 41.8159 135.656 53.8128 135.656C54.1684 135.656 54.1684 135.094 53.8128 135.094C41.8159 135.094 29.8191 135.094 17.8222 135.094C17.4666 135.094 17.4666 135.656 17.8222 135.656V135.656Z" fill="#323232"/>
<path d="M82.3545 136.966C96.6908 136.966 111.027 136.966 125.382 136.966C125.738 136.966 125.738 136.404 125.382 136.404C111.046 136.404 96.7095 136.404 82.3545 136.404C81.9989 136.404 81.9989 136.966 82.3545 136.966V136.966Z" fill="#323232"/>
<path d="M52.2781 145.743C65.1546 145.743 78.0311 145.743 90.9076 145.743C91.2632 145.743 91.2632 145.182 90.9076 145.182C78.0311 145.182 65.1546 145.182 52.2781 145.182C51.9225 145.182 51.9225 145.743 52.2781 145.743V145.743Z" fill="#323232"/>
<path d="M142.283 139.605C153.699 139.605 165.116 139.605 176.514 139.605C176.87 139.605 176.87 139.043 176.514 139.043C165.097 139.043 153.681 139.043 142.283 139.043C141.908 139.043 141.908 139.605 142.283 139.605V139.605Z" fill="#323232"/>
<path opacity="0.15" d="M128.976 137.022C128.227 141.607 138.072 146.735 143.125 149.374C155.384 155.775 177.993 161.278 193.321 148.176C196.053 145.837 202.361 139.661 205.074 127.664C144.398 126.784 129.818 131.819 128.976 137.022Z" fill="#6D6C6C"/>
<path opacity="0.13" d="M140.935 142.992C141.066 145.238 145.408 146.81 148.103 147.765C156.9 150.928 165.116 148.139 170.618 146.174C183.196 141.701 197.438 131.819 195.904 128.244C193.209 121.918 140.486 135.019 140.935 142.992Z" fill="#6D6C6C"/>
<path opacity="0.15" d="M77.8065 127.458C67.3631 137.995 56.9009 148.513 46.4575 159.05C35.1344 155.307 23.7925 151.545 12.4695 147.802C34.236 141.008 56.0213 134.233 77.8065 127.458Z" fill="#6D6C6C"/>
<path d="M35.2279 80.4437C34.7413 81.4731 35.2654 82.8393 36.3134 85.4783C36.8749 86.9007 37.4364 88.0423 37.8481 88.8097C39.2893 88.2669 40.7304 87.7242 42.1715 87.1814C41.741 86.6948 41.1047 85.8526 40.6368 84.6548C39.4764 81.6415 40.7304 79.5266 39.6449 78.7031C38.5968 77.9358 35.9766 78.8341 35.2279 80.4437Z" fill="white"/>
<path d="M50.107 141.083C51.6043 142.15 54.6363 138.856 56.3769 139.941C57.1629 140.428 56.7886 141.27 57.6682 141.832C58.604 142.449 59.6521 141.869 62.3472 141.158C65.6225 140.297 67.3069 139.867 68.5422 140.709C69.6277 141.439 69.74 142.749 70.2827 142.674C70.7694 142.599 71.2372 141.42 70.8816 140.634C70.1704 139.099 66.3898 139.436 65.6786 139.492C62.029 139.829 60.5318 141.42 59.2591 140.54C58.0987 139.736 58.8099 138.032 57.5934 137.377C56.7325 136.909 56.1335 137.677 53.139 138.351C50.968 138.837 49.8637 138.762 49.583 139.492C49.3958 139.979 49.6017 140.746 50.107 141.083Z" fill="white" stroke="#323232" stroke-width="2"/>
<path d="M64.5183 133.316C66.053 133.952 67.1198 133.054 68.7481 132.867C72.1918 132.455 73.5206 135.73 75.9162 134.907C77.6007 134.327 78.7236 132.099 78.3306 131.594C78.1621 131.37 77.713 131.426 77.3574 131.519C77.3199 131.781 77.0392 133.597 75.8414 134.008C75.205 134.233 74.5687 133.971 73.427 133.484C72.0608 132.904 71.9298 132.549 71.0127 132.193C70.1705 131.875 69.8149 132.025 67.7 132.043C64.5744 132.081 63.3579 131.819 63.2456 132.193C63.152 132.493 63.8445 133.035 64.5183 133.316Z" fill="white" stroke="#323232" stroke-width="2"/>
<path d="M61.767 136.011C64.0129 135.655 66.2027 135.337 68.2053 134.214C69.9084 133.26 71.3495 131.894 72.4538 130.284C72.6597 129.985 72.173 129.704 71.9672 130.003C70.8629 131.613 69.4031 132.942 67.6812 133.859C65.7909 134.869 63.7135 135.131 61.636 135.468C61.2617 135.524 61.4114 136.067 61.767 136.011V136.011Z" fill="#323232"/>
<path d="M19.3943 65.7143C18.6457 66.3132 17.897 66.9121 17.1484 67.4923C19.0387 73.9306 20.9103 80.3501 22.8006 86.7884C31.6345 83.85 40.4684 80.9116 49.3023 77.9732C49.452 77.393 49.6017 76.8128 49.7702 76.2513C39.6262 72.7328 29.5009 69.2329 19.3943 65.7143Z" fill="#323232" stroke="#323232" stroke-width="2"/>
<path d="M17.9345 98.8601C20.7793 97.0259 23.6428 95.1918 26.4876 93.3764C33.3751 110.127 40.2438 126.896 47.1312 143.647C44.1367 145.107 41.1234 146.567 38.1289 148.045C34.0863 140.896 29.8939 132.53 26.0572 123.022C22.5573 114.357 19.9371 106.234 17.9345 98.8601Z" fill="#323232" stroke="#323232" stroke-width="2"/>
<path d="M26.0759 93.3764C27.4047 98.9911 29.0517 104.943 31.1291 111.156C35.4151 124.033 40.5432 135.188 45.6152 144.527C57.3314 138.089 69.0288 131.65 80.7449 125.212C76.7771 116.359 72.8655 106.159 69.5528 94.7052C67.6438 88.0985 66.1278 81.7725 64.9487 75.8209C51.9786 81.6789 39.0272 87.5183 26.0759 93.3764Z" fill="white" stroke="#323232" stroke-width="2"/>
<path d="M44.0618 113.346C45.2784 117.67 47.0376 121.787 49.2836 125.661C49.4707 125.979 49.9573 125.699 49.7702 125.38C47.5243 121.544 45.8024 117.464 44.6046 113.196C44.511 112.86 43.9682 113.009 44.0618 113.346V113.346Z" fill="#323232"/>
<path d="M44.3613 113.14C50.5937 110.202 56.8822 107.395 63.2456 104.737C63.5825 104.606 63.4327 104.063 63.0959 104.194C56.695 106.87 50.3504 109.678 44.0618 112.654C43.7437 112.822 44.0244 113.29 44.3613 113.14V113.14Z" fill="#323232"/>
<path d="M63.0771 104.718C64.5182 108.817 66.1465 112.841 67.9433 116.79C68.093 117.127 68.5796 116.827 68.4299 116.509C66.6331 112.598 65.0423 108.63 63.6199 104.568C63.5076 104.232 62.9648 104.381 63.0771 104.718V104.718Z" fill="#323232"/>
<path d="M49.8076 125.867C50.8557 125.118 51.9786 124.557 53.2139 124.201C53.5508 124.108 53.4198 123.565 53.0642 123.659C51.7915 124.033 50.5937 124.613 49.5269 125.38C49.2274 125.586 49.5081 126.073 49.8076 125.867V125.867Z" fill="#323232"/>
<path d="M52.1096 123.996C52.2219 122.685 52.6898 121.338 53.8128 120.552C54.9357 119.766 56.3956 119.784 57.4062 120.739C59.1281 122.386 59.5211 125.455 59.5024 127.701C59.5024 128.057 60.0639 128.057 60.0639 127.701C60.0826 125.137 59.5211 120.758 56.7325 119.635C53.8502 118.474 51.754 121.488 51.5482 123.996C51.5294 124.351 52.0909 124.351 52.1096 123.996V123.996Z" fill="#323232"/>
<path d="M53.6256 123.752C53.7005 122.517 55.2913 121.169 56.3769 122.086C57.0693 122.667 57.3875 123.696 57.5747 124.557C57.9864 126.391 57.7431 128.3 57.4062 130.134C57.3501 130.49 57.8741 130.64 57.949 130.284C58.4169 127.739 58.8661 124.389 57.1816 122.161C56.6202 121.431 55.7405 120.926 54.8422 121.338C53.9812 121.712 53.1203 122.835 53.0641 123.79C53.0454 124.108 53.6069 124.108 53.6256 123.752V123.752Z" fill="#323232"/>
<path d="M57.3314 130.265C57.6121 130.958 58.3795 130.864 58.8286 130.378C59.5024 129.666 59.8954 128.618 60.0639 127.664C60.12 127.308 59.5773 127.158 59.5211 127.514C59.4275 128.057 59.2778 128.562 59.0345 129.049C58.9596 129.199 58.0987 130.64 57.8741 130.097C57.7431 129.779 57.2004 129.928 57.3314 130.265V130.265Z" fill="#323232"/>
<path d="M57.0132 120.121C57.8367 118.998 58.7912 117.838 60.1387 117.295C61.6734 116.696 62.9087 117.146 64.0129 118.268C64.6867 118.942 65.3043 119.448 66.2963 119.541C67.1198 119.616 67.9245 119.522 68.5796 120.159C69.1036 120.664 69.4031 121.375 69.6651 122.03C69.7961 122.367 70.3389 122.218 70.2079 121.881C69.7774 120.814 69.2159 119.56 68.0368 119.148C67.0636 118.83 66.053 119.167 65.1733 118.53C64.5931 118.119 64.1814 117.52 63.6012 117.089C60.9435 115.124 58.08 117.744 56.5453 119.822C56.3207 120.14 56.8073 120.421 57.0132 120.121V120.121Z" fill="#323232"/>
<path d="M58.0426 120.795C58.9597 119.579 61.1868 117.408 62.6654 118.98C63.3392 119.691 63.7509 120.589 64.8177 120.72C65.7161 120.833 66.5396 120.346 67.3818 120.907C68.0556 121.357 68.1117 122.217 68.7481 122.667C69.3844 123.116 70.2828 122.779 70.1892 121.937C70.1517 121.581 69.5903 121.581 69.6277 121.937C69.1411 122.274 68.8229 122.199 68.6732 121.675C68.5796 121.469 68.4673 121.282 68.355 121.095C68.224 120.907 68.093 120.758 67.9058 120.608C67.5128 120.271 66.9888 120.065 66.4647 120.046C65.6038 120.009 64.7803 120.421 64.0317 119.747C63.6573 119.41 63.3953 118.942 63.0584 118.568C61.2804 116.64 58.7164 118.98 57.556 120.496C57.3501 120.795 57.8367 121.076 58.0426 120.795V120.795Z" fill="#323232"/>
<path d="M58.3982 121.431C59.7831 120.421 61.2804 119.635 62.9087 119.073C63.2456 118.961 63.0959 118.418 62.759 118.53C61.0933 119.092 59.5398 119.897 58.1174 120.945C57.818 121.151 58.0987 121.637 58.3982 121.431V121.431Z" fill="#323232"/>
<path d="M64.5744 118.493C65.8845 117.988 67.1759 117.426 68.4112 116.771C68.7293 116.603 68.4486 116.116 68.1304 116.285C66.9326 116.902 65.6974 117.464 64.4247 117.95C64.0878 118.081 64.2375 118.624 64.5744 118.493V118.493Z" fill="#323232"/>
<path d="M58.2484 118.25C59.3714 114.488 61.505 110.951 64.9674 108.929C65.2856 108.742 65.0049 108.255 64.6867 108.443C61.0933 110.539 58.8848 114.188 57.7057 118.1C57.6121 118.456 58.1549 118.605 58.2484 118.25V118.25Z" fill="#323232"/>
<path d="M59.858 117.033C61.112 114.319 62.6093 111.549 65.2669 109.977C65.5851 109.79 65.3043 109.304 64.9862 109.491C62.2349 111.119 60.6628 113.945 59.3714 116.752C59.2217 117.071 59.7083 117.351 59.858 117.033V117.033Z" fill="#323232"/>
<path d="M48.1045 122.217C49.5456 122.105 50.9867 121.955 52.4465 122.161C52.615 122.18 52.7086 121.918 52.5214 121.899C51.0429 121.693 49.583 121.824 48.1232 121.937C47.936 121.955 47.936 122.236 48.1045 122.217V122.217Z" fill="#323232"/>
<path d="M47.4494 121.151C49.2461 120.702 51.0428 120.739 52.8396 121.244C53.008 121.3 53.0829 121.02 52.9144 120.982C51.0803 120.458 49.2274 120.421 47.3745 120.889C47.1874 120.926 47.2622 121.207 47.4494 121.151V121.151Z" fill="#323232"/>
<path d="M58.0052 117.838C57.7618 118.306 57.4998 118.755 57.2565 119.223C57.1629 119.373 57.4062 119.522 57.4998 119.373C57.7431 118.905 58.0052 118.456 58.2485 117.988C58.3233 117.819 58.08 117.67 58.0052 117.838V117.838Z" fill="#323232"/>
<path d="M65.3605 110.389C65.8284 111.905 65.7161 113.346 65.1359 114.806C64.9487 115.274 64.7054 115.779 64.7241 116.303C64.7428 116.846 65.1172 117.202 65.192 117.726C65.2107 117.913 65.4915 117.819 65.4541 117.651C65.3979 117.314 65.3605 117.314 65.2669 117.014C65.0423 116.322 64.9674 116.116 65.1733 115.442C65.3792 114.825 65.6786 114.263 65.8097 113.627C66.053 112.504 65.9781 111.381 65.6225 110.295C65.5663 110.146 65.3043 110.221 65.3605 110.389V110.389Z" fill="#323232"/>
<path d="M66.3337 112.878C66.6519 114.376 64.8739 116.116 66.184 117.426C66.315 117.557 66.5021 117.351 66.3898 117.22C65.2107 116.041 66.9139 114.207 66.6144 112.785C66.5583 112.616 66.2963 112.691 66.3337 112.878V112.878Z" fill="#323232"/>
<path d="M49.1151 124.314C49.9573 124.052 50.7995 123.939 51.6605 123.977C51.8476 123.977 51.8476 123.696 51.6605 123.696C50.7621 123.677 49.9012 123.79 49.0402 124.052C48.8531 124.089 48.9279 124.351 49.1151 124.314V124.314Z" fill="#323232"/>
<path d="M48.5723 123.79C49.6579 123.565 50.7434 123.434 51.8476 123.434C52.0348 123.434 52.0348 123.153 51.8476 123.153C50.706 123.172 49.6017 123.284 48.4975 123.528C48.3103 123.565 48.3852 123.827 48.5723 123.79V123.79Z" fill="#323232"/>
<path d="M53.6443 123.79C54.7111 123.191 55.8154 122.685 56.9383 122.236C57.1068 122.18 57.0319 121.899 56.8635 121.974C55.7031 122.423 54.5801 122.947 53.4946 123.546C53.3449 123.64 53.4759 123.883 53.6443 123.79V123.79Z" fill="#323232"/>
<path d="M53.4198 123.696C54.6176 123.172 55.7967 122.667 56.9945 122.143C57.1629 122.068 57.0132 121.824 56.8448 121.899C55.647 122.423 54.4679 122.929 53.27 123.453C53.1016 123.528 53.2513 123.771 53.4198 123.696V123.696Z" fill="#323232"/>
<path d="M53.4946 123.846C54.6924 123.303 55.8903 122.742 57.1068 122.199C57.2752 122.124 57.1255 121.881 56.9571 121.955C55.7592 122.498 54.5614 123.06 53.3449 123.602C53.1765 123.677 53.3262 123.921 53.4946 123.846V123.846Z" fill="#323232"/>
<path d="M52.5588 113.178C51.7727 115.648 51.9786 118.268 53.1577 120.589C53.2326 120.758 53.4759 120.608 53.401 120.439C52.2594 118.194 52.0722 115.648 52.8208 113.234C52.8957 113.065 52.615 112.991 52.5588 113.178V113.178Z" fill="#323232"/>
<path d="M52.7086 113.234C53.008 113.14 53.2888 113.122 53.5882 113.159C53.7754 113.178 53.7567 112.897 53.5882 112.878C53.27 112.841 52.9332 112.86 52.6337 112.972C52.4653 113.028 52.5401 113.29 52.7086 113.234V113.234Z" fill="#323232"/>
<path d="M53.3262 112.953C52.8957 115.367 52.6898 117.857 53.9812 120.046C54.0748 120.196 54.3181 120.065 54.2245 119.897C52.9706 117.782 53.1765 115.349 53.5882 113.009C53.6256 112.86 53.3449 112.785 53.3262 112.953V112.953Z" fill="#323232"/>
<path d="M52.484 112.467C52.2968 112.317 52.1096 112.148 51.9412 111.999C51.8102 111.886 51.6043 112.074 51.7353 112.205C51.9225 112.354 52.1096 112.523 52.2781 112.672C52.4278 112.785 52.6337 112.579 52.484 112.467V112.467Z" fill="#323232"/>
<path d="M52.8957 111.868C52.8396 111.718 52.7647 111.568 52.7086 111.4C52.6899 111.325 52.615 111.287 52.5401 111.306C52.4653 111.325 52.4091 111.4 52.4465 111.475C52.5027 111.624 52.5776 111.774 52.6337 111.942C52.6524 112.017 52.7273 112.055 52.8021 112.036C52.8583 112.036 52.9332 111.942 52.8957 111.868V111.868Z" fill="#323232"/>
<path d="M53.6631 112.223C53.6818 112.036 53.7754 111.849 53.9438 111.737C54.0935 111.624 53.9438 111.381 53.7941 111.493C53.5695 111.662 53.4198 111.886 53.3823 112.148C53.3636 112.223 53.401 112.298 53.4759 112.317C53.5508 112.336 53.6444 112.298 53.6631 112.223V112.223Z" fill="#323232"/>
<path d="M54.0561 112.747C54.2058 112.878 54.3743 112.916 54.5614 112.878C54.7299 112.841 54.655 112.56 54.4866 112.616C54.4117 112.635 54.3181 112.616 54.262 112.56C54.1122 112.429 53.9064 112.635 54.0561 112.747V112.747Z" fill="#323232"/>
<path d="M49.4333 84.9729C49.9012 86.2082 50.3878 87.4434 50.8557 88.6787C50.9118 88.8471 51.1926 88.7723 51.1177 88.6038C50.6498 87.3686 50.1632 86.1333 49.6953 84.8981C49.6392 84.7296 49.3771 84.8045 49.4333 84.9729V84.9729Z" fill="#323232"/>
<path d="M49.6017 84.8794C52.9893 83.4757 56.3582 82.0158 59.6709 80.4811C59.8393 80.4063 59.6896 80.163 59.5211 80.2378C56.2084 81.7725 52.877 83.2324 49.5082 84.6173C49.3584 84.6735 49.4333 84.9542 49.6017 84.8794V84.8794Z" fill="#323232"/>
<path d="M51.1926 88.8097C54.5614 87.3686 57.8367 85.7403 61.0371 83.9436C61.1869 83.85 61.0558 83.6067 60.8874 83.7003C57.687 85.497 54.4117 87.1253 51.0429 88.5664C50.8931 88.6412 51.0429 88.8845 51.1926 88.8097V88.8097Z" fill="#323232"/>
<path d="M59.6521 80.4063C60.1949 81.4731 60.6441 82.5586 61.0371 83.6815C61.0933 83.85 61.374 83.7751 61.2991 83.6067C60.9061 82.465 60.4382 81.3421 59.8767 80.2565C59.8206 80.1068 59.5773 80.2565 59.6521 80.4063V80.4063Z" fill="#323232"/>
<path d="M55.9464 85.6467C57.4811 85.0104 58.9222 84.2243 60.3259 83.3259C60.4756 83.2324 60.3446 82.9891 60.1762 83.0826C58.8099 83.981 57.3688 84.7296 55.8715 85.366C55.7031 85.4408 55.7779 85.7029 55.9464 85.6467V85.6467Z" fill="#323232"/>
<path d="M78.0873 124.744C77.7691 124.688 77.5445 124.37 77.6942 124.052C77.8627 123.715 78.3119 123.715 78.5739 123.939C78.7985 124.145 78.892 124.482 78.6675 124.725C78.499 124.894 78.1808 124.969 77.975 124.8C77.844 124.688 77.6381 124.894 77.7691 125.006C78.106 125.268 78.5739 125.212 78.8733 124.913C79.2289 124.538 79.0605 123.977 78.6862 123.696C78.2744 123.397 77.6568 123.471 77.4322 123.958C77.2076 124.426 77.5071 124.931 78.0124 125.025C78.1996 125.044 78.2744 124.782 78.0873 124.744V124.744Z" fill="#323232"/>
<path d="M46.3264 142.58C45.8586 142.412 45.8773 141.832 46.158 141.495C46.2703 141.364 46.4387 141.252 46.5885 141.177C46.9066 141.027 47.0938 141.326 47.1874 141.588C47.3184 141.944 47.3371 142.431 47.0002 142.693C46.7195 142.899 46.2703 142.917 46.0831 142.599C45.9896 142.449 45.7463 142.58 45.8398 142.749C46.1019 143.217 46.7382 143.254 47.1499 142.936C47.6927 142.524 47.5991 141.682 47.2622 141.158C46.8879 140.559 46.158 140.952 45.8211 141.42C45.4842 141.907 45.634 142.637 46.2142 142.824C46.4387 142.899 46.4949 142.637 46.3264 142.58V142.58Z" fill="#323232"/>
<path d="M28.1721 94.4993C27.91 94.5929 27.8726 94.2747 27.9288 94.1063C27.9849 93.9753 28.0785 93.8817 28.1908 93.8068C28.4341 93.6758 28.7523 93.6945 28.9207 93.9191C29.0704 94.1063 29.1079 94.4244 28.902 94.5742C28.7148 94.7239 28.4341 94.6865 28.2656 94.4993C28.1533 94.3496 27.9475 94.5555 28.0598 94.7052C28.3218 95.0421 28.8833 95.0234 29.164 94.7052C29.4635 94.3496 29.3137 93.7881 28.9394 93.5448C28.5277 93.3015 27.9662 93.4699 27.7229 93.863C27.5919 94.0688 27.5357 94.3683 27.6855 94.5742C27.8165 94.7613 28.0223 94.8362 28.2282 94.7613C28.4154 94.7052 28.3405 94.4432 28.1721 94.4993V94.4993Z" fill="#323232"/>
<path d="M63.0584 79.171C62.8338 78.909 62.6654 78.4972 62.8526 78.1791C62.9836 77.9545 63.3204 77.8048 63.545 77.9545C63.7883 78.1229 63.8445 78.5347 63.7322 78.7967C63.6012 79.1149 63.1894 79.2833 62.9274 79.0213C62.7964 78.8903 62.5905 79.0962 62.7215 79.2272C63.0397 79.5453 63.6012 79.4892 63.8632 79.1149C64.1439 78.7405 64.1252 78.0668 63.7509 77.7673C63.414 77.4866 62.9087 77.6363 62.6654 77.9545C62.3285 78.4037 62.5344 78.9839 62.8526 79.3769C62.9836 79.5079 63.1894 79.302 63.0584 79.171V79.171Z" fill="#323232"/>
<path d="M42.9015 113.758C44.1928 118.044 46.1767 122.049 48.1793 126.036C48.2542 126.204 48.4975 126.054 48.4226 125.886C46.42 121.918 44.4362 117.95 43.1635 113.683C43.1073 113.515 42.8453 113.589 42.9015 113.758V113.758Z" fill="#323232"/>
<path d="M42.5646 112.223C45.3907 110.913 48.2168 109.603 51.0241 108.274C51.1926 108.199 51.0428 107.956 50.8744 108.031C48.0483 109.36 45.2409 110.67 42.4148 111.98C42.2651 112.055 42.4148 112.298 42.5646 112.223V112.223Z" fill="#323232"/>
<path d="M46.8318 109.322C48.3852 108.667 49.8637 107.919 51.2862 107.02C51.4359 106.927 51.3049 106.683 51.1364 106.777C49.7327 107.657 48.2729 108.405 46.7382 109.042C46.5885 109.135 46.6633 109.397 46.8318 109.322V109.322Z" fill="#323232"/>
<path d="M48.4226 84.6735C48.7595 85.5906 49.1151 86.5076 49.452 87.4247C49.5082 87.5932 49.7889 87.5183 49.714 87.3498C49.3771 86.4328 49.0215 85.5157 48.6847 84.5986C48.6285 84.4302 48.3665 84.505 48.4226 84.6735V84.6735Z" fill="#323232"/>
<path d="M59.8019 135.262C64.668 132.399 69.5903 129.61 74.55 126.915C74.6997 126.822 74.5687 126.578 74.4002 126.672C69.4405 129.367 64.5183 132.156 59.6521 135.019C59.5024 135.113 59.6521 135.356 59.8019 135.262V135.262Z" fill="#323232"/>
<path d="M61.636 133.877C61.9355 134.289 62.2349 134.72 62.5344 135.131C62.6467 135.281 62.89 135.131 62.7777 134.982C62.4782 134.57 62.1788 134.14 61.8793 133.728C61.7857 133.597 61.5424 133.728 61.636 133.877V133.877Z" fill="#323232"/>
<path d="M71.3496 128.487C71.649 128.937 71.9485 129.386 72.2479 129.835C72.3415 129.985 72.5848 129.835 72.4912 129.685C72.1918 129.236 71.8923 128.787 71.5929 128.338C71.4806 128.188 71.2373 128.338 71.3496 128.487V128.487Z" fill="#323232"/>
<path d="M19.3569 65.9015C21.1162 72.0964 22.8567 78.2727 24.616 84.4676C33.0195 81.7164 41.4229 78.9839 49.8263 76.2326C48.1044 70.5804 46.3826 64.9095 44.6607 59.2573C36.2386 61.4658 27.7977 63.693 19.3569 65.9015Z" fill="white" stroke="#323232" stroke-width="2"/>
<path d="M35.0969 82.465C35.4525 84.4676 36.0701 86.3766 36.9685 88.2108C37.1369 88.529 37.6048 88.2482 37.4551 87.93C36.5755 86.152 35.9766 84.2804 35.6397 82.3153C35.5648 81.9597 35.022 82.1094 35.0969 82.465V82.465Z" fill="#323232"/>
<path d="M39.308 81.211C39.6449 83.0639 40.0192 84.9168 41.086 86.5076C41.2919 86.8071 41.7785 86.5263 41.5726 86.2269C40.5245 84.6735 40.1689 82.858 39.8508 81.0613C39.7759 80.7057 39.2519 80.8554 39.308 81.211V81.211Z" fill="#323232"/>
<path d="M36.1824 84.6548C36.7439 83.5131 38.6904 82.6896 39.9069 82.7832C40.1689 82.8019 40.1689 82.3901 39.9069 82.3527C39.0272 82.2778 38.2412 82.6335 37.4738 83.0078C36.8001 83.3447 36.1824 83.719 35.8268 84.4302C35.6958 84.6922 36.0701 84.8981 36.1824 84.6548V84.6548Z" fill="#323232"/>
<path d="M36.6878 86.5263C37.1182 85.9274 37.7359 85.5718 38.4096 85.3098C38.9711 85.0852 39.832 84.6735 40.431 84.9729C40.6743 85.0852 40.8801 84.7296 40.6368 84.6173C39.8882 84.243 39.0273 84.6173 38.2973 84.9168C37.5113 85.235 36.8375 85.628 36.3322 86.3205C36.1637 86.5263 36.5193 86.7509 36.6878 86.5263V86.5263Z" fill="#323232"/>
<path d="M24.7096 69.2703C26.6561 69.9441 28.6025 70.6366 30.549 71.3104C30.8858 71.4226 31.0356 70.8799 30.6987 70.7676C28.7522 70.0938 26.8058 69.4013 24.8593 68.7276C24.5225 68.5966 24.3727 69.1393 24.7096 69.2703V69.2703Z" fill="#323232"/>
<path d="M26.1133 72.7889C27.4234 71.1606 28.7897 69.5885 30.1747 68.0538C30.418 67.7918 30.0249 67.38 29.7816 67.6608C28.3779 69.1955 27.0304 70.7863 25.7203 72.3959C25.4957 72.6579 25.8887 73.0696 26.1133 72.7889V72.7889Z" fill="#323232"/>
<path d="M38.6342 65.5272C40.3374 66.5565 42.0592 67.5485 43.7811 68.5404C44.0992 68.7276 44.38 68.241 44.0618 68.0538C42.34 67.0619 40.6181 66.0699 38.915 65.0405C38.6155 64.8534 38.316 65.34 38.6342 65.5272V65.5272Z" fill="#323232"/>
<path d="M42.7891 64.1609C41.4603 65.6769 40.1876 67.249 38.9524 68.8586C38.7278 69.1393 39.2144 69.4201 39.439 69.1393C40.6368 67.5672 41.8908 66.0512 43.1822 64.5539C43.4255 64.2919 43.0137 63.8989 42.7891 64.1609V64.1609Z" fill="#323232"/>
<path d="M32.5516 75.353C35.0221 74.6231 37.4926 73.9119 39.9818 73.1819C40.3186 73.0884 40.1876 72.5456 39.832 72.6392C37.3615 73.3691 34.891 74.0803 32.4018 74.8102C32.065 74.9225 32.2147 75.4653 32.5516 75.353V75.353Z" fill="#323232"/>
<path d="M25.7577 83.1201C25.5518 82.9891 25.4957 82.6709 25.6454 82.4837C25.8138 82.2779 26.1507 82.2966 26.3192 82.4837C26.4876 82.6709 26.4315 83.0265 26.2256 83.1762C26.001 83.3259 25.7203 83.2511 25.5518 83.0452C25.4395 82.9142 25.2336 83.1013 25.3459 83.2511C25.608 83.5692 26.1507 83.6441 26.4689 83.3447C26.7683 83.0639 26.7871 82.5399 26.4876 82.2591C26.1882 81.9784 25.6641 82.0158 25.4208 82.334C25.1588 82.6709 25.2711 83.1575 25.6267 83.3821C25.7764 83.457 25.9074 83.2136 25.7577 83.1201V83.1201Z" fill="#323232"/>
<path d="M44.5484 76.8128C44.6607 77.0561 44.7543 77.3181 44.8666 77.5615C44.9415 77.7299 45.2035 77.655 45.1286 77.4866C45.0163 77.2433 44.9228 76.9813 44.8105 76.738C44.7356 76.5882 44.4736 76.6444 44.5484 76.8128V76.8128Z" fill="#323232"/>
<path d="M44.7169 76.9251C46.289 76.3824 47.8424 75.8583 49.4146 75.3155C49.583 75.2594 49.5081 74.9787 49.3397 75.0535C47.7676 75.5963 46.2141 76.1203 44.642 76.6631C44.4736 76.7005 44.5484 76.9813 44.7169 76.9251V76.9251Z" fill="#323232"/>
<path opacity="0.23" d="M47.2248 84.1682C45.8585 86.8258 44.0618 90.8871 42.7517 96.0527C40.8614 103.483 38.3348 113.421 43.0886 122.573C47.805 131.632 57.1816 135.094 60.6441 136.18C55.7592 138.875 50.8931 141.57 46.0083 144.265C42.2651 137.752 38.3535 130.059 34.8162 121.188C30.6987 110.894 28.0036 101.368 26.1882 93.1331C33.2253 90.1572 40.2251 87.1627 47.2248 84.1682Z" fill="#6D6C6C"/>
<path opacity="0.2" d="M44.2303 113.047C46.0083 117.22 47.7676 121.394 49.5456 125.568C55.7967 122.536 62.029 119.504 68.2801 116.472C66.5957 112.41 64.9113 108.368 63.2456 104.306C56.9009 107.207 50.5562 110.127 44.2303 113.047Z" fill="#6D6C6C"/>
<path opacity="0.21" d="M54.7673 120.608C55.8715 120.271 56.9009 121.001 57.1068 121.151C58.4356 122.124 58.6228 123.902 58.8099 125.83C58.9222 126.859 58.9596 128.431 58.6228 130.34C58.2859 130.396 57.9677 130.452 57.6308 130.527C57.818 129.872 59.2591 124.501 56.9196 122.423C56.6763 122.217 56.0025 121.619 55.2165 121.712C53.7379 121.881 53.0641 124.22 52.877 124.145C52.6711 124.033 52.9519 121.151 54.7673 120.608Z" fill="#6D6C6C"/>
<path opacity="0.23" d="M57.3688 120.327C57.2565 120.234 58.2297 118.156 60.251 117.632C60.5131 117.557 61.6173 117.295 62.7777 117.819C64.0504 118.381 63.8632 119.204 65.0236 119.803C66.3898 120.496 67.1572 119.635 68.355 120.346C69.6277 121.095 69.8523 122.873 69.7025 122.966C69.5154 123.06 68.748 120.795 67.1759 120.627C66.577 120.571 66.2401 120.851 65.192 120.72C64.7428 120.664 64.3498 120.608 63.9381 120.365C63.152 119.897 63.2269 119.317 62.5905 118.83C61.8793 118.287 60.9435 118.418 60.5131 118.474C58.5666 118.699 57.4811 120.439 57.3688 120.327Z" fill="#6D6C6C"/>
<path opacity="0.2" d="M32.7013 62.6075C32.2147 63.0941 29.0517 66.3694 29.4635 71.1606C29.8191 75.3155 32.7013 78.9839 36.8562 80.5186C32.8697 81.7538 28.8645 82.9891 24.8781 84.2056C23.1375 78.0855 21.3969 71.9654 19.6563 65.8266C23.9984 64.7785 28.3405 63.693 32.7013 62.6075Z" fill="#6D6C6C"/>
<path d="M165.004 134.065C168.242 131.875 171.461 129.685 174.699 127.495C176.664 127.645 179.64 127.683 183.139 126.953C186.883 126.167 191.674 124.389 191.505 123.284C191.487 123.116 191.318 122.798 189.091 122.274C185.778 121.488 183.158 121.488 181.268 121.413C179.771 121.357 177.581 121.207 174.867 120.795C170.824 123.172 166.8 125.53 162.758 127.907C163.488 129.947 164.236 132.006 165.004 134.065Z" fill="#323232"/>
<path d="M156.731 91.8604C154.972 93.4699 155.14 95.5099 154.111 98.6168C153.063 101.798 151.304 104.419 142.938 111.999C129.949 123.771 126.786 124.183 125.7 128.955C124.708 133.335 126.112 138.444 129.294 141.514C133.505 145.556 139.662 144.901 144.192 144.415C155.571 143.179 163.843 136.797 168.185 132.698C167.867 130.172 167.549 127.645 167.212 125.118C169.14 123.153 171.648 120.028 173.276 115.592C177.281 104.681 172.584 94.7426 171.479 92.5528C166.258 90.5128 159.95 88.9407 156.731 91.8604Z" fill="#60BC63"/>
<path opacity="0.18" d="M163.806 89.9888C162.777 94.3121 161.242 97.6061 160.044 99.7772C158.079 103.333 156.001 105.748 153.924 108.106C151.678 110.689 150.499 111.662 146.98 115.049C136.406 125.231 135.975 127.102 135.863 128.244C135.732 129.872 135.994 133.41 141.328 138.107C144.734 135.431 147.748 133.859 149.806 132.923C155.009 130.546 157.574 130.714 162.627 127.832C164.779 126.616 166.726 125.53 168.672 123.49C173.894 118.006 174.493 111.025 174.717 108.536C175.372 100.919 172.715 95.0233 171.33 92.4218C168.822 91.617 166.314 90.7936 163.806 89.9888Z" fill="#6D6C6C"/>
<path opacity="0.17" d="M170.487 121.113C164.087 123.022 155.87 126.391 147.729 132.642C145.315 134.495 143.181 136.404 141.309 138.257C147.785 137.228 154.485 135.955 161.41 134.383C163.731 133.859 165.996 133.316 168.242 132.755C167.867 130.247 167.493 127.72 167.119 125.212C168.242 123.827 169.365 122.461 170.487 121.113Z" fill="#6D6C6C"/>
<path opacity="0.12" d="M167.942 91.3176C169.234 93.0769 171.161 96.1837 172.134 100.507C173.276 105.617 172.471 109.697 172.041 111.737C170.225 120.252 164.948 125.774 162.458 128.057C164.068 127.289 166.52 125.867 168.784 123.359C172.041 119.784 173.108 116.023 173.688 113.87C176.252 104.4 172.677 95.641 171.348 92.7587C170.188 92.2721 169.065 91.7855 167.942 91.3176Z" fill="#6D6C6C"/>
<path d="M174.568 136.329C177.805 134.139 181.025 131.95 184.262 129.76C186.228 129.91 189.203 129.947 192.703 129.217C196.446 128.431 201.238 126.653 201.069 125.549C201.05 125.38 200.882 125.062 198.655 124.538C195.342 123.752 192.722 123.752 190.832 123.677C189.334 123.621 187.145 123.471 184.431 123.06C180.388 125.437 176.364 127.795 172.322 130.172C173.07 132.212 173.819 134.271 174.568 136.329Z" fill="#323232"/>
<path d="M166.314 94.125C164.704 96.2399 167.212 99.0285 166.351 103.371C165.509 107.6 162.196 109.584 154.392 115.143C138.39 126.578 136.761 129.404 136.106 132.025C135.114 135.974 135.994 140.784 138.858 143.778C142.825 147.914 149.245 147.166 153.755 146.679C165.135 145.444 173.407 139.062 177.749 134.963C177.431 132.436 177.113 129.91 176.776 127.383C178.704 125.418 181.212 122.292 182.84 117.857C186.845 106.945 182.147 97.0072 181.043 94.8175C171.143 91.5796 167.568 92.4593 166.314 94.125Z" fill="#60BC63"/>
<path opacity="0.18" d="M173.388 92.2534C174.137 93.4325 182.073 106.047 177.206 114.731C175.428 117.913 171.61 121.095 170.749 121.824C167.306 124.707 164.779 125.717 162.477 127.121C159.071 129.18 154.71 132.942 150.929 140.372C154.336 137.696 157.349 136.123 159.408 135.188C164.611 132.811 167.175 132.979 172.228 130.097C174.38 128.88 176.327 127.795 178.273 125.755C183.495 120.271 184.094 113.29 184.318 110.801C184.974 103.183 182.316 97.288 180.931 94.6865C178.404 93.863 175.896 93.0582 173.388 92.2534Z" fill="#6D6C6C"/>
<path opacity="0.17" d="M180.07 123.359C173.669 125.268 165.453 128.637 157.312 134.888C154.897 136.741 152.764 138.65 150.892 140.503C157.368 139.474 164.068 138.201 170.993 136.629C173.314 136.105 175.578 135.562 177.824 135C177.45 132.493 177.075 129.966 176.701 127.458C177.824 126.092 178.947 124.725 180.07 123.359Z" fill="#6D6C6C"/>
<path opacity="0.12" d="M177.525 93.5822C178.816 95.3415 180.744 98.4483 181.717 102.772C182.859 107.881 182.054 111.961 181.623 114.001C179.808 122.517 174.53 128.038 172.041 130.321C173.65 129.554 176.102 128.132 178.367 125.624C181.623 122.049 182.69 118.287 183.27 116.135C185.834 106.665 182.26 97.9056 180.931 95.0233C179.771 94.5367 178.648 94.0501 177.525 93.5822Z" fill="#6D6C6C"/>
<path d="M164.386 48.8139C163.357 48.3086 161.616 49.862 160.905 50.4983C157.48 53.5677 156.787 57.1612 154.523 62.9444C153.793 64.7972 152.67 67.4736 151.042 70.674C149.226 72.6579 146.569 75.1097 142.975 77.2807C140.804 78.5908 138.727 79.5266 136.93 80.2004C135.863 79.8635 133.786 79.3582 131.334 79.8635C129.837 80.1629 128.227 80.4998 127.404 81.7725C125.944 84.0371 127.89 87.9113 130.323 89.8391C131.091 90.4567 132.382 91.4673 134.029 91.2989C136.144 91.0743 138.034 88.9407 138.614 85.9274C141.852 85.2724 148.44 83.4757 154.411 77.9732C155.739 76.7379 159.052 73.4814 161.579 68.2222C163.675 63.8801 164.105 60.53 164.835 55.0088C165.434 50.4234 165.079 49.1695 164.386 48.8139Z" fill="white" stroke="#323232"/>
<path opacity="0.08" d="M163.843 48.6267C162.926 48.6267 162.739 53.7736 161.223 58.8456C159.108 65.9576 155.084 70.6553 153.269 72.7515C151.248 75.0535 145.24 81.7538 135.096 84.5237C131.933 85.3847 129.2 85.6467 127.254 85.7028C127.516 86.4141 128.807 89.708 132.008 90.8123C132.607 91.0182 133.711 91.3925 134.983 91.0556C136.967 90.5315 138.483 88.4728 138.914 85.8339C142.47 85.0104 149.675 82.8393 155.421 76.9251C157.948 74.3423 159.595 71.6472 160.063 70.8612C162.084 67.4549 162.908 64.6849 163.862 61.4658C165.565 55.7575 165.341 53.1934 165.041 51.6025C164.929 51.0598 164.48 48.6267 163.843 48.6267Z" fill="#6D6C6C"/>
<path opacity="0.15" d="M163.6 60.7359C163.357 60.6423 162.252 64.4978 158.378 69.8879C156.376 72.6579 153.849 76.1578 149.582 79.1523C146.887 81.0426 143.2 82.6709 135.807 85.9274C132.064 87.5744 129.911 88.4166 129.986 89.4834C130.061 90.569 132.363 91.5609 134.272 91.2615C136.425 90.9246 138.24 88.9033 138.67 86.152C140.636 85.5718 143.293 84.636 146.269 83.1762C147.504 82.5773 151.678 80.5186 154.822 77.8235C162.421 71.3103 163.993 60.9043 163.6 60.7359Z" fill="#6D6C6C"/>
<path d="M164.03 47.3353C159.782 50.124 158.453 54.8029 157.068 59.6316C156.787 60.5862 155.664 64.7411 155.59 70.5991C155.533 76.3075 156.544 77.8609 156.656 82.6334C156.731 85.8339 156.394 90.438 154.392 96.1463C155.927 97.6248 160.568 101.667 167.905 102.697C175.541 103.782 181.324 100.9 183.158 99.8895C183.327 97.6997 183.551 94.2934 183.551 90.1198C183.57 72.4707 179.771 63.2251 185.292 56.8243C186.022 55.982 187.276 54.7842 189.297 53.7549C187.856 52.1079 181.436 45.0894 172.172 45.2017C170.413 45.2017 167.156 45.2766 164.03 47.3353Z" fill="white" stroke="#323232"/>
<path opacity="0.1" d="M176.084 45.6696C173.894 50.0117 171.292 56.6184 171.143 64.7972C170.993 72.4894 173.126 75.8957 172.546 82.7457C172.153 87.4621 170.431 94.1624 164.274 101.986C165.659 102.416 167.287 102.79 169.102 102.959C175.522 103.539 180.669 101.274 183.289 99.8333C183.701 94.5367 183.682 90.2695 183.607 87.4808C183.364 78.9838 182.634 72.4333 182.634 72.4333C182.26 69.7569 182.241 67.4736 182.316 65.7704C182.428 63.3374 182.503 61.8963 183.177 60.1744C183.645 58.9953 184.712 56.9178 187.257 55.0088C187.968 54.6158 188.698 54.2228 189.409 53.8297C187.575 51.5464 184.244 48.1214 179.097 46.4182C178.049 46.0626 177.038 45.8193 176.084 45.6696Z" fill="#6D6C6C"/>
<path opacity="0.12" d="M189.409 53.7174C187.949 52.3886 186.471 51.0598 185.011 49.7497C180.164 54.6719 178.03 59.3696 177.057 63.1877C176.177 66.6688 176.776 67.3987 176.42 79.7325C176.14 89.446 175.672 92.347 174.062 95.4164C172.228 98.935 169.645 101.256 167.83 102.622C169.439 102.959 171.891 103.258 174.811 102.828C178.648 102.266 181.455 100.713 182.971 99.7023C183.308 94.9298 183.364 90.8123 183.289 87.5557C182.99 71.9654 180.051 64.2357 184.786 57.7975C186.265 55.7949 188.043 54.5222 189.409 53.7174Z" fill="#6D6C6C"/>
<path d="M127.329 80.1255C130.567 86.7509 133.786 93.3763 137.024 100.002C142.788 96.6142 148.534 93.2079 154.298 89.8203C151.285 83.7938 148.272 77.7673 145.259 71.7408C139.288 74.5295 133.318 77.3368 127.329 80.1255Z" fill="white" stroke="#323232"/>
<ellipse cx="139.906" cy="84.3366" rx="5.09071" ry="5.16558" fill="white" stroke="#323232"/>
<path d="M145.82 85.0104C144.996 86.3392 145.165 88.0049 146.138 88.9968C147.317 90.2134 149.058 89.8391 149.151 89.8203C151.322 93.9565 153.493 98.074 155.665 102.21C156.769 101.78 157.892 101.349 158.996 100.9C156.451 96.8575 153.887 92.8149 151.341 88.7535C151.435 88.6787 152.82 87.668 152.726 86.0584C152.651 84.6173 151.397 83.3259 149.713 83.1201C150.462 83.9248 150.611 85.0478 150.125 85.89C149.563 86.8819 148.403 86.9381 148.328 86.9568C147.28 87.0317 146.232 86.2456 145.82 85.0104Z" fill="white" stroke="#323232"/>
<path d="M137.117 81.5479C137.117 81.5666 137.117 81.5854 137.117 81.6041C137.117 81.7538 137.248 81.8848 137.398 81.8848C137.548 81.8848 137.679 81.7538 137.679 81.6041C137.679 81.5854 137.679 81.5666 137.679 81.5479C137.679 81.3982 137.548 81.2672 137.398 81.2672C137.248 81.2672 137.117 81.3795 137.117 81.5479V81.5479Z" fill="#323232"/>
<ellipse cx="148.103" cy="84.6735" rx="2.17104" ry="2.20847" fill="white" stroke="#323232"/>
<path d="M136.368 80.7431C136.63 81.0239 136.93 81.3046 137.211 81.5666C137.491 81.8099 137.884 81.3982 137.604 81.1736C137.304 80.9116 137.024 80.6496 136.761 80.3501C136.518 80.0881 136.125 80.4811 136.368 80.7431V80.7431Z" fill="#323232"/>
<path d="M135.058 86.0772C135.545 85.89 135.994 85.6654 136.443 85.3847C136.743 85.1788 136.462 84.6922 136.163 84.8981C135.77 85.1601 135.358 85.366 134.927 85.5344C134.572 85.6654 134.721 86.2082 135.058 86.0772V86.0772Z" fill="#323232"/>
<path d="M137.959 88.9968C138.277 88.6038 138.596 88.1921 138.876 87.7616C139.082 87.4621 138.596 87.1814 138.39 87.4809C138.128 87.8739 137.847 88.2482 137.566 88.6038C137.342 88.8658 137.735 89.2776 137.959 88.9968V88.9968Z" fill="#323232"/>
<path d="M142.17 87.2937C142.601 87.4247 142.994 87.6306 143.331 87.9113C143.611 88.1359 144.005 87.7429 143.724 87.5183C143.312 87.1627 142.844 86.9007 142.301 86.7509C141.983 86.6386 141.833 87.1814 142.17 87.2937V87.2937Z" fill="#323232"/>
<path d="M143.331 84.0558C143.649 83.8687 143.986 83.719 144.323 83.588C144.66 83.4757 144.51 82.9329 144.173 83.0452C143.78 83.1762 143.406 83.3634 143.05 83.5692C142.732 83.7377 143.013 84.2243 143.331 84.0558V84.0558Z" fill="#323232"/>
<path d="M141.571 79.4517C141.44 79.7138 141.309 79.9758 141.178 80.2191C141.01 80.5373 141.497 80.818 141.665 80.4998C141.796 80.2378 141.927 79.9758 142.058 79.7325C142.208 79.4143 141.74 79.1336 141.571 79.4517V79.4517Z" fill="#323232"/>
<path d="M145.932 84.4863C146.232 84.5237 146.531 84.5425 146.831 84.5799C146.98 84.5986 147.111 84.4489 147.111 84.2991C147.111 84.1307 146.98 84.0371 146.831 84.0184C146.531 83.981 146.232 83.9623 145.932 83.9248C145.783 83.9061 145.652 84.0558 145.652 84.2056C145.652 84.374 145.783 84.4676 145.932 84.4863V84.4863Z" fill="#323232"/>
<path d="M147.879 82.6147C147.935 82.7832 147.991 82.9516 148.047 83.1201C148.103 83.2698 148.234 83.3634 148.384 83.3072C148.515 83.2698 148.627 83.1013 148.571 82.9703C148.515 82.8019 148.459 82.6334 148.403 82.465C148.347 82.3153 148.216 82.2217 148.066 82.2778C147.935 82.3153 147.823 82.465 147.879 82.6147V82.6147Z" fill="#323232"/>
<path d="M147.336 86.6948C147.486 86.4328 147.654 86.1895 147.841 85.9649C147.935 85.8526 147.954 85.6841 147.841 85.5718C147.748 85.4783 147.542 85.4595 147.448 85.5718C147.224 85.8339 147.018 86.1146 146.849 86.414C146.681 86.7135 147.168 87.013 147.336 86.6948V86.6948Z" fill="#323232"/>
<path d="M149.264 84.6547C149.563 84.6922 149.844 84.6173 150.125 84.505C150.256 84.4489 150.293 84.243 150.218 84.112C150.143 83.9623 149.975 83.9435 149.825 84.0184C149.638 84.0933 149.432 84.112 149.245 84.0933C149.095 84.0746 148.964 84.243 148.964 84.374C148.983 84.5425 149.114 84.636 149.264 84.6547V84.6547Z" fill="#323232"/>
<path d="M148.683 86.021C148.833 86.2082 148.983 86.3953 149.133 86.5825C149.226 86.6948 149.432 86.6761 149.526 86.5825C149.638 86.4702 149.619 86.3017 149.526 86.1895C149.376 86.0023 149.226 85.8151 149.077 85.628C148.983 85.5157 148.777 85.5344 148.683 85.628C148.552 85.7403 148.59 85.9087 148.683 86.021V86.021Z" fill="#323232"/>
<path d="M126.954 80.3314C129.968 86.9942 133.168 93.5822 136.556 100.058C136.724 100.376 137.211 100.095 137.042 99.7772C133.636 93.3015 130.436 86.7135 127.441 80.0507C127.291 79.7325 126.805 80.0132 126.954 80.3314V80.3314Z" fill="#323232"/>
<path d="M126.842 80.2378C129.818 86.9942 133.037 93.6197 136.518 100.114C136.687 100.432 137.173 100.151 137.005 99.8333C133.524 93.3389 130.286 86.6948 127.329 79.9571C127.179 79.6202 126.692 79.9196 126.842 80.2378V80.2378Z" fill="#323232"/>
<path d="M137.566 97.7746C137.192 97.6436 137.192 97.0821 137.417 96.8201C137.641 96.5768 138.072 96.5206 138.315 96.7826C138.876 97.3441 138.109 98.0927 137.491 97.7746C137.323 97.6997 137.192 97.943 137.342 98.0179C137.772 98.2425 138.334 98.1489 138.633 97.7371C138.914 97.3441 138.783 96.7452 138.371 96.4832C137.959 96.2212 137.36 96.3709 137.117 96.7826C136.855 97.2131 136.986 97.8869 137.491 98.074C137.66 98.0927 137.735 97.8307 137.566 97.7746V97.7746Z" fill="#323232"/>
<path d="M137.604 97.4003C137.791 97.4003 137.791 97.1195 137.604 97.1195C137.417 97.1195 137.417 97.4003 137.604 97.4003V97.4003Z" fill="#323232"/>
<path d="M138.053 96.9885C138.053 96.9698 138.053 96.9698 138.053 96.9511C138.053 96.7639 137.772 96.7639 137.772 96.9511C137.772 96.9698 137.772 96.9698 137.772 96.9885C137.772 97.157 138.053 97.157 138.053 96.9885V96.9885Z" fill="#323232"/>
<path d="M137.884 97.4564C137.884 97.4751 137.884 97.4751 137.884 97.4938C137.884 97.681 138.165 97.681 138.165 97.4938C138.165 97.4751 138.165 97.4751 138.165 97.4564C138.165 97.2692 137.884 97.2692 137.884 97.4564V97.4564Z" fill="#323232"/>
<path d="M127.254 80.0319C130.286 78.6095 133.336 77.1871 136.368 75.746C139.307 74.3797 142.208 72.8825 145.221 71.7034C145.39 71.6472 145.315 71.3665 145.146 71.4414C142.227 72.6017 139.4 74.0241 136.556 75.353C133.411 76.8315 130.248 78.3101 127.104 79.7886C126.954 79.8635 127.085 80.1068 127.254 80.0319V80.0319Z" fill="#323232"/>
<path d="M129.125 80.818C128.695 80.6121 129.219 79.9945 129.575 80.294C129.911 80.5934 129.518 81.0987 129.144 80.8741C128.994 80.7806 128.845 81.0239 128.994 81.1175C129.294 81.2859 129.687 81.211 129.893 80.9303C130.08 80.6496 129.986 80.2378 129.724 80.0319C129.444 79.8261 129.051 79.9196 128.845 80.1817C128.62 80.4624 128.695 80.8929 129.013 81.0426C129.144 81.1362 129.294 80.8929 129.125 80.818V80.818Z" fill="#323232"/>
<path d="M146.643 82.727C145.726 83.2323 145.315 84.2243 145.595 85.2349C145.652 85.4034 145.914 85.3285 145.857 85.1601C145.595 84.2617 145.97 83.4008 146.774 82.9703C146.943 82.8767 146.793 82.6334 146.643 82.727V82.727Z" fill="#323232"/>
<path d="M145.839 84.4863C145.988 83.2323 147.504 81.7725 148.758 82.7083C148.908 82.8206 149.039 82.5773 148.908 82.465C147.467 81.3982 145.745 83.0452 145.558 84.4863C145.539 84.6735 145.82 84.6548 145.839 84.4863V84.4863Z" fill="#323232"/>
<path d="M135.171 86.6199C134.16 83.85 135.04 80.3875 138.184 79.6015C138.352 79.564 138.277 79.2833 138.109 79.3395C134.815 80.1629 133.842 83.7938 134.89 86.7135C134.965 86.8632 135.246 86.7884 135.171 86.6199V86.6199Z" fill="#323232"/>
<path d="M134.534 83.85C134.553 85.9836 135.264 88.3605 137.585 88.9407C137.753 88.9781 137.828 88.7161 137.66 88.6787C135.489 88.1172 134.834 85.8526 134.815 83.85C134.815 83.6628 134.534 83.6628 134.534 83.85V83.85Z" fill="#323232"/>
<path d="M134.516 85.5157C135.058 87.9862 137.117 89.6519 139.644 89.6893C139.831 89.6893 139.831 89.4086 139.644 89.4086C137.248 89.3711 135.302 87.7803 134.796 85.4408C134.759 85.2724 134.478 85.3472 134.516 85.5157V85.5157Z" fill="#323232"/>
<path opacity="0.18" d="M145.221 86.0772C145.352 86.3766 146.082 87.8926 147.823 88.4915C148.871 88.8471 149.806 88.6974 150.237 88.5851C150.574 89.2589 150.911 89.9139 151.266 90.5877C153.213 94.3496 155.197 98.0179 157.199 101.593C156.694 101.836 156.17 102.079 155.665 102.304C153.456 98.1302 151.266 93.9378 149.058 89.7642C148.721 89.839 147.804 89.9888 146.905 89.5022C145.764 88.9033 145.109 87.5557 145.221 86.0772Z" fill="#6D6C6C"/>
<path opacity="0.29" d="M145.726 88.4354C146.887 88.8284 148.047 89.2214 149.208 89.6145C151.79 93.6009 154.354 97.6061 156.937 101.593C156.488 101.705 156.058 101.836 155.608 101.948C153.419 97.943 151.248 93.9378 149.058 89.9139C148.758 89.9513 148.01 90.0449 147.168 89.6519C146.344 89.2963 145.895 88.6787 145.726 88.4354Z" fill="#6D6C6C"/>
<path opacity="0.17" d="M135.863 80.7619C135.414 80.9864 132.681 82.465 131.914 85.6841C131.858 85.89 131.016 89.7455 133.187 91.5235C135.171 93.133 139.138 92.6277 141.946 89.4273C141.515 89.4086 138.858 89.2027 137.024 86.9194C134.909 84.2243 135.77 81.0613 135.863 80.7619Z" fill="#6D6C6C"/>
<path opacity="0.18" d="M135.807 81.0613C135.582 81.3233 133.299 84.0371 134.216 87.2563C134.347 87.7054 135.171 90.5315 137.697 91.0369C139.531 91.4112 141.309 90.3631 142.208 89.0343C143.668 86.8632 142.844 83.7002 140.879 82.072C138.802 80.3875 136.144 80.9864 135.807 81.0613Z" fill="#6D6C6C"/>
<path d="M184.824 55.0088C185.535 54.2415 186.995 52.6506 188.342 52.9875C190.906 53.6051 191.225 60.53 191.337 62.5888C191.543 66.9496 191.094 74.1926 186.639 83.2885C184.58 85.7216 181.717 88.6787 177.88 91.5048C173.445 94.78 169.196 96.7826 165.939 98.0366C164.292 99.5152 162.795 100.563 161.691 101.237C160.081 102.248 159.258 102.753 158.023 102.959C157.386 103.071 155.253 103.427 153.288 102.061C151.416 100.75 150.967 98.7665 150.873 98.2612C150.574 96.7826 150.873 95.5661 151.06 94.9672C153.082 94.6116 155.084 94.256 157.106 93.9004C153.419 93.3202 152.651 92.8523 152.651 92.5341C152.651 91.8604 155.683 91.093 158.434 91.224C160.98 91.3363 162.982 92.216 164.236 92.8897C167.119 90.2882 169.496 88.2482 171.161 86.8632C173.538 84.8793 174.867 83.8687 176.645 82.0533C178.61 80.0507 180.014 78.2352 180.893 77.0187C180.968 73.3691 181.155 70.281 181.343 67.9415C181.998 59.7439 182.933 57.0489 184.824 55.0088Z" fill="white" stroke="#323232"/>
<path d="M150.724 96.6142C152.558 97.5126 154.598 97.4751 156.432 96.5768C156.75 96.427 156.469 95.9404 156.151 96.0902C154.504 96.8762 152.651 96.9136 151.004 96.1276C150.686 95.9779 150.387 96.4645 150.724 96.6142V96.6142Z" fill="#323232"/>
<path d="M150.742 98.1676C152.352 99.8146 154.654 99.9082 156.75 99.2531C157.087 99.1408 156.937 98.5981 156.6 98.7104C154.691 99.3093 152.614 99.2906 151.154 97.7746C150.892 97.5126 150.48 97.9056 150.742 98.1676V98.1676Z" fill="#323232"/>
<path d="M151.809 100.9C153.662 102.042 155.983 102.042 157.854 100.9C158.154 100.713 157.873 100.226 157.574 100.414C155.889 101.443 153.793 101.443 152.108 100.414C151.79 100.226 151.491 100.713 151.809 100.9V100.9Z" fill="#323232"/>
<path opacity="0.17" d="M187.294 53.156C187.463 54.1853 187.631 55.2334 187.8 56.2815C188.099 58.1905 188.38 60.0808 188.642 61.9524C188.642 61.9524 189.409 69.4762 186.452 76.8502C183.832 83.3634 179.284 87.013 174.699 90.7C170.544 94.0314 166.632 97.1944 160.568 98.0553C156.432 98.6542 152.932 97.943 150.724 97.288C150.761 97.9243 150.948 99.1783 151.772 100.432C152.165 101.012 153.381 102.678 155.496 103.109C156.076 103.221 157.143 103.333 159.221 102.528C160.699 101.967 163.207 100.75 165.715 98.0366C168.934 96.8575 171.517 95.5287 173.445 94.4057C174.886 93.5635 178.517 91.355 182.522 87.6306C184.281 85.9836 185.666 84.4676 186.621 83.3259C187.725 81.211 188.885 78.5534 189.765 75.3904C191.168 70.4681 191.225 66.8373 191.3 62.1209C191.3 62.1209 191.337 60.137 190.439 56.2066C190.083 54.6532 189.69 53.3993 188.717 53.0624C188.193 52.8752 187.65 53.0062 187.294 53.156Z" fill="#6D6C6C"/>
<path opacity="0.17" d="M151.921 100.807C152.895 101.069 154.467 101.387 156.301 101.106C158.285 100.807 158.958 100.095 162.87 98.3735C165.453 97.2318 165.472 97.419 167.624 96.427C170.057 95.3041 171.798 94.2747 173.164 93.4512C178.348 90.3257 183.327 86.4515 185.329 84.8606C182.578 87.8365 178.629 91.4299 173.276 94.5367C170.618 96.0902 168.073 97.2505 165.79 98.1302C165.191 98.7665 164.218 99.7023 162.87 100.619C160.905 101.967 158.977 103.296 156.544 103.109C155.889 103.071 153.924 102.809 151.921 100.807Z" fill="#6D6C6C"/>
<path d="M149.937 21.2641C148.534 21.7694 147.168 24.4084 148.085 34.8893C146.269 40.5227 147.392 46.3059 151.042 49.6187C153.793 52.1079 157.087 52.3699 157.723 52.4073C162.047 52.6693 166.426 50.255 168.129 46.7364C168.429 46.1375 169.009 44.8835 168.897 43.274C168.691 40.4666 166.482 38.5763 165.677 37.8651C157.779 30.7905 153.269 20.0663 149.937 21.2641Z" fill="#2F5A59"/>
<path d="M164.498 40.9906C164.48 42.2072 165.902 42.8997 166.875 45.5386C167.343 46.83 167.493 47.9717 167.53 48.6641C168.223 48.8139 170.225 49.132 172.378 48.1027C173.894 47.3728 174.792 46.3059 175.223 45.7258C173.707 42.6938 172.191 39.6618 170.675 36.6111C165.565 38.4453 164.517 39.9613 164.498 40.9906Z" fill="white" stroke="#323232"/>
<path d="M150.312 19.9727C148.684 23.4352 149.413 26.9725 149.919 29.3307C150.405 31.6514 151.828 36.1807 156.001 39.7928C158.902 42.3008 161.916 43.2927 163.563 43.7232C165.004 43.1055 167.212 41.9639 169.29 39.8303C171.423 37.6405 172.378 35.4695 173.276 33.4482C174.961 29.574 176.121 26.9163 175.672 23.5662C175.185 19.7481 172.715 15.6868 168.784 13.6842C162.028 10.2218 153.119 14.0398 150.312 19.9727Z" fill="white" stroke="#323232"/>
<path d="M156.544 27.3281C156.825 28.6008 157.143 29.8734 157.517 31.1274C157.873 32.3439 158.21 33.7102 158.771 34.8518C159.576 36.4801 161.055 33.5979 161.41 32.9428C161.579 32.6247 161.111 32.3439 160.924 32.6621C160.774 32.9428 159.745 34.8331 159.464 34.7583C158.977 34.6273 158.565 32.6247 158.434 32.1942C157.91 30.5472 157.461 28.8815 157.087 27.1971C156.993 26.8415 156.451 26.9912 156.544 27.3281V27.3281Z" fill="#323232"/>
<path d="M150.667 28.582C152.015 28.582 153.344 28.3949 154.654 28.058C155.009 27.9644 154.86 27.4216 154.504 27.5152C153.25 27.8521 151.959 28.0206 150.667 28.0206C150.312 28.0206 150.293 28.582 150.667 28.582V28.582Z" fill="#323232"/>
<path d="M160.811 25.9431C161.953 24.5768 163.843 24.2212 165.378 25.1945C165.678 25.3816 165.958 24.895 165.659 24.7078C163.937 23.6036 161.728 23.9779 160.418 25.5313C160.194 25.8121 160.587 26.2238 160.811 25.9431V25.9431Z" fill="#323232"/>
<path d="M153.138 30.9215C152.913 30.8654 152.726 30.0606 152.932 29.9483C153.138 29.8547 153.138 30.3413 153.138 30.4162C153.157 30.5846 153.138 30.8654 153.194 31.0338C153.194 31.0712 153.194 31.09 153.194 31.1274C153.231 31.1087 153.269 31.0712 153.306 31.0525C153.306 31.0338 153.138 30.8654 153.1 30.8092C153.026 30.6782 153.007 30.5285 153.026 30.3787C153.026 30.3226 153.044 30.2852 153.063 30.229C152.988 30.229 152.913 30.229 152.82 30.229C152.801 30.2477 152.895 30.4723 152.895 30.5098C152.913 30.5846 152.932 30.7344 152.969 30.7905C152.988 30.8279 152.988 30.8654 153.007 30.9028C153.175 30.9028 153.25 30.8279 153.194 30.7156C153.138 30.36 152.595 30.5098 152.651 30.8654C152.707 31.1835 152.969 31.5391 153.344 31.3707C153.755 31.1835 153.531 30.6595 153.437 30.36C153.344 30.0606 153.231 29.574 152.801 29.7424C152.464 29.8734 152.427 30.3413 152.464 30.6408C152.52 30.9777 152.707 31.3333 153.007 31.5204C153.362 31.745 153.737 31.5204 153.755 31.1274C153.755 30.9028 153.718 30.6595 153.699 30.4162C153.681 30.1916 153.681 29.9483 153.587 29.7424C153.456 29.4242 153.119 29.2371 152.782 29.3868C152.015 29.705 152.183 31.2958 152.988 31.4643C153.344 31.5391 153.493 30.9964 153.138 30.9215V30.9215Z" fill="#323232"/>
<path d="M163.207 28.6382C163.02 28.5259 162.982 28.32 162.964 28.1141C162.964 28.058 162.945 27.6088 162.964 27.6088C163.001 27.5901 163.132 28.0954 163.151 28.2077C163.188 28.4884 163.17 28.7692 163.113 29.0499C163.263 29.0125 163.432 28.9751 163.581 28.9189C163.226 28.6195 163.02 28.1703 163.113 27.7024C163.076 27.7585 163.02 27.8147 162.982 27.8708C163.02 27.8521 163.057 28.3574 163.057 28.4136C163.076 28.5633 163.113 28.6943 163.207 28.8253C163.394 29.1248 163.881 28.844 163.694 28.5446C163.488 28.2264 163.675 27.8334 163.394 27.5339C163.207 27.3281 162.851 27.1971 162.627 27.4216C162.421 27.6275 162.515 28.1703 162.589 28.4136C162.702 28.7692 162.889 29.0686 163.17 29.3119C163.319 29.443 163.6 29.4055 163.637 29.1809C163.75 28.6382 163.731 28.0767 163.544 27.5527C163.413 27.1971 163.113 26.804 162.702 27.0286C162.346 27.2345 162.346 27.7398 162.384 28.0954C162.421 28.5072 162.552 28.8815 162.908 29.1061C163.226 29.3119 163.506 28.8253 163.207 28.6382V28.6382Z" fill="#323232"/>
<path d="M164.704 31.8947C165.06 31.8947 165.06 31.3333 164.704 31.3333C164.33 31.3333 164.33 31.8947 164.704 31.8947V31.8947Z" fill="#323232"/>
<path d="M166.37 30.0606C166.389 30.0606 166.407 30.0606 166.426 30.0606C166.576 30.0606 166.707 29.9296 166.707 29.7798C166.707 29.6301 166.576 29.4991 166.426 29.4991C166.407 29.4991 166.389 29.4991 166.37 29.4991C166.22 29.4991 166.089 29.6301 166.089 29.7798C166.089 29.9296 166.202 30.0606 166.37 30.0606V30.0606Z" fill="#323232"/>
<path d="M166.033 31.5017C166.033 31.5204 166.033 31.5391 166.033 31.5578C166.033 31.7076 166.164 31.8386 166.314 31.8386C166.464 31.8386 166.595 31.7076 166.595 31.5578C166.595 31.5391 166.595 31.5204 166.595 31.5017C166.595 31.352 166.464 31.221 166.314 31.221C166.145 31.221 166.033 31.352 166.033 31.5017V31.5017Z" fill="#323232"/>
<path d="M158.865 38.595C160.531 38.1271 162.103 38.726 163.637 39.3624C163.974 39.4934 164.124 38.9506 163.787 38.8196C162.159 38.1458 160.475 37.5469 158.715 38.0523C158.378 38.1645 158.528 38.7073 158.865 38.595V38.595Z" fill="#323232"/>
<path d="M147.43 26.2613C145.502 21.1144 149.226 15.9301 149.713 15.2563C150.068 14.7884 154.111 9.49185 160.793 9.64157C163.712 9.69772 165.921 10.7645 167.062 11.4383C168.709 11.5506 171.835 11.9998 174.961 14.1334C180.594 17.9514 181.698 24.1651 181.885 25.3816C183.345 26.7104 185.404 28.8628 187.107 31.9883C187.612 32.9241 188.436 34.4401 188.96 36.3491C189.316 37.7154 191.449 45.5947 186.415 49.8058C183.514 52.2389 179.153 52.6881 175.859 51.2095C172.509 49.7122 170.768 46.437 170.544 46.0065C170.394 45.7258 170.3 45.5012 170.225 45.3514C167.193 38.5202 172.022 31.614 172.34 31.1835C172.49 31.1274 174.399 30.3975 174.792 28.582C175.129 27.0473 174.343 25.0447 173.089 24.9137C172.265 24.8201 171.367 25.5688 170.806 26.6169C169.421 25.9244 167.736 24.9324 165.996 23.5287C163.656 21.6197 162.065 19.6171 161.017 18.0637C159.071 18.6439 155.14 20.1412 151.884 23.9218C150.387 25.6624 149.451 27.4216 148.871 28.8066C148.44 28.2264 147.86 27.3842 147.43 26.2613Z" fill="#2F5A59"/>
<path opacity="0.13" d="M158.229 19.0931C159.876 19.9727 163.282 22.1251 165.584 26.2987C166.52 28.0018 168.447 31.483 167.699 36.0309C167.025 40.111 164.555 42.7125 163.563 43.667C164.087 43.4424 164.817 43.2178 165.734 43.1055C166.538 43.012 167.231 43.0681 167.755 43.143C168.223 43.8542 168.728 44.7712 169.177 45.8755C169.645 47.0359 169.907 48.1027 170.057 48.9636C170.824 48.7203 171.592 48.4957 172.359 48.2524C172.509 48.5331 172.733 48.9262 173.089 49.3379C174.755 51.3592 177.244 51.7336 178.255 51.8833C181.249 52.3325 183.57 51.2657 184.431 50.8726C184.431 50.8726 186.209 50.0304 187.482 48.7577C190.289 45.9878 190.513 39.5121 187.631 32.7744C187.463 33.4294 186.733 35.9374 184.281 37.4908C181.68 39.1378 178.142 39.1003 175.559 37.1913C172.621 35.0203 172.453 31.5578 172.434 31.09C172.752 30.9964 173.295 30.7718 173.819 30.2852C173.931 30.1916 174.886 29.2371 174.886 27.7772C174.886 26.8789 174.53 25.0822 173.295 24.8576C172.415 24.6891 171.367 25.3629 170.862 26.5233C169.121 25.6811 166.763 24.2961 164.461 22.0689C162.964 20.6278 161.859 19.1867 161.036 17.9514C160.437 18.1199 159.763 18.3444 159.071 18.6626C158.753 18.8311 158.491 18.9621 158.229 19.0931Z" fill="#6D6C6C"/>
<path opacity="0.15" d="M172.284 31.2022C171.798 31.5953 171.068 32.2691 170.413 33.261C168.915 35.4882 169.215 37.1539 167.923 39.718C167.549 40.4853 166.894 41.5708 165.752 42.7687C166.669 42.5253 167.587 42.2633 168.522 42.02C168.728 42.8622 168.972 43.7232 169.234 44.6028C169.683 46.1188 170.151 47.5412 170.656 48.8887C171.161 48.6829 171.648 48.4583 172.153 48.2524C171.498 47.4663 170.544 46.1749 169.926 44.3595C168.897 41.3462 169.383 38.7447 169.683 37.2662C170.207 34.5337 171.386 32.4936 172.284 31.2022Z" fill="#6D6C6C"/>
<path opacity="0.33" d="M155.796 39.7928C156.039 40.1671 156.937 41.6083 156.544 43.3488C156.058 45.4825 153.943 46.7364 152.109 46.9049C150.274 47.092 148.889 46.1749 148.478 45.8755C148.777 46.6616 149.32 47.8219 150.331 48.9449C153.119 52.0517 157.948 53.1747 161.99 51.8271C164.742 50.9101 166.464 49.0759 167.325 47.9904C167.268 47.3915 167.137 46.6616 166.875 45.8568C166.464 44.6028 165.865 43.667 165.378 43.0494C164.835 43.3301 164.311 43.6109 163.768 43.9103C162.702 43.7044 161.242 43.3114 159.651 42.5066C157.892 41.6457 156.638 40.5976 155.796 39.7928Z" fill="#6D6C6C"/>
<path d="M165.809 43.1055C166.875 42.5066 167.83 41.7954 168.709 40.9719C168.971 40.7286 168.578 40.3169 168.316 40.5789C167.474 41.3837 166.538 42.0575 165.528 42.6376C165.21 42.7874 165.49 43.274 165.809 43.1055V43.1055Z" fill="#323232"/>
<path d="M166.052 43.3676C167.1 42.5066 168.092 41.5896 169.046 40.635C169.308 40.373 168.897 39.98 168.653 40.242C167.699 41.1965 166.688 42.1136 165.659 42.9745C165.378 43.2178 165.771 43.6109 166.052 43.3676V43.3676Z" fill="#323232"/>
</svg>
